%TF.GenerationSoftware,KiCad,Pcbnew,9.0.0-9.0.0-2~ubuntu24.04.1*%
%TF.CreationDate,2025-03-30T21:44:26+02:00*%
%TF.ProjectId,1_robot,315f726f-626f-4742-9e6b-696361645f70,rev?*%
%TF.SameCoordinates,Original*%
%TF.FileFunction,Legend,Bot*%
%TF.FilePolarity,Positive*%
%FSLAX46Y46*%
G04 Gerber Fmt 4.6, Leading zero omitted, Abs format (unit mm)*
G04 Created by KiCad (PCBNEW 9.0.0-9.0.0-2~ubuntu24.04.1) date 2025-03-30 21:44:26*
%MOMM*%
%LPD*%
G01*
G04 APERTURE LIST*
%ADD10C,0.150000*%
%ADD11C,0.127000*%
G04 APERTURE END LIST*
D10*
X150920000Y-105401533D02*
X150720000Y-105468200D01*
X150720000Y-105468200D02*
X150653333Y-105534866D01*
X150653333Y-105534866D02*
X150586666Y-105668200D01*
X150586666Y-105668200D02*
X150586666Y-105868200D01*
X150586666Y-105868200D02*
X150653333Y-106001533D01*
X150653333Y-106001533D02*
X150720000Y-106068200D01*
X150720000Y-106068200D02*
X150853333Y-106134866D01*
X150853333Y-106134866D02*
X151386666Y-106134866D01*
X151386666Y-106134866D02*
X151386666Y-104734866D01*
X151386666Y-104734866D02*
X150920000Y-104734866D01*
X150920000Y-104734866D02*
X150786666Y-104801533D01*
X150786666Y-104801533D02*
X150720000Y-104868200D01*
X150720000Y-104868200D02*
X150653333Y-105001533D01*
X150653333Y-105001533D02*
X150653333Y-105134866D01*
X150653333Y-105134866D02*
X150720000Y-105268200D01*
X150720000Y-105268200D02*
X150786666Y-105334866D01*
X150786666Y-105334866D02*
X150920000Y-105401533D01*
X150920000Y-105401533D02*
X151386666Y-105401533D01*
X150186666Y-104734866D02*
X149386666Y-104734866D01*
X149786666Y-106134866D02*
X149786666Y-104734866D01*
X148186666Y-106134866D02*
X148986666Y-106134866D01*
X148586666Y-106134866D02*
X148586666Y-104734866D01*
X148586666Y-104734866D02*
X148719999Y-104934866D01*
X148719999Y-104934866D02*
X148853333Y-105068200D01*
X148853333Y-105068200D02*
X148986666Y-105134866D01*
D11*
%TO.C,BT1*%
X109070000Y-91495000D02*
X110070000Y-91495000D01*
X109070000Y-119495000D02*
X110070000Y-119495000D01*
X109570000Y-119995000D02*
X109570000Y-118995000D01*
X111290000Y-85605000D02*
X188350000Y-85605000D01*
X111290000Y-92445000D02*
X111290000Y-85605000D01*
X111290000Y-111445000D02*
X111290000Y-99545000D01*
X111290000Y-118545000D02*
X111290000Y-125385000D01*
X111290000Y-125385000D02*
X188350000Y-125385000D01*
X188350000Y-85605000D02*
X188350000Y-92445000D01*
X188350000Y-111445000D02*
X188350000Y-99545000D01*
X188350000Y-125385000D02*
X188350000Y-118545000D01*
X190070000Y-90995000D02*
X190070000Y-91995000D01*
X190570000Y-91495000D02*
X189570000Y-91495000D01*
X190570000Y-119495000D02*
X189570000Y-119495000D01*
%TD*%
M02*
