%TF.GenerationSoftware,KiCad,Pcbnew,9.0.0-9.0.0-2~ubuntu24.04.1*%
%TF.CreationDate,2025-03-30T21:44:27+02:00*%
%TF.ProjectId,1_robot,315f726f-626f-4742-9e6b-696361645f70,rev?*%
%TF.SameCoordinates,Original*%
%TF.FileFunction,Soldermask,Bot*%
%TF.FilePolarity,Negative*%
%FSLAX46Y46*%
G04 Gerber Fmt 4.6, Leading zero omitted, Abs format (unit mm)*
G04 Created by KiCad (PCBNEW 9.0.0-9.0.0-2~ubuntu24.04.1) date 2025-03-30 21:44:27*
%MOMM*%
%LPD*%
G01*
G04 APERTURE LIST*
G04 Aperture macros list*
%AMRoundRect*
0 Rectangle with rounded corners*
0 $1 Rounding radius*
0 $2 $3 $4 $5 $6 $7 $8 $9 X,Y pos of 4 corners*
0 Add a 4 corners polygon primitive as box body*
4,1,4,$2,$3,$4,$5,$6,$7,$8,$9,$2,$3,0*
0 Add four circle primitives for the rounded corners*
1,1,$1+$1,$2,$3*
1,1,$1+$1,$4,$5*
1,1,$1+$1,$6,$7*
1,1,$1+$1,$8,$9*
0 Add four rect primitives between the rounded corners*
20,1,$1+$1,$2,$3,$4,$5,0*
20,1,$1+$1,$4,$5,$6,$7,0*
20,1,$1+$1,$6,$7,$8,$9,0*
20,1,$1+$1,$8,$9,$2,$3,0*%
G04 Aperture macros list end*
%ADD10C,0.010000*%
%ADD11C,3.450000*%
%ADD12C,3.170000*%
%ADD13C,2.390000*%
%ADD14R,7.340000X6.350000*%
%ADD15O,1.950000X1.700000*%
%ADD16RoundRect,0.250000X-0.725000X0.600000X-0.725000X-0.600000X0.725000X-0.600000X0.725000X0.600000X0*%
%ADD17C,0.300000*%
%ADD18RoundRect,0.250000X0.725000X-0.600000X0.725000X0.600000X-0.725000X0.600000X-0.725000X-0.600000X0*%
%ADD19R,1.700000X1.700000*%
%ADD20O,1.700000X1.700000*%
%ADD21RoundRect,0.250000X0.750000X-0.600000X0.750000X0.600000X-0.750000X0.600000X-0.750000X-0.600000X0*%
%ADD22O,2.000000X1.700000*%
%ADD23O,1.800000X1.000000*%
%ADD24RoundRect,0.250000X-0.750000X0.600000X-0.750000X-0.600000X0.750000X-0.600000X0.750000X0.600000X0*%
G04 APERTURE END LIST*
D10*
%TO.C,J1*%
X103131000Y-50431000D02*
X103163000Y-50433000D01*
X103194000Y-50437000D01*
X103225000Y-50443000D01*
X103255000Y-50450000D01*
X103285000Y-50459000D01*
X103315000Y-50470000D01*
X103344000Y-50482000D01*
X103372000Y-50495000D01*
X103400000Y-50510000D01*
X103427000Y-50527000D01*
X103453000Y-50545000D01*
X103478000Y-50564000D01*
X103501000Y-50584000D01*
X103524000Y-50606000D01*
X103546000Y-50629000D01*
X103566000Y-50652000D01*
X103585000Y-50677000D01*
X103603000Y-50703000D01*
X103620000Y-50730000D01*
X103635000Y-50758000D01*
X103648000Y-50786000D01*
X103660000Y-50815000D01*
X103671000Y-50845000D01*
X103680000Y-50875000D01*
X103687000Y-50905000D01*
X103693000Y-50936000D01*
X103697000Y-50967000D01*
X103699000Y-50999000D01*
X103700000Y-51030000D01*
X103699000Y-51061000D01*
X103697000Y-51093000D01*
X103693000Y-51124000D01*
X103687000Y-51155000D01*
X103680000Y-51185000D01*
X103671000Y-51215000D01*
X103660000Y-51245000D01*
X103648000Y-51274000D01*
X103635000Y-51302000D01*
X103620000Y-51330000D01*
X103603000Y-51357000D01*
X103585000Y-51383000D01*
X103566000Y-51408000D01*
X103546000Y-51431000D01*
X103524000Y-51454000D01*
X103501000Y-51476000D01*
X103478000Y-51496000D01*
X103453000Y-51515000D01*
X103427000Y-51533000D01*
X103400000Y-51550000D01*
X103372000Y-51565000D01*
X103344000Y-51578000D01*
X103315000Y-51590000D01*
X103285000Y-51601000D01*
X103255000Y-51610000D01*
X103225000Y-51617000D01*
X103194000Y-51623000D01*
X103163000Y-51627000D01*
X103131000Y-51629000D01*
X103100000Y-51630000D01*
X102500000Y-51630000D01*
X101900000Y-51630000D01*
X101869000Y-51629000D01*
X101837000Y-51627000D01*
X101806000Y-51623000D01*
X101775000Y-51617000D01*
X101745000Y-51610000D01*
X101715000Y-51601000D01*
X101685000Y-51590000D01*
X101656000Y-51578000D01*
X101628000Y-51565000D01*
X101600000Y-51550000D01*
X101573000Y-51533000D01*
X101547000Y-51515000D01*
X101522000Y-51496000D01*
X101499000Y-51476000D01*
X101476000Y-51454000D01*
X101454000Y-51431000D01*
X101434000Y-51408000D01*
X101415000Y-51383000D01*
X101397000Y-51357000D01*
X101380000Y-51330000D01*
X101365000Y-51302000D01*
X101352000Y-51274000D01*
X101340000Y-51245000D01*
X101329000Y-51215000D01*
X101320000Y-51185000D01*
X101313000Y-51155000D01*
X101307000Y-51124000D01*
X101303000Y-51093000D01*
X101301000Y-51061000D01*
X101300000Y-51030000D01*
X101301000Y-50999000D01*
X101303000Y-50967000D01*
X101307000Y-50936000D01*
X101313000Y-50905000D01*
X101320000Y-50875000D01*
X101329000Y-50845000D01*
X101340000Y-50815000D01*
X101352000Y-50786000D01*
X101365000Y-50758000D01*
X101380000Y-50730000D01*
X101397000Y-50703000D01*
X101415000Y-50677000D01*
X101434000Y-50652000D01*
X101454000Y-50629000D01*
X101476000Y-50606000D01*
X101499000Y-50584000D01*
X101522000Y-50564000D01*
X101547000Y-50545000D01*
X101573000Y-50527000D01*
X101600000Y-50510000D01*
X101628000Y-50495000D01*
X101656000Y-50482000D01*
X101685000Y-50470000D01*
X101715000Y-50459000D01*
X101745000Y-50450000D01*
X101775000Y-50443000D01*
X101806000Y-50437000D01*
X101837000Y-50433000D01*
X101869000Y-50431000D01*
X101900000Y-50430000D01*
X102500000Y-50430000D01*
X103100000Y-50430000D01*
X103131000Y-50431000D01*
G36*
X103131000Y-50431000D02*
G01*
X103163000Y-50433000D01*
X103194000Y-50437000D01*
X103225000Y-50443000D01*
X103255000Y-50450000D01*
X103285000Y-50459000D01*
X103315000Y-50470000D01*
X103344000Y-50482000D01*
X103372000Y-50495000D01*
X103400000Y-50510000D01*
X103427000Y-50527000D01*
X103453000Y-50545000D01*
X103478000Y-50564000D01*
X103501000Y-50584000D01*
X103524000Y-50606000D01*
X103546000Y-50629000D01*
X103566000Y-50652000D01*
X103585000Y-50677000D01*
X103603000Y-50703000D01*
X103620000Y-50730000D01*
X103635000Y-50758000D01*
X103648000Y-50786000D01*
X103660000Y-50815000D01*
X103671000Y-50845000D01*
X103680000Y-50875000D01*
X103687000Y-50905000D01*
X103693000Y-50936000D01*
X103697000Y-50967000D01*
X103699000Y-50999000D01*
X103700000Y-51030000D01*
X103699000Y-51061000D01*
X103697000Y-51093000D01*
X103693000Y-51124000D01*
X103687000Y-51155000D01*
X103680000Y-51185000D01*
X103671000Y-51215000D01*
X103660000Y-51245000D01*
X103648000Y-51274000D01*
X103635000Y-51302000D01*
X103620000Y-51330000D01*
X103603000Y-51357000D01*
X103585000Y-51383000D01*
X103566000Y-51408000D01*
X103546000Y-51431000D01*
X103524000Y-51454000D01*
X103501000Y-51476000D01*
X103478000Y-51496000D01*
X103453000Y-51515000D01*
X103427000Y-51533000D01*
X103400000Y-51550000D01*
X103372000Y-51565000D01*
X103344000Y-51578000D01*
X103315000Y-51590000D01*
X103285000Y-51601000D01*
X103255000Y-51610000D01*
X103225000Y-51617000D01*
X103194000Y-51623000D01*
X103163000Y-51627000D01*
X103131000Y-51629000D01*
X103100000Y-51630000D01*
X102500000Y-51630000D01*
X101900000Y-51630000D01*
X101869000Y-51629000D01*
X101837000Y-51627000D01*
X101806000Y-51623000D01*
X101775000Y-51617000D01*
X101745000Y-51610000D01*
X101715000Y-51601000D01*
X101685000Y-51590000D01*
X101656000Y-51578000D01*
X101628000Y-51565000D01*
X101600000Y-51550000D01*
X101573000Y-51533000D01*
X101547000Y-51515000D01*
X101522000Y-51496000D01*
X101499000Y-51476000D01*
X101476000Y-51454000D01*
X101454000Y-51431000D01*
X101434000Y-51408000D01*
X101415000Y-51383000D01*
X101397000Y-51357000D01*
X101380000Y-51330000D01*
X101365000Y-51302000D01*
X101352000Y-51274000D01*
X101340000Y-51245000D01*
X101329000Y-51215000D01*
X101320000Y-51185000D01*
X101313000Y-51155000D01*
X101307000Y-51124000D01*
X101303000Y-51093000D01*
X101301000Y-51061000D01*
X101300000Y-51030000D01*
X101301000Y-50999000D01*
X101303000Y-50967000D01*
X101307000Y-50936000D01*
X101313000Y-50905000D01*
X101320000Y-50875000D01*
X101329000Y-50845000D01*
X101340000Y-50815000D01*
X101352000Y-50786000D01*
X101365000Y-50758000D01*
X101380000Y-50730000D01*
X101397000Y-50703000D01*
X101415000Y-50677000D01*
X101434000Y-50652000D01*
X101454000Y-50629000D01*
X101476000Y-50606000D01*
X101499000Y-50584000D01*
X101522000Y-50564000D01*
X101547000Y-50545000D01*
X101573000Y-50527000D01*
X101600000Y-50510000D01*
X101628000Y-50495000D01*
X101656000Y-50482000D01*
X101685000Y-50470000D01*
X101715000Y-50459000D01*
X101745000Y-50450000D01*
X101775000Y-50443000D01*
X101806000Y-50437000D01*
X101837000Y-50433000D01*
X101869000Y-50431000D01*
X101900000Y-50430000D01*
X102500000Y-50430000D01*
X103100000Y-50430000D01*
X103131000Y-50431000D01*
G37*
X103131000Y-59071000D02*
X103163000Y-59073000D01*
X103194000Y-59077000D01*
X103225000Y-59083000D01*
X103255000Y-59090000D01*
X103285000Y-59099000D01*
X103315000Y-59110000D01*
X103344000Y-59122000D01*
X103372000Y-59135000D01*
X103400000Y-59150000D01*
X103427000Y-59167000D01*
X103453000Y-59185000D01*
X103478000Y-59204000D01*
X103501000Y-59224000D01*
X103524000Y-59246000D01*
X103546000Y-59269000D01*
X103566000Y-59292000D01*
X103585000Y-59317000D01*
X103603000Y-59343000D01*
X103620000Y-59370000D01*
X103635000Y-59398000D01*
X103648000Y-59426000D01*
X103660000Y-59455000D01*
X103671000Y-59485000D01*
X103680000Y-59515000D01*
X103687000Y-59545000D01*
X103693000Y-59576000D01*
X103697000Y-59607000D01*
X103699000Y-59639000D01*
X103700000Y-59670000D01*
X103699000Y-59701000D01*
X103697000Y-59733000D01*
X103693000Y-59764000D01*
X103687000Y-59795000D01*
X103680000Y-59825000D01*
X103671000Y-59855000D01*
X103660000Y-59885000D01*
X103648000Y-59914000D01*
X103635000Y-59942000D01*
X103620000Y-59970000D01*
X103603000Y-59997000D01*
X103585000Y-60023000D01*
X103566000Y-60048000D01*
X103546000Y-60071000D01*
X103524000Y-60094000D01*
X103501000Y-60116000D01*
X103478000Y-60136000D01*
X103453000Y-60155000D01*
X103427000Y-60173000D01*
X103400000Y-60190000D01*
X103372000Y-60205000D01*
X103344000Y-60218000D01*
X103315000Y-60230000D01*
X103285000Y-60241000D01*
X103255000Y-60250000D01*
X103225000Y-60257000D01*
X103194000Y-60263000D01*
X103163000Y-60267000D01*
X103131000Y-60269000D01*
X103100000Y-60270000D01*
X102500000Y-60270000D01*
X101900000Y-60270000D01*
X101869000Y-60269000D01*
X101837000Y-60267000D01*
X101806000Y-60263000D01*
X101775000Y-60257000D01*
X101745000Y-60250000D01*
X101715000Y-60241000D01*
X101685000Y-60230000D01*
X101656000Y-60218000D01*
X101628000Y-60205000D01*
X101600000Y-60190000D01*
X101573000Y-60173000D01*
X101547000Y-60155000D01*
X101522000Y-60136000D01*
X101499000Y-60116000D01*
X101476000Y-60094000D01*
X101454000Y-60071000D01*
X101434000Y-60048000D01*
X101415000Y-60023000D01*
X101397000Y-59997000D01*
X101380000Y-59970000D01*
X101365000Y-59942000D01*
X101352000Y-59914000D01*
X101340000Y-59885000D01*
X101329000Y-59855000D01*
X101320000Y-59825000D01*
X101313000Y-59795000D01*
X101307000Y-59764000D01*
X101303000Y-59733000D01*
X101301000Y-59701000D01*
X101300000Y-59670000D01*
X101301000Y-59639000D01*
X101303000Y-59607000D01*
X101307000Y-59576000D01*
X101313000Y-59545000D01*
X101320000Y-59515000D01*
X101329000Y-59485000D01*
X101340000Y-59455000D01*
X101352000Y-59426000D01*
X101365000Y-59398000D01*
X101380000Y-59370000D01*
X101397000Y-59343000D01*
X101415000Y-59317000D01*
X101434000Y-59292000D01*
X101454000Y-59269000D01*
X101476000Y-59246000D01*
X101499000Y-59224000D01*
X101522000Y-59204000D01*
X101547000Y-59185000D01*
X101573000Y-59167000D01*
X101600000Y-59150000D01*
X101628000Y-59135000D01*
X101656000Y-59122000D01*
X101685000Y-59110000D01*
X101715000Y-59099000D01*
X101745000Y-59090000D01*
X101775000Y-59083000D01*
X101806000Y-59077000D01*
X101837000Y-59073000D01*
X101869000Y-59071000D01*
X101900000Y-59070000D01*
X102500000Y-59070000D01*
X103100000Y-59070000D01*
X103131000Y-59071000D01*
G36*
X103131000Y-59071000D02*
G01*
X103163000Y-59073000D01*
X103194000Y-59077000D01*
X103225000Y-59083000D01*
X103255000Y-59090000D01*
X103285000Y-59099000D01*
X103315000Y-59110000D01*
X103344000Y-59122000D01*
X103372000Y-59135000D01*
X103400000Y-59150000D01*
X103427000Y-59167000D01*
X103453000Y-59185000D01*
X103478000Y-59204000D01*
X103501000Y-59224000D01*
X103524000Y-59246000D01*
X103546000Y-59269000D01*
X103566000Y-59292000D01*
X103585000Y-59317000D01*
X103603000Y-59343000D01*
X103620000Y-59370000D01*
X103635000Y-59398000D01*
X103648000Y-59426000D01*
X103660000Y-59455000D01*
X103671000Y-59485000D01*
X103680000Y-59515000D01*
X103687000Y-59545000D01*
X103693000Y-59576000D01*
X103697000Y-59607000D01*
X103699000Y-59639000D01*
X103700000Y-59670000D01*
X103699000Y-59701000D01*
X103697000Y-59733000D01*
X103693000Y-59764000D01*
X103687000Y-59795000D01*
X103680000Y-59825000D01*
X103671000Y-59855000D01*
X103660000Y-59885000D01*
X103648000Y-59914000D01*
X103635000Y-59942000D01*
X103620000Y-59970000D01*
X103603000Y-59997000D01*
X103585000Y-60023000D01*
X103566000Y-60048000D01*
X103546000Y-60071000D01*
X103524000Y-60094000D01*
X103501000Y-60116000D01*
X103478000Y-60136000D01*
X103453000Y-60155000D01*
X103427000Y-60173000D01*
X103400000Y-60190000D01*
X103372000Y-60205000D01*
X103344000Y-60218000D01*
X103315000Y-60230000D01*
X103285000Y-60241000D01*
X103255000Y-60250000D01*
X103225000Y-60257000D01*
X103194000Y-60263000D01*
X103163000Y-60267000D01*
X103131000Y-60269000D01*
X103100000Y-60270000D01*
X102500000Y-60270000D01*
X101900000Y-60270000D01*
X101869000Y-60269000D01*
X101837000Y-60267000D01*
X101806000Y-60263000D01*
X101775000Y-60257000D01*
X101745000Y-60250000D01*
X101715000Y-60241000D01*
X101685000Y-60230000D01*
X101656000Y-60218000D01*
X101628000Y-60205000D01*
X101600000Y-60190000D01*
X101573000Y-60173000D01*
X101547000Y-60155000D01*
X101522000Y-60136000D01*
X101499000Y-60116000D01*
X101476000Y-60094000D01*
X101454000Y-60071000D01*
X101434000Y-60048000D01*
X101415000Y-60023000D01*
X101397000Y-59997000D01*
X101380000Y-59970000D01*
X101365000Y-59942000D01*
X101352000Y-59914000D01*
X101340000Y-59885000D01*
X101329000Y-59855000D01*
X101320000Y-59825000D01*
X101313000Y-59795000D01*
X101307000Y-59764000D01*
X101303000Y-59733000D01*
X101301000Y-59701000D01*
X101300000Y-59670000D01*
X101301000Y-59639000D01*
X101303000Y-59607000D01*
X101307000Y-59576000D01*
X101313000Y-59545000D01*
X101320000Y-59515000D01*
X101329000Y-59485000D01*
X101340000Y-59455000D01*
X101352000Y-59426000D01*
X101365000Y-59398000D01*
X101380000Y-59370000D01*
X101397000Y-59343000D01*
X101415000Y-59317000D01*
X101434000Y-59292000D01*
X101454000Y-59269000D01*
X101476000Y-59246000D01*
X101499000Y-59224000D01*
X101522000Y-59204000D01*
X101547000Y-59185000D01*
X101573000Y-59167000D01*
X101600000Y-59150000D01*
X101628000Y-59135000D01*
X101656000Y-59122000D01*
X101685000Y-59110000D01*
X101715000Y-59099000D01*
X101745000Y-59090000D01*
X101775000Y-59083000D01*
X101806000Y-59077000D01*
X101837000Y-59073000D01*
X101869000Y-59071000D01*
X101900000Y-59070000D01*
X102500000Y-59070000D01*
X103100000Y-59070000D01*
X103131000Y-59071000D01*
G37*
%TD*%
D11*
%TO.C,BT1*%
X122220000Y-87990000D03*
D12*
X122220000Y-105495000D03*
X177420000Y-105495000D03*
D11*
X177420000Y-123000000D03*
D13*
X185640000Y-87990000D03*
D14*
X189150000Y-115050000D03*
X110490000Y-95940000D03*
X110490000Y-115050000D03*
X189150000Y-95940000D03*
%TD*%
D15*
%TO.C,J10*%
X155500000Y-147000000D03*
X155500000Y-144500000D03*
X155500000Y-142000000D03*
D16*
X155500000Y-139500000D03*
%TD*%
D17*
%TO.C,U3*%
X161985000Y-132600000D03*
X163285000Y-132600000D03*
X161985000Y-133900000D03*
X163285000Y-133900000D03*
X161985000Y-135200000D03*
X163285000Y-135200000D03*
X161985000Y-136500000D03*
X163285000Y-136500000D03*
%TD*%
D18*
%TO.C,J4*%
X144500000Y-136500000D03*
D15*
X144500000Y-134000000D03*
X144500000Y-131500000D03*
X144500000Y-129000000D03*
%TD*%
D19*
%TO.C,J9*%
X175400000Y-58420000D03*
D20*
X177940000Y-58420000D03*
X175400000Y-60960000D03*
X177940000Y-60960000D03*
X175400000Y-63500000D03*
X177940000Y-63500000D03*
X175400000Y-66040000D03*
X177940000Y-66040000D03*
X175400000Y-68580000D03*
X177940000Y-68580000D03*
X175400000Y-71120000D03*
X177940000Y-71120000D03*
X175400000Y-73660000D03*
X177940000Y-73660000D03*
%TD*%
D17*
%TO.C,U2*%
X137000000Y-142700000D03*
X135700000Y-142700000D03*
X137000000Y-141400000D03*
X135700000Y-141400000D03*
X137000000Y-140100000D03*
X135700000Y-140100000D03*
X137000000Y-138800000D03*
X135700000Y-138800000D03*
%TD*%
D19*
%TO.C,J7*%
X131900000Y-58460000D03*
D20*
X134440000Y-58460000D03*
X131900000Y-61000000D03*
X134440000Y-61000000D03*
X131900000Y-63540000D03*
X134440000Y-63540000D03*
X131900000Y-66080000D03*
X134440000Y-66080000D03*
X131900000Y-68620000D03*
X134440000Y-68620000D03*
X131900000Y-71160000D03*
X134440000Y-71160000D03*
X131900000Y-73700000D03*
X134440000Y-73700000D03*
%TD*%
D21*
%TO.C,J3*%
X144500000Y-147000000D03*
D22*
X144500000Y-144500000D03*
%TD*%
D23*
%TO.C,J1*%
X106500000Y-51030000D03*
X106500000Y-59670000D03*
%TD*%
D19*
%TO.C,J11*%
X148680000Y-84440000D03*
D20*
X148680000Y-81900000D03*
X151220000Y-84440000D03*
X151220000Y-81900000D03*
X153760000Y-84440000D03*
X153760000Y-81900000D03*
X156300000Y-84440000D03*
X156300000Y-81900000D03*
X158840000Y-84440000D03*
X158840000Y-81900000D03*
X161380000Y-84440000D03*
X161380000Y-81900000D03*
%TD*%
D24*
%TO.C,J8*%
X155300000Y-129000000D03*
D22*
X155300000Y-131500000D03*
%TD*%
M02*
