%TF.GenerationSoftware,KiCad,Pcbnew,9.0.0-9.0.0-2~ubuntu24.04.1*%
%TF.CreationDate,2025-04-02T08:01:23+02:00*%
%TF.ProjectId,1_robot,315f726f-626f-4742-9e6b-696361645f70,rev?*%
%TF.SameCoordinates,Original*%
%TF.FileFunction,Paste,Top*%
%TF.FilePolarity,Positive*%
%FSLAX46Y46*%
G04 Gerber Fmt 4.6, Leading zero omitted, Abs format (unit mm)*
G04 Created by KiCad (PCBNEW 9.0.0-9.0.0-2~ubuntu24.04.1) date 2025-04-02 08:01:23*
%MOMM*%
%LPD*%
G01*
G04 APERTURE LIST*
G04 Aperture macros list*
%AMRoundRect*
0 Rectangle with rounded corners*
0 $1 Rounding radius*
0 $2 $3 $4 $5 $6 $7 $8 $9 X,Y pos of 4 corners*
0 Add a 4 corners polygon primitive as box body*
4,1,4,$2,$3,$4,$5,$6,$7,$8,$9,$2,$3,0*
0 Add four circle primitives for the rounded corners*
1,1,$1+$1,$2,$3*
1,1,$1+$1,$4,$5*
1,1,$1+$1,$6,$7*
1,1,$1+$1,$8,$9*
0 Add four rect primitives between the rounded corners*
20,1,$1+$1,$2,$3,$4,$5,0*
20,1,$1+$1,$4,$5,$6,$7,0*
20,1,$1+$1,$6,$7,$8,$9,0*
20,1,$1+$1,$8,$9,$2,$3,0*%
G04 Aperture macros list end*
%ADD10C,0.010000*%
%ADD11RoundRect,0.015000X-0.760000X-0.285000X0.760000X-0.285000X0.760000X0.285000X-0.760000X0.285000X0*%
%ADD12RoundRect,0.250000X0.475000X-0.337500X0.475000X0.337500X-0.475000X0.337500X-0.475000X-0.337500X0*%
%ADD13RoundRect,0.250000X0.450000X-0.350000X0.450000X0.350000X-0.450000X0.350000X-0.450000X-0.350000X0*%
%ADD14RoundRect,0.250000X-0.337500X-0.475000X0.337500X-0.475000X0.337500X0.475000X-0.337500X0.475000X0*%
%ADD15RoundRect,0.250000X0.350000X0.450000X-0.350000X0.450000X-0.350000X-0.450000X0.350000X-0.450000X0*%
%ADD16RoundRect,0.250000X-0.350000X-0.450000X0.350000X-0.450000X0.350000X0.450000X-0.350000X0.450000X0*%
%ADD17RoundRect,1.000000X1.000000X1.000000X-1.000000X1.000000X-1.000000X-1.000000X1.000000X-1.000000X0*%
%ADD18RoundRect,0.250000X-0.450000X0.350000X-0.450000X-0.350000X0.450000X-0.350000X0.450000X0.350000X0*%
%ADD19RoundRect,0.150000X0.587500X0.150000X-0.587500X0.150000X-0.587500X-0.150000X0.587500X-0.150000X0*%
%ADD20RoundRect,0.250000X0.337500X0.475000X-0.337500X0.475000X-0.337500X-0.475000X0.337500X-0.475000X0*%
%ADD21RoundRect,0.150000X-0.587500X-0.150000X0.587500X-0.150000X0.587500X0.150000X-0.587500X0.150000X0*%
%ADD22R,1.600000X1.400000*%
%ADD23RoundRect,0.262500X-0.612500X0.612500X-0.612500X-0.612500X0.612500X-0.612500X0.612500X0.612500X0*%
%ADD24RoundRect,0.150000X0.150000X-0.587500X0.150000X0.587500X-0.150000X0.587500X-0.150000X-0.587500X0*%
%ADD25RoundRect,0.375000X0.375000X-0.625000X0.375000X0.625000X-0.375000X0.625000X-0.375000X-0.625000X0*%
%ADD26RoundRect,0.500000X1.400000X-0.500000X1.400000X0.500000X-1.400000X0.500000X-1.400000X-0.500000X0*%
%ADD27RoundRect,0.250000X0.325000X0.450000X-0.325000X0.450000X-0.325000X-0.450000X0.325000X-0.450000X0*%
%ADD28RoundRect,1.000000X-1.000000X-1.000000X1.000000X-1.000000X1.000000X1.000000X-1.000000X1.000000X0*%
%ADD29R,1.600000X0.700000*%
%ADD30R,1.400000X1.200000*%
%ADD31R,1.400000X1.600000*%
%ADD32R,2.200000X1.200000*%
%ADD33RoundRect,0.250000X0.450000X-0.325000X0.450000X0.325000X-0.450000X0.325000X-0.450000X-0.325000X0*%
%ADD34RoundRect,0.250000X-0.475000X0.337500X-0.475000X-0.337500X0.475000X-0.337500X0.475000X0.337500X0*%
%ADD35R,0.900000X0.900000*%
%ADD36R,1.500000X0.900000*%
%ADD37R,0.900000X1.500000*%
%ADD38RoundRect,0.750000X-1.250000X-0.750000X1.250000X-0.750000X1.250000X0.750000X-1.250000X0.750000X0*%
%ADD39RoundRect,0.750000X0.750000X-1.250000X0.750000X1.250000X-0.750000X1.250000X-0.750000X-1.250000X0*%
%ADD40RoundRect,0.150000X0.150000X-0.675000X0.150000X0.675000X-0.150000X0.675000X-0.150000X-0.675000X0*%
%ADD41R,0.300000X0.750000*%
%ADD42R,0.750000X0.300000*%
%ADD43RoundRect,0.015000X0.760000X0.285000X-0.760000X0.285000X-0.760000X-0.285000X0.760000X-0.285000X0*%
%ADD44RoundRect,0.190500X-1.809500X-0.444500X1.809500X-0.444500X1.809500X0.444500X-1.809500X0.444500X0*%
%ADD45R,1.150000X0.600000*%
%ADD46R,1.150000X0.300000*%
G04 APERTURE END LIST*
D10*
%TO.C,U3*%
X163990000Y-136250000D02*
X161280000Y-136250000D01*
X161280000Y-132850000D01*
X163990000Y-132850000D01*
X163990000Y-136250000D01*
G36*
X163990000Y-136250000D02*
G01*
X161280000Y-136250000D01*
X161280000Y-132850000D01*
X163990000Y-132850000D01*
X163990000Y-136250000D01*
G37*
%TO.C,U5*%
X117100000Y-75925000D02*
X115400000Y-75925000D01*
X115400000Y-74225000D01*
X117100000Y-74225000D01*
X117100000Y-75925000D01*
G36*
X117100000Y-75925000D02*
G01*
X115400000Y-75925000D01*
X115400000Y-74225000D01*
X117100000Y-74225000D01*
X117100000Y-75925000D01*
G37*
%TO.C,U2*%
X137705000Y-142450000D02*
X134995000Y-142450000D01*
X134995000Y-139050000D01*
X137705000Y-139050000D01*
X137705000Y-142450000D01*
G36*
X137705000Y-142450000D02*
G01*
X134995000Y-142450000D01*
X134995000Y-139050000D01*
X137705000Y-139050000D01*
X137705000Y-142450000D01*
G37*
%TD*%
D11*
%TO.C,U3*%
X159935000Y-132645000D03*
X159935000Y-133915000D03*
X159935000Y-135185000D03*
X159935000Y-136455000D03*
X165335000Y-136455000D03*
X165335000Y-135185000D03*
X165335000Y-133915000D03*
X165335000Y-132645000D03*
%TD*%
D12*
%TO.C,C9*%
X141600000Y-59400000D03*
X141600000Y-57325000D03*
%TD*%
D13*
%TO.C,R18*%
X111200000Y-78100000D03*
X111200000Y-76100000D03*
%TD*%
D12*
%TO.C,C25*%
X171635000Y-126087500D03*
X171635000Y-124012500D03*
%TD*%
D14*
%TO.C,C24*%
X133662500Y-136600000D03*
X135737500Y-136600000D03*
%TD*%
D15*
%TO.C,R27*%
X138700000Y-77500000D03*
X136700000Y-77500000D03*
%TD*%
D12*
%TO.C,C14*%
X178000000Y-82837500D03*
X178000000Y-80762500D03*
%TD*%
D15*
%TO.C,R25*%
X113000000Y-56400000D03*
X111000000Y-56400000D03*
%TD*%
D16*
%TO.C,R6*%
X126000000Y-57000000D03*
X128000000Y-57000000D03*
%TD*%
D13*
%TO.C,R35*%
X192000000Y-82800000D03*
X192000000Y-80800000D03*
%TD*%
D17*
%TO.C,STP_UP1*%
X193000000Y-147700000D03*
X193000000Y-135700000D03*
X174000000Y-147700000D03*
X174000000Y-135700000D03*
%TD*%
D16*
%TO.C,R13*%
X111000000Y-58800000D03*
X113000000Y-58800000D03*
%TD*%
D18*
%TO.C,R17*%
X103000000Y-78000000D03*
X103000000Y-80000000D03*
%TD*%
D14*
%TO.C,C33*%
X146862500Y-99250000D03*
X148937500Y-99250000D03*
%TD*%
D19*
%TO.C,Q2*%
X111837500Y-131250000D03*
X111837500Y-129350000D03*
X109962500Y-130300000D03*
%TD*%
D16*
%TO.C,R5*%
X191700000Y-55700000D03*
X193700000Y-55700000D03*
%TD*%
D12*
%TO.C,C20*%
X108000000Y-65037500D03*
X108000000Y-62962500D03*
%TD*%
D14*
%TO.C,C21*%
X121212500Y-70825000D03*
X123287500Y-70825000D03*
%TD*%
D18*
%TO.C,R38*%
X156400000Y-88500000D03*
X156400000Y-90500000D03*
%TD*%
D20*
%TO.C,C1*%
X165322500Y-141350000D03*
X163247500Y-141350000D03*
%TD*%
D21*
%TO.C,Q1*%
X188000000Y-126000000D03*
X188000000Y-127900000D03*
X189875000Y-126950000D03*
%TD*%
D12*
%TO.C,C28*%
X118000000Y-58437500D03*
X118000000Y-56362500D03*
%TD*%
D22*
%TO.C,SW1*%
X121700000Y-54100000D03*
X128900000Y-54100000D03*
X121700000Y-51100000D03*
X128900000Y-51100000D03*
%TD*%
D15*
%TO.C,R9*%
X128250000Y-85000000D03*
X126250000Y-85000000D03*
%TD*%
D23*
%TO.C,BMI160*%
X187620000Y-92420000D03*
X185080000Y-92420000D03*
X182540000Y-92420000D03*
X180000000Y-92420000D03*
X177460000Y-92420000D03*
X174920000Y-92420000D03*
X172380000Y-92420000D03*
X185080000Y-102580000D03*
X182540000Y-102580000D03*
X180000000Y-102580000D03*
X177460000Y-102580000D03*
X174920000Y-102580000D03*
%TD*%
D13*
%TO.C,R19*%
X108000000Y-75000000D03*
X108000000Y-73000000D03*
%TD*%
D16*
%TO.C,R1*%
X155600000Y-94650000D03*
X157600000Y-94650000D03*
%TD*%
D14*
%TO.C,C26*%
X109825000Y-124200000D03*
X111900000Y-124200000D03*
%TD*%
D22*
%TO.C,SW2*%
X188300000Y-51100000D03*
X181100000Y-51100000D03*
X188300000Y-54100000D03*
X181100000Y-54100000D03*
%TD*%
D15*
%TO.C,R10*%
X128250000Y-78000000D03*
X126250000Y-78000000D03*
%TD*%
D24*
%TO.C,Q6*%
X102950000Y-69937500D03*
X104850000Y-69937500D03*
X103900000Y-68062500D03*
%TD*%
D25*
%TO.C,U14*%
X146600000Y-95350000D03*
X148900000Y-95350000D03*
D26*
X148900000Y-89050000D03*
D25*
X151200000Y-95350000D03*
%TD*%
D13*
%TO.C,R36*%
X188500000Y-82800000D03*
X188500000Y-80800000D03*
%TD*%
D12*
%TO.C,C8*%
X139600000Y-59400000D03*
X139600000Y-57325000D03*
%TD*%
D27*
%TO.C,D5*%
X119250000Y-80250000D03*
X117200000Y-80250000D03*
%TD*%
D14*
%TO.C,C10*%
X125962500Y-60000000D03*
X128037500Y-60000000D03*
%TD*%
D15*
%TO.C,R26*%
X144900000Y-77500000D03*
X142900000Y-77500000D03*
%TD*%
D28*
%TO.C,STP_UP2*%
X107000000Y-135700000D03*
X107000000Y-147700000D03*
X126000000Y-135700000D03*
X126000000Y-147700000D03*
%TD*%
D12*
%TO.C,C3*%
X118075000Y-67075000D03*
X118075000Y-65000000D03*
%TD*%
D29*
%TO.C,J2*%
X184900000Y-65100000D03*
X184900000Y-66200000D03*
X184900000Y-67300000D03*
X184900000Y-68400000D03*
X184900000Y-69500000D03*
X184900000Y-70600000D03*
X184900000Y-71700000D03*
X184900000Y-72800000D03*
X184900000Y-73900000D03*
D30*
X185400000Y-75100000D03*
D31*
X185400000Y-60500000D03*
D32*
X195000000Y-59600000D03*
X195000000Y-75100000D03*
%TD*%
D18*
%TO.C,R20*%
X108000000Y-68000000D03*
X108000000Y-70000000D03*
%TD*%
D33*
%TO.C,D4*%
X103000000Y-85025000D03*
X103000000Y-82975000D03*
%TD*%
D14*
%TO.C,C35*%
X126762500Y-98800000D03*
X128837500Y-98800000D03*
%TD*%
D34*
%TO.C,C15*%
X195500000Y-85962500D03*
X195500000Y-88037500D03*
%TD*%
%TO.C,C16*%
X192000000Y-85925000D03*
X192000000Y-88000000D03*
%TD*%
D35*
%TO.C,U1*%
X152100000Y-64060000D03*
X152100000Y-65460000D03*
X152100000Y-66860000D03*
X153500000Y-64060000D03*
X153500000Y-65460000D03*
X153500000Y-66860000D03*
X154900000Y-64060000D03*
X154900000Y-65460000D03*
X154900000Y-66860000D03*
D36*
X146250000Y-57740000D03*
X146250000Y-59010000D03*
X146250000Y-60280000D03*
X146250000Y-61550000D03*
X146250000Y-62820000D03*
X146250000Y-64090000D03*
X146250000Y-65360000D03*
X146250000Y-66630000D03*
X146250000Y-67900000D03*
X146250000Y-69170000D03*
X146250000Y-70440000D03*
X146250000Y-71710000D03*
X146250000Y-72980000D03*
X146250000Y-74250000D03*
D37*
X148015000Y-75500000D03*
X149285000Y-75500000D03*
X150555000Y-75500000D03*
X151825000Y-75500000D03*
X153095000Y-75500000D03*
X154365000Y-75500000D03*
X155635000Y-75500000D03*
X156905000Y-75500000D03*
X158175000Y-75500000D03*
X159445000Y-75500000D03*
X160715000Y-75500000D03*
X161985000Y-75500000D03*
D36*
X163750000Y-74250000D03*
X163750000Y-72980000D03*
X163750000Y-71710000D03*
X163750000Y-70440000D03*
X163750000Y-69170000D03*
X163750000Y-67900000D03*
X163750000Y-66630000D03*
X163750000Y-65360000D03*
X163750000Y-64090000D03*
X163750000Y-62820000D03*
X163750000Y-61550000D03*
X163750000Y-60280000D03*
X163750000Y-59010000D03*
X163750000Y-57740000D03*
%TD*%
D34*
%TO.C,C18*%
X118000000Y-51726000D03*
X118000000Y-53801000D03*
%TD*%
D38*
%TO.C,BMS1*%
X162000000Y-121000000D03*
D39*
X118000000Y-113000000D03*
D38*
X162000000Y-105000000D03*
X123500000Y-115500000D03*
X123500000Y-110500000D03*
%TD*%
D40*
%TO.C,U9*%
X160230000Y-94625000D03*
X161500000Y-94625000D03*
X161500000Y-88375000D03*
X160230000Y-88375000D03*
%TD*%
D12*
%TO.C,C22*%
X112000000Y-70037500D03*
X112000000Y-67962500D03*
%TD*%
D41*
%TO.C,U5*%
X115000000Y-77000000D03*
X115500000Y-77000000D03*
X116000000Y-77000000D03*
X116500000Y-77000000D03*
X117000000Y-77000000D03*
X117500000Y-77000000D03*
D42*
X118175000Y-76325000D03*
X118175000Y-75825000D03*
X118175000Y-75325000D03*
X118175000Y-74825000D03*
X118175000Y-74325000D03*
X118175000Y-73825000D03*
D41*
X117500000Y-73150000D03*
X117000000Y-73150000D03*
X116500000Y-73150000D03*
X116000000Y-73150000D03*
X115500000Y-73150000D03*
X115000000Y-73150000D03*
D42*
X114325000Y-73825000D03*
X114325000Y-74325000D03*
X114325000Y-74825000D03*
X114325000Y-75325000D03*
X114325000Y-75825000D03*
X114325000Y-76325000D03*
%TD*%
D18*
%TO.C,R28*%
X165500000Y-83400000D03*
X165500000Y-85400000D03*
%TD*%
D15*
%TO.C,R14*%
X132850000Y-85000000D03*
X130850000Y-85000000D03*
%TD*%
D43*
%TO.C,U2*%
X139050000Y-142655000D03*
X139050000Y-141385000D03*
X139050000Y-140115000D03*
X139050000Y-138845000D03*
X133650000Y-138845000D03*
X133650000Y-140115000D03*
X133650000Y-141385000D03*
X133650000Y-142655000D03*
%TD*%
D15*
%TO.C,R24*%
X113000000Y-53800000D03*
X111000000Y-53800000D03*
%TD*%
D25*
%TO.C,U13*%
X126500000Y-94950000D03*
X128800000Y-94950000D03*
D26*
X128800000Y-88650000D03*
D25*
X131100000Y-94950000D03*
%TD*%
D14*
%TO.C,C27*%
X109825000Y-127500000D03*
X111900000Y-127500000D03*
%TD*%
D15*
%TO.C,R7*%
X128250000Y-81500000D03*
X126250000Y-81500000D03*
%TD*%
D13*
%TO.C,R30*%
X181500000Y-82800000D03*
X181500000Y-80800000D03*
%TD*%
D20*
%TO.C,C34*%
X133637500Y-98800000D03*
X131562500Y-98800000D03*
%TD*%
%TO.C,C13*%
X188337500Y-56300000D03*
X186262500Y-56300000D03*
%TD*%
%TO.C,C12*%
X128037500Y-63000000D03*
X125962500Y-63000000D03*
%TD*%
D13*
%TO.C,R16*%
X121000000Y-67037500D03*
X121000000Y-65037500D03*
%TD*%
D44*
%TO.C,MPU6050*%
X189120000Y-108420000D03*
X189120000Y-110960000D03*
X189120000Y-113500000D03*
X189120000Y-116040000D03*
X189120000Y-118580000D03*
X171340000Y-108420000D03*
X171340000Y-110960000D03*
X171340000Y-113500000D03*
X171340000Y-116040000D03*
X171340000Y-118580000D03*
%TD*%
D34*
%TO.C,C19*%
X108000000Y-77962500D03*
X108000000Y-80037500D03*
%TD*%
D16*
%TO.C,R4*%
X191700000Y-52300000D03*
X193700000Y-52300000D03*
%TD*%
D45*
%TO.C,J1*%
X107075000Y-52150000D03*
X107075000Y-52950000D03*
D46*
X107075000Y-54100000D03*
X107075000Y-55100000D03*
X107075000Y-55600000D03*
X107075000Y-56600000D03*
D45*
X107075000Y-58550000D03*
X107075000Y-57750000D03*
D46*
X107075000Y-57100000D03*
X107075000Y-56100000D03*
X107075000Y-54600000D03*
X107075000Y-53600000D03*
%TD*%
D16*
%TO.C,R21*%
X115187500Y-83500000D03*
X117187500Y-83500000D03*
%TD*%
D20*
%TO.C,C31*%
X153237500Y-99250000D03*
X151162500Y-99250000D03*
%TD*%
D15*
%TO.C,R11*%
X132850000Y-81500000D03*
X130850000Y-81500000D03*
%TD*%
D13*
%TO.C,R39*%
X198800000Y-82800000D03*
X198800000Y-80800000D03*
%TD*%
D14*
%TO.C,C2*%
X133662500Y-134000000D03*
X135737500Y-134000000D03*
%TD*%
D20*
%TO.C,C23*%
X165322500Y-138750000D03*
X163247500Y-138750000D03*
%TD*%
D15*
%TO.C,R15*%
X132850000Y-78000000D03*
X130850000Y-78000000D03*
%TD*%
D16*
%TO.C,R12*%
X111000000Y-51400000D03*
X113000000Y-51400000D03*
%TD*%
D13*
%TO.C,R34*%
X195500000Y-82800000D03*
X195500000Y-80800000D03*
%TD*%
D12*
%TO.C,C17*%
X168200000Y-126075000D03*
X168200000Y-124000000D03*
%TD*%
D16*
%TO.C,R29*%
X121250000Y-73825000D03*
X123250000Y-73825000D03*
%TD*%
D13*
%TO.C,R37*%
X185000000Y-82800000D03*
X185000000Y-80800000D03*
%TD*%
D21*
%TO.C,Q5*%
X103025000Y-73050000D03*
X103025000Y-74950000D03*
X104900000Y-74000000D03*
%TD*%
D13*
%TO.C,R8*%
X174500000Y-82800000D03*
X174500000Y-80800000D03*
%TD*%
D15*
%TO.C,R31*%
X116750000Y-62100000D03*
X114750000Y-62100000D03*
%TD*%
M02*
