%TF.GenerationSoftware,KiCad,Pcbnew,9.0.0-9.0.0-2~ubuntu24.04.1*%
%TF.CreationDate,2025-04-02T08:01:24+02:00*%
%TF.ProjectId,1_robot,315f726f-626f-4742-9e6b-696361645f70,rev?*%
%TF.SameCoordinates,Original*%
%TF.FileFunction,Soldermask,Top*%
%TF.FilePolarity,Negative*%
%FSLAX46Y46*%
G04 Gerber Fmt 4.6, Leading zero omitted, Abs format (unit mm)*
G04 Created by KiCad (PCBNEW 9.0.0-9.0.0-2~ubuntu24.04.1) date 2025-04-02 08:01:24*
%MOMM*%
%LPD*%
G01*
G04 APERTURE LIST*
G04 Aperture macros list*
%AMRoundRect*
0 Rectangle with rounded corners*
0 $1 Rounding radius*
0 $2 $3 $4 $5 $6 $7 $8 $9 X,Y pos of 4 corners*
0 Add a 4 corners polygon primitive as box body*
4,1,4,$2,$3,$4,$5,$6,$7,$8,$9,$2,$3,0*
0 Add four circle primitives for the rounded corners*
1,1,$1+$1,$2,$3*
1,1,$1+$1,$4,$5*
1,1,$1+$1,$6,$7*
1,1,$1+$1,$8,$9*
0 Add four rect primitives between the rounded corners*
20,1,$1+$1,$2,$3,$4,$5,0*
20,1,$1+$1,$4,$5,$6,$7,0*
20,1,$1+$1,$6,$7,$8,$9,0*
20,1,$1+$1,$8,$9,$2,$3,0*%
G04 Aperture macros list end*
%ADD10C,0.010000*%
%ADD11C,0.504000*%
%ADD12RoundRect,0.250000X0.475000X-0.337500X0.475000X0.337500X-0.475000X0.337500X-0.475000X-0.337500X0*%
%ADD13RoundRect,0.250000X0.450000X-0.350000X0.450000X0.350000X-0.450000X0.350000X-0.450000X-0.350000X0*%
%ADD14RoundRect,0.250000X-0.337500X-0.475000X0.337500X-0.475000X0.337500X0.475000X-0.337500X0.475000X0*%
%ADD15RoundRect,0.250000X0.350000X0.450000X-0.350000X0.450000X-0.350000X-0.450000X0.350000X-0.450000X0*%
%ADD16RoundRect,0.250000X-0.350000X-0.450000X0.350000X-0.450000X0.350000X0.450000X-0.350000X0.450000X0*%
%ADD17RoundRect,1.000000X1.000000X1.000000X-1.000000X1.000000X-1.000000X-1.000000X1.000000X-1.000000X0*%
%ADD18RoundRect,0.250000X-0.450000X0.350000X-0.450000X-0.350000X0.450000X-0.350000X0.450000X0.350000X0*%
%ADD19RoundRect,0.150000X0.587500X0.150000X-0.587500X0.150000X-0.587500X-0.150000X0.587500X-0.150000X0*%
%ADD20RoundRect,0.250000X0.337500X0.475000X-0.337500X0.475000X-0.337500X-0.475000X0.337500X-0.475000X0*%
%ADD21RoundRect,0.150000X-0.587500X-0.150000X0.587500X-0.150000X0.587500X0.150000X-0.587500X0.150000X0*%
%ADD22RoundRect,0.102000X-0.800000X-0.700000X0.800000X-0.700000X0.800000X0.700000X-0.800000X0.700000X0*%
%ADD23RoundRect,0.262500X-0.612500X0.612500X-0.612500X-0.612500X0.612500X-0.612500X0.612500X0.612500X0*%
%ADD24RoundRect,0.102000X0.800000X0.700000X-0.800000X0.700000X-0.800000X-0.700000X0.800000X-0.700000X0*%
%ADD25RoundRect,0.150000X0.150000X-0.587500X0.150000X0.587500X-0.150000X0.587500X-0.150000X-0.587500X0*%
%ADD26RoundRect,0.375000X0.375000X-0.625000X0.375000X0.625000X-0.375000X0.625000X-0.375000X-0.625000X0*%
%ADD27RoundRect,0.500000X1.400000X-0.500000X1.400000X0.500000X-1.400000X0.500000X-1.400000X-0.500000X0*%
%ADD28RoundRect,0.250000X-0.725000X0.600000X-0.725000X-0.600000X0.725000X-0.600000X0.725000X0.600000X0*%
%ADD29O,1.950000X1.700000*%
%ADD30RoundRect,0.250000X0.325000X0.450000X-0.325000X0.450000X-0.325000X-0.450000X0.325000X-0.450000X0*%
%ADD31RoundRect,1.000000X-1.000000X-1.000000X1.000000X-1.000000X1.000000X1.000000X-1.000000X1.000000X0*%
%ADD32C,1.000000*%
%ADD33R,1.600000X0.700000*%
%ADD34R,1.400000X1.200000*%
%ADD35R,1.400000X1.600000*%
%ADD36R,2.200000X1.200000*%
%ADD37RoundRect,0.250000X0.450000X-0.325000X0.450000X0.325000X-0.450000X0.325000X-0.450000X-0.325000X0*%
%ADD38RoundRect,0.250000X-0.475000X0.337500X-0.475000X-0.337500X0.475000X-0.337500X0.475000X0.337500X0*%
%ADD39R,1.500000X0.900000*%
%ADD40R,0.900000X1.500000*%
%ADD41C,0.600000*%
%ADD42R,3.900000X3.900000*%
%ADD43RoundRect,0.250000X0.725000X-0.600000X0.725000X0.600000X-0.725000X0.600000X-0.725000X-0.600000X0*%
%ADD44RoundRect,0.750000X-1.250000X-0.750000X1.250000X-0.750000X1.250000X0.750000X-1.250000X0.750000X0*%
%ADD45RoundRect,0.750000X0.750000X-1.250000X0.750000X1.250000X-0.750000X1.250000X-0.750000X-1.250000X0*%
%ADD46RoundRect,0.150000X0.150000X-0.675000X0.150000X0.675000X-0.150000X0.675000X-0.150000X-0.675000X0*%
%ADD47RoundRect,0.102000X0.150000X-0.375000X0.150000X0.375000X-0.150000X0.375000X-0.150000X-0.375000X0*%
%ADD48RoundRect,0.102000X0.375000X-0.150000X0.375000X0.150000X-0.375000X0.150000X-0.375000X-0.150000X0*%
%ADD49RoundRect,0.102000X1.350000X-1.350000X1.350000X1.350000X-1.350000X1.350000X-1.350000X-1.350000X0*%
%ADD50R,1.700000X1.700000*%
%ADD51O,1.700000X1.700000*%
%ADD52RoundRect,0.190500X-1.809500X-0.444500X1.809500X-0.444500X1.809500X0.444500X-1.809500X0.444500X0*%
%ADD53RoundRect,0.250000X0.750000X-0.600000X0.750000X0.600000X-0.750000X0.600000X-0.750000X-0.600000X0*%
%ADD54O,2.000000X1.700000*%
%ADD55RoundRect,0.102000X-0.575000X0.300000X-0.575000X-0.300000X0.575000X-0.300000X0.575000X0.300000X0*%
%ADD56RoundRect,0.102000X-0.575000X0.150000X-0.575000X-0.150000X0.575000X-0.150000X0.575000X0.150000X0*%
%ADD57O,2.004000X1.204000*%
%ADD58RoundRect,0.250000X-0.750000X0.600000X-0.750000X-0.600000X0.750000X-0.600000X0.750000X0.600000X0*%
%ADD59C,3.450000*%
%ADD60C,3.170000*%
%ADD61C,2.390000*%
G04 APERTURE END LIST*
D10*
%TO.C,U3*%
X163990000Y-136250000D02*
X161280000Y-136250000D01*
X161280000Y-132850000D01*
X163990000Y-132850000D01*
X163990000Y-136250000D01*
G36*
X163990000Y-136250000D02*
G01*
X161280000Y-136250000D01*
X161280000Y-132850000D01*
X163990000Y-132850000D01*
X163990000Y-136250000D01*
G37*
X160738000Y-132276000D02*
X160740000Y-132276000D01*
X160743000Y-132277000D01*
X160745000Y-132277000D01*
X160748000Y-132278000D01*
X160750000Y-132279000D01*
X160753000Y-132280000D01*
X160755000Y-132282000D01*
X160757000Y-132283000D01*
X160759000Y-132285000D01*
X160761000Y-132286000D01*
X160763000Y-132288000D01*
X160765000Y-132290000D01*
X160767000Y-132292000D01*
X160769000Y-132294000D01*
X160770000Y-132296000D01*
X160772000Y-132298000D01*
X160773000Y-132300000D01*
X160775000Y-132302000D01*
X160776000Y-132305000D01*
X160777000Y-132307000D01*
X160778000Y-132310000D01*
X160778000Y-132312000D01*
X160779000Y-132315000D01*
X160779000Y-132317000D01*
X160780000Y-132320000D01*
X160780000Y-132322000D01*
X160780000Y-132325000D01*
X160780000Y-132965000D01*
X160780000Y-132968000D01*
X160780000Y-132970000D01*
X160779000Y-132973000D01*
X160779000Y-132975000D01*
X160778000Y-132978000D01*
X160778000Y-132980000D01*
X160777000Y-132983000D01*
X160776000Y-132985000D01*
X160775000Y-132988000D01*
X160773000Y-132990000D01*
X160772000Y-132992000D01*
X160770000Y-132994000D01*
X160769000Y-132996000D01*
X160767000Y-132998000D01*
X160765000Y-133000000D01*
X160763000Y-133002000D01*
X160761000Y-133004000D01*
X160759000Y-133005000D01*
X160757000Y-133007000D01*
X160755000Y-133008000D01*
X160753000Y-133010000D01*
X160750000Y-133011000D01*
X160748000Y-133012000D01*
X160745000Y-133013000D01*
X160743000Y-133013000D01*
X160740000Y-133014000D01*
X160738000Y-133014000D01*
X160735000Y-133015000D01*
X160733000Y-133015000D01*
X160730000Y-133015000D01*
X159140000Y-133015000D01*
X159137000Y-133015000D01*
X159135000Y-133015000D01*
X159132000Y-133014000D01*
X159130000Y-133014000D01*
X159127000Y-133013000D01*
X159125000Y-133013000D01*
X159122000Y-133012000D01*
X159120000Y-133011000D01*
X159117000Y-133010000D01*
X159115000Y-133008000D01*
X159113000Y-133007000D01*
X159111000Y-133005000D01*
X159109000Y-133004000D01*
X159107000Y-133002000D01*
X159105000Y-133000000D01*
X159103000Y-132998000D01*
X159101000Y-132996000D01*
X159100000Y-132994000D01*
X159098000Y-132992000D01*
X159097000Y-132990000D01*
X159095000Y-132988000D01*
X159094000Y-132985000D01*
X159093000Y-132983000D01*
X159092000Y-132980000D01*
X159092000Y-132978000D01*
X159091000Y-132975000D01*
X159091000Y-132973000D01*
X159090000Y-132970000D01*
X159090000Y-132968000D01*
X159090000Y-132965000D01*
X159090000Y-132325000D01*
X159090000Y-132322000D01*
X159090000Y-132320000D01*
X159091000Y-132317000D01*
X159091000Y-132315000D01*
X159092000Y-132312000D01*
X159092000Y-132310000D01*
X159093000Y-132307000D01*
X159094000Y-132305000D01*
X159095000Y-132302000D01*
X159097000Y-132300000D01*
X159098000Y-132298000D01*
X159100000Y-132296000D01*
X159101000Y-132294000D01*
X159103000Y-132292000D01*
X159105000Y-132290000D01*
X159107000Y-132288000D01*
X159109000Y-132286000D01*
X159111000Y-132285000D01*
X159113000Y-132283000D01*
X159115000Y-132282000D01*
X159117000Y-132280000D01*
X159120000Y-132279000D01*
X159122000Y-132278000D01*
X159125000Y-132277000D01*
X159127000Y-132277000D01*
X159130000Y-132276000D01*
X159132000Y-132276000D01*
X159135000Y-132275000D01*
X159137000Y-132275000D01*
X159140000Y-132275000D01*
X160730000Y-132275000D01*
X160733000Y-132275000D01*
X160735000Y-132275000D01*
X160738000Y-132276000D01*
G36*
X160738000Y-132276000D02*
G01*
X160740000Y-132276000D01*
X160743000Y-132277000D01*
X160745000Y-132277000D01*
X160748000Y-132278000D01*
X160750000Y-132279000D01*
X160753000Y-132280000D01*
X160755000Y-132282000D01*
X160757000Y-132283000D01*
X160759000Y-132285000D01*
X160761000Y-132286000D01*
X160763000Y-132288000D01*
X160765000Y-132290000D01*
X160767000Y-132292000D01*
X160769000Y-132294000D01*
X160770000Y-132296000D01*
X160772000Y-132298000D01*
X160773000Y-132300000D01*
X160775000Y-132302000D01*
X160776000Y-132305000D01*
X160777000Y-132307000D01*
X160778000Y-132310000D01*
X160778000Y-132312000D01*
X160779000Y-132315000D01*
X160779000Y-132317000D01*
X160780000Y-132320000D01*
X160780000Y-132322000D01*
X160780000Y-132325000D01*
X160780000Y-132965000D01*
X160780000Y-132968000D01*
X160780000Y-132970000D01*
X160779000Y-132973000D01*
X160779000Y-132975000D01*
X160778000Y-132978000D01*
X160778000Y-132980000D01*
X160777000Y-132983000D01*
X160776000Y-132985000D01*
X160775000Y-132988000D01*
X160773000Y-132990000D01*
X160772000Y-132992000D01*
X160770000Y-132994000D01*
X160769000Y-132996000D01*
X160767000Y-132998000D01*
X160765000Y-133000000D01*
X160763000Y-133002000D01*
X160761000Y-133004000D01*
X160759000Y-133005000D01*
X160757000Y-133007000D01*
X160755000Y-133008000D01*
X160753000Y-133010000D01*
X160750000Y-133011000D01*
X160748000Y-133012000D01*
X160745000Y-133013000D01*
X160743000Y-133013000D01*
X160740000Y-133014000D01*
X160738000Y-133014000D01*
X160735000Y-133015000D01*
X160733000Y-133015000D01*
X160730000Y-133015000D01*
X159140000Y-133015000D01*
X159137000Y-133015000D01*
X159135000Y-133015000D01*
X159132000Y-133014000D01*
X159130000Y-133014000D01*
X159127000Y-133013000D01*
X159125000Y-133013000D01*
X159122000Y-133012000D01*
X159120000Y-133011000D01*
X159117000Y-133010000D01*
X159115000Y-133008000D01*
X159113000Y-133007000D01*
X159111000Y-133005000D01*
X159109000Y-133004000D01*
X159107000Y-133002000D01*
X159105000Y-133000000D01*
X159103000Y-132998000D01*
X159101000Y-132996000D01*
X159100000Y-132994000D01*
X159098000Y-132992000D01*
X159097000Y-132990000D01*
X159095000Y-132988000D01*
X159094000Y-132985000D01*
X159093000Y-132983000D01*
X159092000Y-132980000D01*
X159092000Y-132978000D01*
X159091000Y-132975000D01*
X159091000Y-132973000D01*
X159090000Y-132970000D01*
X159090000Y-132968000D01*
X159090000Y-132965000D01*
X159090000Y-132325000D01*
X159090000Y-132322000D01*
X159090000Y-132320000D01*
X159091000Y-132317000D01*
X159091000Y-132315000D01*
X159092000Y-132312000D01*
X159092000Y-132310000D01*
X159093000Y-132307000D01*
X159094000Y-132305000D01*
X159095000Y-132302000D01*
X159097000Y-132300000D01*
X159098000Y-132298000D01*
X159100000Y-132296000D01*
X159101000Y-132294000D01*
X159103000Y-132292000D01*
X159105000Y-132290000D01*
X159107000Y-132288000D01*
X159109000Y-132286000D01*
X159111000Y-132285000D01*
X159113000Y-132283000D01*
X159115000Y-132282000D01*
X159117000Y-132280000D01*
X159120000Y-132279000D01*
X159122000Y-132278000D01*
X159125000Y-132277000D01*
X159127000Y-132277000D01*
X159130000Y-132276000D01*
X159132000Y-132276000D01*
X159135000Y-132275000D01*
X159137000Y-132275000D01*
X159140000Y-132275000D01*
X160730000Y-132275000D01*
X160733000Y-132275000D01*
X160735000Y-132275000D01*
X160738000Y-132276000D01*
G37*
X160738000Y-133546000D02*
X160740000Y-133546000D01*
X160743000Y-133547000D01*
X160745000Y-133547000D01*
X160748000Y-133548000D01*
X160750000Y-133549000D01*
X160753000Y-133550000D01*
X160755000Y-133552000D01*
X160757000Y-133553000D01*
X160759000Y-133555000D01*
X160761000Y-133556000D01*
X160763000Y-133558000D01*
X160765000Y-133560000D01*
X160767000Y-133562000D01*
X160769000Y-133564000D01*
X160770000Y-133566000D01*
X160772000Y-133568000D01*
X160773000Y-133570000D01*
X160775000Y-133572000D01*
X160776000Y-133575000D01*
X160777000Y-133577000D01*
X160778000Y-133580000D01*
X160778000Y-133582000D01*
X160779000Y-133585000D01*
X160779000Y-133587000D01*
X160780000Y-133590000D01*
X160780000Y-133592000D01*
X160780000Y-133595000D01*
X160780000Y-134235000D01*
X160780000Y-134238000D01*
X160780000Y-134240000D01*
X160779000Y-134243000D01*
X160779000Y-134245000D01*
X160778000Y-134248000D01*
X160778000Y-134250000D01*
X160777000Y-134253000D01*
X160776000Y-134255000D01*
X160775000Y-134258000D01*
X160773000Y-134260000D01*
X160772000Y-134262000D01*
X160770000Y-134264000D01*
X160769000Y-134266000D01*
X160767000Y-134268000D01*
X160765000Y-134270000D01*
X160763000Y-134272000D01*
X160761000Y-134274000D01*
X160759000Y-134275000D01*
X160757000Y-134277000D01*
X160755000Y-134278000D01*
X160753000Y-134280000D01*
X160750000Y-134281000D01*
X160748000Y-134282000D01*
X160745000Y-134283000D01*
X160743000Y-134283000D01*
X160740000Y-134284000D01*
X160738000Y-134284000D01*
X160735000Y-134285000D01*
X160733000Y-134285000D01*
X160730000Y-134285000D01*
X159140000Y-134285000D01*
X159137000Y-134285000D01*
X159135000Y-134285000D01*
X159132000Y-134284000D01*
X159130000Y-134284000D01*
X159127000Y-134283000D01*
X159125000Y-134283000D01*
X159122000Y-134282000D01*
X159120000Y-134281000D01*
X159117000Y-134280000D01*
X159115000Y-134278000D01*
X159113000Y-134277000D01*
X159111000Y-134275000D01*
X159109000Y-134274000D01*
X159107000Y-134272000D01*
X159105000Y-134270000D01*
X159103000Y-134268000D01*
X159101000Y-134266000D01*
X159100000Y-134264000D01*
X159098000Y-134262000D01*
X159097000Y-134260000D01*
X159095000Y-134258000D01*
X159094000Y-134255000D01*
X159093000Y-134253000D01*
X159092000Y-134250000D01*
X159092000Y-134248000D01*
X159091000Y-134245000D01*
X159091000Y-134243000D01*
X159090000Y-134240000D01*
X159090000Y-134238000D01*
X159090000Y-134235000D01*
X159090000Y-133595000D01*
X159090000Y-133592000D01*
X159090000Y-133590000D01*
X159091000Y-133587000D01*
X159091000Y-133585000D01*
X159092000Y-133582000D01*
X159092000Y-133580000D01*
X159093000Y-133577000D01*
X159094000Y-133575000D01*
X159095000Y-133572000D01*
X159097000Y-133570000D01*
X159098000Y-133568000D01*
X159100000Y-133566000D01*
X159101000Y-133564000D01*
X159103000Y-133562000D01*
X159105000Y-133560000D01*
X159107000Y-133558000D01*
X159109000Y-133556000D01*
X159111000Y-133555000D01*
X159113000Y-133553000D01*
X159115000Y-133552000D01*
X159117000Y-133550000D01*
X159120000Y-133549000D01*
X159122000Y-133548000D01*
X159125000Y-133547000D01*
X159127000Y-133547000D01*
X159130000Y-133546000D01*
X159132000Y-133546000D01*
X159135000Y-133545000D01*
X159137000Y-133545000D01*
X159140000Y-133545000D01*
X160730000Y-133545000D01*
X160733000Y-133545000D01*
X160735000Y-133545000D01*
X160738000Y-133546000D01*
G36*
X160738000Y-133546000D02*
G01*
X160740000Y-133546000D01*
X160743000Y-133547000D01*
X160745000Y-133547000D01*
X160748000Y-133548000D01*
X160750000Y-133549000D01*
X160753000Y-133550000D01*
X160755000Y-133552000D01*
X160757000Y-133553000D01*
X160759000Y-133555000D01*
X160761000Y-133556000D01*
X160763000Y-133558000D01*
X160765000Y-133560000D01*
X160767000Y-133562000D01*
X160769000Y-133564000D01*
X160770000Y-133566000D01*
X160772000Y-133568000D01*
X160773000Y-133570000D01*
X160775000Y-133572000D01*
X160776000Y-133575000D01*
X160777000Y-133577000D01*
X160778000Y-133580000D01*
X160778000Y-133582000D01*
X160779000Y-133585000D01*
X160779000Y-133587000D01*
X160780000Y-133590000D01*
X160780000Y-133592000D01*
X160780000Y-133595000D01*
X160780000Y-134235000D01*
X160780000Y-134238000D01*
X160780000Y-134240000D01*
X160779000Y-134243000D01*
X160779000Y-134245000D01*
X160778000Y-134248000D01*
X160778000Y-134250000D01*
X160777000Y-134253000D01*
X160776000Y-134255000D01*
X160775000Y-134258000D01*
X160773000Y-134260000D01*
X160772000Y-134262000D01*
X160770000Y-134264000D01*
X160769000Y-134266000D01*
X160767000Y-134268000D01*
X160765000Y-134270000D01*
X160763000Y-134272000D01*
X160761000Y-134274000D01*
X160759000Y-134275000D01*
X160757000Y-134277000D01*
X160755000Y-134278000D01*
X160753000Y-134280000D01*
X160750000Y-134281000D01*
X160748000Y-134282000D01*
X160745000Y-134283000D01*
X160743000Y-134283000D01*
X160740000Y-134284000D01*
X160738000Y-134284000D01*
X160735000Y-134285000D01*
X160733000Y-134285000D01*
X160730000Y-134285000D01*
X159140000Y-134285000D01*
X159137000Y-134285000D01*
X159135000Y-134285000D01*
X159132000Y-134284000D01*
X159130000Y-134284000D01*
X159127000Y-134283000D01*
X159125000Y-134283000D01*
X159122000Y-134282000D01*
X159120000Y-134281000D01*
X159117000Y-134280000D01*
X159115000Y-134278000D01*
X159113000Y-134277000D01*
X159111000Y-134275000D01*
X159109000Y-134274000D01*
X159107000Y-134272000D01*
X159105000Y-134270000D01*
X159103000Y-134268000D01*
X159101000Y-134266000D01*
X159100000Y-134264000D01*
X159098000Y-134262000D01*
X159097000Y-134260000D01*
X159095000Y-134258000D01*
X159094000Y-134255000D01*
X159093000Y-134253000D01*
X159092000Y-134250000D01*
X159092000Y-134248000D01*
X159091000Y-134245000D01*
X159091000Y-134243000D01*
X159090000Y-134240000D01*
X159090000Y-134238000D01*
X159090000Y-134235000D01*
X159090000Y-133595000D01*
X159090000Y-133592000D01*
X159090000Y-133590000D01*
X159091000Y-133587000D01*
X159091000Y-133585000D01*
X159092000Y-133582000D01*
X159092000Y-133580000D01*
X159093000Y-133577000D01*
X159094000Y-133575000D01*
X159095000Y-133572000D01*
X159097000Y-133570000D01*
X159098000Y-133568000D01*
X159100000Y-133566000D01*
X159101000Y-133564000D01*
X159103000Y-133562000D01*
X159105000Y-133560000D01*
X159107000Y-133558000D01*
X159109000Y-133556000D01*
X159111000Y-133555000D01*
X159113000Y-133553000D01*
X159115000Y-133552000D01*
X159117000Y-133550000D01*
X159120000Y-133549000D01*
X159122000Y-133548000D01*
X159125000Y-133547000D01*
X159127000Y-133547000D01*
X159130000Y-133546000D01*
X159132000Y-133546000D01*
X159135000Y-133545000D01*
X159137000Y-133545000D01*
X159140000Y-133545000D01*
X160730000Y-133545000D01*
X160733000Y-133545000D01*
X160735000Y-133545000D01*
X160738000Y-133546000D01*
G37*
X160738000Y-134816000D02*
X160740000Y-134816000D01*
X160743000Y-134817000D01*
X160745000Y-134817000D01*
X160748000Y-134818000D01*
X160750000Y-134819000D01*
X160753000Y-134820000D01*
X160755000Y-134822000D01*
X160757000Y-134823000D01*
X160759000Y-134825000D01*
X160761000Y-134826000D01*
X160763000Y-134828000D01*
X160765000Y-134830000D01*
X160767000Y-134832000D01*
X160769000Y-134834000D01*
X160770000Y-134836000D01*
X160772000Y-134838000D01*
X160773000Y-134840000D01*
X160775000Y-134842000D01*
X160776000Y-134845000D01*
X160777000Y-134847000D01*
X160778000Y-134850000D01*
X160778000Y-134852000D01*
X160779000Y-134855000D01*
X160779000Y-134857000D01*
X160780000Y-134860000D01*
X160780000Y-134862000D01*
X160780000Y-134865000D01*
X160780000Y-135505000D01*
X160780000Y-135508000D01*
X160780000Y-135510000D01*
X160779000Y-135513000D01*
X160779000Y-135515000D01*
X160778000Y-135518000D01*
X160778000Y-135520000D01*
X160777000Y-135523000D01*
X160776000Y-135525000D01*
X160775000Y-135528000D01*
X160773000Y-135530000D01*
X160772000Y-135532000D01*
X160770000Y-135534000D01*
X160769000Y-135536000D01*
X160767000Y-135538000D01*
X160765000Y-135540000D01*
X160763000Y-135542000D01*
X160761000Y-135544000D01*
X160759000Y-135545000D01*
X160757000Y-135547000D01*
X160755000Y-135548000D01*
X160753000Y-135550000D01*
X160750000Y-135551000D01*
X160748000Y-135552000D01*
X160745000Y-135553000D01*
X160743000Y-135553000D01*
X160740000Y-135554000D01*
X160738000Y-135554000D01*
X160735000Y-135555000D01*
X160733000Y-135555000D01*
X160730000Y-135555000D01*
X159140000Y-135555000D01*
X159137000Y-135555000D01*
X159135000Y-135555000D01*
X159132000Y-135554000D01*
X159130000Y-135554000D01*
X159127000Y-135553000D01*
X159125000Y-135553000D01*
X159122000Y-135552000D01*
X159120000Y-135551000D01*
X159117000Y-135550000D01*
X159115000Y-135548000D01*
X159113000Y-135547000D01*
X159111000Y-135545000D01*
X159109000Y-135544000D01*
X159107000Y-135542000D01*
X159105000Y-135540000D01*
X159103000Y-135538000D01*
X159101000Y-135536000D01*
X159100000Y-135534000D01*
X159098000Y-135532000D01*
X159097000Y-135530000D01*
X159095000Y-135528000D01*
X159094000Y-135525000D01*
X159093000Y-135523000D01*
X159092000Y-135520000D01*
X159092000Y-135518000D01*
X159091000Y-135515000D01*
X159091000Y-135513000D01*
X159090000Y-135510000D01*
X159090000Y-135508000D01*
X159090000Y-135505000D01*
X159090000Y-134865000D01*
X159090000Y-134862000D01*
X159090000Y-134860000D01*
X159091000Y-134857000D01*
X159091000Y-134855000D01*
X159092000Y-134852000D01*
X159092000Y-134850000D01*
X159093000Y-134847000D01*
X159094000Y-134845000D01*
X159095000Y-134842000D01*
X159097000Y-134840000D01*
X159098000Y-134838000D01*
X159100000Y-134836000D01*
X159101000Y-134834000D01*
X159103000Y-134832000D01*
X159105000Y-134830000D01*
X159107000Y-134828000D01*
X159109000Y-134826000D01*
X159111000Y-134825000D01*
X159113000Y-134823000D01*
X159115000Y-134822000D01*
X159117000Y-134820000D01*
X159120000Y-134819000D01*
X159122000Y-134818000D01*
X159125000Y-134817000D01*
X159127000Y-134817000D01*
X159130000Y-134816000D01*
X159132000Y-134816000D01*
X159135000Y-134815000D01*
X159137000Y-134815000D01*
X159140000Y-134815000D01*
X160730000Y-134815000D01*
X160733000Y-134815000D01*
X160735000Y-134815000D01*
X160738000Y-134816000D01*
G36*
X160738000Y-134816000D02*
G01*
X160740000Y-134816000D01*
X160743000Y-134817000D01*
X160745000Y-134817000D01*
X160748000Y-134818000D01*
X160750000Y-134819000D01*
X160753000Y-134820000D01*
X160755000Y-134822000D01*
X160757000Y-134823000D01*
X160759000Y-134825000D01*
X160761000Y-134826000D01*
X160763000Y-134828000D01*
X160765000Y-134830000D01*
X160767000Y-134832000D01*
X160769000Y-134834000D01*
X160770000Y-134836000D01*
X160772000Y-134838000D01*
X160773000Y-134840000D01*
X160775000Y-134842000D01*
X160776000Y-134845000D01*
X160777000Y-134847000D01*
X160778000Y-134850000D01*
X160778000Y-134852000D01*
X160779000Y-134855000D01*
X160779000Y-134857000D01*
X160780000Y-134860000D01*
X160780000Y-134862000D01*
X160780000Y-134865000D01*
X160780000Y-135505000D01*
X160780000Y-135508000D01*
X160780000Y-135510000D01*
X160779000Y-135513000D01*
X160779000Y-135515000D01*
X160778000Y-135518000D01*
X160778000Y-135520000D01*
X160777000Y-135523000D01*
X160776000Y-135525000D01*
X160775000Y-135528000D01*
X160773000Y-135530000D01*
X160772000Y-135532000D01*
X160770000Y-135534000D01*
X160769000Y-135536000D01*
X160767000Y-135538000D01*
X160765000Y-135540000D01*
X160763000Y-135542000D01*
X160761000Y-135544000D01*
X160759000Y-135545000D01*
X160757000Y-135547000D01*
X160755000Y-135548000D01*
X160753000Y-135550000D01*
X160750000Y-135551000D01*
X160748000Y-135552000D01*
X160745000Y-135553000D01*
X160743000Y-135553000D01*
X160740000Y-135554000D01*
X160738000Y-135554000D01*
X160735000Y-135555000D01*
X160733000Y-135555000D01*
X160730000Y-135555000D01*
X159140000Y-135555000D01*
X159137000Y-135555000D01*
X159135000Y-135555000D01*
X159132000Y-135554000D01*
X159130000Y-135554000D01*
X159127000Y-135553000D01*
X159125000Y-135553000D01*
X159122000Y-135552000D01*
X159120000Y-135551000D01*
X159117000Y-135550000D01*
X159115000Y-135548000D01*
X159113000Y-135547000D01*
X159111000Y-135545000D01*
X159109000Y-135544000D01*
X159107000Y-135542000D01*
X159105000Y-135540000D01*
X159103000Y-135538000D01*
X159101000Y-135536000D01*
X159100000Y-135534000D01*
X159098000Y-135532000D01*
X159097000Y-135530000D01*
X159095000Y-135528000D01*
X159094000Y-135525000D01*
X159093000Y-135523000D01*
X159092000Y-135520000D01*
X159092000Y-135518000D01*
X159091000Y-135515000D01*
X159091000Y-135513000D01*
X159090000Y-135510000D01*
X159090000Y-135508000D01*
X159090000Y-135505000D01*
X159090000Y-134865000D01*
X159090000Y-134862000D01*
X159090000Y-134860000D01*
X159091000Y-134857000D01*
X159091000Y-134855000D01*
X159092000Y-134852000D01*
X159092000Y-134850000D01*
X159093000Y-134847000D01*
X159094000Y-134845000D01*
X159095000Y-134842000D01*
X159097000Y-134840000D01*
X159098000Y-134838000D01*
X159100000Y-134836000D01*
X159101000Y-134834000D01*
X159103000Y-134832000D01*
X159105000Y-134830000D01*
X159107000Y-134828000D01*
X159109000Y-134826000D01*
X159111000Y-134825000D01*
X159113000Y-134823000D01*
X159115000Y-134822000D01*
X159117000Y-134820000D01*
X159120000Y-134819000D01*
X159122000Y-134818000D01*
X159125000Y-134817000D01*
X159127000Y-134817000D01*
X159130000Y-134816000D01*
X159132000Y-134816000D01*
X159135000Y-134815000D01*
X159137000Y-134815000D01*
X159140000Y-134815000D01*
X160730000Y-134815000D01*
X160733000Y-134815000D01*
X160735000Y-134815000D01*
X160738000Y-134816000D01*
G37*
X160738000Y-136086000D02*
X160740000Y-136086000D01*
X160743000Y-136087000D01*
X160745000Y-136087000D01*
X160748000Y-136088000D01*
X160750000Y-136089000D01*
X160753000Y-136090000D01*
X160755000Y-136092000D01*
X160757000Y-136093000D01*
X160759000Y-136095000D01*
X160761000Y-136096000D01*
X160763000Y-136098000D01*
X160765000Y-136100000D01*
X160767000Y-136102000D01*
X160769000Y-136104000D01*
X160770000Y-136106000D01*
X160772000Y-136108000D01*
X160773000Y-136110000D01*
X160775000Y-136112000D01*
X160776000Y-136115000D01*
X160777000Y-136117000D01*
X160778000Y-136120000D01*
X160778000Y-136122000D01*
X160779000Y-136125000D01*
X160779000Y-136127000D01*
X160780000Y-136130000D01*
X160780000Y-136132000D01*
X160780000Y-136135000D01*
X160780000Y-136775000D01*
X160780000Y-136778000D01*
X160780000Y-136780000D01*
X160779000Y-136783000D01*
X160779000Y-136785000D01*
X160778000Y-136788000D01*
X160778000Y-136790000D01*
X160777000Y-136793000D01*
X160776000Y-136795000D01*
X160775000Y-136798000D01*
X160773000Y-136800000D01*
X160772000Y-136802000D01*
X160770000Y-136804000D01*
X160769000Y-136806000D01*
X160767000Y-136808000D01*
X160765000Y-136810000D01*
X160763000Y-136812000D01*
X160761000Y-136814000D01*
X160759000Y-136815000D01*
X160757000Y-136817000D01*
X160755000Y-136818000D01*
X160753000Y-136820000D01*
X160750000Y-136821000D01*
X160748000Y-136822000D01*
X160745000Y-136823000D01*
X160743000Y-136823000D01*
X160740000Y-136824000D01*
X160738000Y-136824000D01*
X160735000Y-136825000D01*
X160733000Y-136825000D01*
X160730000Y-136825000D01*
X159140000Y-136825000D01*
X159137000Y-136825000D01*
X159135000Y-136825000D01*
X159132000Y-136824000D01*
X159130000Y-136824000D01*
X159127000Y-136823000D01*
X159125000Y-136823000D01*
X159122000Y-136822000D01*
X159120000Y-136821000D01*
X159117000Y-136820000D01*
X159115000Y-136818000D01*
X159113000Y-136817000D01*
X159111000Y-136815000D01*
X159109000Y-136814000D01*
X159107000Y-136812000D01*
X159105000Y-136810000D01*
X159103000Y-136808000D01*
X159101000Y-136806000D01*
X159100000Y-136804000D01*
X159098000Y-136802000D01*
X159097000Y-136800000D01*
X159095000Y-136798000D01*
X159094000Y-136795000D01*
X159093000Y-136793000D01*
X159092000Y-136790000D01*
X159092000Y-136788000D01*
X159091000Y-136785000D01*
X159091000Y-136783000D01*
X159090000Y-136780000D01*
X159090000Y-136778000D01*
X159090000Y-136775000D01*
X159090000Y-136135000D01*
X159090000Y-136132000D01*
X159090000Y-136130000D01*
X159091000Y-136127000D01*
X159091000Y-136125000D01*
X159092000Y-136122000D01*
X159092000Y-136120000D01*
X159093000Y-136117000D01*
X159094000Y-136115000D01*
X159095000Y-136112000D01*
X159097000Y-136110000D01*
X159098000Y-136108000D01*
X159100000Y-136106000D01*
X159101000Y-136104000D01*
X159103000Y-136102000D01*
X159105000Y-136100000D01*
X159107000Y-136098000D01*
X159109000Y-136096000D01*
X159111000Y-136095000D01*
X159113000Y-136093000D01*
X159115000Y-136092000D01*
X159117000Y-136090000D01*
X159120000Y-136089000D01*
X159122000Y-136088000D01*
X159125000Y-136087000D01*
X159127000Y-136087000D01*
X159130000Y-136086000D01*
X159132000Y-136086000D01*
X159135000Y-136085000D01*
X159137000Y-136085000D01*
X159140000Y-136085000D01*
X160730000Y-136085000D01*
X160733000Y-136085000D01*
X160735000Y-136085000D01*
X160738000Y-136086000D01*
G36*
X160738000Y-136086000D02*
G01*
X160740000Y-136086000D01*
X160743000Y-136087000D01*
X160745000Y-136087000D01*
X160748000Y-136088000D01*
X160750000Y-136089000D01*
X160753000Y-136090000D01*
X160755000Y-136092000D01*
X160757000Y-136093000D01*
X160759000Y-136095000D01*
X160761000Y-136096000D01*
X160763000Y-136098000D01*
X160765000Y-136100000D01*
X160767000Y-136102000D01*
X160769000Y-136104000D01*
X160770000Y-136106000D01*
X160772000Y-136108000D01*
X160773000Y-136110000D01*
X160775000Y-136112000D01*
X160776000Y-136115000D01*
X160777000Y-136117000D01*
X160778000Y-136120000D01*
X160778000Y-136122000D01*
X160779000Y-136125000D01*
X160779000Y-136127000D01*
X160780000Y-136130000D01*
X160780000Y-136132000D01*
X160780000Y-136135000D01*
X160780000Y-136775000D01*
X160780000Y-136778000D01*
X160780000Y-136780000D01*
X160779000Y-136783000D01*
X160779000Y-136785000D01*
X160778000Y-136788000D01*
X160778000Y-136790000D01*
X160777000Y-136793000D01*
X160776000Y-136795000D01*
X160775000Y-136798000D01*
X160773000Y-136800000D01*
X160772000Y-136802000D01*
X160770000Y-136804000D01*
X160769000Y-136806000D01*
X160767000Y-136808000D01*
X160765000Y-136810000D01*
X160763000Y-136812000D01*
X160761000Y-136814000D01*
X160759000Y-136815000D01*
X160757000Y-136817000D01*
X160755000Y-136818000D01*
X160753000Y-136820000D01*
X160750000Y-136821000D01*
X160748000Y-136822000D01*
X160745000Y-136823000D01*
X160743000Y-136823000D01*
X160740000Y-136824000D01*
X160738000Y-136824000D01*
X160735000Y-136825000D01*
X160733000Y-136825000D01*
X160730000Y-136825000D01*
X159140000Y-136825000D01*
X159137000Y-136825000D01*
X159135000Y-136825000D01*
X159132000Y-136824000D01*
X159130000Y-136824000D01*
X159127000Y-136823000D01*
X159125000Y-136823000D01*
X159122000Y-136822000D01*
X159120000Y-136821000D01*
X159117000Y-136820000D01*
X159115000Y-136818000D01*
X159113000Y-136817000D01*
X159111000Y-136815000D01*
X159109000Y-136814000D01*
X159107000Y-136812000D01*
X159105000Y-136810000D01*
X159103000Y-136808000D01*
X159101000Y-136806000D01*
X159100000Y-136804000D01*
X159098000Y-136802000D01*
X159097000Y-136800000D01*
X159095000Y-136798000D01*
X159094000Y-136795000D01*
X159093000Y-136793000D01*
X159092000Y-136790000D01*
X159092000Y-136788000D01*
X159091000Y-136785000D01*
X159091000Y-136783000D01*
X159090000Y-136780000D01*
X159090000Y-136778000D01*
X159090000Y-136775000D01*
X159090000Y-136135000D01*
X159090000Y-136132000D01*
X159090000Y-136130000D01*
X159091000Y-136127000D01*
X159091000Y-136125000D01*
X159092000Y-136122000D01*
X159092000Y-136120000D01*
X159093000Y-136117000D01*
X159094000Y-136115000D01*
X159095000Y-136112000D01*
X159097000Y-136110000D01*
X159098000Y-136108000D01*
X159100000Y-136106000D01*
X159101000Y-136104000D01*
X159103000Y-136102000D01*
X159105000Y-136100000D01*
X159107000Y-136098000D01*
X159109000Y-136096000D01*
X159111000Y-136095000D01*
X159113000Y-136093000D01*
X159115000Y-136092000D01*
X159117000Y-136090000D01*
X159120000Y-136089000D01*
X159122000Y-136088000D01*
X159125000Y-136087000D01*
X159127000Y-136087000D01*
X159130000Y-136086000D01*
X159132000Y-136086000D01*
X159135000Y-136085000D01*
X159137000Y-136085000D01*
X159140000Y-136085000D01*
X160730000Y-136085000D01*
X160733000Y-136085000D01*
X160735000Y-136085000D01*
X160738000Y-136086000D01*
G37*
X166138000Y-132276000D02*
X166140000Y-132276000D01*
X166143000Y-132277000D01*
X166145000Y-132277000D01*
X166148000Y-132278000D01*
X166150000Y-132279000D01*
X166153000Y-132280000D01*
X166155000Y-132282000D01*
X166157000Y-132283000D01*
X166159000Y-132285000D01*
X166161000Y-132286000D01*
X166163000Y-132288000D01*
X166165000Y-132290000D01*
X166167000Y-132292000D01*
X166169000Y-132294000D01*
X166170000Y-132296000D01*
X166172000Y-132298000D01*
X166173000Y-132300000D01*
X166175000Y-132302000D01*
X166176000Y-132305000D01*
X166177000Y-132307000D01*
X166178000Y-132310000D01*
X166178000Y-132312000D01*
X166179000Y-132315000D01*
X166179000Y-132317000D01*
X166180000Y-132320000D01*
X166180000Y-132322000D01*
X166180000Y-132325000D01*
X166180000Y-132965000D01*
X166180000Y-132968000D01*
X166180000Y-132970000D01*
X166179000Y-132973000D01*
X166179000Y-132975000D01*
X166178000Y-132978000D01*
X166178000Y-132980000D01*
X166177000Y-132983000D01*
X166176000Y-132985000D01*
X166175000Y-132988000D01*
X166173000Y-132990000D01*
X166172000Y-132992000D01*
X166170000Y-132994000D01*
X166169000Y-132996000D01*
X166167000Y-132998000D01*
X166165000Y-133000000D01*
X166163000Y-133002000D01*
X166161000Y-133004000D01*
X166159000Y-133005000D01*
X166157000Y-133007000D01*
X166155000Y-133008000D01*
X166153000Y-133010000D01*
X166150000Y-133011000D01*
X166148000Y-133012000D01*
X166145000Y-133013000D01*
X166143000Y-133013000D01*
X166140000Y-133014000D01*
X166138000Y-133014000D01*
X166135000Y-133015000D01*
X166133000Y-133015000D01*
X166130000Y-133015000D01*
X164540000Y-133015000D01*
X164537000Y-133015000D01*
X164535000Y-133015000D01*
X164532000Y-133014000D01*
X164530000Y-133014000D01*
X164527000Y-133013000D01*
X164525000Y-133013000D01*
X164522000Y-133012000D01*
X164520000Y-133011000D01*
X164517000Y-133010000D01*
X164515000Y-133008000D01*
X164513000Y-133007000D01*
X164511000Y-133005000D01*
X164509000Y-133004000D01*
X164507000Y-133002000D01*
X164505000Y-133000000D01*
X164503000Y-132998000D01*
X164501000Y-132996000D01*
X164500000Y-132994000D01*
X164498000Y-132992000D01*
X164497000Y-132990000D01*
X164495000Y-132988000D01*
X164494000Y-132985000D01*
X164493000Y-132983000D01*
X164492000Y-132980000D01*
X164492000Y-132978000D01*
X164491000Y-132975000D01*
X164491000Y-132973000D01*
X164490000Y-132970000D01*
X164490000Y-132968000D01*
X164490000Y-132965000D01*
X164490000Y-132325000D01*
X164490000Y-132322000D01*
X164490000Y-132320000D01*
X164491000Y-132317000D01*
X164491000Y-132315000D01*
X164492000Y-132312000D01*
X164492000Y-132310000D01*
X164493000Y-132307000D01*
X164494000Y-132305000D01*
X164495000Y-132302000D01*
X164497000Y-132300000D01*
X164498000Y-132298000D01*
X164500000Y-132296000D01*
X164501000Y-132294000D01*
X164503000Y-132292000D01*
X164505000Y-132290000D01*
X164507000Y-132288000D01*
X164509000Y-132286000D01*
X164511000Y-132285000D01*
X164513000Y-132283000D01*
X164515000Y-132282000D01*
X164517000Y-132280000D01*
X164520000Y-132279000D01*
X164522000Y-132278000D01*
X164525000Y-132277000D01*
X164527000Y-132277000D01*
X164530000Y-132276000D01*
X164532000Y-132276000D01*
X164535000Y-132275000D01*
X164537000Y-132275000D01*
X164540000Y-132275000D01*
X166130000Y-132275000D01*
X166133000Y-132275000D01*
X166135000Y-132275000D01*
X166138000Y-132276000D01*
G36*
X166138000Y-132276000D02*
G01*
X166140000Y-132276000D01*
X166143000Y-132277000D01*
X166145000Y-132277000D01*
X166148000Y-132278000D01*
X166150000Y-132279000D01*
X166153000Y-132280000D01*
X166155000Y-132282000D01*
X166157000Y-132283000D01*
X166159000Y-132285000D01*
X166161000Y-132286000D01*
X166163000Y-132288000D01*
X166165000Y-132290000D01*
X166167000Y-132292000D01*
X166169000Y-132294000D01*
X166170000Y-132296000D01*
X166172000Y-132298000D01*
X166173000Y-132300000D01*
X166175000Y-132302000D01*
X166176000Y-132305000D01*
X166177000Y-132307000D01*
X166178000Y-132310000D01*
X166178000Y-132312000D01*
X166179000Y-132315000D01*
X166179000Y-132317000D01*
X166180000Y-132320000D01*
X166180000Y-132322000D01*
X166180000Y-132325000D01*
X166180000Y-132965000D01*
X166180000Y-132968000D01*
X166180000Y-132970000D01*
X166179000Y-132973000D01*
X166179000Y-132975000D01*
X166178000Y-132978000D01*
X166178000Y-132980000D01*
X166177000Y-132983000D01*
X166176000Y-132985000D01*
X166175000Y-132988000D01*
X166173000Y-132990000D01*
X166172000Y-132992000D01*
X166170000Y-132994000D01*
X166169000Y-132996000D01*
X166167000Y-132998000D01*
X166165000Y-133000000D01*
X166163000Y-133002000D01*
X166161000Y-133004000D01*
X166159000Y-133005000D01*
X166157000Y-133007000D01*
X166155000Y-133008000D01*
X166153000Y-133010000D01*
X166150000Y-133011000D01*
X166148000Y-133012000D01*
X166145000Y-133013000D01*
X166143000Y-133013000D01*
X166140000Y-133014000D01*
X166138000Y-133014000D01*
X166135000Y-133015000D01*
X166133000Y-133015000D01*
X166130000Y-133015000D01*
X164540000Y-133015000D01*
X164537000Y-133015000D01*
X164535000Y-133015000D01*
X164532000Y-133014000D01*
X164530000Y-133014000D01*
X164527000Y-133013000D01*
X164525000Y-133013000D01*
X164522000Y-133012000D01*
X164520000Y-133011000D01*
X164517000Y-133010000D01*
X164515000Y-133008000D01*
X164513000Y-133007000D01*
X164511000Y-133005000D01*
X164509000Y-133004000D01*
X164507000Y-133002000D01*
X164505000Y-133000000D01*
X164503000Y-132998000D01*
X164501000Y-132996000D01*
X164500000Y-132994000D01*
X164498000Y-132992000D01*
X164497000Y-132990000D01*
X164495000Y-132988000D01*
X164494000Y-132985000D01*
X164493000Y-132983000D01*
X164492000Y-132980000D01*
X164492000Y-132978000D01*
X164491000Y-132975000D01*
X164491000Y-132973000D01*
X164490000Y-132970000D01*
X164490000Y-132968000D01*
X164490000Y-132965000D01*
X164490000Y-132325000D01*
X164490000Y-132322000D01*
X164490000Y-132320000D01*
X164491000Y-132317000D01*
X164491000Y-132315000D01*
X164492000Y-132312000D01*
X164492000Y-132310000D01*
X164493000Y-132307000D01*
X164494000Y-132305000D01*
X164495000Y-132302000D01*
X164497000Y-132300000D01*
X164498000Y-132298000D01*
X164500000Y-132296000D01*
X164501000Y-132294000D01*
X164503000Y-132292000D01*
X164505000Y-132290000D01*
X164507000Y-132288000D01*
X164509000Y-132286000D01*
X164511000Y-132285000D01*
X164513000Y-132283000D01*
X164515000Y-132282000D01*
X164517000Y-132280000D01*
X164520000Y-132279000D01*
X164522000Y-132278000D01*
X164525000Y-132277000D01*
X164527000Y-132277000D01*
X164530000Y-132276000D01*
X164532000Y-132276000D01*
X164535000Y-132275000D01*
X164537000Y-132275000D01*
X164540000Y-132275000D01*
X166130000Y-132275000D01*
X166133000Y-132275000D01*
X166135000Y-132275000D01*
X166138000Y-132276000D01*
G37*
X166138000Y-133546000D02*
X166140000Y-133546000D01*
X166143000Y-133547000D01*
X166145000Y-133547000D01*
X166148000Y-133548000D01*
X166150000Y-133549000D01*
X166153000Y-133550000D01*
X166155000Y-133552000D01*
X166157000Y-133553000D01*
X166159000Y-133555000D01*
X166161000Y-133556000D01*
X166163000Y-133558000D01*
X166165000Y-133560000D01*
X166167000Y-133562000D01*
X166169000Y-133564000D01*
X166170000Y-133566000D01*
X166172000Y-133568000D01*
X166173000Y-133570000D01*
X166175000Y-133572000D01*
X166176000Y-133575000D01*
X166177000Y-133577000D01*
X166178000Y-133580000D01*
X166178000Y-133582000D01*
X166179000Y-133585000D01*
X166179000Y-133587000D01*
X166180000Y-133590000D01*
X166180000Y-133592000D01*
X166180000Y-133595000D01*
X166180000Y-134235000D01*
X166180000Y-134238000D01*
X166180000Y-134240000D01*
X166179000Y-134243000D01*
X166179000Y-134245000D01*
X166178000Y-134248000D01*
X166178000Y-134250000D01*
X166177000Y-134253000D01*
X166176000Y-134255000D01*
X166175000Y-134258000D01*
X166173000Y-134260000D01*
X166172000Y-134262000D01*
X166170000Y-134264000D01*
X166169000Y-134266000D01*
X166167000Y-134268000D01*
X166165000Y-134270000D01*
X166163000Y-134272000D01*
X166161000Y-134274000D01*
X166159000Y-134275000D01*
X166157000Y-134277000D01*
X166155000Y-134278000D01*
X166153000Y-134280000D01*
X166150000Y-134281000D01*
X166148000Y-134282000D01*
X166145000Y-134283000D01*
X166143000Y-134283000D01*
X166140000Y-134284000D01*
X166138000Y-134284000D01*
X166135000Y-134285000D01*
X166133000Y-134285000D01*
X166130000Y-134285000D01*
X164540000Y-134285000D01*
X164537000Y-134285000D01*
X164535000Y-134285000D01*
X164532000Y-134284000D01*
X164530000Y-134284000D01*
X164527000Y-134283000D01*
X164525000Y-134283000D01*
X164522000Y-134282000D01*
X164520000Y-134281000D01*
X164517000Y-134280000D01*
X164515000Y-134278000D01*
X164513000Y-134277000D01*
X164511000Y-134275000D01*
X164509000Y-134274000D01*
X164507000Y-134272000D01*
X164505000Y-134270000D01*
X164503000Y-134268000D01*
X164501000Y-134266000D01*
X164500000Y-134264000D01*
X164498000Y-134262000D01*
X164497000Y-134260000D01*
X164495000Y-134258000D01*
X164494000Y-134255000D01*
X164493000Y-134253000D01*
X164492000Y-134250000D01*
X164492000Y-134248000D01*
X164491000Y-134245000D01*
X164491000Y-134243000D01*
X164490000Y-134240000D01*
X164490000Y-134238000D01*
X164490000Y-134235000D01*
X164490000Y-133595000D01*
X164490000Y-133592000D01*
X164490000Y-133590000D01*
X164491000Y-133587000D01*
X164491000Y-133585000D01*
X164492000Y-133582000D01*
X164492000Y-133580000D01*
X164493000Y-133577000D01*
X164494000Y-133575000D01*
X164495000Y-133572000D01*
X164497000Y-133570000D01*
X164498000Y-133568000D01*
X164500000Y-133566000D01*
X164501000Y-133564000D01*
X164503000Y-133562000D01*
X164505000Y-133560000D01*
X164507000Y-133558000D01*
X164509000Y-133556000D01*
X164511000Y-133555000D01*
X164513000Y-133553000D01*
X164515000Y-133552000D01*
X164517000Y-133550000D01*
X164520000Y-133549000D01*
X164522000Y-133548000D01*
X164525000Y-133547000D01*
X164527000Y-133547000D01*
X164530000Y-133546000D01*
X164532000Y-133546000D01*
X164535000Y-133545000D01*
X164537000Y-133545000D01*
X164540000Y-133545000D01*
X166130000Y-133545000D01*
X166133000Y-133545000D01*
X166135000Y-133545000D01*
X166138000Y-133546000D01*
G36*
X166138000Y-133546000D02*
G01*
X166140000Y-133546000D01*
X166143000Y-133547000D01*
X166145000Y-133547000D01*
X166148000Y-133548000D01*
X166150000Y-133549000D01*
X166153000Y-133550000D01*
X166155000Y-133552000D01*
X166157000Y-133553000D01*
X166159000Y-133555000D01*
X166161000Y-133556000D01*
X166163000Y-133558000D01*
X166165000Y-133560000D01*
X166167000Y-133562000D01*
X166169000Y-133564000D01*
X166170000Y-133566000D01*
X166172000Y-133568000D01*
X166173000Y-133570000D01*
X166175000Y-133572000D01*
X166176000Y-133575000D01*
X166177000Y-133577000D01*
X166178000Y-133580000D01*
X166178000Y-133582000D01*
X166179000Y-133585000D01*
X166179000Y-133587000D01*
X166180000Y-133590000D01*
X166180000Y-133592000D01*
X166180000Y-133595000D01*
X166180000Y-134235000D01*
X166180000Y-134238000D01*
X166180000Y-134240000D01*
X166179000Y-134243000D01*
X166179000Y-134245000D01*
X166178000Y-134248000D01*
X166178000Y-134250000D01*
X166177000Y-134253000D01*
X166176000Y-134255000D01*
X166175000Y-134258000D01*
X166173000Y-134260000D01*
X166172000Y-134262000D01*
X166170000Y-134264000D01*
X166169000Y-134266000D01*
X166167000Y-134268000D01*
X166165000Y-134270000D01*
X166163000Y-134272000D01*
X166161000Y-134274000D01*
X166159000Y-134275000D01*
X166157000Y-134277000D01*
X166155000Y-134278000D01*
X166153000Y-134280000D01*
X166150000Y-134281000D01*
X166148000Y-134282000D01*
X166145000Y-134283000D01*
X166143000Y-134283000D01*
X166140000Y-134284000D01*
X166138000Y-134284000D01*
X166135000Y-134285000D01*
X166133000Y-134285000D01*
X166130000Y-134285000D01*
X164540000Y-134285000D01*
X164537000Y-134285000D01*
X164535000Y-134285000D01*
X164532000Y-134284000D01*
X164530000Y-134284000D01*
X164527000Y-134283000D01*
X164525000Y-134283000D01*
X164522000Y-134282000D01*
X164520000Y-134281000D01*
X164517000Y-134280000D01*
X164515000Y-134278000D01*
X164513000Y-134277000D01*
X164511000Y-134275000D01*
X164509000Y-134274000D01*
X164507000Y-134272000D01*
X164505000Y-134270000D01*
X164503000Y-134268000D01*
X164501000Y-134266000D01*
X164500000Y-134264000D01*
X164498000Y-134262000D01*
X164497000Y-134260000D01*
X164495000Y-134258000D01*
X164494000Y-134255000D01*
X164493000Y-134253000D01*
X164492000Y-134250000D01*
X164492000Y-134248000D01*
X164491000Y-134245000D01*
X164491000Y-134243000D01*
X164490000Y-134240000D01*
X164490000Y-134238000D01*
X164490000Y-134235000D01*
X164490000Y-133595000D01*
X164490000Y-133592000D01*
X164490000Y-133590000D01*
X164491000Y-133587000D01*
X164491000Y-133585000D01*
X164492000Y-133582000D01*
X164492000Y-133580000D01*
X164493000Y-133577000D01*
X164494000Y-133575000D01*
X164495000Y-133572000D01*
X164497000Y-133570000D01*
X164498000Y-133568000D01*
X164500000Y-133566000D01*
X164501000Y-133564000D01*
X164503000Y-133562000D01*
X164505000Y-133560000D01*
X164507000Y-133558000D01*
X164509000Y-133556000D01*
X164511000Y-133555000D01*
X164513000Y-133553000D01*
X164515000Y-133552000D01*
X164517000Y-133550000D01*
X164520000Y-133549000D01*
X164522000Y-133548000D01*
X164525000Y-133547000D01*
X164527000Y-133547000D01*
X164530000Y-133546000D01*
X164532000Y-133546000D01*
X164535000Y-133545000D01*
X164537000Y-133545000D01*
X164540000Y-133545000D01*
X166130000Y-133545000D01*
X166133000Y-133545000D01*
X166135000Y-133545000D01*
X166138000Y-133546000D01*
G37*
X166138000Y-134816000D02*
X166140000Y-134816000D01*
X166143000Y-134817000D01*
X166145000Y-134817000D01*
X166148000Y-134818000D01*
X166150000Y-134819000D01*
X166153000Y-134820000D01*
X166155000Y-134822000D01*
X166157000Y-134823000D01*
X166159000Y-134825000D01*
X166161000Y-134826000D01*
X166163000Y-134828000D01*
X166165000Y-134830000D01*
X166167000Y-134832000D01*
X166169000Y-134834000D01*
X166170000Y-134836000D01*
X166172000Y-134838000D01*
X166173000Y-134840000D01*
X166175000Y-134842000D01*
X166176000Y-134845000D01*
X166177000Y-134847000D01*
X166178000Y-134850000D01*
X166178000Y-134852000D01*
X166179000Y-134855000D01*
X166179000Y-134857000D01*
X166180000Y-134860000D01*
X166180000Y-134862000D01*
X166180000Y-134865000D01*
X166180000Y-135505000D01*
X166180000Y-135508000D01*
X166180000Y-135510000D01*
X166179000Y-135513000D01*
X166179000Y-135515000D01*
X166178000Y-135518000D01*
X166178000Y-135520000D01*
X166177000Y-135523000D01*
X166176000Y-135525000D01*
X166175000Y-135528000D01*
X166173000Y-135530000D01*
X166172000Y-135532000D01*
X166170000Y-135534000D01*
X166169000Y-135536000D01*
X166167000Y-135538000D01*
X166165000Y-135540000D01*
X166163000Y-135542000D01*
X166161000Y-135544000D01*
X166159000Y-135545000D01*
X166157000Y-135547000D01*
X166155000Y-135548000D01*
X166153000Y-135550000D01*
X166150000Y-135551000D01*
X166148000Y-135552000D01*
X166145000Y-135553000D01*
X166143000Y-135553000D01*
X166140000Y-135554000D01*
X166138000Y-135554000D01*
X166135000Y-135555000D01*
X166133000Y-135555000D01*
X166130000Y-135555000D01*
X164540000Y-135555000D01*
X164537000Y-135555000D01*
X164535000Y-135555000D01*
X164532000Y-135554000D01*
X164530000Y-135554000D01*
X164527000Y-135553000D01*
X164525000Y-135553000D01*
X164522000Y-135552000D01*
X164520000Y-135551000D01*
X164517000Y-135550000D01*
X164515000Y-135548000D01*
X164513000Y-135547000D01*
X164511000Y-135545000D01*
X164509000Y-135544000D01*
X164507000Y-135542000D01*
X164505000Y-135540000D01*
X164503000Y-135538000D01*
X164501000Y-135536000D01*
X164500000Y-135534000D01*
X164498000Y-135532000D01*
X164497000Y-135530000D01*
X164495000Y-135528000D01*
X164494000Y-135525000D01*
X164493000Y-135523000D01*
X164492000Y-135520000D01*
X164492000Y-135518000D01*
X164491000Y-135515000D01*
X164491000Y-135513000D01*
X164490000Y-135510000D01*
X164490000Y-135508000D01*
X164490000Y-135505000D01*
X164490000Y-134865000D01*
X164490000Y-134862000D01*
X164490000Y-134860000D01*
X164491000Y-134857000D01*
X164491000Y-134855000D01*
X164492000Y-134852000D01*
X164492000Y-134850000D01*
X164493000Y-134847000D01*
X164494000Y-134845000D01*
X164495000Y-134842000D01*
X164497000Y-134840000D01*
X164498000Y-134838000D01*
X164500000Y-134836000D01*
X164501000Y-134834000D01*
X164503000Y-134832000D01*
X164505000Y-134830000D01*
X164507000Y-134828000D01*
X164509000Y-134826000D01*
X164511000Y-134825000D01*
X164513000Y-134823000D01*
X164515000Y-134822000D01*
X164517000Y-134820000D01*
X164520000Y-134819000D01*
X164522000Y-134818000D01*
X164525000Y-134817000D01*
X164527000Y-134817000D01*
X164530000Y-134816000D01*
X164532000Y-134816000D01*
X164535000Y-134815000D01*
X164537000Y-134815000D01*
X164540000Y-134815000D01*
X166130000Y-134815000D01*
X166133000Y-134815000D01*
X166135000Y-134815000D01*
X166138000Y-134816000D01*
G36*
X166138000Y-134816000D02*
G01*
X166140000Y-134816000D01*
X166143000Y-134817000D01*
X166145000Y-134817000D01*
X166148000Y-134818000D01*
X166150000Y-134819000D01*
X166153000Y-134820000D01*
X166155000Y-134822000D01*
X166157000Y-134823000D01*
X166159000Y-134825000D01*
X166161000Y-134826000D01*
X166163000Y-134828000D01*
X166165000Y-134830000D01*
X166167000Y-134832000D01*
X166169000Y-134834000D01*
X166170000Y-134836000D01*
X166172000Y-134838000D01*
X166173000Y-134840000D01*
X166175000Y-134842000D01*
X166176000Y-134845000D01*
X166177000Y-134847000D01*
X166178000Y-134850000D01*
X166178000Y-134852000D01*
X166179000Y-134855000D01*
X166179000Y-134857000D01*
X166180000Y-134860000D01*
X166180000Y-134862000D01*
X166180000Y-134865000D01*
X166180000Y-135505000D01*
X166180000Y-135508000D01*
X166180000Y-135510000D01*
X166179000Y-135513000D01*
X166179000Y-135515000D01*
X166178000Y-135518000D01*
X166178000Y-135520000D01*
X166177000Y-135523000D01*
X166176000Y-135525000D01*
X166175000Y-135528000D01*
X166173000Y-135530000D01*
X166172000Y-135532000D01*
X166170000Y-135534000D01*
X166169000Y-135536000D01*
X166167000Y-135538000D01*
X166165000Y-135540000D01*
X166163000Y-135542000D01*
X166161000Y-135544000D01*
X166159000Y-135545000D01*
X166157000Y-135547000D01*
X166155000Y-135548000D01*
X166153000Y-135550000D01*
X166150000Y-135551000D01*
X166148000Y-135552000D01*
X166145000Y-135553000D01*
X166143000Y-135553000D01*
X166140000Y-135554000D01*
X166138000Y-135554000D01*
X166135000Y-135555000D01*
X166133000Y-135555000D01*
X166130000Y-135555000D01*
X164540000Y-135555000D01*
X164537000Y-135555000D01*
X164535000Y-135555000D01*
X164532000Y-135554000D01*
X164530000Y-135554000D01*
X164527000Y-135553000D01*
X164525000Y-135553000D01*
X164522000Y-135552000D01*
X164520000Y-135551000D01*
X164517000Y-135550000D01*
X164515000Y-135548000D01*
X164513000Y-135547000D01*
X164511000Y-135545000D01*
X164509000Y-135544000D01*
X164507000Y-135542000D01*
X164505000Y-135540000D01*
X164503000Y-135538000D01*
X164501000Y-135536000D01*
X164500000Y-135534000D01*
X164498000Y-135532000D01*
X164497000Y-135530000D01*
X164495000Y-135528000D01*
X164494000Y-135525000D01*
X164493000Y-135523000D01*
X164492000Y-135520000D01*
X164492000Y-135518000D01*
X164491000Y-135515000D01*
X164491000Y-135513000D01*
X164490000Y-135510000D01*
X164490000Y-135508000D01*
X164490000Y-135505000D01*
X164490000Y-134865000D01*
X164490000Y-134862000D01*
X164490000Y-134860000D01*
X164491000Y-134857000D01*
X164491000Y-134855000D01*
X164492000Y-134852000D01*
X164492000Y-134850000D01*
X164493000Y-134847000D01*
X164494000Y-134845000D01*
X164495000Y-134842000D01*
X164497000Y-134840000D01*
X164498000Y-134838000D01*
X164500000Y-134836000D01*
X164501000Y-134834000D01*
X164503000Y-134832000D01*
X164505000Y-134830000D01*
X164507000Y-134828000D01*
X164509000Y-134826000D01*
X164511000Y-134825000D01*
X164513000Y-134823000D01*
X164515000Y-134822000D01*
X164517000Y-134820000D01*
X164520000Y-134819000D01*
X164522000Y-134818000D01*
X164525000Y-134817000D01*
X164527000Y-134817000D01*
X164530000Y-134816000D01*
X164532000Y-134816000D01*
X164535000Y-134815000D01*
X164537000Y-134815000D01*
X164540000Y-134815000D01*
X166130000Y-134815000D01*
X166133000Y-134815000D01*
X166135000Y-134815000D01*
X166138000Y-134816000D01*
G37*
X166138000Y-136086000D02*
X166140000Y-136086000D01*
X166143000Y-136087000D01*
X166145000Y-136087000D01*
X166148000Y-136088000D01*
X166150000Y-136089000D01*
X166153000Y-136090000D01*
X166155000Y-136092000D01*
X166157000Y-136093000D01*
X166159000Y-136095000D01*
X166161000Y-136096000D01*
X166163000Y-136098000D01*
X166165000Y-136100000D01*
X166167000Y-136102000D01*
X166169000Y-136104000D01*
X166170000Y-136106000D01*
X166172000Y-136108000D01*
X166173000Y-136110000D01*
X166175000Y-136112000D01*
X166176000Y-136115000D01*
X166177000Y-136117000D01*
X166178000Y-136120000D01*
X166178000Y-136122000D01*
X166179000Y-136125000D01*
X166179000Y-136127000D01*
X166180000Y-136130000D01*
X166180000Y-136132000D01*
X166180000Y-136135000D01*
X166180000Y-136775000D01*
X166180000Y-136778000D01*
X166180000Y-136780000D01*
X166179000Y-136783000D01*
X166179000Y-136785000D01*
X166178000Y-136788000D01*
X166178000Y-136790000D01*
X166177000Y-136793000D01*
X166176000Y-136795000D01*
X166175000Y-136798000D01*
X166173000Y-136800000D01*
X166172000Y-136802000D01*
X166170000Y-136804000D01*
X166169000Y-136806000D01*
X166167000Y-136808000D01*
X166165000Y-136810000D01*
X166163000Y-136812000D01*
X166161000Y-136814000D01*
X166159000Y-136815000D01*
X166157000Y-136817000D01*
X166155000Y-136818000D01*
X166153000Y-136820000D01*
X166150000Y-136821000D01*
X166148000Y-136822000D01*
X166145000Y-136823000D01*
X166143000Y-136823000D01*
X166140000Y-136824000D01*
X166138000Y-136824000D01*
X166135000Y-136825000D01*
X166133000Y-136825000D01*
X166130000Y-136825000D01*
X164540000Y-136825000D01*
X164537000Y-136825000D01*
X164535000Y-136825000D01*
X164532000Y-136824000D01*
X164530000Y-136824000D01*
X164527000Y-136823000D01*
X164525000Y-136823000D01*
X164522000Y-136822000D01*
X164520000Y-136821000D01*
X164517000Y-136820000D01*
X164515000Y-136818000D01*
X164513000Y-136817000D01*
X164511000Y-136815000D01*
X164509000Y-136814000D01*
X164507000Y-136812000D01*
X164505000Y-136810000D01*
X164503000Y-136808000D01*
X164501000Y-136806000D01*
X164500000Y-136804000D01*
X164498000Y-136802000D01*
X164497000Y-136800000D01*
X164495000Y-136798000D01*
X164494000Y-136795000D01*
X164493000Y-136793000D01*
X164492000Y-136790000D01*
X164492000Y-136788000D01*
X164491000Y-136785000D01*
X164491000Y-136783000D01*
X164490000Y-136780000D01*
X164490000Y-136778000D01*
X164490000Y-136775000D01*
X164490000Y-136135000D01*
X164490000Y-136132000D01*
X164490000Y-136130000D01*
X164491000Y-136127000D01*
X164491000Y-136125000D01*
X164492000Y-136122000D01*
X164492000Y-136120000D01*
X164493000Y-136117000D01*
X164494000Y-136115000D01*
X164495000Y-136112000D01*
X164497000Y-136110000D01*
X164498000Y-136108000D01*
X164500000Y-136106000D01*
X164501000Y-136104000D01*
X164503000Y-136102000D01*
X164505000Y-136100000D01*
X164507000Y-136098000D01*
X164509000Y-136096000D01*
X164511000Y-136095000D01*
X164513000Y-136093000D01*
X164515000Y-136092000D01*
X164517000Y-136090000D01*
X164520000Y-136089000D01*
X164522000Y-136088000D01*
X164525000Y-136087000D01*
X164527000Y-136087000D01*
X164530000Y-136086000D01*
X164532000Y-136086000D01*
X164535000Y-136085000D01*
X164537000Y-136085000D01*
X164540000Y-136085000D01*
X166130000Y-136085000D01*
X166133000Y-136085000D01*
X166135000Y-136085000D01*
X166138000Y-136086000D01*
G36*
X166138000Y-136086000D02*
G01*
X166140000Y-136086000D01*
X166143000Y-136087000D01*
X166145000Y-136087000D01*
X166148000Y-136088000D01*
X166150000Y-136089000D01*
X166153000Y-136090000D01*
X166155000Y-136092000D01*
X166157000Y-136093000D01*
X166159000Y-136095000D01*
X166161000Y-136096000D01*
X166163000Y-136098000D01*
X166165000Y-136100000D01*
X166167000Y-136102000D01*
X166169000Y-136104000D01*
X166170000Y-136106000D01*
X166172000Y-136108000D01*
X166173000Y-136110000D01*
X166175000Y-136112000D01*
X166176000Y-136115000D01*
X166177000Y-136117000D01*
X166178000Y-136120000D01*
X166178000Y-136122000D01*
X166179000Y-136125000D01*
X166179000Y-136127000D01*
X166180000Y-136130000D01*
X166180000Y-136132000D01*
X166180000Y-136135000D01*
X166180000Y-136775000D01*
X166180000Y-136778000D01*
X166180000Y-136780000D01*
X166179000Y-136783000D01*
X166179000Y-136785000D01*
X166178000Y-136788000D01*
X166178000Y-136790000D01*
X166177000Y-136793000D01*
X166176000Y-136795000D01*
X166175000Y-136798000D01*
X166173000Y-136800000D01*
X166172000Y-136802000D01*
X166170000Y-136804000D01*
X166169000Y-136806000D01*
X166167000Y-136808000D01*
X166165000Y-136810000D01*
X166163000Y-136812000D01*
X166161000Y-136814000D01*
X166159000Y-136815000D01*
X166157000Y-136817000D01*
X166155000Y-136818000D01*
X166153000Y-136820000D01*
X166150000Y-136821000D01*
X166148000Y-136822000D01*
X166145000Y-136823000D01*
X166143000Y-136823000D01*
X166140000Y-136824000D01*
X166138000Y-136824000D01*
X166135000Y-136825000D01*
X166133000Y-136825000D01*
X166130000Y-136825000D01*
X164540000Y-136825000D01*
X164537000Y-136825000D01*
X164535000Y-136825000D01*
X164532000Y-136824000D01*
X164530000Y-136824000D01*
X164527000Y-136823000D01*
X164525000Y-136823000D01*
X164522000Y-136822000D01*
X164520000Y-136821000D01*
X164517000Y-136820000D01*
X164515000Y-136818000D01*
X164513000Y-136817000D01*
X164511000Y-136815000D01*
X164509000Y-136814000D01*
X164507000Y-136812000D01*
X164505000Y-136810000D01*
X164503000Y-136808000D01*
X164501000Y-136806000D01*
X164500000Y-136804000D01*
X164498000Y-136802000D01*
X164497000Y-136800000D01*
X164495000Y-136798000D01*
X164494000Y-136795000D01*
X164493000Y-136793000D01*
X164492000Y-136790000D01*
X164492000Y-136788000D01*
X164491000Y-136785000D01*
X164491000Y-136783000D01*
X164490000Y-136780000D01*
X164490000Y-136778000D01*
X164490000Y-136775000D01*
X164490000Y-136135000D01*
X164490000Y-136132000D01*
X164490000Y-136130000D01*
X164491000Y-136127000D01*
X164491000Y-136125000D01*
X164492000Y-136122000D01*
X164492000Y-136120000D01*
X164493000Y-136117000D01*
X164494000Y-136115000D01*
X164495000Y-136112000D01*
X164497000Y-136110000D01*
X164498000Y-136108000D01*
X164500000Y-136106000D01*
X164501000Y-136104000D01*
X164503000Y-136102000D01*
X164505000Y-136100000D01*
X164507000Y-136098000D01*
X164509000Y-136096000D01*
X164511000Y-136095000D01*
X164513000Y-136093000D01*
X164515000Y-136092000D01*
X164517000Y-136090000D01*
X164520000Y-136089000D01*
X164522000Y-136088000D01*
X164525000Y-136087000D01*
X164527000Y-136087000D01*
X164530000Y-136086000D01*
X164532000Y-136086000D01*
X164535000Y-136085000D01*
X164537000Y-136085000D01*
X164540000Y-136085000D01*
X166130000Y-136085000D01*
X166133000Y-136085000D01*
X166135000Y-136085000D01*
X166138000Y-136086000D01*
G37*
%TO.C,U2*%
X137705000Y-142450000D02*
X134995000Y-142450000D01*
X134995000Y-139050000D01*
X137705000Y-139050000D01*
X137705000Y-142450000D01*
G36*
X137705000Y-142450000D02*
G01*
X134995000Y-142450000D01*
X134995000Y-139050000D01*
X137705000Y-139050000D01*
X137705000Y-142450000D01*
G37*
X134453000Y-138476000D02*
X134455000Y-138476000D01*
X134458000Y-138477000D01*
X134460000Y-138477000D01*
X134463000Y-138478000D01*
X134465000Y-138479000D01*
X134468000Y-138480000D01*
X134470000Y-138482000D01*
X134472000Y-138483000D01*
X134474000Y-138485000D01*
X134476000Y-138486000D01*
X134478000Y-138488000D01*
X134480000Y-138490000D01*
X134482000Y-138492000D01*
X134484000Y-138494000D01*
X134485000Y-138496000D01*
X134487000Y-138498000D01*
X134488000Y-138500000D01*
X134490000Y-138502000D01*
X134491000Y-138505000D01*
X134492000Y-138507000D01*
X134493000Y-138510000D01*
X134493000Y-138512000D01*
X134494000Y-138515000D01*
X134494000Y-138517000D01*
X134495000Y-138520000D01*
X134495000Y-138522000D01*
X134495000Y-138525000D01*
X134495000Y-139165000D01*
X134495000Y-139168000D01*
X134495000Y-139170000D01*
X134494000Y-139173000D01*
X134494000Y-139175000D01*
X134493000Y-139178000D01*
X134493000Y-139180000D01*
X134492000Y-139183000D01*
X134491000Y-139185000D01*
X134490000Y-139188000D01*
X134488000Y-139190000D01*
X134487000Y-139192000D01*
X134485000Y-139194000D01*
X134484000Y-139196000D01*
X134482000Y-139198000D01*
X134480000Y-139200000D01*
X134478000Y-139202000D01*
X134476000Y-139204000D01*
X134474000Y-139205000D01*
X134472000Y-139207000D01*
X134470000Y-139208000D01*
X134468000Y-139210000D01*
X134465000Y-139211000D01*
X134463000Y-139212000D01*
X134460000Y-139213000D01*
X134458000Y-139213000D01*
X134455000Y-139214000D01*
X134453000Y-139214000D01*
X134450000Y-139215000D01*
X134448000Y-139215000D01*
X134445000Y-139215000D01*
X132855000Y-139215000D01*
X132852000Y-139215000D01*
X132850000Y-139215000D01*
X132847000Y-139214000D01*
X132845000Y-139214000D01*
X132842000Y-139213000D01*
X132840000Y-139213000D01*
X132837000Y-139212000D01*
X132835000Y-139211000D01*
X132832000Y-139210000D01*
X132830000Y-139208000D01*
X132828000Y-139207000D01*
X132826000Y-139205000D01*
X132824000Y-139204000D01*
X132822000Y-139202000D01*
X132820000Y-139200000D01*
X132818000Y-139198000D01*
X132816000Y-139196000D01*
X132815000Y-139194000D01*
X132813000Y-139192000D01*
X132812000Y-139190000D01*
X132810000Y-139188000D01*
X132809000Y-139185000D01*
X132808000Y-139183000D01*
X132807000Y-139180000D01*
X132807000Y-139178000D01*
X132806000Y-139175000D01*
X132806000Y-139173000D01*
X132805000Y-139170000D01*
X132805000Y-139168000D01*
X132805000Y-139165000D01*
X132805000Y-138525000D01*
X132805000Y-138522000D01*
X132805000Y-138520000D01*
X132806000Y-138517000D01*
X132806000Y-138515000D01*
X132807000Y-138512000D01*
X132807000Y-138510000D01*
X132808000Y-138507000D01*
X132809000Y-138505000D01*
X132810000Y-138502000D01*
X132812000Y-138500000D01*
X132813000Y-138498000D01*
X132815000Y-138496000D01*
X132816000Y-138494000D01*
X132818000Y-138492000D01*
X132820000Y-138490000D01*
X132822000Y-138488000D01*
X132824000Y-138486000D01*
X132826000Y-138485000D01*
X132828000Y-138483000D01*
X132830000Y-138482000D01*
X132832000Y-138480000D01*
X132835000Y-138479000D01*
X132837000Y-138478000D01*
X132840000Y-138477000D01*
X132842000Y-138477000D01*
X132845000Y-138476000D01*
X132847000Y-138476000D01*
X132850000Y-138475000D01*
X132852000Y-138475000D01*
X132855000Y-138475000D01*
X134445000Y-138475000D01*
X134448000Y-138475000D01*
X134450000Y-138475000D01*
X134453000Y-138476000D01*
G36*
X134453000Y-138476000D02*
G01*
X134455000Y-138476000D01*
X134458000Y-138477000D01*
X134460000Y-138477000D01*
X134463000Y-138478000D01*
X134465000Y-138479000D01*
X134468000Y-138480000D01*
X134470000Y-138482000D01*
X134472000Y-138483000D01*
X134474000Y-138485000D01*
X134476000Y-138486000D01*
X134478000Y-138488000D01*
X134480000Y-138490000D01*
X134482000Y-138492000D01*
X134484000Y-138494000D01*
X134485000Y-138496000D01*
X134487000Y-138498000D01*
X134488000Y-138500000D01*
X134490000Y-138502000D01*
X134491000Y-138505000D01*
X134492000Y-138507000D01*
X134493000Y-138510000D01*
X134493000Y-138512000D01*
X134494000Y-138515000D01*
X134494000Y-138517000D01*
X134495000Y-138520000D01*
X134495000Y-138522000D01*
X134495000Y-138525000D01*
X134495000Y-139165000D01*
X134495000Y-139168000D01*
X134495000Y-139170000D01*
X134494000Y-139173000D01*
X134494000Y-139175000D01*
X134493000Y-139178000D01*
X134493000Y-139180000D01*
X134492000Y-139183000D01*
X134491000Y-139185000D01*
X134490000Y-139188000D01*
X134488000Y-139190000D01*
X134487000Y-139192000D01*
X134485000Y-139194000D01*
X134484000Y-139196000D01*
X134482000Y-139198000D01*
X134480000Y-139200000D01*
X134478000Y-139202000D01*
X134476000Y-139204000D01*
X134474000Y-139205000D01*
X134472000Y-139207000D01*
X134470000Y-139208000D01*
X134468000Y-139210000D01*
X134465000Y-139211000D01*
X134463000Y-139212000D01*
X134460000Y-139213000D01*
X134458000Y-139213000D01*
X134455000Y-139214000D01*
X134453000Y-139214000D01*
X134450000Y-139215000D01*
X134448000Y-139215000D01*
X134445000Y-139215000D01*
X132855000Y-139215000D01*
X132852000Y-139215000D01*
X132850000Y-139215000D01*
X132847000Y-139214000D01*
X132845000Y-139214000D01*
X132842000Y-139213000D01*
X132840000Y-139213000D01*
X132837000Y-139212000D01*
X132835000Y-139211000D01*
X132832000Y-139210000D01*
X132830000Y-139208000D01*
X132828000Y-139207000D01*
X132826000Y-139205000D01*
X132824000Y-139204000D01*
X132822000Y-139202000D01*
X132820000Y-139200000D01*
X132818000Y-139198000D01*
X132816000Y-139196000D01*
X132815000Y-139194000D01*
X132813000Y-139192000D01*
X132812000Y-139190000D01*
X132810000Y-139188000D01*
X132809000Y-139185000D01*
X132808000Y-139183000D01*
X132807000Y-139180000D01*
X132807000Y-139178000D01*
X132806000Y-139175000D01*
X132806000Y-139173000D01*
X132805000Y-139170000D01*
X132805000Y-139168000D01*
X132805000Y-139165000D01*
X132805000Y-138525000D01*
X132805000Y-138522000D01*
X132805000Y-138520000D01*
X132806000Y-138517000D01*
X132806000Y-138515000D01*
X132807000Y-138512000D01*
X132807000Y-138510000D01*
X132808000Y-138507000D01*
X132809000Y-138505000D01*
X132810000Y-138502000D01*
X132812000Y-138500000D01*
X132813000Y-138498000D01*
X132815000Y-138496000D01*
X132816000Y-138494000D01*
X132818000Y-138492000D01*
X132820000Y-138490000D01*
X132822000Y-138488000D01*
X132824000Y-138486000D01*
X132826000Y-138485000D01*
X132828000Y-138483000D01*
X132830000Y-138482000D01*
X132832000Y-138480000D01*
X132835000Y-138479000D01*
X132837000Y-138478000D01*
X132840000Y-138477000D01*
X132842000Y-138477000D01*
X132845000Y-138476000D01*
X132847000Y-138476000D01*
X132850000Y-138475000D01*
X132852000Y-138475000D01*
X132855000Y-138475000D01*
X134445000Y-138475000D01*
X134448000Y-138475000D01*
X134450000Y-138475000D01*
X134453000Y-138476000D01*
G37*
X134453000Y-139746000D02*
X134455000Y-139746000D01*
X134458000Y-139747000D01*
X134460000Y-139747000D01*
X134463000Y-139748000D01*
X134465000Y-139749000D01*
X134468000Y-139750000D01*
X134470000Y-139752000D01*
X134472000Y-139753000D01*
X134474000Y-139755000D01*
X134476000Y-139756000D01*
X134478000Y-139758000D01*
X134480000Y-139760000D01*
X134482000Y-139762000D01*
X134484000Y-139764000D01*
X134485000Y-139766000D01*
X134487000Y-139768000D01*
X134488000Y-139770000D01*
X134490000Y-139772000D01*
X134491000Y-139775000D01*
X134492000Y-139777000D01*
X134493000Y-139780000D01*
X134493000Y-139782000D01*
X134494000Y-139785000D01*
X134494000Y-139787000D01*
X134495000Y-139790000D01*
X134495000Y-139792000D01*
X134495000Y-139795000D01*
X134495000Y-140435000D01*
X134495000Y-140438000D01*
X134495000Y-140440000D01*
X134494000Y-140443000D01*
X134494000Y-140445000D01*
X134493000Y-140448000D01*
X134493000Y-140450000D01*
X134492000Y-140453000D01*
X134491000Y-140455000D01*
X134490000Y-140458000D01*
X134488000Y-140460000D01*
X134487000Y-140462000D01*
X134485000Y-140464000D01*
X134484000Y-140466000D01*
X134482000Y-140468000D01*
X134480000Y-140470000D01*
X134478000Y-140472000D01*
X134476000Y-140474000D01*
X134474000Y-140475000D01*
X134472000Y-140477000D01*
X134470000Y-140478000D01*
X134468000Y-140480000D01*
X134465000Y-140481000D01*
X134463000Y-140482000D01*
X134460000Y-140483000D01*
X134458000Y-140483000D01*
X134455000Y-140484000D01*
X134453000Y-140484000D01*
X134450000Y-140485000D01*
X134448000Y-140485000D01*
X134445000Y-140485000D01*
X132855000Y-140485000D01*
X132852000Y-140485000D01*
X132850000Y-140485000D01*
X132847000Y-140484000D01*
X132845000Y-140484000D01*
X132842000Y-140483000D01*
X132840000Y-140483000D01*
X132837000Y-140482000D01*
X132835000Y-140481000D01*
X132832000Y-140480000D01*
X132830000Y-140478000D01*
X132828000Y-140477000D01*
X132826000Y-140475000D01*
X132824000Y-140474000D01*
X132822000Y-140472000D01*
X132820000Y-140470000D01*
X132818000Y-140468000D01*
X132816000Y-140466000D01*
X132815000Y-140464000D01*
X132813000Y-140462000D01*
X132812000Y-140460000D01*
X132810000Y-140458000D01*
X132809000Y-140455000D01*
X132808000Y-140453000D01*
X132807000Y-140450000D01*
X132807000Y-140448000D01*
X132806000Y-140445000D01*
X132806000Y-140443000D01*
X132805000Y-140440000D01*
X132805000Y-140438000D01*
X132805000Y-140435000D01*
X132805000Y-139795000D01*
X132805000Y-139792000D01*
X132805000Y-139790000D01*
X132806000Y-139787000D01*
X132806000Y-139785000D01*
X132807000Y-139782000D01*
X132807000Y-139780000D01*
X132808000Y-139777000D01*
X132809000Y-139775000D01*
X132810000Y-139772000D01*
X132812000Y-139770000D01*
X132813000Y-139768000D01*
X132815000Y-139766000D01*
X132816000Y-139764000D01*
X132818000Y-139762000D01*
X132820000Y-139760000D01*
X132822000Y-139758000D01*
X132824000Y-139756000D01*
X132826000Y-139755000D01*
X132828000Y-139753000D01*
X132830000Y-139752000D01*
X132832000Y-139750000D01*
X132835000Y-139749000D01*
X132837000Y-139748000D01*
X132840000Y-139747000D01*
X132842000Y-139747000D01*
X132845000Y-139746000D01*
X132847000Y-139746000D01*
X132850000Y-139745000D01*
X132852000Y-139745000D01*
X132855000Y-139745000D01*
X134445000Y-139745000D01*
X134448000Y-139745000D01*
X134450000Y-139745000D01*
X134453000Y-139746000D01*
G36*
X134453000Y-139746000D02*
G01*
X134455000Y-139746000D01*
X134458000Y-139747000D01*
X134460000Y-139747000D01*
X134463000Y-139748000D01*
X134465000Y-139749000D01*
X134468000Y-139750000D01*
X134470000Y-139752000D01*
X134472000Y-139753000D01*
X134474000Y-139755000D01*
X134476000Y-139756000D01*
X134478000Y-139758000D01*
X134480000Y-139760000D01*
X134482000Y-139762000D01*
X134484000Y-139764000D01*
X134485000Y-139766000D01*
X134487000Y-139768000D01*
X134488000Y-139770000D01*
X134490000Y-139772000D01*
X134491000Y-139775000D01*
X134492000Y-139777000D01*
X134493000Y-139780000D01*
X134493000Y-139782000D01*
X134494000Y-139785000D01*
X134494000Y-139787000D01*
X134495000Y-139790000D01*
X134495000Y-139792000D01*
X134495000Y-139795000D01*
X134495000Y-140435000D01*
X134495000Y-140438000D01*
X134495000Y-140440000D01*
X134494000Y-140443000D01*
X134494000Y-140445000D01*
X134493000Y-140448000D01*
X134493000Y-140450000D01*
X134492000Y-140453000D01*
X134491000Y-140455000D01*
X134490000Y-140458000D01*
X134488000Y-140460000D01*
X134487000Y-140462000D01*
X134485000Y-140464000D01*
X134484000Y-140466000D01*
X134482000Y-140468000D01*
X134480000Y-140470000D01*
X134478000Y-140472000D01*
X134476000Y-140474000D01*
X134474000Y-140475000D01*
X134472000Y-140477000D01*
X134470000Y-140478000D01*
X134468000Y-140480000D01*
X134465000Y-140481000D01*
X134463000Y-140482000D01*
X134460000Y-140483000D01*
X134458000Y-140483000D01*
X134455000Y-140484000D01*
X134453000Y-140484000D01*
X134450000Y-140485000D01*
X134448000Y-140485000D01*
X134445000Y-140485000D01*
X132855000Y-140485000D01*
X132852000Y-140485000D01*
X132850000Y-140485000D01*
X132847000Y-140484000D01*
X132845000Y-140484000D01*
X132842000Y-140483000D01*
X132840000Y-140483000D01*
X132837000Y-140482000D01*
X132835000Y-140481000D01*
X132832000Y-140480000D01*
X132830000Y-140478000D01*
X132828000Y-140477000D01*
X132826000Y-140475000D01*
X132824000Y-140474000D01*
X132822000Y-140472000D01*
X132820000Y-140470000D01*
X132818000Y-140468000D01*
X132816000Y-140466000D01*
X132815000Y-140464000D01*
X132813000Y-140462000D01*
X132812000Y-140460000D01*
X132810000Y-140458000D01*
X132809000Y-140455000D01*
X132808000Y-140453000D01*
X132807000Y-140450000D01*
X132807000Y-140448000D01*
X132806000Y-140445000D01*
X132806000Y-140443000D01*
X132805000Y-140440000D01*
X132805000Y-140438000D01*
X132805000Y-140435000D01*
X132805000Y-139795000D01*
X132805000Y-139792000D01*
X132805000Y-139790000D01*
X132806000Y-139787000D01*
X132806000Y-139785000D01*
X132807000Y-139782000D01*
X132807000Y-139780000D01*
X132808000Y-139777000D01*
X132809000Y-139775000D01*
X132810000Y-139772000D01*
X132812000Y-139770000D01*
X132813000Y-139768000D01*
X132815000Y-139766000D01*
X132816000Y-139764000D01*
X132818000Y-139762000D01*
X132820000Y-139760000D01*
X132822000Y-139758000D01*
X132824000Y-139756000D01*
X132826000Y-139755000D01*
X132828000Y-139753000D01*
X132830000Y-139752000D01*
X132832000Y-139750000D01*
X132835000Y-139749000D01*
X132837000Y-139748000D01*
X132840000Y-139747000D01*
X132842000Y-139747000D01*
X132845000Y-139746000D01*
X132847000Y-139746000D01*
X132850000Y-139745000D01*
X132852000Y-139745000D01*
X132855000Y-139745000D01*
X134445000Y-139745000D01*
X134448000Y-139745000D01*
X134450000Y-139745000D01*
X134453000Y-139746000D01*
G37*
X134453000Y-141016000D02*
X134455000Y-141016000D01*
X134458000Y-141017000D01*
X134460000Y-141017000D01*
X134463000Y-141018000D01*
X134465000Y-141019000D01*
X134468000Y-141020000D01*
X134470000Y-141022000D01*
X134472000Y-141023000D01*
X134474000Y-141025000D01*
X134476000Y-141026000D01*
X134478000Y-141028000D01*
X134480000Y-141030000D01*
X134482000Y-141032000D01*
X134484000Y-141034000D01*
X134485000Y-141036000D01*
X134487000Y-141038000D01*
X134488000Y-141040000D01*
X134490000Y-141042000D01*
X134491000Y-141045000D01*
X134492000Y-141047000D01*
X134493000Y-141050000D01*
X134493000Y-141052000D01*
X134494000Y-141055000D01*
X134494000Y-141057000D01*
X134495000Y-141060000D01*
X134495000Y-141062000D01*
X134495000Y-141065000D01*
X134495000Y-141705000D01*
X134495000Y-141708000D01*
X134495000Y-141710000D01*
X134494000Y-141713000D01*
X134494000Y-141715000D01*
X134493000Y-141718000D01*
X134493000Y-141720000D01*
X134492000Y-141723000D01*
X134491000Y-141725000D01*
X134490000Y-141728000D01*
X134488000Y-141730000D01*
X134487000Y-141732000D01*
X134485000Y-141734000D01*
X134484000Y-141736000D01*
X134482000Y-141738000D01*
X134480000Y-141740000D01*
X134478000Y-141742000D01*
X134476000Y-141744000D01*
X134474000Y-141745000D01*
X134472000Y-141747000D01*
X134470000Y-141748000D01*
X134468000Y-141750000D01*
X134465000Y-141751000D01*
X134463000Y-141752000D01*
X134460000Y-141753000D01*
X134458000Y-141753000D01*
X134455000Y-141754000D01*
X134453000Y-141754000D01*
X134450000Y-141755000D01*
X134448000Y-141755000D01*
X134445000Y-141755000D01*
X132855000Y-141755000D01*
X132852000Y-141755000D01*
X132850000Y-141755000D01*
X132847000Y-141754000D01*
X132845000Y-141754000D01*
X132842000Y-141753000D01*
X132840000Y-141753000D01*
X132837000Y-141752000D01*
X132835000Y-141751000D01*
X132832000Y-141750000D01*
X132830000Y-141748000D01*
X132828000Y-141747000D01*
X132826000Y-141745000D01*
X132824000Y-141744000D01*
X132822000Y-141742000D01*
X132820000Y-141740000D01*
X132818000Y-141738000D01*
X132816000Y-141736000D01*
X132815000Y-141734000D01*
X132813000Y-141732000D01*
X132812000Y-141730000D01*
X132810000Y-141728000D01*
X132809000Y-141725000D01*
X132808000Y-141723000D01*
X132807000Y-141720000D01*
X132807000Y-141718000D01*
X132806000Y-141715000D01*
X132806000Y-141713000D01*
X132805000Y-141710000D01*
X132805000Y-141708000D01*
X132805000Y-141705000D01*
X132805000Y-141065000D01*
X132805000Y-141062000D01*
X132805000Y-141060000D01*
X132806000Y-141057000D01*
X132806000Y-141055000D01*
X132807000Y-141052000D01*
X132807000Y-141050000D01*
X132808000Y-141047000D01*
X132809000Y-141045000D01*
X132810000Y-141042000D01*
X132812000Y-141040000D01*
X132813000Y-141038000D01*
X132815000Y-141036000D01*
X132816000Y-141034000D01*
X132818000Y-141032000D01*
X132820000Y-141030000D01*
X132822000Y-141028000D01*
X132824000Y-141026000D01*
X132826000Y-141025000D01*
X132828000Y-141023000D01*
X132830000Y-141022000D01*
X132832000Y-141020000D01*
X132835000Y-141019000D01*
X132837000Y-141018000D01*
X132840000Y-141017000D01*
X132842000Y-141017000D01*
X132845000Y-141016000D01*
X132847000Y-141016000D01*
X132850000Y-141015000D01*
X132852000Y-141015000D01*
X132855000Y-141015000D01*
X134445000Y-141015000D01*
X134448000Y-141015000D01*
X134450000Y-141015000D01*
X134453000Y-141016000D01*
G36*
X134453000Y-141016000D02*
G01*
X134455000Y-141016000D01*
X134458000Y-141017000D01*
X134460000Y-141017000D01*
X134463000Y-141018000D01*
X134465000Y-141019000D01*
X134468000Y-141020000D01*
X134470000Y-141022000D01*
X134472000Y-141023000D01*
X134474000Y-141025000D01*
X134476000Y-141026000D01*
X134478000Y-141028000D01*
X134480000Y-141030000D01*
X134482000Y-141032000D01*
X134484000Y-141034000D01*
X134485000Y-141036000D01*
X134487000Y-141038000D01*
X134488000Y-141040000D01*
X134490000Y-141042000D01*
X134491000Y-141045000D01*
X134492000Y-141047000D01*
X134493000Y-141050000D01*
X134493000Y-141052000D01*
X134494000Y-141055000D01*
X134494000Y-141057000D01*
X134495000Y-141060000D01*
X134495000Y-141062000D01*
X134495000Y-141065000D01*
X134495000Y-141705000D01*
X134495000Y-141708000D01*
X134495000Y-141710000D01*
X134494000Y-141713000D01*
X134494000Y-141715000D01*
X134493000Y-141718000D01*
X134493000Y-141720000D01*
X134492000Y-141723000D01*
X134491000Y-141725000D01*
X134490000Y-141728000D01*
X134488000Y-141730000D01*
X134487000Y-141732000D01*
X134485000Y-141734000D01*
X134484000Y-141736000D01*
X134482000Y-141738000D01*
X134480000Y-141740000D01*
X134478000Y-141742000D01*
X134476000Y-141744000D01*
X134474000Y-141745000D01*
X134472000Y-141747000D01*
X134470000Y-141748000D01*
X134468000Y-141750000D01*
X134465000Y-141751000D01*
X134463000Y-141752000D01*
X134460000Y-141753000D01*
X134458000Y-141753000D01*
X134455000Y-141754000D01*
X134453000Y-141754000D01*
X134450000Y-141755000D01*
X134448000Y-141755000D01*
X134445000Y-141755000D01*
X132855000Y-141755000D01*
X132852000Y-141755000D01*
X132850000Y-141755000D01*
X132847000Y-141754000D01*
X132845000Y-141754000D01*
X132842000Y-141753000D01*
X132840000Y-141753000D01*
X132837000Y-141752000D01*
X132835000Y-141751000D01*
X132832000Y-141750000D01*
X132830000Y-141748000D01*
X132828000Y-141747000D01*
X132826000Y-141745000D01*
X132824000Y-141744000D01*
X132822000Y-141742000D01*
X132820000Y-141740000D01*
X132818000Y-141738000D01*
X132816000Y-141736000D01*
X132815000Y-141734000D01*
X132813000Y-141732000D01*
X132812000Y-141730000D01*
X132810000Y-141728000D01*
X132809000Y-141725000D01*
X132808000Y-141723000D01*
X132807000Y-141720000D01*
X132807000Y-141718000D01*
X132806000Y-141715000D01*
X132806000Y-141713000D01*
X132805000Y-141710000D01*
X132805000Y-141708000D01*
X132805000Y-141705000D01*
X132805000Y-141065000D01*
X132805000Y-141062000D01*
X132805000Y-141060000D01*
X132806000Y-141057000D01*
X132806000Y-141055000D01*
X132807000Y-141052000D01*
X132807000Y-141050000D01*
X132808000Y-141047000D01*
X132809000Y-141045000D01*
X132810000Y-141042000D01*
X132812000Y-141040000D01*
X132813000Y-141038000D01*
X132815000Y-141036000D01*
X132816000Y-141034000D01*
X132818000Y-141032000D01*
X132820000Y-141030000D01*
X132822000Y-141028000D01*
X132824000Y-141026000D01*
X132826000Y-141025000D01*
X132828000Y-141023000D01*
X132830000Y-141022000D01*
X132832000Y-141020000D01*
X132835000Y-141019000D01*
X132837000Y-141018000D01*
X132840000Y-141017000D01*
X132842000Y-141017000D01*
X132845000Y-141016000D01*
X132847000Y-141016000D01*
X132850000Y-141015000D01*
X132852000Y-141015000D01*
X132855000Y-141015000D01*
X134445000Y-141015000D01*
X134448000Y-141015000D01*
X134450000Y-141015000D01*
X134453000Y-141016000D01*
G37*
X134453000Y-142286000D02*
X134455000Y-142286000D01*
X134458000Y-142287000D01*
X134460000Y-142287000D01*
X134463000Y-142288000D01*
X134465000Y-142289000D01*
X134468000Y-142290000D01*
X134470000Y-142292000D01*
X134472000Y-142293000D01*
X134474000Y-142295000D01*
X134476000Y-142296000D01*
X134478000Y-142298000D01*
X134480000Y-142300000D01*
X134482000Y-142302000D01*
X134484000Y-142304000D01*
X134485000Y-142306000D01*
X134487000Y-142308000D01*
X134488000Y-142310000D01*
X134490000Y-142312000D01*
X134491000Y-142315000D01*
X134492000Y-142317000D01*
X134493000Y-142320000D01*
X134493000Y-142322000D01*
X134494000Y-142325000D01*
X134494000Y-142327000D01*
X134495000Y-142330000D01*
X134495000Y-142332000D01*
X134495000Y-142335000D01*
X134495000Y-142975000D01*
X134495000Y-142978000D01*
X134495000Y-142980000D01*
X134494000Y-142983000D01*
X134494000Y-142985000D01*
X134493000Y-142988000D01*
X134493000Y-142990000D01*
X134492000Y-142993000D01*
X134491000Y-142995000D01*
X134490000Y-142998000D01*
X134488000Y-143000000D01*
X134487000Y-143002000D01*
X134485000Y-143004000D01*
X134484000Y-143006000D01*
X134482000Y-143008000D01*
X134480000Y-143010000D01*
X134478000Y-143012000D01*
X134476000Y-143014000D01*
X134474000Y-143015000D01*
X134472000Y-143017000D01*
X134470000Y-143018000D01*
X134468000Y-143020000D01*
X134465000Y-143021000D01*
X134463000Y-143022000D01*
X134460000Y-143023000D01*
X134458000Y-143023000D01*
X134455000Y-143024000D01*
X134453000Y-143024000D01*
X134450000Y-143025000D01*
X134448000Y-143025000D01*
X134445000Y-143025000D01*
X132855000Y-143025000D01*
X132852000Y-143025000D01*
X132850000Y-143025000D01*
X132847000Y-143024000D01*
X132845000Y-143024000D01*
X132842000Y-143023000D01*
X132840000Y-143023000D01*
X132837000Y-143022000D01*
X132835000Y-143021000D01*
X132832000Y-143020000D01*
X132830000Y-143018000D01*
X132828000Y-143017000D01*
X132826000Y-143015000D01*
X132824000Y-143014000D01*
X132822000Y-143012000D01*
X132820000Y-143010000D01*
X132818000Y-143008000D01*
X132816000Y-143006000D01*
X132815000Y-143004000D01*
X132813000Y-143002000D01*
X132812000Y-143000000D01*
X132810000Y-142998000D01*
X132809000Y-142995000D01*
X132808000Y-142993000D01*
X132807000Y-142990000D01*
X132807000Y-142988000D01*
X132806000Y-142985000D01*
X132806000Y-142983000D01*
X132805000Y-142980000D01*
X132805000Y-142978000D01*
X132805000Y-142975000D01*
X132805000Y-142335000D01*
X132805000Y-142332000D01*
X132805000Y-142330000D01*
X132806000Y-142327000D01*
X132806000Y-142325000D01*
X132807000Y-142322000D01*
X132807000Y-142320000D01*
X132808000Y-142317000D01*
X132809000Y-142315000D01*
X132810000Y-142312000D01*
X132812000Y-142310000D01*
X132813000Y-142308000D01*
X132815000Y-142306000D01*
X132816000Y-142304000D01*
X132818000Y-142302000D01*
X132820000Y-142300000D01*
X132822000Y-142298000D01*
X132824000Y-142296000D01*
X132826000Y-142295000D01*
X132828000Y-142293000D01*
X132830000Y-142292000D01*
X132832000Y-142290000D01*
X132835000Y-142289000D01*
X132837000Y-142288000D01*
X132840000Y-142287000D01*
X132842000Y-142287000D01*
X132845000Y-142286000D01*
X132847000Y-142286000D01*
X132850000Y-142285000D01*
X132852000Y-142285000D01*
X132855000Y-142285000D01*
X134445000Y-142285000D01*
X134448000Y-142285000D01*
X134450000Y-142285000D01*
X134453000Y-142286000D01*
G36*
X134453000Y-142286000D02*
G01*
X134455000Y-142286000D01*
X134458000Y-142287000D01*
X134460000Y-142287000D01*
X134463000Y-142288000D01*
X134465000Y-142289000D01*
X134468000Y-142290000D01*
X134470000Y-142292000D01*
X134472000Y-142293000D01*
X134474000Y-142295000D01*
X134476000Y-142296000D01*
X134478000Y-142298000D01*
X134480000Y-142300000D01*
X134482000Y-142302000D01*
X134484000Y-142304000D01*
X134485000Y-142306000D01*
X134487000Y-142308000D01*
X134488000Y-142310000D01*
X134490000Y-142312000D01*
X134491000Y-142315000D01*
X134492000Y-142317000D01*
X134493000Y-142320000D01*
X134493000Y-142322000D01*
X134494000Y-142325000D01*
X134494000Y-142327000D01*
X134495000Y-142330000D01*
X134495000Y-142332000D01*
X134495000Y-142335000D01*
X134495000Y-142975000D01*
X134495000Y-142978000D01*
X134495000Y-142980000D01*
X134494000Y-142983000D01*
X134494000Y-142985000D01*
X134493000Y-142988000D01*
X134493000Y-142990000D01*
X134492000Y-142993000D01*
X134491000Y-142995000D01*
X134490000Y-142998000D01*
X134488000Y-143000000D01*
X134487000Y-143002000D01*
X134485000Y-143004000D01*
X134484000Y-143006000D01*
X134482000Y-143008000D01*
X134480000Y-143010000D01*
X134478000Y-143012000D01*
X134476000Y-143014000D01*
X134474000Y-143015000D01*
X134472000Y-143017000D01*
X134470000Y-143018000D01*
X134468000Y-143020000D01*
X134465000Y-143021000D01*
X134463000Y-143022000D01*
X134460000Y-143023000D01*
X134458000Y-143023000D01*
X134455000Y-143024000D01*
X134453000Y-143024000D01*
X134450000Y-143025000D01*
X134448000Y-143025000D01*
X134445000Y-143025000D01*
X132855000Y-143025000D01*
X132852000Y-143025000D01*
X132850000Y-143025000D01*
X132847000Y-143024000D01*
X132845000Y-143024000D01*
X132842000Y-143023000D01*
X132840000Y-143023000D01*
X132837000Y-143022000D01*
X132835000Y-143021000D01*
X132832000Y-143020000D01*
X132830000Y-143018000D01*
X132828000Y-143017000D01*
X132826000Y-143015000D01*
X132824000Y-143014000D01*
X132822000Y-143012000D01*
X132820000Y-143010000D01*
X132818000Y-143008000D01*
X132816000Y-143006000D01*
X132815000Y-143004000D01*
X132813000Y-143002000D01*
X132812000Y-143000000D01*
X132810000Y-142998000D01*
X132809000Y-142995000D01*
X132808000Y-142993000D01*
X132807000Y-142990000D01*
X132807000Y-142988000D01*
X132806000Y-142985000D01*
X132806000Y-142983000D01*
X132805000Y-142980000D01*
X132805000Y-142978000D01*
X132805000Y-142975000D01*
X132805000Y-142335000D01*
X132805000Y-142332000D01*
X132805000Y-142330000D01*
X132806000Y-142327000D01*
X132806000Y-142325000D01*
X132807000Y-142322000D01*
X132807000Y-142320000D01*
X132808000Y-142317000D01*
X132809000Y-142315000D01*
X132810000Y-142312000D01*
X132812000Y-142310000D01*
X132813000Y-142308000D01*
X132815000Y-142306000D01*
X132816000Y-142304000D01*
X132818000Y-142302000D01*
X132820000Y-142300000D01*
X132822000Y-142298000D01*
X132824000Y-142296000D01*
X132826000Y-142295000D01*
X132828000Y-142293000D01*
X132830000Y-142292000D01*
X132832000Y-142290000D01*
X132835000Y-142289000D01*
X132837000Y-142288000D01*
X132840000Y-142287000D01*
X132842000Y-142287000D01*
X132845000Y-142286000D01*
X132847000Y-142286000D01*
X132850000Y-142285000D01*
X132852000Y-142285000D01*
X132855000Y-142285000D01*
X134445000Y-142285000D01*
X134448000Y-142285000D01*
X134450000Y-142285000D01*
X134453000Y-142286000D01*
G37*
X139853000Y-138476000D02*
X139855000Y-138476000D01*
X139858000Y-138477000D01*
X139860000Y-138477000D01*
X139863000Y-138478000D01*
X139865000Y-138479000D01*
X139868000Y-138480000D01*
X139870000Y-138482000D01*
X139872000Y-138483000D01*
X139874000Y-138485000D01*
X139876000Y-138486000D01*
X139878000Y-138488000D01*
X139880000Y-138490000D01*
X139882000Y-138492000D01*
X139884000Y-138494000D01*
X139885000Y-138496000D01*
X139887000Y-138498000D01*
X139888000Y-138500000D01*
X139890000Y-138502000D01*
X139891000Y-138505000D01*
X139892000Y-138507000D01*
X139893000Y-138510000D01*
X139893000Y-138512000D01*
X139894000Y-138515000D01*
X139894000Y-138517000D01*
X139895000Y-138520000D01*
X139895000Y-138522000D01*
X139895000Y-138525000D01*
X139895000Y-139165000D01*
X139895000Y-139168000D01*
X139895000Y-139170000D01*
X139894000Y-139173000D01*
X139894000Y-139175000D01*
X139893000Y-139178000D01*
X139893000Y-139180000D01*
X139892000Y-139183000D01*
X139891000Y-139185000D01*
X139890000Y-139188000D01*
X139888000Y-139190000D01*
X139887000Y-139192000D01*
X139885000Y-139194000D01*
X139884000Y-139196000D01*
X139882000Y-139198000D01*
X139880000Y-139200000D01*
X139878000Y-139202000D01*
X139876000Y-139204000D01*
X139874000Y-139205000D01*
X139872000Y-139207000D01*
X139870000Y-139208000D01*
X139868000Y-139210000D01*
X139865000Y-139211000D01*
X139863000Y-139212000D01*
X139860000Y-139213000D01*
X139858000Y-139213000D01*
X139855000Y-139214000D01*
X139853000Y-139214000D01*
X139850000Y-139215000D01*
X139848000Y-139215000D01*
X139845000Y-139215000D01*
X138255000Y-139215000D01*
X138252000Y-139215000D01*
X138250000Y-139215000D01*
X138247000Y-139214000D01*
X138245000Y-139214000D01*
X138242000Y-139213000D01*
X138240000Y-139213000D01*
X138237000Y-139212000D01*
X138235000Y-139211000D01*
X138232000Y-139210000D01*
X138230000Y-139208000D01*
X138228000Y-139207000D01*
X138226000Y-139205000D01*
X138224000Y-139204000D01*
X138222000Y-139202000D01*
X138220000Y-139200000D01*
X138218000Y-139198000D01*
X138216000Y-139196000D01*
X138215000Y-139194000D01*
X138213000Y-139192000D01*
X138212000Y-139190000D01*
X138210000Y-139188000D01*
X138209000Y-139185000D01*
X138208000Y-139183000D01*
X138207000Y-139180000D01*
X138207000Y-139178000D01*
X138206000Y-139175000D01*
X138206000Y-139173000D01*
X138205000Y-139170000D01*
X138205000Y-139168000D01*
X138205000Y-139165000D01*
X138205000Y-138525000D01*
X138205000Y-138522000D01*
X138205000Y-138520000D01*
X138206000Y-138517000D01*
X138206000Y-138515000D01*
X138207000Y-138512000D01*
X138207000Y-138510000D01*
X138208000Y-138507000D01*
X138209000Y-138505000D01*
X138210000Y-138502000D01*
X138212000Y-138500000D01*
X138213000Y-138498000D01*
X138215000Y-138496000D01*
X138216000Y-138494000D01*
X138218000Y-138492000D01*
X138220000Y-138490000D01*
X138222000Y-138488000D01*
X138224000Y-138486000D01*
X138226000Y-138485000D01*
X138228000Y-138483000D01*
X138230000Y-138482000D01*
X138232000Y-138480000D01*
X138235000Y-138479000D01*
X138237000Y-138478000D01*
X138240000Y-138477000D01*
X138242000Y-138477000D01*
X138245000Y-138476000D01*
X138247000Y-138476000D01*
X138250000Y-138475000D01*
X138252000Y-138475000D01*
X138255000Y-138475000D01*
X139845000Y-138475000D01*
X139848000Y-138475000D01*
X139850000Y-138475000D01*
X139853000Y-138476000D01*
G36*
X139853000Y-138476000D02*
G01*
X139855000Y-138476000D01*
X139858000Y-138477000D01*
X139860000Y-138477000D01*
X139863000Y-138478000D01*
X139865000Y-138479000D01*
X139868000Y-138480000D01*
X139870000Y-138482000D01*
X139872000Y-138483000D01*
X139874000Y-138485000D01*
X139876000Y-138486000D01*
X139878000Y-138488000D01*
X139880000Y-138490000D01*
X139882000Y-138492000D01*
X139884000Y-138494000D01*
X139885000Y-138496000D01*
X139887000Y-138498000D01*
X139888000Y-138500000D01*
X139890000Y-138502000D01*
X139891000Y-138505000D01*
X139892000Y-138507000D01*
X139893000Y-138510000D01*
X139893000Y-138512000D01*
X139894000Y-138515000D01*
X139894000Y-138517000D01*
X139895000Y-138520000D01*
X139895000Y-138522000D01*
X139895000Y-138525000D01*
X139895000Y-139165000D01*
X139895000Y-139168000D01*
X139895000Y-139170000D01*
X139894000Y-139173000D01*
X139894000Y-139175000D01*
X139893000Y-139178000D01*
X139893000Y-139180000D01*
X139892000Y-139183000D01*
X139891000Y-139185000D01*
X139890000Y-139188000D01*
X139888000Y-139190000D01*
X139887000Y-139192000D01*
X139885000Y-139194000D01*
X139884000Y-139196000D01*
X139882000Y-139198000D01*
X139880000Y-139200000D01*
X139878000Y-139202000D01*
X139876000Y-139204000D01*
X139874000Y-139205000D01*
X139872000Y-139207000D01*
X139870000Y-139208000D01*
X139868000Y-139210000D01*
X139865000Y-139211000D01*
X139863000Y-139212000D01*
X139860000Y-139213000D01*
X139858000Y-139213000D01*
X139855000Y-139214000D01*
X139853000Y-139214000D01*
X139850000Y-139215000D01*
X139848000Y-139215000D01*
X139845000Y-139215000D01*
X138255000Y-139215000D01*
X138252000Y-139215000D01*
X138250000Y-139215000D01*
X138247000Y-139214000D01*
X138245000Y-139214000D01*
X138242000Y-139213000D01*
X138240000Y-139213000D01*
X138237000Y-139212000D01*
X138235000Y-139211000D01*
X138232000Y-139210000D01*
X138230000Y-139208000D01*
X138228000Y-139207000D01*
X138226000Y-139205000D01*
X138224000Y-139204000D01*
X138222000Y-139202000D01*
X138220000Y-139200000D01*
X138218000Y-139198000D01*
X138216000Y-139196000D01*
X138215000Y-139194000D01*
X138213000Y-139192000D01*
X138212000Y-139190000D01*
X138210000Y-139188000D01*
X138209000Y-139185000D01*
X138208000Y-139183000D01*
X138207000Y-139180000D01*
X138207000Y-139178000D01*
X138206000Y-139175000D01*
X138206000Y-139173000D01*
X138205000Y-139170000D01*
X138205000Y-139168000D01*
X138205000Y-139165000D01*
X138205000Y-138525000D01*
X138205000Y-138522000D01*
X138205000Y-138520000D01*
X138206000Y-138517000D01*
X138206000Y-138515000D01*
X138207000Y-138512000D01*
X138207000Y-138510000D01*
X138208000Y-138507000D01*
X138209000Y-138505000D01*
X138210000Y-138502000D01*
X138212000Y-138500000D01*
X138213000Y-138498000D01*
X138215000Y-138496000D01*
X138216000Y-138494000D01*
X138218000Y-138492000D01*
X138220000Y-138490000D01*
X138222000Y-138488000D01*
X138224000Y-138486000D01*
X138226000Y-138485000D01*
X138228000Y-138483000D01*
X138230000Y-138482000D01*
X138232000Y-138480000D01*
X138235000Y-138479000D01*
X138237000Y-138478000D01*
X138240000Y-138477000D01*
X138242000Y-138477000D01*
X138245000Y-138476000D01*
X138247000Y-138476000D01*
X138250000Y-138475000D01*
X138252000Y-138475000D01*
X138255000Y-138475000D01*
X139845000Y-138475000D01*
X139848000Y-138475000D01*
X139850000Y-138475000D01*
X139853000Y-138476000D01*
G37*
X139853000Y-139746000D02*
X139855000Y-139746000D01*
X139858000Y-139747000D01*
X139860000Y-139747000D01*
X139863000Y-139748000D01*
X139865000Y-139749000D01*
X139868000Y-139750000D01*
X139870000Y-139752000D01*
X139872000Y-139753000D01*
X139874000Y-139755000D01*
X139876000Y-139756000D01*
X139878000Y-139758000D01*
X139880000Y-139760000D01*
X139882000Y-139762000D01*
X139884000Y-139764000D01*
X139885000Y-139766000D01*
X139887000Y-139768000D01*
X139888000Y-139770000D01*
X139890000Y-139772000D01*
X139891000Y-139775000D01*
X139892000Y-139777000D01*
X139893000Y-139780000D01*
X139893000Y-139782000D01*
X139894000Y-139785000D01*
X139894000Y-139787000D01*
X139895000Y-139790000D01*
X139895000Y-139792000D01*
X139895000Y-139795000D01*
X139895000Y-140435000D01*
X139895000Y-140438000D01*
X139895000Y-140440000D01*
X139894000Y-140443000D01*
X139894000Y-140445000D01*
X139893000Y-140448000D01*
X139893000Y-140450000D01*
X139892000Y-140453000D01*
X139891000Y-140455000D01*
X139890000Y-140458000D01*
X139888000Y-140460000D01*
X139887000Y-140462000D01*
X139885000Y-140464000D01*
X139884000Y-140466000D01*
X139882000Y-140468000D01*
X139880000Y-140470000D01*
X139878000Y-140472000D01*
X139876000Y-140474000D01*
X139874000Y-140475000D01*
X139872000Y-140477000D01*
X139870000Y-140478000D01*
X139868000Y-140480000D01*
X139865000Y-140481000D01*
X139863000Y-140482000D01*
X139860000Y-140483000D01*
X139858000Y-140483000D01*
X139855000Y-140484000D01*
X139853000Y-140484000D01*
X139850000Y-140485000D01*
X139848000Y-140485000D01*
X139845000Y-140485000D01*
X138255000Y-140485000D01*
X138252000Y-140485000D01*
X138250000Y-140485000D01*
X138247000Y-140484000D01*
X138245000Y-140484000D01*
X138242000Y-140483000D01*
X138240000Y-140483000D01*
X138237000Y-140482000D01*
X138235000Y-140481000D01*
X138232000Y-140480000D01*
X138230000Y-140478000D01*
X138228000Y-140477000D01*
X138226000Y-140475000D01*
X138224000Y-140474000D01*
X138222000Y-140472000D01*
X138220000Y-140470000D01*
X138218000Y-140468000D01*
X138216000Y-140466000D01*
X138215000Y-140464000D01*
X138213000Y-140462000D01*
X138212000Y-140460000D01*
X138210000Y-140458000D01*
X138209000Y-140455000D01*
X138208000Y-140453000D01*
X138207000Y-140450000D01*
X138207000Y-140448000D01*
X138206000Y-140445000D01*
X138206000Y-140443000D01*
X138205000Y-140440000D01*
X138205000Y-140438000D01*
X138205000Y-140435000D01*
X138205000Y-139795000D01*
X138205000Y-139792000D01*
X138205000Y-139790000D01*
X138206000Y-139787000D01*
X138206000Y-139785000D01*
X138207000Y-139782000D01*
X138207000Y-139780000D01*
X138208000Y-139777000D01*
X138209000Y-139775000D01*
X138210000Y-139772000D01*
X138212000Y-139770000D01*
X138213000Y-139768000D01*
X138215000Y-139766000D01*
X138216000Y-139764000D01*
X138218000Y-139762000D01*
X138220000Y-139760000D01*
X138222000Y-139758000D01*
X138224000Y-139756000D01*
X138226000Y-139755000D01*
X138228000Y-139753000D01*
X138230000Y-139752000D01*
X138232000Y-139750000D01*
X138235000Y-139749000D01*
X138237000Y-139748000D01*
X138240000Y-139747000D01*
X138242000Y-139747000D01*
X138245000Y-139746000D01*
X138247000Y-139746000D01*
X138250000Y-139745000D01*
X138252000Y-139745000D01*
X138255000Y-139745000D01*
X139845000Y-139745000D01*
X139848000Y-139745000D01*
X139850000Y-139745000D01*
X139853000Y-139746000D01*
G36*
X139853000Y-139746000D02*
G01*
X139855000Y-139746000D01*
X139858000Y-139747000D01*
X139860000Y-139747000D01*
X139863000Y-139748000D01*
X139865000Y-139749000D01*
X139868000Y-139750000D01*
X139870000Y-139752000D01*
X139872000Y-139753000D01*
X139874000Y-139755000D01*
X139876000Y-139756000D01*
X139878000Y-139758000D01*
X139880000Y-139760000D01*
X139882000Y-139762000D01*
X139884000Y-139764000D01*
X139885000Y-139766000D01*
X139887000Y-139768000D01*
X139888000Y-139770000D01*
X139890000Y-139772000D01*
X139891000Y-139775000D01*
X139892000Y-139777000D01*
X139893000Y-139780000D01*
X139893000Y-139782000D01*
X139894000Y-139785000D01*
X139894000Y-139787000D01*
X139895000Y-139790000D01*
X139895000Y-139792000D01*
X139895000Y-139795000D01*
X139895000Y-140435000D01*
X139895000Y-140438000D01*
X139895000Y-140440000D01*
X139894000Y-140443000D01*
X139894000Y-140445000D01*
X139893000Y-140448000D01*
X139893000Y-140450000D01*
X139892000Y-140453000D01*
X139891000Y-140455000D01*
X139890000Y-140458000D01*
X139888000Y-140460000D01*
X139887000Y-140462000D01*
X139885000Y-140464000D01*
X139884000Y-140466000D01*
X139882000Y-140468000D01*
X139880000Y-140470000D01*
X139878000Y-140472000D01*
X139876000Y-140474000D01*
X139874000Y-140475000D01*
X139872000Y-140477000D01*
X139870000Y-140478000D01*
X139868000Y-140480000D01*
X139865000Y-140481000D01*
X139863000Y-140482000D01*
X139860000Y-140483000D01*
X139858000Y-140483000D01*
X139855000Y-140484000D01*
X139853000Y-140484000D01*
X139850000Y-140485000D01*
X139848000Y-140485000D01*
X139845000Y-140485000D01*
X138255000Y-140485000D01*
X138252000Y-140485000D01*
X138250000Y-140485000D01*
X138247000Y-140484000D01*
X138245000Y-140484000D01*
X138242000Y-140483000D01*
X138240000Y-140483000D01*
X138237000Y-140482000D01*
X138235000Y-140481000D01*
X138232000Y-140480000D01*
X138230000Y-140478000D01*
X138228000Y-140477000D01*
X138226000Y-140475000D01*
X138224000Y-140474000D01*
X138222000Y-140472000D01*
X138220000Y-140470000D01*
X138218000Y-140468000D01*
X138216000Y-140466000D01*
X138215000Y-140464000D01*
X138213000Y-140462000D01*
X138212000Y-140460000D01*
X138210000Y-140458000D01*
X138209000Y-140455000D01*
X138208000Y-140453000D01*
X138207000Y-140450000D01*
X138207000Y-140448000D01*
X138206000Y-140445000D01*
X138206000Y-140443000D01*
X138205000Y-140440000D01*
X138205000Y-140438000D01*
X138205000Y-140435000D01*
X138205000Y-139795000D01*
X138205000Y-139792000D01*
X138205000Y-139790000D01*
X138206000Y-139787000D01*
X138206000Y-139785000D01*
X138207000Y-139782000D01*
X138207000Y-139780000D01*
X138208000Y-139777000D01*
X138209000Y-139775000D01*
X138210000Y-139772000D01*
X138212000Y-139770000D01*
X138213000Y-139768000D01*
X138215000Y-139766000D01*
X138216000Y-139764000D01*
X138218000Y-139762000D01*
X138220000Y-139760000D01*
X138222000Y-139758000D01*
X138224000Y-139756000D01*
X138226000Y-139755000D01*
X138228000Y-139753000D01*
X138230000Y-139752000D01*
X138232000Y-139750000D01*
X138235000Y-139749000D01*
X138237000Y-139748000D01*
X138240000Y-139747000D01*
X138242000Y-139747000D01*
X138245000Y-139746000D01*
X138247000Y-139746000D01*
X138250000Y-139745000D01*
X138252000Y-139745000D01*
X138255000Y-139745000D01*
X139845000Y-139745000D01*
X139848000Y-139745000D01*
X139850000Y-139745000D01*
X139853000Y-139746000D01*
G37*
X139853000Y-141016000D02*
X139855000Y-141016000D01*
X139858000Y-141017000D01*
X139860000Y-141017000D01*
X139863000Y-141018000D01*
X139865000Y-141019000D01*
X139868000Y-141020000D01*
X139870000Y-141022000D01*
X139872000Y-141023000D01*
X139874000Y-141025000D01*
X139876000Y-141026000D01*
X139878000Y-141028000D01*
X139880000Y-141030000D01*
X139882000Y-141032000D01*
X139884000Y-141034000D01*
X139885000Y-141036000D01*
X139887000Y-141038000D01*
X139888000Y-141040000D01*
X139890000Y-141042000D01*
X139891000Y-141045000D01*
X139892000Y-141047000D01*
X139893000Y-141050000D01*
X139893000Y-141052000D01*
X139894000Y-141055000D01*
X139894000Y-141057000D01*
X139895000Y-141060000D01*
X139895000Y-141062000D01*
X139895000Y-141065000D01*
X139895000Y-141705000D01*
X139895000Y-141708000D01*
X139895000Y-141710000D01*
X139894000Y-141713000D01*
X139894000Y-141715000D01*
X139893000Y-141718000D01*
X139893000Y-141720000D01*
X139892000Y-141723000D01*
X139891000Y-141725000D01*
X139890000Y-141728000D01*
X139888000Y-141730000D01*
X139887000Y-141732000D01*
X139885000Y-141734000D01*
X139884000Y-141736000D01*
X139882000Y-141738000D01*
X139880000Y-141740000D01*
X139878000Y-141742000D01*
X139876000Y-141744000D01*
X139874000Y-141745000D01*
X139872000Y-141747000D01*
X139870000Y-141748000D01*
X139868000Y-141750000D01*
X139865000Y-141751000D01*
X139863000Y-141752000D01*
X139860000Y-141753000D01*
X139858000Y-141753000D01*
X139855000Y-141754000D01*
X139853000Y-141754000D01*
X139850000Y-141755000D01*
X139848000Y-141755000D01*
X139845000Y-141755000D01*
X138255000Y-141755000D01*
X138252000Y-141755000D01*
X138250000Y-141755000D01*
X138247000Y-141754000D01*
X138245000Y-141754000D01*
X138242000Y-141753000D01*
X138240000Y-141753000D01*
X138237000Y-141752000D01*
X138235000Y-141751000D01*
X138232000Y-141750000D01*
X138230000Y-141748000D01*
X138228000Y-141747000D01*
X138226000Y-141745000D01*
X138224000Y-141744000D01*
X138222000Y-141742000D01*
X138220000Y-141740000D01*
X138218000Y-141738000D01*
X138216000Y-141736000D01*
X138215000Y-141734000D01*
X138213000Y-141732000D01*
X138212000Y-141730000D01*
X138210000Y-141728000D01*
X138209000Y-141725000D01*
X138208000Y-141723000D01*
X138207000Y-141720000D01*
X138207000Y-141718000D01*
X138206000Y-141715000D01*
X138206000Y-141713000D01*
X138205000Y-141710000D01*
X138205000Y-141708000D01*
X138205000Y-141705000D01*
X138205000Y-141065000D01*
X138205000Y-141062000D01*
X138205000Y-141060000D01*
X138206000Y-141057000D01*
X138206000Y-141055000D01*
X138207000Y-141052000D01*
X138207000Y-141050000D01*
X138208000Y-141047000D01*
X138209000Y-141045000D01*
X138210000Y-141042000D01*
X138212000Y-141040000D01*
X138213000Y-141038000D01*
X138215000Y-141036000D01*
X138216000Y-141034000D01*
X138218000Y-141032000D01*
X138220000Y-141030000D01*
X138222000Y-141028000D01*
X138224000Y-141026000D01*
X138226000Y-141025000D01*
X138228000Y-141023000D01*
X138230000Y-141022000D01*
X138232000Y-141020000D01*
X138235000Y-141019000D01*
X138237000Y-141018000D01*
X138240000Y-141017000D01*
X138242000Y-141017000D01*
X138245000Y-141016000D01*
X138247000Y-141016000D01*
X138250000Y-141015000D01*
X138252000Y-141015000D01*
X138255000Y-141015000D01*
X139845000Y-141015000D01*
X139848000Y-141015000D01*
X139850000Y-141015000D01*
X139853000Y-141016000D01*
G36*
X139853000Y-141016000D02*
G01*
X139855000Y-141016000D01*
X139858000Y-141017000D01*
X139860000Y-141017000D01*
X139863000Y-141018000D01*
X139865000Y-141019000D01*
X139868000Y-141020000D01*
X139870000Y-141022000D01*
X139872000Y-141023000D01*
X139874000Y-141025000D01*
X139876000Y-141026000D01*
X139878000Y-141028000D01*
X139880000Y-141030000D01*
X139882000Y-141032000D01*
X139884000Y-141034000D01*
X139885000Y-141036000D01*
X139887000Y-141038000D01*
X139888000Y-141040000D01*
X139890000Y-141042000D01*
X139891000Y-141045000D01*
X139892000Y-141047000D01*
X139893000Y-141050000D01*
X139893000Y-141052000D01*
X139894000Y-141055000D01*
X139894000Y-141057000D01*
X139895000Y-141060000D01*
X139895000Y-141062000D01*
X139895000Y-141065000D01*
X139895000Y-141705000D01*
X139895000Y-141708000D01*
X139895000Y-141710000D01*
X139894000Y-141713000D01*
X139894000Y-141715000D01*
X139893000Y-141718000D01*
X139893000Y-141720000D01*
X139892000Y-141723000D01*
X139891000Y-141725000D01*
X139890000Y-141728000D01*
X139888000Y-141730000D01*
X139887000Y-141732000D01*
X139885000Y-141734000D01*
X139884000Y-141736000D01*
X139882000Y-141738000D01*
X139880000Y-141740000D01*
X139878000Y-141742000D01*
X139876000Y-141744000D01*
X139874000Y-141745000D01*
X139872000Y-141747000D01*
X139870000Y-141748000D01*
X139868000Y-141750000D01*
X139865000Y-141751000D01*
X139863000Y-141752000D01*
X139860000Y-141753000D01*
X139858000Y-141753000D01*
X139855000Y-141754000D01*
X139853000Y-141754000D01*
X139850000Y-141755000D01*
X139848000Y-141755000D01*
X139845000Y-141755000D01*
X138255000Y-141755000D01*
X138252000Y-141755000D01*
X138250000Y-141755000D01*
X138247000Y-141754000D01*
X138245000Y-141754000D01*
X138242000Y-141753000D01*
X138240000Y-141753000D01*
X138237000Y-141752000D01*
X138235000Y-141751000D01*
X138232000Y-141750000D01*
X138230000Y-141748000D01*
X138228000Y-141747000D01*
X138226000Y-141745000D01*
X138224000Y-141744000D01*
X138222000Y-141742000D01*
X138220000Y-141740000D01*
X138218000Y-141738000D01*
X138216000Y-141736000D01*
X138215000Y-141734000D01*
X138213000Y-141732000D01*
X138212000Y-141730000D01*
X138210000Y-141728000D01*
X138209000Y-141725000D01*
X138208000Y-141723000D01*
X138207000Y-141720000D01*
X138207000Y-141718000D01*
X138206000Y-141715000D01*
X138206000Y-141713000D01*
X138205000Y-141710000D01*
X138205000Y-141708000D01*
X138205000Y-141705000D01*
X138205000Y-141065000D01*
X138205000Y-141062000D01*
X138205000Y-141060000D01*
X138206000Y-141057000D01*
X138206000Y-141055000D01*
X138207000Y-141052000D01*
X138207000Y-141050000D01*
X138208000Y-141047000D01*
X138209000Y-141045000D01*
X138210000Y-141042000D01*
X138212000Y-141040000D01*
X138213000Y-141038000D01*
X138215000Y-141036000D01*
X138216000Y-141034000D01*
X138218000Y-141032000D01*
X138220000Y-141030000D01*
X138222000Y-141028000D01*
X138224000Y-141026000D01*
X138226000Y-141025000D01*
X138228000Y-141023000D01*
X138230000Y-141022000D01*
X138232000Y-141020000D01*
X138235000Y-141019000D01*
X138237000Y-141018000D01*
X138240000Y-141017000D01*
X138242000Y-141017000D01*
X138245000Y-141016000D01*
X138247000Y-141016000D01*
X138250000Y-141015000D01*
X138252000Y-141015000D01*
X138255000Y-141015000D01*
X139845000Y-141015000D01*
X139848000Y-141015000D01*
X139850000Y-141015000D01*
X139853000Y-141016000D01*
G37*
X139853000Y-142286000D02*
X139855000Y-142286000D01*
X139858000Y-142287000D01*
X139860000Y-142287000D01*
X139863000Y-142288000D01*
X139865000Y-142289000D01*
X139868000Y-142290000D01*
X139870000Y-142292000D01*
X139872000Y-142293000D01*
X139874000Y-142295000D01*
X139876000Y-142296000D01*
X139878000Y-142298000D01*
X139880000Y-142300000D01*
X139882000Y-142302000D01*
X139884000Y-142304000D01*
X139885000Y-142306000D01*
X139887000Y-142308000D01*
X139888000Y-142310000D01*
X139890000Y-142312000D01*
X139891000Y-142315000D01*
X139892000Y-142317000D01*
X139893000Y-142320000D01*
X139893000Y-142322000D01*
X139894000Y-142325000D01*
X139894000Y-142327000D01*
X139895000Y-142330000D01*
X139895000Y-142332000D01*
X139895000Y-142335000D01*
X139895000Y-142975000D01*
X139895000Y-142978000D01*
X139895000Y-142980000D01*
X139894000Y-142983000D01*
X139894000Y-142985000D01*
X139893000Y-142988000D01*
X139893000Y-142990000D01*
X139892000Y-142993000D01*
X139891000Y-142995000D01*
X139890000Y-142998000D01*
X139888000Y-143000000D01*
X139887000Y-143002000D01*
X139885000Y-143004000D01*
X139884000Y-143006000D01*
X139882000Y-143008000D01*
X139880000Y-143010000D01*
X139878000Y-143012000D01*
X139876000Y-143014000D01*
X139874000Y-143015000D01*
X139872000Y-143017000D01*
X139870000Y-143018000D01*
X139868000Y-143020000D01*
X139865000Y-143021000D01*
X139863000Y-143022000D01*
X139860000Y-143023000D01*
X139858000Y-143023000D01*
X139855000Y-143024000D01*
X139853000Y-143024000D01*
X139850000Y-143025000D01*
X139848000Y-143025000D01*
X139845000Y-143025000D01*
X138255000Y-143025000D01*
X138252000Y-143025000D01*
X138250000Y-143025000D01*
X138247000Y-143024000D01*
X138245000Y-143024000D01*
X138242000Y-143023000D01*
X138240000Y-143023000D01*
X138237000Y-143022000D01*
X138235000Y-143021000D01*
X138232000Y-143020000D01*
X138230000Y-143018000D01*
X138228000Y-143017000D01*
X138226000Y-143015000D01*
X138224000Y-143014000D01*
X138222000Y-143012000D01*
X138220000Y-143010000D01*
X138218000Y-143008000D01*
X138216000Y-143006000D01*
X138215000Y-143004000D01*
X138213000Y-143002000D01*
X138212000Y-143000000D01*
X138210000Y-142998000D01*
X138209000Y-142995000D01*
X138208000Y-142993000D01*
X138207000Y-142990000D01*
X138207000Y-142988000D01*
X138206000Y-142985000D01*
X138206000Y-142983000D01*
X138205000Y-142980000D01*
X138205000Y-142978000D01*
X138205000Y-142975000D01*
X138205000Y-142335000D01*
X138205000Y-142332000D01*
X138205000Y-142330000D01*
X138206000Y-142327000D01*
X138206000Y-142325000D01*
X138207000Y-142322000D01*
X138207000Y-142320000D01*
X138208000Y-142317000D01*
X138209000Y-142315000D01*
X138210000Y-142312000D01*
X138212000Y-142310000D01*
X138213000Y-142308000D01*
X138215000Y-142306000D01*
X138216000Y-142304000D01*
X138218000Y-142302000D01*
X138220000Y-142300000D01*
X138222000Y-142298000D01*
X138224000Y-142296000D01*
X138226000Y-142295000D01*
X138228000Y-142293000D01*
X138230000Y-142292000D01*
X138232000Y-142290000D01*
X138235000Y-142289000D01*
X138237000Y-142288000D01*
X138240000Y-142287000D01*
X138242000Y-142287000D01*
X138245000Y-142286000D01*
X138247000Y-142286000D01*
X138250000Y-142285000D01*
X138252000Y-142285000D01*
X138255000Y-142285000D01*
X139845000Y-142285000D01*
X139848000Y-142285000D01*
X139850000Y-142285000D01*
X139853000Y-142286000D01*
G36*
X139853000Y-142286000D02*
G01*
X139855000Y-142286000D01*
X139858000Y-142287000D01*
X139860000Y-142287000D01*
X139863000Y-142288000D01*
X139865000Y-142289000D01*
X139868000Y-142290000D01*
X139870000Y-142292000D01*
X139872000Y-142293000D01*
X139874000Y-142295000D01*
X139876000Y-142296000D01*
X139878000Y-142298000D01*
X139880000Y-142300000D01*
X139882000Y-142302000D01*
X139884000Y-142304000D01*
X139885000Y-142306000D01*
X139887000Y-142308000D01*
X139888000Y-142310000D01*
X139890000Y-142312000D01*
X139891000Y-142315000D01*
X139892000Y-142317000D01*
X139893000Y-142320000D01*
X139893000Y-142322000D01*
X139894000Y-142325000D01*
X139894000Y-142327000D01*
X139895000Y-142330000D01*
X139895000Y-142332000D01*
X139895000Y-142335000D01*
X139895000Y-142975000D01*
X139895000Y-142978000D01*
X139895000Y-142980000D01*
X139894000Y-142983000D01*
X139894000Y-142985000D01*
X139893000Y-142988000D01*
X139893000Y-142990000D01*
X139892000Y-142993000D01*
X139891000Y-142995000D01*
X139890000Y-142998000D01*
X139888000Y-143000000D01*
X139887000Y-143002000D01*
X139885000Y-143004000D01*
X139884000Y-143006000D01*
X139882000Y-143008000D01*
X139880000Y-143010000D01*
X139878000Y-143012000D01*
X139876000Y-143014000D01*
X139874000Y-143015000D01*
X139872000Y-143017000D01*
X139870000Y-143018000D01*
X139868000Y-143020000D01*
X139865000Y-143021000D01*
X139863000Y-143022000D01*
X139860000Y-143023000D01*
X139858000Y-143023000D01*
X139855000Y-143024000D01*
X139853000Y-143024000D01*
X139850000Y-143025000D01*
X139848000Y-143025000D01*
X139845000Y-143025000D01*
X138255000Y-143025000D01*
X138252000Y-143025000D01*
X138250000Y-143025000D01*
X138247000Y-143024000D01*
X138245000Y-143024000D01*
X138242000Y-143023000D01*
X138240000Y-143023000D01*
X138237000Y-143022000D01*
X138235000Y-143021000D01*
X138232000Y-143020000D01*
X138230000Y-143018000D01*
X138228000Y-143017000D01*
X138226000Y-143015000D01*
X138224000Y-143014000D01*
X138222000Y-143012000D01*
X138220000Y-143010000D01*
X138218000Y-143008000D01*
X138216000Y-143006000D01*
X138215000Y-143004000D01*
X138213000Y-143002000D01*
X138212000Y-143000000D01*
X138210000Y-142998000D01*
X138209000Y-142995000D01*
X138208000Y-142993000D01*
X138207000Y-142990000D01*
X138207000Y-142988000D01*
X138206000Y-142985000D01*
X138206000Y-142983000D01*
X138205000Y-142980000D01*
X138205000Y-142978000D01*
X138205000Y-142975000D01*
X138205000Y-142335000D01*
X138205000Y-142332000D01*
X138205000Y-142330000D01*
X138206000Y-142327000D01*
X138206000Y-142325000D01*
X138207000Y-142322000D01*
X138207000Y-142320000D01*
X138208000Y-142317000D01*
X138209000Y-142315000D01*
X138210000Y-142312000D01*
X138212000Y-142310000D01*
X138213000Y-142308000D01*
X138215000Y-142306000D01*
X138216000Y-142304000D01*
X138218000Y-142302000D01*
X138220000Y-142300000D01*
X138222000Y-142298000D01*
X138224000Y-142296000D01*
X138226000Y-142295000D01*
X138228000Y-142293000D01*
X138230000Y-142292000D01*
X138232000Y-142290000D01*
X138235000Y-142289000D01*
X138237000Y-142288000D01*
X138240000Y-142287000D01*
X138242000Y-142287000D01*
X138245000Y-142286000D01*
X138247000Y-142286000D01*
X138250000Y-142285000D01*
X138252000Y-142285000D01*
X138255000Y-142285000D01*
X139845000Y-142285000D01*
X139848000Y-142285000D01*
X139850000Y-142285000D01*
X139853000Y-142286000D01*
G37*
%TD*%
D11*
%TO.C,U3*%
X161985000Y-132600000D03*
X163285000Y-132600000D03*
X161985000Y-133900000D03*
X163285000Y-133900000D03*
X161985000Y-135200000D03*
X163285000Y-135200000D03*
X161985000Y-136500000D03*
X163285000Y-136500000D03*
%TD*%
D12*
%TO.C,C9*%
X141600000Y-59400000D03*
X141600000Y-57325000D03*
%TD*%
D13*
%TO.C,R18*%
X111200000Y-78100000D03*
X111200000Y-76100000D03*
%TD*%
D12*
%TO.C,C25*%
X171635000Y-126087500D03*
X171635000Y-124012500D03*
%TD*%
D14*
%TO.C,C24*%
X133662500Y-136600000D03*
X135737500Y-136600000D03*
%TD*%
D15*
%TO.C,R27*%
X138700000Y-77500000D03*
X136700000Y-77500000D03*
%TD*%
D12*
%TO.C,C14*%
X178000000Y-82837500D03*
X178000000Y-80762500D03*
%TD*%
D15*
%TO.C,R25*%
X113000000Y-56400000D03*
X111000000Y-56400000D03*
%TD*%
D16*
%TO.C,R6*%
X126000000Y-57000000D03*
X128000000Y-57000000D03*
%TD*%
D13*
%TO.C,R35*%
X192000000Y-82800000D03*
X192000000Y-80800000D03*
%TD*%
D17*
%TO.C,STP_UP1*%
X193000000Y-147700000D03*
X193000000Y-135700000D03*
X174000000Y-147700000D03*
X174000000Y-135700000D03*
%TD*%
D16*
%TO.C,R13*%
X111000000Y-58800000D03*
X113000000Y-58800000D03*
%TD*%
D18*
%TO.C,R17*%
X103000000Y-78000000D03*
X103000000Y-80000000D03*
%TD*%
D14*
%TO.C,C33*%
X146862500Y-99250000D03*
X148937500Y-99250000D03*
%TD*%
D19*
%TO.C,Q2*%
X111837500Y-131250000D03*
X111837500Y-129350000D03*
X109962500Y-130300000D03*
%TD*%
D16*
%TO.C,R5*%
X191700000Y-55700000D03*
X193700000Y-55700000D03*
%TD*%
D12*
%TO.C,C20*%
X108000000Y-65037500D03*
X108000000Y-62962500D03*
%TD*%
D14*
%TO.C,C21*%
X121212500Y-70825000D03*
X123287500Y-70825000D03*
%TD*%
D18*
%TO.C,R38*%
X156400000Y-88500000D03*
X156400000Y-90500000D03*
%TD*%
D20*
%TO.C,C1*%
X165322500Y-141350000D03*
X163247500Y-141350000D03*
%TD*%
D21*
%TO.C,Q1*%
X188000000Y-126000000D03*
X188000000Y-127900000D03*
X189875000Y-126950000D03*
%TD*%
D12*
%TO.C,C28*%
X118000000Y-58437500D03*
X118000000Y-56362500D03*
%TD*%
D22*
%TO.C,SW1*%
X121700000Y-54100000D03*
X128900000Y-54100000D03*
X121700000Y-51100000D03*
X128900000Y-51100000D03*
%TD*%
D15*
%TO.C,R9*%
X128250000Y-85000000D03*
X126250000Y-85000000D03*
%TD*%
D23*
%TO.C,BMI160*%
X187620000Y-92420000D03*
X185080000Y-92420000D03*
X182540000Y-92420000D03*
X180000000Y-92420000D03*
X177460000Y-92420000D03*
X174920000Y-92420000D03*
X172380000Y-92420000D03*
X185080000Y-102580000D03*
X182540000Y-102580000D03*
X180000000Y-102580000D03*
X177460000Y-102580000D03*
X174920000Y-102580000D03*
%TD*%
D13*
%TO.C,R19*%
X108000000Y-75000000D03*
X108000000Y-73000000D03*
%TD*%
D16*
%TO.C,R1*%
X155600000Y-94650000D03*
X157600000Y-94650000D03*
%TD*%
D14*
%TO.C,C26*%
X109825000Y-124200000D03*
X111900000Y-124200000D03*
%TD*%
D24*
%TO.C,SW2*%
X188300000Y-51100000D03*
X181100000Y-51100000D03*
X188300000Y-54100000D03*
X181100000Y-54100000D03*
%TD*%
D15*
%TO.C,R10*%
X128250000Y-78000000D03*
X126250000Y-78000000D03*
%TD*%
D25*
%TO.C,Q6*%
X102950000Y-69937500D03*
X104850000Y-69937500D03*
X103900000Y-68062500D03*
%TD*%
D26*
%TO.C,U14*%
X146600000Y-95350000D03*
X148900000Y-95350000D03*
D27*
X148900000Y-89050000D03*
D26*
X151200000Y-95350000D03*
%TD*%
D13*
%TO.C,R36*%
X188500000Y-82800000D03*
X188500000Y-80800000D03*
%TD*%
D28*
%TO.C,J10*%
X155500000Y-139500000D03*
D29*
X155500000Y-142000000D03*
X155500000Y-144500000D03*
X155500000Y-147000000D03*
%TD*%
D12*
%TO.C,C8*%
X139600000Y-59400000D03*
X139600000Y-57325000D03*
%TD*%
D30*
%TO.C,D5*%
X119250000Y-80250000D03*
X117200000Y-80250000D03*
%TD*%
D14*
%TO.C,C10*%
X125962500Y-60000000D03*
X128037500Y-60000000D03*
%TD*%
D15*
%TO.C,R26*%
X144900000Y-77500000D03*
X142900000Y-77500000D03*
%TD*%
D31*
%TO.C,STP_UP2*%
X107000000Y-135700000D03*
X107000000Y-147700000D03*
X126000000Y-135700000D03*
X126000000Y-147700000D03*
%TD*%
D12*
%TO.C,C3*%
X118075000Y-67075000D03*
X118075000Y-65000000D03*
%TD*%
D32*
%TO.C,J2*%
X195400000Y-72300000D03*
X195400000Y-64300000D03*
D33*
X184900000Y-65100000D03*
X184900000Y-66200000D03*
X184900000Y-67300000D03*
X184900000Y-68400000D03*
X184900000Y-69500000D03*
X184900000Y-70600000D03*
X184900000Y-71700000D03*
X184900000Y-72800000D03*
X184900000Y-73900000D03*
D34*
X185400000Y-75100000D03*
D35*
X185400000Y-60500000D03*
D36*
X195000000Y-59600000D03*
X195000000Y-75100000D03*
%TD*%
D18*
%TO.C,R20*%
X108000000Y-68000000D03*
X108000000Y-70000000D03*
%TD*%
D37*
%TO.C,D4*%
X103000000Y-85025000D03*
X103000000Y-82975000D03*
%TD*%
D14*
%TO.C,C35*%
X126762500Y-98800000D03*
X128837500Y-98800000D03*
%TD*%
D38*
%TO.C,C15*%
X195500000Y-85962500D03*
X195500000Y-88037500D03*
%TD*%
%TO.C,C16*%
X192000000Y-85925000D03*
X192000000Y-88000000D03*
%TD*%
D39*
%TO.C,U1*%
X146250000Y-57740000D03*
X146250000Y-59010000D03*
X146250000Y-60280000D03*
X146250000Y-61550000D03*
X146250000Y-62820000D03*
X146250000Y-64090000D03*
X146250000Y-65360000D03*
X146250000Y-66630000D03*
X146250000Y-67900000D03*
X146250000Y-69170000D03*
X146250000Y-70440000D03*
X146250000Y-71710000D03*
X146250000Y-72980000D03*
X146250000Y-74250000D03*
D40*
X148015000Y-75500000D03*
X149285000Y-75500000D03*
X150555000Y-75500000D03*
X151825000Y-75500000D03*
X153095000Y-75500000D03*
X154365000Y-75500000D03*
X155635000Y-75500000D03*
X156905000Y-75500000D03*
X158175000Y-75500000D03*
X159445000Y-75500000D03*
X160715000Y-75500000D03*
X161985000Y-75500000D03*
D39*
X163750000Y-74250000D03*
X163750000Y-72980000D03*
X163750000Y-71710000D03*
X163750000Y-70440000D03*
X163750000Y-69170000D03*
X163750000Y-67900000D03*
X163750000Y-66630000D03*
X163750000Y-65360000D03*
X163750000Y-64090000D03*
X163750000Y-62820000D03*
X163750000Y-61550000D03*
X163750000Y-60280000D03*
X163750000Y-59010000D03*
X163750000Y-57740000D03*
D41*
X152100000Y-64760000D03*
X152100000Y-66160000D03*
X152800000Y-64060000D03*
X152800000Y-65460000D03*
X152800000Y-66860000D03*
X153500000Y-64760000D03*
D42*
X153500000Y-65460000D03*
D41*
X153500000Y-66160000D03*
X154200000Y-64060000D03*
X154200000Y-65460000D03*
X154200000Y-66860000D03*
X154900000Y-64760000D03*
X154900000Y-66160000D03*
%TD*%
D38*
%TO.C,C18*%
X118000000Y-51726000D03*
X118000000Y-53801000D03*
%TD*%
D43*
%TO.C,J4*%
X144500000Y-136500000D03*
D29*
X144500000Y-134000000D03*
X144500000Y-131500000D03*
X144500000Y-129000000D03*
%TD*%
D44*
%TO.C,BMS1*%
X162000000Y-121000000D03*
D45*
X118000000Y-113000000D03*
D44*
X162000000Y-105000000D03*
X123500000Y-115500000D03*
X123500000Y-110500000D03*
%TD*%
D46*
%TO.C,U9*%
X160230000Y-94625000D03*
X161500000Y-94625000D03*
X161500000Y-88375000D03*
X160230000Y-88375000D03*
%TD*%
D12*
%TO.C,C22*%
X112000000Y-70037500D03*
X112000000Y-67962500D03*
%TD*%
D47*
%TO.C,U5*%
X115000000Y-77000000D03*
X115500000Y-77000000D03*
X116000000Y-77000000D03*
X116500000Y-77000000D03*
X117000000Y-77000000D03*
X117500000Y-77000000D03*
D48*
X118175000Y-76325000D03*
X118175000Y-75825000D03*
X118175000Y-75325000D03*
X118175000Y-74825000D03*
X118175000Y-74325000D03*
X118175000Y-73825000D03*
D47*
X117500000Y-73150000D03*
X117000000Y-73150000D03*
X116500000Y-73150000D03*
X116000000Y-73150000D03*
X115500000Y-73150000D03*
X115000000Y-73150000D03*
D48*
X114325000Y-73825000D03*
X114325000Y-74325000D03*
X114325000Y-74825000D03*
X114325000Y-75325000D03*
X114325000Y-75825000D03*
X114325000Y-76325000D03*
D49*
X116250000Y-75075000D03*
%TD*%
D18*
%TO.C,R28*%
X165500000Y-83400000D03*
X165500000Y-85400000D03*
%TD*%
D15*
%TO.C,R14*%
X132850000Y-85000000D03*
X130850000Y-85000000D03*
%TD*%
D50*
%TO.C,J9*%
X175400000Y-58420000D03*
D51*
X177940000Y-58420000D03*
X175400000Y-60960000D03*
X177940000Y-60960000D03*
X175400000Y-63500000D03*
X177940000Y-63500000D03*
X175400000Y-66040000D03*
X177940000Y-66040000D03*
X175400000Y-68580000D03*
X177940000Y-68580000D03*
X175400000Y-71120000D03*
X177940000Y-71120000D03*
X175400000Y-73660000D03*
X177940000Y-73660000D03*
%TD*%
D11*
%TO.C,U2*%
X137000000Y-142700000D03*
X135700000Y-142700000D03*
X137000000Y-141400000D03*
X135700000Y-141400000D03*
X137000000Y-140100000D03*
X135700000Y-140100000D03*
X137000000Y-138800000D03*
X135700000Y-138800000D03*
%TD*%
D15*
%TO.C,R24*%
X113000000Y-53800000D03*
X111000000Y-53800000D03*
%TD*%
D50*
%TO.C,J7*%
X131900000Y-58460000D03*
D51*
X134440000Y-58460000D03*
X131900000Y-61000000D03*
X134440000Y-61000000D03*
X131900000Y-63540000D03*
X134440000Y-63540000D03*
X131900000Y-66080000D03*
X134440000Y-66080000D03*
X131900000Y-68620000D03*
X134440000Y-68620000D03*
X131900000Y-71160000D03*
X134440000Y-71160000D03*
X131900000Y-73700000D03*
X134440000Y-73700000D03*
%TD*%
D26*
%TO.C,U13*%
X126500000Y-94950000D03*
X128800000Y-94950000D03*
D27*
X128800000Y-88650000D03*
D26*
X131100000Y-94950000D03*
%TD*%
D14*
%TO.C,C27*%
X109825000Y-127500000D03*
X111900000Y-127500000D03*
%TD*%
D15*
%TO.C,R7*%
X128250000Y-81500000D03*
X126250000Y-81500000D03*
%TD*%
D13*
%TO.C,R30*%
X181500000Y-82800000D03*
X181500000Y-80800000D03*
%TD*%
D20*
%TO.C,C34*%
X133637500Y-98800000D03*
X131562500Y-98800000D03*
%TD*%
%TO.C,C13*%
X188337500Y-56300000D03*
X186262500Y-56300000D03*
%TD*%
%TO.C,C12*%
X128037500Y-63000000D03*
X125962500Y-63000000D03*
%TD*%
D13*
%TO.C,R16*%
X121000000Y-67037500D03*
X121000000Y-65037500D03*
%TD*%
D52*
%TO.C,MPU6050*%
X189120000Y-108420000D03*
X189120000Y-110960000D03*
X189120000Y-113500000D03*
X189120000Y-116040000D03*
X189120000Y-118580000D03*
X171340000Y-108420000D03*
X171340000Y-110960000D03*
X171340000Y-113500000D03*
X171340000Y-116040000D03*
X171340000Y-118580000D03*
%TD*%
D38*
%TO.C,C19*%
X108000000Y-77962500D03*
X108000000Y-80037500D03*
%TD*%
D16*
%TO.C,R4*%
X191700000Y-52300000D03*
X193700000Y-52300000D03*
%TD*%
D53*
%TO.C,J3*%
X144500000Y-147000000D03*
D54*
X144500000Y-144500000D03*
%TD*%
D55*
%TO.C,J1*%
X107075000Y-52150000D03*
X107075000Y-52950000D03*
D56*
X107075000Y-54100000D03*
X107075000Y-55100000D03*
X107075000Y-55600000D03*
X107075000Y-56600000D03*
D55*
X107075000Y-58550000D03*
X107075000Y-57750000D03*
D56*
X107075000Y-57100000D03*
X107075000Y-56100000D03*
X107075000Y-54600000D03*
X107075000Y-53600000D03*
D57*
X106500000Y-51030000D03*
X106500000Y-59670000D03*
%TD*%
D16*
%TO.C,R21*%
X115187500Y-83500000D03*
X117187500Y-83500000D03*
%TD*%
D20*
%TO.C,C31*%
X153237500Y-99250000D03*
X151162500Y-99250000D03*
%TD*%
D15*
%TO.C,R11*%
X132850000Y-81500000D03*
X130850000Y-81500000D03*
%TD*%
D13*
%TO.C,R39*%
X198800000Y-82800000D03*
X198800000Y-80800000D03*
%TD*%
D14*
%TO.C,C2*%
X133662500Y-134000000D03*
X135737500Y-134000000D03*
%TD*%
D50*
%TO.C,J11*%
X148680000Y-84440000D03*
D51*
X148680000Y-81900000D03*
X151220000Y-84440000D03*
X151220000Y-81900000D03*
X153760000Y-84440000D03*
X153760000Y-81900000D03*
X156300000Y-84440000D03*
X156300000Y-81900000D03*
X158840000Y-84440000D03*
X158840000Y-81900000D03*
X161380000Y-84440000D03*
X161380000Y-81900000D03*
%TD*%
D20*
%TO.C,C23*%
X165322500Y-138750000D03*
X163247500Y-138750000D03*
%TD*%
D15*
%TO.C,R15*%
X132850000Y-78000000D03*
X130850000Y-78000000D03*
%TD*%
D16*
%TO.C,R12*%
X111000000Y-51400000D03*
X113000000Y-51400000D03*
%TD*%
D13*
%TO.C,R34*%
X195500000Y-82800000D03*
X195500000Y-80800000D03*
%TD*%
D58*
%TO.C,J8*%
X155300000Y-129000000D03*
D54*
X155300000Y-131500000D03*
%TD*%
D12*
%TO.C,C17*%
X168200000Y-126075000D03*
X168200000Y-124000000D03*
%TD*%
D16*
%TO.C,R29*%
X121250000Y-73825000D03*
X123250000Y-73825000D03*
%TD*%
D13*
%TO.C,R37*%
X185000000Y-82800000D03*
X185000000Y-80800000D03*
%TD*%
D21*
%TO.C,Q5*%
X103025000Y-73050000D03*
X103025000Y-74950000D03*
X104900000Y-74000000D03*
%TD*%
D13*
%TO.C,R8*%
X174500000Y-82800000D03*
X174500000Y-80800000D03*
%TD*%
D15*
%TO.C,R31*%
X116750000Y-62100000D03*
X114750000Y-62100000D03*
%TD*%
D59*
%TO.C,BT1*%
X122300000Y-88095000D03*
D60*
X122300000Y-105600000D03*
X177500000Y-105600000D03*
D59*
X177500000Y-123105000D03*
D61*
X185720000Y-88095000D03*
%TD*%
M02*
