%TF.GenerationSoftware,KiCad,Pcbnew,9.0.0-9.0.0-2~ubuntu24.04.1*%
%TF.CreationDate,2025-04-02T08:01:23+02:00*%
%TF.ProjectId,1_robot,315f726f-626f-4742-9e6b-696361645f70,rev?*%
%TF.SameCoordinates,Original*%
%TF.FileFunction,Legend,Top*%
%TF.FilePolarity,Positive*%
%FSLAX46Y46*%
G04 Gerber Fmt 4.6, Leading zero omitted, Abs format (unit mm)*
G04 Created by KiCad (PCBNEW 9.0.0-9.0.0-2~ubuntu24.04.1) date 2025-04-02 08:01:23*
%MOMM*%
%LPD*%
G01*
G04 APERTURE LIST*
%ADD10C,0.150000*%
%ADD11C,0.100000*%
%ADD12C,0.254000*%
%ADD13C,0.127000*%
%ADD14C,0.200000*%
%ADD15C,0.120000*%
G04 APERTURE END LIST*
D10*
X161798095Y-130369819D02*
X161798095Y-131179342D01*
X161798095Y-131179342D02*
X161845714Y-131274580D01*
X161845714Y-131274580D02*
X161893333Y-131322200D01*
X161893333Y-131322200D02*
X161988571Y-131369819D01*
X161988571Y-131369819D02*
X162179047Y-131369819D01*
X162179047Y-131369819D02*
X162274285Y-131322200D01*
X162274285Y-131322200D02*
X162321904Y-131274580D01*
X162321904Y-131274580D02*
X162369523Y-131179342D01*
X162369523Y-131179342D02*
X162369523Y-130369819D01*
X162750476Y-130369819D02*
X163369523Y-130369819D01*
X163369523Y-130369819D02*
X163036190Y-130750771D01*
X163036190Y-130750771D02*
X163179047Y-130750771D01*
X163179047Y-130750771D02*
X163274285Y-130798390D01*
X163274285Y-130798390D02*
X163321904Y-130846009D01*
X163321904Y-130846009D02*
X163369523Y-130941247D01*
X163369523Y-130941247D02*
X163369523Y-131179342D01*
X163369523Y-131179342D02*
X163321904Y-131274580D01*
X163321904Y-131274580D02*
X163274285Y-131322200D01*
X163274285Y-131322200D02*
X163179047Y-131369819D01*
X163179047Y-131369819D02*
X162893333Y-131369819D01*
X162893333Y-131369819D02*
X162798095Y-131322200D01*
X162798095Y-131322200D02*
X162750476Y-131274580D01*
X141959580Y-61491666D02*
X142007200Y-61539285D01*
X142007200Y-61539285D02*
X142054819Y-61682142D01*
X142054819Y-61682142D02*
X142054819Y-61777380D01*
X142054819Y-61777380D02*
X142007200Y-61920237D01*
X142007200Y-61920237D02*
X141911961Y-62015475D01*
X141911961Y-62015475D02*
X141816723Y-62063094D01*
X141816723Y-62063094D02*
X141626247Y-62110713D01*
X141626247Y-62110713D02*
X141483390Y-62110713D01*
X141483390Y-62110713D02*
X141292914Y-62063094D01*
X141292914Y-62063094D02*
X141197676Y-62015475D01*
X141197676Y-62015475D02*
X141102438Y-61920237D01*
X141102438Y-61920237D02*
X141054819Y-61777380D01*
X141054819Y-61777380D02*
X141054819Y-61682142D01*
X141054819Y-61682142D02*
X141102438Y-61539285D01*
X141102438Y-61539285D02*
X141150057Y-61491666D01*
X142054819Y-61015475D02*
X142054819Y-60824999D01*
X142054819Y-60824999D02*
X142007200Y-60729761D01*
X142007200Y-60729761D02*
X141959580Y-60682142D01*
X141959580Y-60682142D02*
X141816723Y-60586904D01*
X141816723Y-60586904D02*
X141626247Y-60539285D01*
X141626247Y-60539285D02*
X141245295Y-60539285D01*
X141245295Y-60539285D02*
X141150057Y-60586904D01*
X141150057Y-60586904D02*
X141102438Y-60634523D01*
X141102438Y-60634523D02*
X141054819Y-60729761D01*
X141054819Y-60729761D02*
X141054819Y-60920237D01*
X141054819Y-60920237D02*
X141102438Y-61015475D01*
X141102438Y-61015475D02*
X141150057Y-61063094D01*
X141150057Y-61063094D02*
X141245295Y-61110713D01*
X141245295Y-61110713D02*
X141483390Y-61110713D01*
X141483390Y-61110713D02*
X141578628Y-61063094D01*
X141578628Y-61063094D02*
X141626247Y-61015475D01*
X141626247Y-61015475D02*
X141673866Y-60920237D01*
X141673866Y-60920237D02*
X141673866Y-60729761D01*
X141673866Y-60729761D02*
X141626247Y-60634523D01*
X141626247Y-60634523D02*
X141578628Y-60586904D01*
X141578628Y-60586904D02*
X141483390Y-60539285D01*
X113454819Y-78142857D02*
X112978628Y-78476190D01*
X113454819Y-78714285D02*
X112454819Y-78714285D01*
X112454819Y-78714285D02*
X112454819Y-78333333D01*
X112454819Y-78333333D02*
X112502438Y-78238095D01*
X112502438Y-78238095D02*
X112550057Y-78190476D01*
X112550057Y-78190476D02*
X112645295Y-78142857D01*
X112645295Y-78142857D02*
X112788152Y-78142857D01*
X112788152Y-78142857D02*
X112883390Y-78190476D01*
X112883390Y-78190476D02*
X112931009Y-78238095D01*
X112931009Y-78238095D02*
X112978628Y-78333333D01*
X112978628Y-78333333D02*
X112978628Y-78714285D01*
X113454819Y-77190476D02*
X113454819Y-77761904D01*
X113454819Y-77476190D02*
X112454819Y-77476190D01*
X112454819Y-77476190D02*
X112597676Y-77571428D01*
X112597676Y-77571428D02*
X112692914Y-77666666D01*
X112692914Y-77666666D02*
X112740533Y-77761904D01*
X112883390Y-76619047D02*
X112835771Y-76714285D01*
X112835771Y-76714285D02*
X112788152Y-76761904D01*
X112788152Y-76761904D02*
X112692914Y-76809523D01*
X112692914Y-76809523D02*
X112645295Y-76809523D01*
X112645295Y-76809523D02*
X112550057Y-76761904D01*
X112550057Y-76761904D02*
X112502438Y-76714285D01*
X112502438Y-76714285D02*
X112454819Y-76619047D01*
X112454819Y-76619047D02*
X112454819Y-76428571D01*
X112454819Y-76428571D02*
X112502438Y-76333333D01*
X112502438Y-76333333D02*
X112550057Y-76285714D01*
X112550057Y-76285714D02*
X112645295Y-76238095D01*
X112645295Y-76238095D02*
X112692914Y-76238095D01*
X112692914Y-76238095D02*
X112788152Y-76285714D01*
X112788152Y-76285714D02*
X112835771Y-76333333D01*
X112835771Y-76333333D02*
X112883390Y-76428571D01*
X112883390Y-76428571D02*
X112883390Y-76619047D01*
X112883390Y-76619047D02*
X112931009Y-76714285D01*
X112931009Y-76714285D02*
X112978628Y-76761904D01*
X112978628Y-76761904D02*
X113073866Y-76809523D01*
X113073866Y-76809523D02*
X113264342Y-76809523D01*
X113264342Y-76809523D02*
X113359580Y-76761904D01*
X113359580Y-76761904D02*
X113407200Y-76714285D01*
X113407200Y-76714285D02*
X113454819Y-76619047D01*
X113454819Y-76619047D02*
X113454819Y-76428571D01*
X113454819Y-76428571D02*
X113407200Y-76333333D01*
X113407200Y-76333333D02*
X113359580Y-76285714D01*
X113359580Y-76285714D02*
X113264342Y-76238095D01*
X113264342Y-76238095D02*
X113073866Y-76238095D01*
X113073866Y-76238095D02*
X112978628Y-76285714D01*
X112978628Y-76285714D02*
X112931009Y-76333333D01*
X112931009Y-76333333D02*
X112883390Y-76428571D01*
X170314580Y-125692857D02*
X170362200Y-125740476D01*
X170362200Y-125740476D02*
X170409819Y-125883333D01*
X170409819Y-125883333D02*
X170409819Y-125978571D01*
X170409819Y-125978571D02*
X170362200Y-126121428D01*
X170362200Y-126121428D02*
X170266961Y-126216666D01*
X170266961Y-126216666D02*
X170171723Y-126264285D01*
X170171723Y-126264285D02*
X169981247Y-126311904D01*
X169981247Y-126311904D02*
X169838390Y-126311904D01*
X169838390Y-126311904D02*
X169647914Y-126264285D01*
X169647914Y-126264285D02*
X169552676Y-126216666D01*
X169552676Y-126216666D02*
X169457438Y-126121428D01*
X169457438Y-126121428D02*
X169409819Y-125978571D01*
X169409819Y-125978571D02*
X169409819Y-125883333D01*
X169409819Y-125883333D02*
X169457438Y-125740476D01*
X169457438Y-125740476D02*
X169505057Y-125692857D01*
X169505057Y-125311904D02*
X169457438Y-125264285D01*
X169457438Y-125264285D02*
X169409819Y-125169047D01*
X169409819Y-125169047D02*
X169409819Y-124930952D01*
X169409819Y-124930952D02*
X169457438Y-124835714D01*
X169457438Y-124835714D02*
X169505057Y-124788095D01*
X169505057Y-124788095D02*
X169600295Y-124740476D01*
X169600295Y-124740476D02*
X169695533Y-124740476D01*
X169695533Y-124740476D02*
X169838390Y-124788095D01*
X169838390Y-124788095D02*
X170409819Y-125359523D01*
X170409819Y-125359523D02*
X170409819Y-124740476D01*
X169409819Y-123835714D02*
X169409819Y-124311904D01*
X169409819Y-124311904D02*
X169886009Y-124359523D01*
X169886009Y-124359523D02*
X169838390Y-124311904D01*
X169838390Y-124311904D02*
X169790771Y-124216666D01*
X169790771Y-124216666D02*
X169790771Y-123978571D01*
X169790771Y-123978571D02*
X169838390Y-123883333D01*
X169838390Y-123883333D02*
X169886009Y-123835714D01*
X169886009Y-123835714D02*
X169981247Y-123788095D01*
X169981247Y-123788095D02*
X170219342Y-123788095D01*
X170219342Y-123788095D02*
X170314580Y-123835714D01*
X170314580Y-123835714D02*
X170362200Y-123883333D01*
X170362200Y-123883333D02*
X170409819Y-123978571D01*
X170409819Y-123978571D02*
X170409819Y-124216666D01*
X170409819Y-124216666D02*
X170362200Y-124311904D01*
X170362200Y-124311904D02*
X170314580Y-124359523D01*
X137357142Y-136859580D02*
X137309523Y-136907200D01*
X137309523Y-136907200D02*
X137166666Y-136954819D01*
X137166666Y-136954819D02*
X137071428Y-136954819D01*
X137071428Y-136954819D02*
X136928571Y-136907200D01*
X136928571Y-136907200D02*
X136833333Y-136811961D01*
X136833333Y-136811961D02*
X136785714Y-136716723D01*
X136785714Y-136716723D02*
X136738095Y-136526247D01*
X136738095Y-136526247D02*
X136738095Y-136383390D01*
X136738095Y-136383390D02*
X136785714Y-136192914D01*
X136785714Y-136192914D02*
X136833333Y-136097676D01*
X136833333Y-136097676D02*
X136928571Y-136002438D01*
X136928571Y-136002438D02*
X137071428Y-135954819D01*
X137071428Y-135954819D02*
X137166666Y-135954819D01*
X137166666Y-135954819D02*
X137309523Y-136002438D01*
X137309523Y-136002438D02*
X137357142Y-136050057D01*
X137738095Y-136050057D02*
X137785714Y-136002438D01*
X137785714Y-136002438D02*
X137880952Y-135954819D01*
X137880952Y-135954819D02*
X138119047Y-135954819D01*
X138119047Y-135954819D02*
X138214285Y-136002438D01*
X138214285Y-136002438D02*
X138261904Y-136050057D01*
X138261904Y-136050057D02*
X138309523Y-136145295D01*
X138309523Y-136145295D02*
X138309523Y-136240533D01*
X138309523Y-136240533D02*
X138261904Y-136383390D01*
X138261904Y-136383390D02*
X137690476Y-136954819D01*
X137690476Y-136954819D02*
X138309523Y-136954819D01*
X139166666Y-136288152D02*
X139166666Y-136954819D01*
X138928571Y-135907200D02*
X138690476Y-136621485D01*
X138690476Y-136621485D02*
X139309523Y-136621485D01*
X137057142Y-79604819D02*
X136723809Y-79128628D01*
X136485714Y-79604819D02*
X136485714Y-78604819D01*
X136485714Y-78604819D02*
X136866666Y-78604819D01*
X136866666Y-78604819D02*
X136961904Y-78652438D01*
X136961904Y-78652438D02*
X137009523Y-78700057D01*
X137009523Y-78700057D02*
X137057142Y-78795295D01*
X137057142Y-78795295D02*
X137057142Y-78938152D01*
X137057142Y-78938152D02*
X137009523Y-79033390D01*
X137009523Y-79033390D02*
X136961904Y-79081009D01*
X136961904Y-79081009D02*
X136866666Y-79128628D01*
X136866666Y-79128628D02*
X136485714Y-79128628D01*
X137438095Y-78700057D02*
X137485714Y-78652438D01*
X137485714Y-78652438D02*
X137580952Y-78604819D01*
X137580952Y-78604819D02*
X137819047Y-78604819D01*
X137819047Y-78604819D02*
X137914285Y-78652438D01*
X137914285Y-78652438D02*
X137961904Y-78700057D01*
X137961904Y-78700057D02*
X138009523Y-78795295D01*
X138009523Y-78795295D02*
X138009523Y-78890533D01*
X138009523Y-78890533D02*
X137961904Y-79033390D01*
X137961904Y-79033390D02*
X137390476Y-79604819D01*
X137390476Y-79604819D02*
X138009523Y-79604819D01*
X138342857Y-78604819D02*
X139009523Y-78604819D01*
X139009523Y-78604819D02*
X138580952Y-79604819D01*
X176679580Y-82442857D02*
X176727200Y-82490476D01*
X176727200Y-82490476D02*
X176774819Y-82633333D01*
X176774819Y-82633333D02*
X176774819Y-82728571D01*
X176774819Y-82728571D02*
X176727200Y-82871428D01*
X176727200Y-82871428D02*
X176631961Y-82966666D01*
X176631961Y-82966666D02*
X176536723Y-83014285D01*
X176536723Y-83014285D02*
X176346247Y-83061904D01*
X176346247Y-83061904D02*
X176203390Y-83061904D01*
X176203390Y-83061904D02*
X176012914Y-83014285D01*
X176012914Y-83014285D02*
X175917676Y-82966666D01*
X175917676Y-82966666D02*
X175822438Y-82871428D01*
X175822438Y-82871428D02*
X175774819Y-82728571D01*
X175774819Y-82728571D02*
X175774819Y-82633333D01*
X175774819Y-82633333D02*
X175822438Y-82490476D01*
X175822438Y-82490476D02*
X175870057Y-82442857D01*
X176774819Y-81490476D02*
X176774819Y-82061904D01*
X176774819Y-81776190D02*
X175774819Y-81776190D01*
X175774819Y-81776190D02*
X175917676Y-81871428D01*
X175917676Y-81871428D02*
X176012914Y-81966666D01*
X176012914Y-81966666D02*
X176060533Y-82061904D01*
X176108152Y-80633333D02*
X176774819Y-80633333D01*
X175727200Y-80871428D02*
X176441485Y-81109523D01*
X176441485Y-81109523D02*
X176441485Y-80490476D01*
X114857142Y-56854819D02*
X114523809Y-56378628D01*
X114285714Y-56854819D02*
X114285714Y-55854819D01*
X114285714Y-55854819D02*
X114666666Y-55854819D01*
X114666666Y-55854819D02*
X114761904Y-55902438D01*
X114761904Y-55902438D02*
X114809523Y-55950057D01*
X114809523Y-55950057D02*
X114857142Y-56045295D01*
X114857142Y-56045295D02*
X114857142Y-56188152D01*
X114857142Y-56188152D02*
X114809523Y-56283390D01*
X114809523Y-56283390D02*
X114761904Y-56331009D01*
X114761904Y-56331009D02*
X114666666Y-56378628D01*
X114666666Y-56378628D02*
X114285714Y-56378628D01*
X115238095Y-55950057D02*
X115285714Y-55902438D01*
X115285714Y-55902438D02*
X115380952Y-55854819D01*
X115380952Y-55854819D02*
X115619047Y-55854819D01*
X115619047Y-55854819D02*
X115714285Y-55902438D01*
X115714285Y-55902438D02*
X115761904Y-55950057D01*
X115761904Y-55950057D02*
X115809523Y-56045295D01*
X115809523Y-56045295D02*
X115809523Y-56140533D01*
X115809523Y-56140533D02*
X115761904Y-56283390D01*
X115761904Y-56283390D02*
X115190476Y-56854819D01*
X115190476Y-56854819D02*
X115809523Y-56854819D01*
X116714285Y-55854819D02*
X116238095Y-55854819D01*
X116238095Y-55854819D02*
X116190476Y-56331009D01*
X116190476Y-56331009D02*
X116238095Y-56283390D01*
X116238095Y-56283390D02*
X116333333Y-56235771D01*
X116333333Y-56235771D02*
X116571428Y-56235771D01*
X116571428Y-56235771D02*
X116666666Y-56283390D01*
X116666666Y-56283390D02*
X116714285Y-56331009D01*
X116714285Y-56331009D02*
X116761904Y-56426247D01*
X116761904Y-56426247D02*
X116761904Y-56664342D01*
X116761904Y-56664342D02*
X116714285Y-56759580D01*
X116714285Y-56759580D02*
X116666666Y-56807200D01*
X116666666Y-56807200D02*
X116571428Y-56854819D01*
X116571428Y-56854819D02*
X116333333Y-56854819D01*
X116333333Y-56854819D02*
X116238095Y-56807200D01*
X116238095Y-56807200D02*
X116190476Y-56759580D01*
X123933333Y-57254819D02*
X123600000Y-56778628D01*
X123361905Y-57254819D02*
X123361905Y-56254819D01*
X123361905Y-56254819D02*
X123742857Y-56254819D01*
X123742857Y-56254819D02*
X123838095Y-56302438D01*
X123838095Y-56302438D02*
X123885714Y-56350057D01*
X123885714Y-56350057D02*
X123933333Y-56445295D01*
X123933333Y-56445295D02*
X123933333Y-56588152D01*
X123933333Y-56588152D02*
X123885714Y-56683390D01*
X123885714Y-56683390D02*
X123838095Y-56731009D01*
X123838095Y-56731009D02*
X123742857Y-56778628D01*
X123742857Y-56778628D02*
X123361905Y-56778628D01*
X124790476Y-56254819D02*
X124600000Y-56254819D01*
X124600000Y-56254819D02*
X124504762Y-56302438D01*
X124504762Y-56302438D02*
X124457143Y-56350057D01*
X124457143Y-56350057D02*
X124361905Y-56492914D01*
X124361905Y-56492914D02*
X124314286Y-56683390D01*
X124314286Y-56683390D02*
X124314286Y-57064342D01*
X124314286Y-57064342D02*
X124361905Y-57159580D01*
X124361905Y-57159580D02*
X124409524Y-57207200D01*
X124409524Y-57207200D02*
X124504762Y-57254819D01*
X124504762Y-57254819D02*
X124695238Y-57254819D01*
X124695238Y-57254819D02*
X124790476Y-57207200D01*
X124790476Y-57207200D02*
X124838095Y-57159580D01*
X124838095Y-57159580D02*
X124885714Y-57064342D01*
X124885714Y-57064342D02*
X124885714Y-56826247D01*
X124885714Y-56826247D02*
X124838095Y-56731009D01*
X124838095Y-56731009D02*
X124790476Y-56683390D01*
X124790476Y-56683390D02*
X124695238Y-56635771D01*
X124695238Y-56635771D02*
X124504762Y-56635771D01*
X124504762Y-56635771D02*
X124409524Y-56683390D01*
X124409524Y-56683390D02*
X124361905Y-56731009D01*
X124361905Y-56731009D02*
X124314286Y-56826247D01*
X190804819Y-82442857D02*
X190328628Y-82776190D01*
X190804819Y-83014285D02*
X189804819Y-83014285D01*
X189804819Y-83014285D02*
X189804819Y-82633333D01*
X189804819Y-82633333D02*
X189852438Y-82538095D01*
X189852438Y-82538095D02*
X189900057Y-82490476D01*
X189900057Y-82490476D02*
X189995295Y-82442857D01*
X189995295Y-82442857D02*
X190138152Y-82442857D01*
X190138152Y-82442857D02*
X190233390Y-82490476D01*
X190233390Y-82490476D02*
X190281009Y-82538095D01*
X190281009Y-82538095D02*
X190328628Y-82633333D01*
X190328628Y-82633333D02*
X190328628Y-83014285D01*
X189804819Y-82109523D02*
X189804819Y-81490476D01*
X189804819Y-81490476D02*
X190185771Y-81823809D01*
X190185771Y-81823809D02*
X190185771Y-81680952D01*
X190185771Y-81680952D02*
X190233390Y-81585714D01*
X190233390Y-81585714D02*
X190281009Y-81538095D01*
X190281009Y-81538095D02*
X190376247Y-81490476D01*
X190376247Y-81490476D02*
X190614342Y-81490476D01*
X190614342Y-81490476D02*
X190709580Y-81538095D01*
X190709580Y-81538095D02*
X190757200Y-81585714D01*
X190757200Y-81585714D02*
X190804819Y-81680952D01*
X190804819Y-81680952D02*
X190804819Y-81966666D01*
X190804819Y-81966666D02*
X190757200Y-82061904D01*
X190757200Y-82061904D02*
X190709580Y-82109523D01*
X189804819Y-80585714D02*
X189804819Y-81061904D01*
X189804819Y-81061904D02*
X190281009Y-81109523D01*
X190281009Y-81109523D02*
X190233390Y-81061904D01*
X190233390Y-81061904D02*
X190185771Y-80966666D01*
X190185771Y-80966666D02*
X190185771Y-80728571D01*
X190185771Y-80728571D02*
X190233390Y-80633333D01*
X190233390Y-80633333D02*
X190281009Y-80585714D01*
X190281009Y-80585714D02*
X190376247Y-80538095D01*
X190376247Y-80538095D02*
X190614342Y-80538095D01*
X190614342Y-80538095D02*
X190709580Y-80585714D01*
X190709580Y-80585714D02*
X190757200Y-80633333D01*
X190757200Y-80633333D02*
X190804819Y-80728571D01*
X190804819Y-80728571D02*
X190804819Y-80966666D01*
X190804819Y-80966666D02*
X190757200Y-81061904D01*
X190757200Y-81061904D02*
X190709580Y-81109523D01*
D11*
X186547618Y-141790200D02*
X186404761Y-141742580D01*
X186404761Y-141742580D02*
X186166666Y-141742580D01*
X186166666Y-141742580D02*
X186071428Y-141790200D01*
X186071428Y-141790200D02*
X186023809Y-141837819D01*
X186023809Y-141837819D02*
X185976190Y-141933057D01*
X185976190Y-141933057D02*
X185976190Y-142028295D01*
X185976190Y-142028295D02*
X186023809Y-142123533D01*
X186023809Y-142123533D02*
X186071428Y-142171152D01*
X186071428Y-142171152D02*
X186166666Y-142218771D01*
X186166666Y-142218771D02*
X186357142Y-142266390D01*
X186357142Y-142266390D02*
X186452380Y-142314009D01*
X186452380Y-142314009D02*
X186499999Y-142361628D01*
X186499999Y-142361628D02*
X186547618Y-142456866D01*
X186547618Y-142456866D02*
X186547618Y-142552104D01*
X186547618Y-142552104D02*
X186499999Y-142647342D01*
X186499999Y-142647342D02*
X186452380Y-142694961D01*
X186452380Y-142694961D02*
X186357142Y-142742580D01*
X186357142Y-142742580D02*
X186119047Y-142742580D01*
X186119047Y-142742580D02*
X185976190Y-142694961D01*
X185690475Y-142742580D02*
X185119047Y-142742580D01*
X185404761Y-141742580D02*
X185404761Y-142742580D01*
X184785713Y-141742580D02*
X184785713Y-142742580D01*
X184785713Y-142742580D02*
X184404761Y-142742580D01*
X184404761Y-142742580D02*
X184309523Y-142694961D01*
X184309523Y-142694961D02*
X184261904Y-142647342D01*
X184261904Y-142647342D02*
X184214285Y-142552104D01*
X184214285Y-142552104D02*
X184214285Y-142409247D01*
X184214285Y-142409247D02*
X184261904Y-142314009D01*
X184261904Y-142314009D02*
X184309523Y-142266390D01*
X184309523Y-142266390D02*
X184404761Y-142218771D01*
X184404761Y-142218771D02*
X184785713Y-142218771D01*
X184023809Y-141647342D02*
X183261904Y-141647342D01*
X183023808Y-142742580D02*
X183023808Y-141933057D01*
X183023808Y-141933057D02*
X182976189Y-141837819D01*
X182976189Y-141837819D02*
X182928570Y-141790200D01*
X182928570Y-141790200D02*
X182833332Y-141742580D01*
X182833332Y-141742580D02*
X182642856Y-141742580D01*
X182642856Y-141742580D02*
X182547618Y-141790200D01*
X182547618Y-141790200D02*
X182499999Y-141837819D01*
X182499999Y-141837819D02*
X182452380Y-141933057D01*
X182452380Y-141933057D02*
X182452380Y-142742580D01*
X181976189Y-141742580D02*
X181976189Y-142742580D01*
X181976189Y-142742580D02*
X181595237Y-142742580D01*
X181595237Y-142742580D02*
X181499999Y-142694961D01*
X181499999Y-142694961D02*
X181452380Y-142647342D01*
X181452380Y-142647342D02*
X181404761Y-142552104D01*
X181404761Y-142552104D02*
X181404761Y-142409247D01*
X181404761Y-142409247D02*
X181452380Y-142314009D01*
X181452380Y-142314009D02*
X181499999Y-142266390D01*
X181499999Y-142266390D02*
X181595237Y-142218771D01*
X181595237Y-142218771D02*
X181976189Y-142218771D01*
X180452380Y-141742580D02*
X181023808Y-141742580D01*
X180738094Y-141742580D02*
X180738094Y-142742580D01*
X180738094Y-142742580D02*
X180833332Y-142599723D01*
X180833332Y-142599723D02*
X180928570Y-142504485D01*
X180928570Y-142504485D02*
X181023808Y-142456866D01*
D10*
X114857142Y-59254819D02*
X114523809Y-58778628D01*
X114285714Y-59254819D02*
X114285714Y-58254819D01*
X114285714Y-58254819D02*
X114666666Y-58254819D01*
X114666666Y-58254819D02*
X114761904Y-58302438D01*
X114761904Y-58302438D02*
X114809523Y-58350057D01*
X114809523Y-58350057D02*
X114857142Y-58445295D01*
X114857142Y-58445295D02*
X114857142Y-58588152D01*
X114857142Y-58588152D02*
X114809523Y-58683390D01*
X114809523Y-58683390D02*
X114761904Y-58731009D01*
X114761904Y-58731009D02*
X114666666Y-58778628D01*
X114666666Y-58778628D02*
X114285714Y-58778628D01*
X115809523Y-59254819D02*
X115238095Y-59254819D01*
X115523809Y-59254819D02*
X115523809Y-58254819D01*
X115523809Y-58254819D02*
X115428571Y-58397676D01*
X115428571Y-58397676D02*
X115333333Y-58492914D01*
X115333333Y-58492914D02*
X115238095Y-58540533D01*
X116142857Y-58254819D02*
X116761904Y-58254819D01*
X116761904Y-58254819D02*
X116428571Y-58635771D01*
X116428571Y-58635771D02*
X116571428Y-58635771D01*
X116571428Y-58635771D02*
X116666666Y-58683390D01*
X116666666Y-58683390D02*
X116714285Y-58731009D01*
X116714285Y-58731009D02*
X116761904Y-58826247D01*
X116761904Y-58826247D02*
X116761904Y-59064342D01*
X116761904Y-59064342D02*
X116714285Y-59159580D01*
X116714285Y-59159580D02*
X116666666Y-59207200D01*
X116666666Y-59207200D02*
X116571428Y-59254819D01*
X116571428Y-59254819D02*
X116285714Y-59254819D01*
X116285714Y-59254819D02*
X116190476Y-59207200D01*
X116190476Y-59207200D02*
X116142857Y-59159580D01*
X105104819Y-79642857D02*
X104628628Y-79976190D01*
X105104819Y-80214285D02*
X104104819Y-80214285D01*
X104104819Y-80214285D02*
X104104819Y-79833333D01*
X104104819Y-79833333D02*
X104152438Y-79738095D01*
X104152438Y-79738095D02*
X104200057Y-79690476D01*
X104200057Y-79690476D02*
X104295295Y-79642857D01*
X104295295Y-79642857D02*
X104438152Y-79642857D01*
X104438152Y-79642857D02*
X104533390Y-79690476D01*
X104533390Y-79690476D02*
X104581009Y-79738095D01*
X104581009Y-79738095D02*
X104628628Y-79833333D01*
X104628628Y-79833333D02*
X104628628Y-80214285D01*
X105104819Y-78690476D02*
X105104819Y-79261904D01*
X105104819Y-78976190D02*
X104104819Y-78976190D01*
X104104819Y-78976190D02*
X104247676Y-79071428D01*
X104247676Y-79071428D02*
X104342914Y-79166666D01*
X104342914Y-79166666D02*
X104390533Y-79261904D01*
X104104819Y-78357142D02*
X104104819Y-77690476D01*
X104104819Y-77690476D02*
X105104819Y-78119047D01*
X147257142Y-97929580D02*
X147209523Y-97977200D01*
X147209523Y-97977200D02*
X147066666Y-98024819D01*
X147066666Y-98024819D02*
X146971428Y-98024819D01*
X146971428Y-98024819D02*
X146828571Y-97977200D01*
X146828571Y-97977200D02*
X146733333Y-97881961D01*
X146733333Y-97881961D02*
X146685714Y-97786723D01*
X146685714Y-97786723D02*
X146638095Y-97596247D01*
X146638095Y-97596247D02*
X146638095Y-97453390D01*
X146638095Y-97453390D02*
X146685714Y-97262914D01*
X146685714Y-97262914D02*
X146733333Y-97167676D01*
X146733333Y-97167676D02*
X146828571Y-97072438D01*
X146828571Y-97072438D02*
X146971428Y-97024819D01*
X146971428Y-97024819D02*
X147066666Y-97024819D01*
X147066666Y-97024819D02*
X147209523Y-97072438D01*
X147209523Y-97072438D02*
X147257142Y-97120057D01*
X147590476Y-97024819D02*
X148209523Y-97024819D01*
X148209523Y-97024819D02*
X147876190Y-97405771D01*
X147876190Y-97405771D02*
X148019047Y-97405771D01*
X148019047Y-97405771D02*
X148114285Y-97453390D01*
X148114285Y-97453390D02*
X148161904Y-97501009D01*
X148161904Y-97501009D02*
X148209523Y-97596247D01*
X148209523Y-97596247D02*
X148209523Y-97834342D01*
X148209523Y-97834342D02*
X148161904Y-97929580D01*
X148161904Y-97929580D02*
X148114285Y-97977200D01*
X148114285Y-97977200D02*
X148019047Y-98024819D01*
X148019047Y-98024819D02*
X147733333Y-98024819D01*
X147733333Y-98024819D02*
X147638095Y-97977200D01*
X147638095Y-97977200D02*
X147590476Y-97929580D01*
X148542857Y-97024819D02*
X149161904Y-97024819D01*
X149161904Y-97024819D02*
X148828571Y-97405771D01*
X148828571Y-97405771D02*
X148971428Y-97405771D01*
X148971428Y-97405771D02*
X149066666Y-97453390D01*
X149066666Y-97453390D02*
X149114285Y-97501009D01*
X149114285Y-97501009D02*
X149161904Y-97596247D01*
X149161904Y-97596247D02*
X149161904Y-97834342D01*
X149161904Y-97834342D02*
X149114285Y-97929580D01*
X149114285Y-97929580D02*
X149066666Y-97977200D01*
X149066666Y-97977200D02*
X148971428Y-98024819D01*
X148971428Y-98024819D02*
X148685714Y-98024819D01*
X148685714Y-98024819D02*
X148590476Y-97977200D01*
X148590476Y-97977200D02*
X148542857Y-97929580D01*
X113904761Y-131050057D02*
X113809523Y-131002438D01*
X113809523Y-131002438D02*
X113714285Y-130907200D01*
X113714285Y-130907200D02*
X113571428Y-130764342D01*
X113571428Y-130764342D02*
X113476190Y-130716723D01*
X113476190Y-130716723D02*
X113380952Y-130716723D01*
X113428571Y-130954819D02*
X113333333Y-130907200D01*
X113333333Y-130907200D02*
X113238095Y-130811961D01*
X113238095Y-130811961D02*
X113190476Y-130621485D01*
X113190476Y-130621485D02*
X113190476Y-130288152D01*
X113190476Y-130288152D02*
X113238095Y-130097676D01*
X113238095Y-130097676D02*
X113333333Y-130002438D01*
X113333333Y-130002438D02*
X113428571Y-129954819D01*
X113428571Y-129954819D02*
X113619047Y-129954819D01*
X113619047Y-129954819D02*
X113714285Y-130002438D01*
X113714285Y-130002438D02*
X113809523Y-130097676D01*
X113809523Y-130097676D02*
X113857142Y-130288152D01*
X113857142Y-130288152D02*
X113857142Y-130621485D01*
X113857142Y-130621485D02*
X113809523Y-130811961D01*
X113809523Y-130811961D02*
X113714285Y-130907200D01*
X113714285Y-130907200D02*
X113619047Y-130954819D01*
X113619047Y-130954819D02*
X113428571Y-130954819D01*
X114238095Y-130050057D02*
X114285714Y-130002438D01*
X114285714Y-130002438D02*
X114380952Y-129954819D01*
X114380952Y-129954819D02*
X114619047Y-129954819D01*
X114619047Y-129954819D02*
X114714285Y-130002438D01*
X114714285Y-130002438D02*
X114761904Y-130050057D01*
X114761904Y-130050057D02*
X114809523Y-130145295D01*
X114809523Y-130145295D02*
X114809523Y-130240533D01*
X114809523Y-130240533D02*
X114761904Y-130383390D01*
X114761904Y-130383390D02*
X114190476Y-130954819D01*
X114190476Y-130954819D02*
X114809523Y-130954819D01*
X192533333Y-54504819D02*
X192200000Y-54028628D01*
X191961905Y-54504819D02*
X191961905Y-53504819D01*
X191961905Y-53504819D02*
X192342857Y-53504819D01*
X192342857Y-53504819D02*
X192438095Y-53552438D01*
X192438095Y-53552438D02*
X192485714Y-53600057D01*
X192485714Y-53600057D02*
X192533333Y-53695295D01*
X192533333Y-53695295D02*
X192533333Y-53838152D01*
X192533333Y-53838152D02*
X192485714Y-53933390D01*
X192485714Y-53933390D02*
X192438095Y-53981009D01*
X192438095Y-53981009D02*
X192342857Y-54028628D01*
X192342857Y-54028628D02*
X191961905Y-54028628D01*
X193438095Y-53504819D02*
X192961905Y-53504819D01*
X192961905Y-53504819D02*
X192914286Y-53981009D01*
X192914286Y-53981009D02*
X192961905Y-53933390D01*
X192961905Y-53933390D02*
X193057143Y-53885771D01*
X193057143Y-53885771D02*
X193295238Y-53885771D01*
X193295238Y-53885771D02*
X193390476Y-53933390D01*
X193390476Y-53933390D02*
X193438095Y-53981009D01*
X193438095Y-53981009D02*
X193485714Y-54076247D01*
X193485714Y-54076247D02*
X193485714Y-54314342D01*
X193485714Y-54314342D02*
X193438095Y-54409580D01*
X193438095Y-54409580D02*
X193390476Y-54457200D01*
X193390476Y-54457200D02*
X193295238Y-54504819D01*
X193295238Y-54504819D02*
X193057143Y-54504819D01*
X193057143Y-54504819D02*
X192961905Y-54457200D01*
X192961905Y-54457200D02*
X192914286Y-54409580D01*
X110359580Y-64642857D02*
X110407200Y-64690476D01*
X110407200Y-64690476D02*
X110454819Y-64833333D01*
X110454819Y-64833333D02*
X110454819Y-64928571D01*
X110454819Y-64928571D02*
X110407200Y-65071428D01*
X110407200Y-65071428D02*
X110311961Y-65166666D01*
X110311961Y-65166666D02*
X110216723Y-65214285D01*
X110216723Y-65214285D02*
X110026247Y-65261904D01*
X110026247Y-65261904D02*
X109883390Y-65261904D01*
X109883390Y-65261904D02*
X109692914Y-65214285D01*
X109692914Y-65214285D02*
X109597676Y-65166666D01*
X109597676Y-65166666D02*
X109502438Y-65071428D01*
X109502438Y-65071428D02*
X109454819Y-64928571D01*
X109454819Y-64928571D02*
X109454819Y-64833333D01*
X109454819Y-64833333D02*
X109502438Y-64690476D01*
X109502438Y-64690476D02*
X109550057Y-64642857D01*
X109550057Y-64261904D02*
X109502438Y-64214285D01*
X109502438Y-64214285D02*
X109454819Y-64119047D01*
X109454819Y-64119047D02*
X109454819Y-63880952D01*
X109454819Y-63880952D02*
X109502438Y-63785714D01*
X109502438Y-63785714D02*
X109550057Y-63738095D01*
X109550057Y-63738095D02*
X109645295Y-63690476D01*
X109645295Y-63690476D02*
X109740533Y-63690476D01*
X109740533Y-63690476D02*
X109883390Y-63738095D01*
X109883390Y-63738095D02*
X110454819Y-64309523D01*
X110454819Y-64309523D02*
X110454819Y-63690476D01*
X109454819Y-63071428D02*
X109454819Y-62976190D01*
X109454819Y-62976190D02*
X109502438Y-62880952D01*
X109502438Y-62880952D02*
X109550057Y-62833333D01*
X109550057Y-62833333D02*
X109645295Y-62785714D01*
X109645295Y-62785714D02*
X109835771Y-62738095D01*
X109835771Y-62738095D02*
X110073866Y-62738095D01*
X110073866Y-62738095D02*
X110264342Y-62785714D01*
X110264342Y-62785714D02*
X110359580Y-62833333D01*
X110359580Y-62833333D02*
X110407200Y-62880952D01*
X110407200Y-62880952D02*
X110454819Y-62976190D01*
X110454819Y-62976190D02*
X110454819Y-63071428D01*
X110454819Y-63071428D02*
X110407200Y-63166666D01*
X110407200Y-63166666D02*
X110359580Y-63214285D01*
X110359580Y-63214285D02*
X110264342Y-63261904D01*
X110264342Y-63261904D02*
X110073866Y-63309523D01*
X110073866Y-63309523D02*
X109835771Y-63309523D01*
X109835771Y-63309523D02*
X109645295Y-63261904D01*
X109645295Y-63261904D02*
X109550057Y-63214285D01*
X109550057Y-63214285D02*
X109502438Y-63166666D01*
X109502438Y-63166666D02*
X109454819Y-63071428D01*
X121607142Y-69659580D02*
X121559523Y-69707200D01*
X121559523Y-69707200D02*
X121416666Y-69754819D01*
X121416666Y-69754819D02*
X121321428Y-69754819D01*
X121321428Y-69754819D02*
X121178571Y-69707200D01*
X121178571Y-69707200D02*
X121083333Y-69611961D01*
X121083333Y-69611961D02*
X121035714Y-69516723D01*
X121035714Y-69516723D02*
X120988095Y-69326247D01*
X120988095Y-69326247D02*
X120988095Y-69183390D01*
X120988095Y-69183390D02*
X121035714Y-68992914D01*
X121035714Y-68992914D02*
X121083333Y-68897676D01*
X121083333Y-68897676D02*
X121178571Y-68802438D01*
X121178571Y-68802438D02*
X121321428Y-68754819D01*
X121321428Y-68754819D02*
X121416666Y-68754819D01*
X121416666Y-68754819D02*
X121559523Y-68802438D01*
X121559523Y-68802438D02*
X121607142Y-68850057D01*
X121988095Y-68850057D02*
X122035714Y-68802438D01*
X122035714Y-68802438D02*
X122130952Y-68754819D01*
X122130952Y-68754819D02*
X122369047Y-68754819D01*
X122369047Y-68754819D02*
X122464285Y-68802438D01*
X122464285Y-68802438D02*
X122511904Y-68850057D01*
X122511904Y-68850057D02*
X122559523Y-68945295D01*
X122559523Y-68945295D02*
X122559523Y-69040533D01*
X122559523Y-69040533D02*
X122511904Y-69183390D01*
X122511904Y-69183390D02*
X121940476Y-69754819D01*
X121940476Y-69754819D02*
X122559523Y-69754819D01*
X123511904Y-69754819D02*
X122940476Y-69754819D01*
X123226190Y-69754819D02*
X123226190Y-68754819D01*
X123226190Y-68754819D02*
X123130952Y-68897676D01*
X123130952Y-68897676D02*
X123035714Y-68992914D01*
X123035714Y-68992914D02*
X122940476Y-69040533D01*
X158504819Y-90142857D02*
X158028628Y-90476190D01*
X158504819Y-90714285D02*
X157504819Y-90714285D01*
X157504819Y-90714285D02*
X157504819Y-90333333D01*
X157504819Y-90333333D02*
X157552438Y-90238095D01*
X157552438Y-90238095D02*
X157600057Y-90190476D01*
X157600057Y-90190476D02*
X157695295Y-90142857D01*
X157695295Y-90142857D02*
X157838152Y-90142857D01*
X157838152Y-90142857D02*
X157933390Y-90190476D01*
X157933390Y-90190476D02*
X157981009Y-90238095D01*
X157981009Y-90238095D02*
X158028628Y-90333333D01*
X158028628Y-90333333D02*
X158028628Y-90714285D01*
X157504819Y-89809523D02*
X157504819Y-89190476D01*
X157504819Y-89190476D02*
X157885771Y-89523809D01*
X157885771Y-89523809D02*
X157885771Y-89380952D01*
X157885771Y-89380952D02*
X157933390Y-89285714D01*
X157933390Y-89285714D02*
X157981009Y-89238095D01*
X157981009Y-89238095D02*
X158076247Y-89190476D01*
X158076247Y-89190476D02*
X158314342Y-89190476D01*
X158314342Y-89190476D02*
X158409580Y-89238095D01*
X158409580Y-89238095D02*
X158457200Y-89285714D01*
X158457200Y-89285714D02*
X158504819Y-89380952D01*
X158504819Y-89380952D02*
X158504819Y-89666666D01*
X158504819Y-89666666D02*
X158457200Y-89761904D01*
X158457200Y-89761904D02*
X158409580Y-89809523D01*
X157933390Y-88619047D02*
X157885771Y-88714285D01*
X157885771Y-88714285D02*
X157838152Y-88761904D01*
X157838152Y-88761904D02*
X157742914Y-88809523D01*
X157742914Y-88809523D02*
X157695295Y-88809523D01*
X157695295Y-88809523D02*
X157600057Y-88761904D01*
X157600057Y-88761904D02*
X157552438Y-88714285D01*
X157552438Y-88714285D02*
X157504819Y-88619047D01*
X157504819Y-88619047D02*
X157504819Y-88428571D01*
X157504819Y-88428571D02*
X157552438Y-88333333D01*
X157552438Y-88333333D02*
X157600057Y-88285714D01*
X157600057Y-88285714D02*
X157695295Y-88238095D01*
X157695295Y-88238095D02*
X157742914Y-88238095D01*
X157742914Y-88238095D02*
X157838152Y-88285714D01*
X157838152Y-88285714D02*
X157885771Y-88333333D01*
X157885771Y-88333333D02*
X157933390Y-88428571D01*
X157933390Y-88428571D02*
X157933390Y-88619047D01*
X157933390Y-88619047D02*
X157981009Y-88714285D01*
X157981009Y-88714285D02*
X158028628Y-88761904D01*
X158028628Y-88761904D02*
X158123866Y-88809523D01*
X158123866Y-88809523D02*
X158314342Y-88809523D01*
X158314342Y-88809523D02*
X158409580Y-88761904D01*
X158409580Y-88761904D02*
X158457200Y-88714285D01*
X158457200Y-88714285D02*
X158504819Y-88619047D01*
X158504819Y-88619047D02*
X158504819Y-88428571D01*
X158504819Y-88428571D02*
X158457200Y-88333333D01*
X158457200Y-88333333D02*
X158409580Y-88285714D01*
X158409580Y-88285714D02*
X158314342Y-88238095D01*
X158314342Y-88238095D02*
X158123866Y-88238095D01*
X158123866Y-88238095D02*
X158028628Y-88285714D01*
X158028628Y-88285714D02*
X157981009Y-88333333D01*
X157981009Y-88333333D02*
X157933390Y-88428571D01*
X161118333Y-141609580D02*
X161070714Y-141657200D01*
X161070714Y-141657200D02*
X160927857Y-141704819D01*
X160927857Y-141704819D02*
X160832619Y-141704819D01*
X160832619Y-141704819D02*
X160689762Y-141657200D01*
X160689762Y-141657200D02*
X160594524Y-141561961D01*
X160594524Y-141561961D02*
X160546905Y-141466723D01*
X160546905Y-141466723D02*
X160499286Y-141276247D01*
X160499286Y-141276247D02*
X160499286Y-141133390D01*
X160499286Y-141133390D02*
X160546905Y-140942914D01*
X160546905Y-140942914D02*
X160594524Y-140847676D01*
X160594524Y-140847676D02*
X160689762Y-140752438D01*
X160689762Y-140752438D02*
X160832619Y-140704819D01*
X160832619Y-140704819D02*
X160927857Y-140704819D01*
X160927857Y-140704819D02*
X161070714Y-140752438D01*
X161070714Y-140752438D02*
X161118333Y-140800057D01*
X162070714Y-141704819D02*
X161499286Y-141704819D01*
X161785000Y-141704819D02*
X161785000Y-140704819D01*
X161785000Y-140704819D02*
X161689762Y-140847676D01*
X161689762Y-140847676D02*
X161594524Y-140942914D01*
X161594524Y-140942914D02*
X161499286Y-140990533D01*
X188842261Y-125100057D02*
X188747023Y-125052438D01*
X188747023Y-125052438D02*
X188651785Y-124957200D01*
X188651785Y-124957200D02*
X188508928Y-124814342D01*
X188508928Y-124814342D02*
X188413690Y-124766723D01*
X188413690Y-124766723D02*
X188318452Y-124766723D01*
X188366071Y-125004819D02*
X188270833Y-124957200D01*
X188270833Y-124957200D02*
X188175595Y-124861961D01*
X188175595Y-124861961D02*
X188127976Y-124671485D01*
X188127976Y-124671485D02*
X188127976Y-124338152D01*
X188127976Y-124338152D02*
X188175595Y-124147676D01*
X188175595Y-124147676D02*
X188270833Y-124052438D01*
X188270833Y-124052438D02*
X188366071Y-124004819D01*
X188366071Y-124004819D02*
X188556547Y-124004819D01*
X188556547Y-124004819D02*
X188651785Y-124052438D01*
X188651785Y-124052438D02*
X188747023Y-124147676D01*
X188747023Y-124147676D02*
X188794642Y-124338152D01*
X188794642Y-124338152D02*
X188794642Y-124671485D01*
X188794642Y-124671485D02*
X188747023Y-124861961D01*
X188747023Y-124861961D02*
X188651785Y-124957200D01*
X188651785Y-124957200D02*
X188556547Y-125004819D01*
X188556547Y-125004819D02*
X188366071Y-125004819D01*
X189747023Y-125004819D02*
X189175595Y-125004819D01*
X189461309Y-125004819D02*
X189461309Y-124004819D01*
X189461309Y-124004819D02*
X189366071Y-124147676D01*
X189366071Y-124147676D02*
X189270833Y-124242914D01*
X189270833Y-124242914D02*
X189175595Y-124290533D01*
X120059580Y-58042857D02*
X120107200Y-58090476D01*
X120107200Y-58090476D02*
X120154819Y-58233333D01*
X120154819Y-58233333D02*
X120154819Y-58328571D01*
X120154819Y-58328571D02*
X120107200Y-58471428D01*
X120107200Y-58471428D02*
X120011961Y-58566666D01*
X120011961Y-58566666D02*
X119916723Y-58614285D01*
X119916723Y-58614285D02*
X119726247Y-58661904D01*
X119726247Y-58661904D02*
X119583390Y-58661904D01*
X119583390Y-58661904D02*
X119392914Y-58614285D01*
X119392914Y-58614285D02*
X119297676Y-58566666D01*
X119297676Y-58566666D02*
X119202438Y-58471428D01*
X119202438Y-58471428D02*
X119154819Y-58328571D01*
X119154819Y-58328571D02*
X119154819Y-58233333D01*
X119154819Y-58233333D02*
X119202438Y-58090476D01*
X119202438Y-58090476D02*
X119250057Y-58042857D01*
X119250057Y-57661904D02*
X119202438Y-57614285D01*
X119202438Y-57614285D02*
X119154819Y-57519047D01*
X119154819Y-57519047D02*
X119154819Y-57280952D01*
X119154819Y-57280952D02*
X119202438Y-57185714D01*
X119202438Y-57185714D02*
X119250057Y-57138095D01*
X119250057Y-57138095D02*
X119345295Y-57090476D01*
X119345295Y-57090476D02*
X119440533Y-57090476D01*
X119440533Y-57090476D02*
X119583390Y-57138095D01*
X119583390Y-57138095D02*
X120154819Y-57709523D01*
X120154819Y-57709523D02*
X120154819Y-57090476D01*
X119583390Y-56519047D02*
X119535771Y-56614285D01*
X119535771Y-56614285D02*
X119488152Y-56661904D01*
X119488152Y-56661904D02*
X119392914Y-56709523D01*
X119392914Y-56709523D02*
X119345295Y-56709523D01*
X119345295Y-56709523D02*
X119250057Y-56661904D01*
X119250057Y-56661904D02*
X119202438Y-56614285D01*
X119202438Y-56614285D02*
X119154819Y-56519047D01*
X119154819Y-56519047D02*
X119154819Y-56328571D01*
X119154819Y-56328571D02*
X119202438Y-56233333D01*
X119202438Y-56233333D02*
X119250057Y-56185714D01*
X119250057Y-56185714D02*
X119345295Y-56138095D01*
X119345295Y-56138095D02*
X119392914Y-56138095D01*
X119392914Y-56138095D02*
X119488152Y-56185714D01*
X119488152Y-56185714D02*
X119535771Y-56233333D01*
X119535771Y-56233333D02*
X119583390Y-56328571D01*
X119583390Y-56328571D02*
X119583390Y-56519047D01*
X119583390Y-56519047D02*
X119631009Y-56614285D01*
X119631009Y-56614285D02*
X119678628Y-56661904D01*
X119678628Y-56661904D02*
X119773866Y-56709523D01*
X119773866Y-56709523D02*
X119964342Y-56709523D01*
X119964342Y-56709523D02*
X120059580Y-56661904D01*
X120059580Y-56661904D02*
X120107200Y-56614285D01*
X120107200Y-56614285D02*
X120154819Y-56519047D01*
X120154819Y-56519047D02*
X120154819Y-56328571D01*
X120154819Y-56328571D02*
X120107200Y-56233333D01*
X120107200Y-56233333D02*
X120059580Y-56185714D01*
X120059580Y-56185714D02*
X119964342Y-56138095D01*
X119964342Y-56138095D02*
X119773866Y-56138095D01*
X119773866Y-56138095D02*
X119678628Y-56185714D01*
X119678628Y-56185714D02*
X119631009Y-56233333D01*
X119631009Y-56233333D02*
X119583390Y-56328571D01*
X123966667Y-53007200D02*
X124109524Y-53054819D01*
X124109524Y-53054819D02*
X124347619Y-53054819D01*
X124347619Y-53054819D02*
X124442857Y-53007200D01*
X124442857Y-53007200D02*
X124490476Y-52959580D01*
X124490476Y-52959580D02*
X124538095Y-52864342D01*
X124538095Y-52864342D02*
X124538095Y-52769104D01*
X124538095Y-52769104D02*
X124490476Y-52673866D01*
X124490476Y-52673866D02*
X124442857Y-52626247D01*
X124442857Y-52626247D02*
X124347619Y-52578628D01*
X124347619Y-52578628D02*
X124157143Y-52531009D01*
X124157143Y-52531009D02*
X124061905Y-52483390D01*
X124061905Y-52483390D02*
X124014286Y-52435771D01*
X124014286Y-52435771D02*
X123966667Y-52340533D01*
X123966667Y-52340533D02*
X123966667Y-52245295D01*
X123966667Y-52245295D02*
X124014286Y-52150057D01*
X124014286Y-52150057D02*
X124061905Y-52102438D01*
X124061905Y-52102438D02*
X124157143Y-52054819D01*
X124157143Y-52054819D02*
X124395238Y-52054819D01*
X124395238Y-52054819D02*
X124538095Y-52102438D01*
X124871429Y-52054819D02*
X125109524Y-53054819D01*
X125109524Y-53054819D02*
X125300000Y-52340533D01*
X125300000Y-52340533D02*
X125490476Y-53054819D01*
X125490476Y-53054819D02*
X125728572Y-52054819D01*
X126633333Y-53054819D02*
X126061905Y-53054819D01*
X126347619Y-53054819D02*
X126347619Y-52054819D01*
X126347619Y-52054819D02*
X126252381Y-52197676D01*
X126252381Y-52197676D02*
X126157143Y-52292914D01*
X126157143Y-52292914D02*
X126061905Y-52340533D01*
X127083333Y-83854819D02*
X126750000Y-83378628D01*
X126511905Y-83854819D02*
X126511905Y-82854819D01*
X126511905Y-82854819D02*
X126892857Y-82854819D01*
X126892857Y-82854819D02*
X126988095Y-82902438D01*
X126988095Y-82902438D02*
X127035714Y-82950057D01*
X127035714Y-82950057D02*
X127083333Y-83045295D01*
X127083333Y-83045295D02*
X127083333Y-83188152D01*
X127083333Y-83188152D02*
X127035714Y-83283390D01*
X127035714Y-83283390D02*
X126988095Y-83331009D01*
X126988095Y-83331009D02*
X126892857Y-83378628D01*
X126892857Y-83378628D02*
X126511905Y-83378628D01*
X127559524Y-83854819D02*
X127750000Y-83854819D01*
X127750000Y-83854819D02*
X127845238Y-83807200D01*
X127845238Y-83807200D02*
X127892857Y-83759580D01*
X127892857Y-83759580D02*
X127988095Y-83616723D01*
X127988095Y-83616723D02*
X128035714Y-83426247D01*
X128035714Y-83426247D02*
X128035714Y-83045295D01*
X128035714Y-83045295D02*
X127988095Y-82950057D01*
X127988095Y-82950057D02*
X127940476Y-82902438D01*
X127940476Y-82902438D02*
X127845238Y-82854819D01*
X127845238Y-82854819D02*
X127654762Y-82854819D01*
X127654762Y-82854819D02*
X127559524Y-82902438D01*
X127559524Y-82902438D02*
X127511905Y-82950057D01*
X127511905Y-82950057D02*
X127464286Y-83045295D01*
X127464286Y-83045295D02*
X127464286Y-83283390D01*
X127464286Y-83283390D02*
X127511905Y-83378628D01*
X127511905Y-83378628D02*
X127559524Y-83426247D01*
X127559524Y-83426247D02*
X127654762Y-83473866D01*
X127654762Y-83473866D02*
X127845238Y-83473866D01*
X127845238Y-83473866D02*
X127940476Y-83426247D01*
X127940476Y-83426247D02*
X127988095Y-83378628D01*
X127988095Y-83378628D02*
X128035714Y-83283390D01*
D11*
X180566390Y-95333333D02*
X180518771Y-95476190D01*
X180518771Y-95476190D02*
X180471152Y-95523809D01*
X180471152Y-95523809D02*
X180375914Y-95571428D01*
X180375914Y-95571428D02*
X180233057Y-95571428D01*
X180233057Y-95571428D02*
X180137819Y-95523809D01*
X180137819Y-95523809D02*
X180090200Y-95476190D01*
X180090200Y-95476190D02*
X180042580Y-95380952D01*
X180042580Y-95380952D02*
X180042580Y-95000000D01*
X180042580Y-95000000D02*
X181042580Y-95000000D01*
X181042580Y-95000000D02*
X181042580Y-95333333D01*
X181042580Y-95333333D02*
X180994961Y-95428571D01*
X180994961Y-95428571D02*
X180947342Y-95476190D01*
X180947342Y-95476190D02*
X180852104Y-95523809D01*
X180852104Y-95523809D02*
X180756866Y-95523809D01*
X180756866Y-95523809D02*
X180661628Y-95476190D01*
X180661628Y-95476190D02*
X180614009Y-95428571D01*
X180614009Y-95428571D02*
X180566390Y-95333333D01*
X180566390Y-95333333D02*
X180566390Y-95000000D01*
X180042580Y-96000000D02*
X181042580Y-96000000D01*
X181042580Y-96000000D02*
X180328295Y-96333333D01*
X180328295Y-96333333D02*
X181042580Y-96666666D01*
X181042580Y-96666666D02*
X180042580Y-96666666D01*
X180042580Y-97142857D02*
X181042580Y-97142857D01*
X180042580Y-98142856D02*
X180042580Y-97571428D01*
X180042580Y-97857142D02*
X181042580Y-97857142D01*
X181042580Y-97857142D02*
X180899723Y-97761904D01*
X180899723Y-97761904D02*
X180804485Y-97666666D01*
X180804485Y-97666666D02*
X180756866Y-97571428D01*
X181042580Y-98999999D02*
X181042580Y-98809523D01*
X181042580Y-98809523D02*
X180994961Y-98714285D01*
X180994961Y-98714285D02*
X180947342Y-98666666D01*
X180947342Y-98666666D02*
X180804485Y-98571428D01*
X180804485Y-98571428D02*
X180614009Y-98523809D01*
X180614009Y-98523809D02*
X180233057Y-98523809D01*
X180233057Y-98523809D02*
X180137819Y-98571428D01*
X180137819Y-98571428D02*
X180090200Y-98619047D01*
X180090200Y-98619047D02*
X180042580Y-98714285D01*
X180042580Y-98714285D02*
X180042580Y-98904761D01*
X180042580Y-98904761D02*
X180090200Y-98999999D01*
X180090200Y-98999999D02*
X180137819Y-99047618D01*
X180137819Y-99047618D02*
X180233057Y-99095237D01*
X180233057Y-99095237D02*
X180471152Y-99095237D01*
X180471152Y-99095237D02*
X180566390Y-99047618D01*
X180566390Y-99047618D02*
X180614009Y-98999999D01*
X180614009Y-98999999D02*
X180661628Y-98904761D01*
X180661628Y-98904761D02*
X180661628Y-98714285D01*
X180661628Y-98714285D02*
X180614009Y-98619047D01*
X180614009Y-98619047D02*
X180566390Y-98571428D01*
X180566390Y-98571428D02*
X180471152Y-98523809D01*
X181042580Y-99714285D02*
X181042580Y-99809523D01*
X181042580Y-99809523D02*
X180994961Y-99904761D01*
X180994961Y-99904761D02*
X180947342Y-99952380D01*
X180947342Y-99952380D02*
X180852104Y-99999999D01*
X180852104Y-99999999D02*
X180661628Y-100047618D01*
X180661628Y-100047618D02*
X180423533Y-100047618D01*
X180423533Y-100047618D02*
X180233057Y-99999999D01*
X180233057Y-99999999D02*
X180137819Y-99952380D01*
X180137819Y-99952380D02*
X180090200Y-99904761D01*
X180090200Y-99904761D02*
X180042580Y-99809523D01*
X180042580Y-99809523D02*
X180042580Y-99714285D01*
X180042580Y-99714285D02*
X180090200Y-99619047D01*
X180090200Y-99619047D02*
X180137819Y-99571428D01*
X180137819Y-99571428D02*
X180233057Y-99523809D01*
X180233057Y-99523809D02*
X180423533Y-99476190D01*
X180423533Y-99476190D02*
X180661628Y-99476190D01*
X180661628Y-99476190D02*
X180852104Y-99523809D01*
X180852104Y-99523809D02*
X180947342Y-99571428D01*
X180947342Y-99571428D02*
X180994961Y-99619047D01*
X180994961Y-99619047D02*
X181042580Y-99714285D01*
D10*
X106954819Y-74642857D02*
X106478628Y-74976190D01*
X106954819Y-75214285D02*
X105954819Y-75214285D01*
X105954819Y-75214285D02*
X105954819Y-74833333D01*
X105954819Y-74833333D02*
X106002438Y-74738095D01*
X106002438Y-74738095D02*
X106050057Y-74690476D01*
X106050057Y-74690476D02*
X106145295Y-74642857D01*
X106145295Y-74642857D02*
X106288152Y-74642857D01*
X106288152Y-74642857D02*
X106383390Y-74690476D01*
X106383390Y-74690476D02*
X106431009Y-74738095D01*
X106431009Y-74738095D02*
X106478628Y-74833333D01*
X106478628Y-74833333D02*
X106478628Y-75214285D01*
X106954819Y-73690476D02*
X106954819Y-74261904D01*
X106954819Y-73976190D02*
X105954819Y-73976190D01*
X105954819Y-73976190D02*
X106097676Y-74071428D01*
X106097676Y-74071428D02*
X106192914Y-74166666D01*
X106192914Y-74166666D02*
X106240533Y-74261904D01*
X106954819Y-73214285D02*
X106954819Y-73023809D01*
X106954819Y-73023809D02*
X106907200Y-72928571D01*
X106907200Y-72928571D02*
X106859580Y-72880952D01*
X106859580Y-72880952D02*
X106716723Y-72785714D01*
X106716723Y-72785714D02*
X106526247Y-72738095D01*
X106526247Y-72738095D02*
X106145295Y-72738095D01*
X106145295Y-72738095D02*
X106050057Y-72785714D01*
X106050057Y-72785714D02*
X106002438Y-72833333D01*
X106002438Y-72833333D02*
X105954819Y-72928571D01*
X105954819Y-72928571D02*
X105954819Y-73119047D01*
X105954819Y-73119047D02*
X106002438Y-73214285D01*
X106002438Y-73214285D02*
X106050057Y-73261904D01*
X106050057Y-73261904D02*
X106145295Y-73309523D01*
X106145295Y-73309523D02*
X106383390Y-73309523D01*
X106383390Y-73309523D02*
X106478628Y-73261904D01*
X106478628Y-73261904D02*
X106526247Y-73214285D01*
X106526247Y-73214285D02*
X106573866Y-73119047D01*
X106573866Y-73119047D02*
X106573866Y-72928571D01*
X106573866Y-72928571D02*
X106526247Y-72833333D01*
X106526247Y-72833333D02*
X106478628Y-72785714D01*
X106478628Y-72785714D02*
X106383390Y-72738095D01*
X156433333Y-93454819D02*
X156100000Y-92978628D01*
X155861905Y-93454819D02*
X155861905Y-92454819D01*
X155861905Y-92454819D02*
X156242857Y-92454819D01*
X156242857Y-92454819D02*
X156338095Y-92502438D01*
X156338095Y-92502438D02*
X156385714Y-92550057D01*
X156385714Y-92550057D02*
X156433333Y-92645295D01*
X156433333Y-92645295D02*
X156433333Y-92788152D01*
X156433333Y-92788152D02*
X156385714Y-92883390D01*
X156385714Y-92883390D02*
X156338095Y-92931009D01*
X156338095Y-92931009D02*
X156242857Y-92978628D01*
X156242857Y-92978628D02*
X155861905Y-92978628D01*
X157385714Y-93454819D02*
X156814286Y-93454819D01*
X157100000Y-93454819D02*
X157100000Y-92454819D01*
X157100000Y-92454819D02*
X157004762Y-92597676D01*
X157004762Y-92597676D02*
X156909524Y-92692914D01*
X156909524Y-92692914D02*
X156814286Y-92740533D01*
X106857142Y-124359580D02*
X106809523Y-124407200D01*
X106809523Y-124407200D02*
X106666666Y-124454819D01*
X106666666Y-124454819D02*
X106571428Y-124454819D01*
X106571428Y-124454819D02*
X106428571Y-124407200D01*
X106428571Y-124407200D02*
X106333333Y-124311961D01*
X106333333Y-124311961D02*
X106285714Y-124216723D01*
X106285714Y-124216723D02*
X106238095Y-124026247D01*
X106238095Y-124026247D02*
X106238095Y-123883390D01*
X106238095Y-123883390D02*
X106285714Y-123692914D01*
X106285714Y-123692914D02*
X106333333Y-123597676D01*
X106333333Y-123597676D02*
X106428571Y-123502438D01*
X106428571Y-123502438D02*
X106571428Y-123454819D01*
X106571428Y-123454819D02*
X106666666Y-123454819D01*
X106666666Y-123454819D02*
X106809523Y-123502438D01*
X106809523Y-123502438D02*
X106857142Y-123550057D01*
X107238095Y-123550057D02*
X107285714Y-123502438D01*
X107285714Y-123502438D02*
X107380952Y-123454819D01*
X107380952Y-123454819D02*
X107619047Y-123454819D01*
X107619047Y-123454819D02*
X107714285Y-123502438D01*
X107714285Y-123502438D02*
X107761904Y-123550057D01*
X107761904Y-123550057D02*
X107809523Y-123645295D01*
X107809523Y-123645295D02*
X107809523Y-123740533D01*
X107809523Y-123740533D02*
X107761904Y-123883390D01*
X107761904Y-123883390D02*
X107190476Y-124454819D01*
X107190476Y-124454819D02*
X107809523Y-124454819D01*
X108666666Y-123454819D02*
X108476190Y-123454819D01*
X108476190Y-123454819D02*
X108380952Y-123502438D01*
X108380952Y-123502438D02*
X108333333Y-123550057D01*
X108333333Y-123550057D02*
X108238095Y-123692914D01*
X108238095Y-123692914D02*
X108190476Y-123883390D01*
X108190476Y-123883390D02*
X108190476Y-124264342D01*
X108190476Y-124264342D02*
X108238095Y-124359580D01*
X108238095Y-124359580D02*
X108285714Y-124407200D01*
X108285714Y-124407200D02*
X108380952Y-124454819D01*
X108380952Y-124454819D02*
X108571428Y-124454819D01*
X108571428Y-124454819D02*
X108666666Y-124407200D01*
X108666666Y-124407200D02*
X108714285Y-124359580D01*
X108714285Y-124359580D02*
X108761904Y-124264342D01*
X108761904Y-124264342D02*
X108761904Y-124026247D01*
X108761904Y-124026247D02*
X108714285Y-123931009D01*
X108714285Y-123931009D02*
X108666666Y-123883390D01*
X108666666Y-123883390D02*
X108571428Y-123835771D01*
X108571428Y-123835771D02*
X108380952Y-123835771D01*
X108380952Y-123835771D02*
X108285714Y-123883390D01*
X108285714Y-123883390D02*
X108238095Y-123931009D01*
X108238095Y-123931009D02*
X108190476Y-124026247D01*
X183366667Y-53007200D02*
X183509524Y-53054819D01*
X183509524Y-53054819D02*
X183747619Y-53054819D01*
X183747619Y-53054819D02*
X183842857Y-53007200D01*
X183842857Y-53007200D02*
X183890476Y-52959580D01*
X183890476Y-52959580D02*
X183938095Y-52864342D01*
X183938095Y-52864342D02*
X183938095Y-52769104D01*
X183938095Y-52769104D02*
X183890476Y-52673866D01*
X183890476Y-52673866D02*
X183842857Y-52626247D01*
X183842857Y-52626247D02*
X183747619Y-52578628D01*
X183747619Y-52578628D02*
X183557143Y-52531009D01*
X183557143Y-52531009D02*
X183461905Y-52483390D01*
X183461905Y-52483390D02*
X183414286Y-52435771D01*
X183414286Y-52435771D02*
X183366667Y-52340533D01*
X183366667Y-52340533D02*
X183366667Y-52245295D01*
X183366667Y-52245295D02*
X183414286Y-52150057D01*
X183414286Y-52150057D02*
X183461905Y-52102438D01*
X183461905Y-52102438D02*
X183557143Y-52054819D01*
X183557143Y-52054819D02*
X183795238Y-52054819D01*
X183795238Y-52054819D02*
X183938095Y-52102438D01*
X184271429Y-52054819D02*
X184509524Y-53054819D01*
X184509524Y-53054819D02*
X184700000Y-52340533D01*
X184700000Y-52340533D02*
X184890476Y-53054819D01*
X184890476Y-53054819D02*
X185128572Y-52054819D01*
X185461905Y-52150057D02*
X185509524Y-52102438D01*
X185509524Y-52102438D02*
X185604762Y-52054819D01*
X185604762Y-52054819D02*
X185842857Y-52054819D01*
X185842857Y-52054819D02*
X185938095Y-52102438D01*
X185938095Y-52102438D02*
X185985714Y-52150057D01*
X185985714Y-52150057D02*
X186033333Y-52245295D01*
X186033333Y-52245295D02*
X186033333Y-52340533D01*
X186033333Y-52340533D02*
X185985714Y-52483390D01*
X185985714Y-52483390D02*
X185414286Y-53054819D01*
X185414286Y-53054819D02*
X186033333Y-53054819D01*
X126607142Y-76854819D02*
X126273809Y-76378628D01*
X126035714Y-76854819D02*
X126035714Y-75854819D01*
X126035714Y-75854819D02*
X126416666Y-75854819D01*
X126416666Y-75854819D02*
X126511904Y-75902438D01*
X126511904Y-75902438D02*
X126559523Y-75950057D01*
X126559523Y-75950057D02*
X126607142Y-76045295D01*
X126607142Y-76045295D02*
X126607142Y-76188152D01*
X126607142Y-76188152D02*
X126559523Y-76283390D01*
X126559523Y-76283390D02*
X126511904Y-76331009D01*
X126511904Y-76331009D02*
X126416666Y-76378628D01*
X126416666Y-76378628D02*
X126035714Y-76378628D01*
X127559523Y-76854819D02*
X126988095Y-76854819D01*
X127273809Y-76854819D02*
X127273809Y-75854819D01*
X127273809Y-75854819D02*
X127178571Y-75997676D01*
X127178571Y-75997676D02*
X127083333Y-76092914D01*
X127083333Y-76092914D02*
X126988095Y-76140533D01*
X128178571Y-75854819D02*
X128273809Y-75854819D01*
X128273809Y-75854819D02*
X128369047Y-75902438D01*
X128369047Y-75902438D02*
X128416666Y-75950057D01*
X128416666Y-75950057D02*
X128464285Y-76045295D01*
X128464285Y-76045295D02*
X128511904Y-76235771D01*
X128511904Y-76235771D02*
X128511904Y-76473866D01*
X128511904Y-76473866D02*
X128464285Y-76664342D01*
X128464285Y-76664342D02*
X128416666Y-76759580D01*
X128416666Y-76759580D02*
X128369047Y-76807200D01*
X128369047Y-76807200D02*
X128273809Y-76854819D01*
X128273809Y-76854819D02*
X128178571Y-76854819D01*
X128178571Y-76854819D02*
X128083333Y-76807200D01*
X128083333Y-76807200D02*
X128035714Y-76759580D01*
X128035714Y-76759580D02*
X127988095Y-76664342D01*
X127988095Y-76664342D02*
X127940476Y-76473866D01*
X127940476Y-76473866D02*
X127940476Y-76235771D01*
X127940476Y-76235771D02*
X127988095Y-76045295D01*
X127988095Y-76045295D02*
X128035714Y-75950057D01*
X128035714Y-75950057D02*
X128083333Y-75902438D01*
X128083333Y-75902438D02*
X128178571Y-75854819D01*
X102050057Y-69095238D02*
X102002438Y-69190476D01*
X102002438Y-69190476D02*
X101907200Y-69285714D01*
X101907200Y-69285714D02*
X101764342Y-69428571D01*
X101764342Y-69428571D02*
X101716723Y-69523809D01*
X101716723Y-69523809D02*
X101716723Y-69619047D01*
X101954819Y-69571428D02*
X101907200Y-69666666D01*
X101907200Y-69666666D02*
X101811961Y-69761904D01*
X101811961Y-69761904D02*
X101621485Y-69809523D01*
X101621485Y-69809523D02*
X101288152Y-69809523D01*
X101288152Y-69809523D02*
X101097676Y-69761904D01*
X101097676Y-69761904D02*
X101002438Y-69666666D01*
X101002438Y-69666666D02*
X100954819Y-69571428D01*
X100954819Y-69571428D02*
X100954819Y-69380952D01*
X100954819Y-69380952D02*
X101002438Y-69285714D01*
X101002438Y-69285714D02*
X101097676Y-69190476D01*
X101097676Y-69190476D02*
X101288152Y-69142857D01*
X101288152Y-69142857D02*
X101621485Y-69142857D01*
X101621485Y-69142857D02*
X101811961Y-69190476D01*
X101811961Y-69190476D02*
X101907200Y-69285714D01*
X101907200Y-69285714D02*
X101954819Y-69380952D01*
X101954819Y-69380952D02*
X101954819Y-69571428D01*
X100954819Y-68285714D02*
X100954819Y-68476190D01*
X100954819Y-68476190D02*
X101002438Y-68571428D01*
X101002438Y-68571428D02*
X101050057Y-68619047D01*
X101050057Y-68619047D02*
X101192914Y-68714285D01*
X101192914Y-68714285D02*
X101383390Y-68761904D01*
X101383390Y-68761904D02*
X101764342Y-68761904D01*
X101764342Y-68761904D02*
X101859580Y-68714285D01*
X101859580Y-68714285D02*
X101907200Y-68666666D01*
X101907200Y-68666666D02*
X101954819Y-68571428D01*
X101954819Y-68571428D02*
X101954819Y-68380952D01*
X101954819Y-68380952D02*
X101907200Y-68285714D01*
X101907200Y-68285714D02*
X101859580Y-68238095D01*
X101859580Y-68238095D02*
X101764342Y-68190476D01*
X101764342Y-68190476D02*
X101526247Y-68190476D01*
X101526247Y-68190476D02*
X101431009Y-68238095D01*
X101431009Y-68238095D02*
X101383390Y-68285714D01*
X101383390Y-68285714D02*
X101335771Y-68380952D01*
X101335771Y-68380952D02*
X101335771Y-68571428D01*
X101335771Y-68571428D02*
X101383390Y-68666666D01*
X101383390Y-68666666D02*
X101431009Y-68714285D01*
X101431009Y-68714285D02*
X101526247Y-68761904D01*
X143854819Y-93438094D02*
X144664342Y-93438094D01*
X144664342Y-93438094D02*
X144759580Y-93390475D01*
X144759580Y-93390475D02*
X144807200Y-93342856D01*
X144807200Y-93342856D02*
X144854819Y-93247618D01*
X144854819Y-93247618D02*
X144854819Y-93057142D01*
X144854819Y-93057142D02*
X144807200Y-92961904D01*
X144807200Y-92961904D02*
X144759580Y-92914285D01*
X144759580Y-92914285D02*
X144664342Y-92866666D01*
X144664342Y-92866666D02*
X143854819Y-92866666D01*
X144854819Y-91866666D02*
X144854819Y-92438094D01*
X144854819Y-92152380D02*
X143854819Y-92152380D01*
X143854819Y-92152380D02*
X143997676Y-92247618D01*
X143997676Y-92247618D02*
X144092914Y-92342856D01*
X144092914Y-92342856D02*
X144140533Y-92438094D01*
X144188152Y-91009523D02*
X144854819Y-91009523D01*
X143807200Y-91247618D02*
X144521485Y-91485713D01*
X144521485Y-91485713D02*
X144521485Y-90866666D01*
X187304819Y-82442857D02*
X186828628Y-82776190D01*
X187304819Y-83014285D02*
X186304819Y-83014285D01*
X186304819Y-83014285D02*
X186304819Y-82633333D01*
X186304819Y-82633333D02*
X186352438Y-82538095D01*
X186352438Y-82538095D02*
X186400057Y-82490476D01*
X186400057Y-82490476D02*
X186495295Y-82442857D01*
X186495295Y-82442857D02*
X186638152Y-82442857D01*
X186638152Y-82442857D02*
X186733390Y-82490476D01*
X186733390Y-82490476D02*
X186781009Y-82538095D01*
X186781009Y-82538095D02*
X186828628Y-82633333D01*
X186828628Y-82633333D02*
X186828628Y-83014285D01*
X186304819Y-82109523D02*
X186304819Y-81490476D01*
X186304819Y-81490476D02*
X186685771Y-81823809D01*
X186685771Y-81823809D02*
X186685771Y-81680952D01*
X186685771Y-81680952D02*
X186733390Y-81585714D01*
X186733390Y-81585714D02*
X186781009Y-81538095D01*
X186781009Y-81538095D02*
X186876247Y-81490476D01*
X186876247Y-81490476D02*
X187114342Y-81490476D01*
X187114342Y-81490476D02*
X187209580Y-81538095D01*
X187209580Y-81538095D02*
X187257200Y-81585714D01*
X187257200Y-81585714D02*
X187304819Y-81680952D01*
X187304819Y-81680952D02*
X187304819Y-81966666D01*
X187304819Y-81966666D02*
X187257200Y-82061904D01*
X187257200Y-82061904D02*
X187209580Y-82109523D01*
X186304819Y-80633333D02*
X186304819Y-80823809D01*
X186304819Y-80823809D02*
X186352438Y-80919047D01*
X186352438Y-80919047D02*
X186400057Y-80966666D01*
X186400057Y-80966666D02*
X186542914Y-81061904D01*
X186542914Y-81061904D02*
X186733390Y-81109523D01*
X186733390Y-81109523D02*
X187114342Y-81109523D01*
X187114342Y-81109523D02*
X187209580Y-81061904D01*
X187209580Y-81061904D02*
X187257200Y-81014285D01*
X187257200Y-81014285D02*
X187304819Y-80919047D01*
X187304819Y-80919047D02*
X187304819Y-80728571D01*
X187304819Y-80728571D02*
X187257200Y-80633333D01*
X187257200Y-80633333D02*
X187209580Y-80585714D01*
X187209580Y-80585714D02*
X187114342Y-80538095D01*
X187114342Y-80538095D02*
X186876247Y-80538095D01*
X186876247Y-80538095D02*
X186781009Y-80585714D01*
X186781009Y-80585714D02*
X186733390Y-80633333D01*
X186733390Y-80633333D02*
X186685771Y-80728571D01*
X186685771Y-80728571D02*
X186685771Y-80919047D01*
X186685771Y-80919047D02*
X186733390Y-81014285D01*
X186733390Y-81014285D02*
X186781009Y-81061904D01*
X186781009Y-81061904D02*
X186876247Y-81109523D01*
X157754819Y-144059523D02*
X158469104Y-144059523D01*
X158469104Y-144059523D02*
X158611961Y-144107142D01*
X158611961Y-144107142D02*
X158707200Y-144202380D01*
X158707200Y-144202380D02*
X158754819Y-144345237D01*
X158754819Y-144345237D02*
X158754819Y-144440475D01*
X158754819Y-143059523D02*
X158754819Y-143630951D01*
X158754819Y-143345237D02*
X157754819Y-143345237D01*
X157754819Y-143345237D02*
X157897676Y-143440475D01*
X157897676Y-143440475D02*
X157992914Y-143535713D01*
X157992914Y-143535713D02*
X158040533Y-143630951D01*
X157754819Y-142440475D02*
X157754819Y-142345237D01*
X157754819Y-142345237D02*
X157802438Y-142249999D01*
X157802438Y-142249999D02*
X157850057Y-142202380D01*
X157850057Y-142202380D02*
X157945295Y-142154761D01*
X157945295Y-142154761D02*
X158135771Y-142107142D01*
X158135771Y-142107142D02*
X158373866Y-142107142D01*
X158373866Y-142107142D02*
X158564342Y-142154761D01*
X158564342Y-142154761D02*
X158659580Y-142202380D01*
X158659580Y-142202380D02*
X158707200Y-142249999D01*
X158707200Y-142249999D02*
X158754819Y-142345237D01*
X158754819Y-142345237D02*
X158754819Y-142440475D01*
X158754819Y-142440475D02*
X158707200Y-142535713D01*
X158707200Y-142535713D02*
X158659580Y-142583332D01*
X158659580Y-142583332D02*
X158564342Y-142630951D01*
X158564342Y-142630951D02*
X158373866Y-142678570D01*
X158373866Y-142678570D02*
X158135771Y-142678570D01*
X158135771Y-142678570D02*
X157945295Y-142630951D01*
X157945295Y-142630951D02*
X157850057Y-142583332D01*
X157850057Y-142583332D02*
X157802438Y-142535713D01*
X157802438Y-142535713D02*
X157754819Y-142440475D01*
X139924580Y-61446666D02*
X139972200Y-61494285D01*
X139972200Y-61494285D02*
X140019819Y-61637142D01*
X140019819Y-61637142D02*
X140019819Y-61732380D01*
X140019819Y-61732380D02*
X139972200Y-61875237D01*
X139972200Y-61875237D02*
X139876961Y-61970475D01*
X139876961Y-61970475D02*
X139781723Y-62018094D01*
X139781723Y-62018094D02*
X139591247Y-62065713D01*
X139591247Y-62065713D02*
X139448390Y-62065713D01*
X139448390Y-62065713D02*
X139257914Y-62018094D01*
X139257914Y-62018094D02*
X139162676Y-61970475D01*
X139162676Y-61970475D02*
X139067438Y-61875237D01*
X139067438Y-61875237D02*
X139019819Y-61732380D01*
X139019819Y-61732380D02*
X139019819Y-61637142D01*
X139019819Y-61637142D02*
X139067438Y-61494285D01*
X139067438Y-61494285D02*
X139115057Y-61446666D01*
X139448390Y-60875237D02*
X139400771Y-60970475D01*
X139400771Y-60970475D02*
X139353152Y-61018094D01*
X139353152Y-61018094D02*
X139257914Y-61065713D01*
X139257914Y-61065713D02*
X139210295Y-61065713D01*
X139210295Y-61065713D02*
X139115057Y-61018094D01*
X139115057Y-61018094D02*
X139067438Y-60970475D01*
X139067438Y-60970475D02*
X139019819Y-60875237D01*
X139019819Y-60875237D02*
X139019819Y-60684761D01*
X139019819Y-60684761D02*
X139067438Y-60589523D01*
X139067438Y-60589523D02*
X139115057Y-60541904D01*
X139115057Y-60541904D02*
X139210295Y-60494285D01*
X139210295Y-60494285D02*
X139257914Y-60494285D01*
X139257914Y-60494285D02*
X139353152Y-60541904D01*
X139353152Y-60541904D02*
X139400771Y-60589523D01*
X139400771Y-60589523D02*
X139448390Y-60684761D01*
X139448390Y-60684761D02*
X139448390Y-60875237D01*
X139448390Y-60875237D02*
X139496009Y-60970475D01*
X139496009Y-60970475D02*
X139543628Y-61018094D01*
X139543628Y-61018094D02*
X139638866Y-61065713D01*
X139638866Y-61065713D02*
X139829342Y-61065713D01*
X139829342Y-61065713D02*
X139924580Y-61018094D01*
X139924580Y-61018094D02*
X139972200Y-60970475D01*
X139972200Y-60970475D02*
X140019819Y-60875237D01*
X140019819Y-60875237D02*
X140019819Y-60684761D01*
X140019819Y-60684761D02*
X139972200Y-60589523D01*
X139972200Y-60589523D02*
X139924580Y-60541904D01*
X139924580Y-60541904D02*
X139829342Y-60494285D01*
X139829342Y-60494285D02*
X139638866Y-60494285D01*
X139638866Y-60494285D02*
X139543628Y-60541904D01*
X139543628Y-60541904D02*
X139496009Y-60589523D01*
X139496009Y-60589523D02*
X139448390Y-60684761D01*
X117511905Y-78704819D02*
X117511905Y-77704819D01*
X117511905Y-77704819D02*
X117750000Y-77704819D01*
X117750000Y-77704819D02*
X117892857Y-77752438D01*
X117892857Y-77752438D02*
X117988095Y-77847676D01*
X117988095Y-77847676D02*
X118035714Y-77942914D01*
X118035714Y-77942914D02*
X118083333Y-78133390D01*
X118083333Y-78133390D02*
X118083333Y-78276247D01*
X118083333Y-78276247D02*
X118035714Y-78466723D01*
X118035714Y-78466723D02*
X117988095Y-78561961D01*
X117988095Y-78561961D02*
X117892857Y-78657200D01*
X117892857Y-78657200D02*
X117750000Y-78704819D01*
X117750000Y-78704819D02*
X117511905Y-78704819D01*
X118988095Y-77704819D02*
X118511905Y-77704819D01*
X118511905Y-77704819D02*
X118464286Y-78181009D01*
X118464286Y-78181009D02*
X118511905Y-78133390D01*
X118511905Y-78133390D02*
X118607143Y-78085771D01*
X118607143Y-78085771D02*
X118845238Y-78085771D01*
X118845238Y-78085771D02*
X118940476Y-78133390D01*
X118940476Y-78133390D02*
X118988095Y-78181009D01*
X118988095Y-78181009D02*
X119035714Y-78276247D01*
X119035714Y-78276247D02*
X119035714Y-78514342D01*
X119035714Y-78514342D02*
X118988095Y-78609580D01*
X118988095Y-78609580D02*
X118940476Y-78657200D01*
X118940476Y-78657200D02*
X118845238Y-78704819D01*
X118845238Y-78704819D02*
X118607143Y-78704819D01*
X118607143Y-78704819D02*
X118511905Y-78657200D01*
X118511905Y-78657200D02*
X118464286Y-78609580D01*
X122894642Y-60459580D02*
X122847023Y-60507200D01*
X122847023Y-60507200D02*
X122704166Y-60554819D01*
X122704166Y-60554819D02*
X122608928Y-60554819D01*
X122608928Y-60554819D02*
X122466071Y-60507200D01*
X122466071Y-60507200D02*
X122370833Y-60411961D01*
X122370833Y-60411961D02*
X122323214Y-60316723D01*
X122323214Y-60316723D02*
X122275595Y-60126247D01*
X122275595Y-60126247D02*
X122275595Y-59983390D01*
X122275595Y-59983390D02*
X122323214Y-59792914D01*
X122323214Y-59792914D02*
X122370833Y-59697676D01*
X122370833Y-59697676D02*
X122466071Y-59602438D01*
X122466071Y-59602438D02*
X122608928Y-59554819D01*
X122608928Y-59554819D02*
X122704166Y-59554819D01*
X122704166Y-59554819D02*
X122847023Y-59602438D01*
X122847023Y-59602438D02*
X122894642Y-59650057D01*
X123847023Y-60554819D02*
X123275595Y-60554819D01*
X123561309Y-60554819D02*
X123561309Y-59554819D01*
X123561309Y-59554819D02*
X123466071Y-59697676D01*
X123466071Y-59697676D02*
X123370833Y-59792914D01*
X123370833Y-59792914D02*
X123275595Y-59840533D01*
X124466071Y-59554819D02*
X124561309Y-59554819D01*
X124561309Y-59554819D02*
X124656547Y-59602438D01*
X124656547Y-59602438D02*
X124704166Y-59650057D01*
X124704166Y-59650057D02*
X124751785Y-59745295D01*
X124751785Y-59745295D02*
X124799404Y-59935771D01*
X124799404Y-59935771D02*
X124799404Y-60173866D01*
X124799404Y-60173866D02*
X124751785Y-60364342D01*
X124751785Y-60364342D02*
X124704166Y-60459580D01*
X124704166Y-60459580D02*
X124656547Y-60507200D01*
X124656547Y-60507200D02*
X124561309Y-60554819D01*
X124561309Y-60554819D02*
X124466071Y-60554819D01*
X124466071Y-60554819D02*
X124370833Y-60507200D01*
X124370833Y-60507200D02*
X124323214Y-60459580D01*
X124323214Y-60459580D02*
X124275595Y-60364342D01*
X124275595Y-60364342D02*
X124227976Y-60173866D01*
X124227976Y-60173866D02*
X124227976Y-59935771D01*
X124227976Y-59935771D02*
X124275595Y-59745295D01*
X124275595Y-59745295D02*
X124323214Y-59650057D01*
X124323214Y-59650057D02*
X124370833Y-59602438D01*
X124370833Y-59602438D02*
X124466071Y-59554819D01*
X143257142Y-79604819D02*
X142923809Y-79128628D01*
X142685714Y-79604819D02*
X142685714Y-78604819D01*
X142685714Y-78604819D02*
X143066666Y-78604819D01*
X143066666Y-78604819D02*
X143161904Y-78652438D01*
X143161904Y-78652438D02*
X143209523Y-78700057D01*
X143209523Y-78700057D02*
X143257142Y-78795295D01*
X143257142Y-78795295D02*
X143257142Y-78938152D01*
X143257142Y-78938152D02*
X143209523Y-79033390D01*
X143209523Y-79033390D02*
X143161904Y-79081009D01*
X143161904Y-79081009D02*
X143066666Y-79128628D01*
X143066666Y-79128628D02*
X142685714Y-79128628D01*
X143638095Y-78700057D02*
X143685714Y-78652438D01*
X143685714Y-78652438D02*
X143780952Y-78604819D01*
X143780952Y-78604819D02*
X144019047Y-78604819D01*
X144019047Y-78604819D02*
X144114285Y-78652438D01*
X144114285Y-78652438D02*
X144161904Y-78700057D01*
X144161904Y-78700057D02*
X144209523Y-78795295D01*
X144209523Y-78795295D02*
X144209523Y-78890533D01*
X144209523Y-78890533D02*
X144161904Y-79033390D01*
X144161904Y-79033390D02*
X143590476Y-79604819D01*
X143590476Y-79604819D02*
X144209523Y-79604819D01*
X145066666Y-78604819D02*
X144876190Y-78604819D01*
X144876190Y-78604819D02*
X144780952Y-78652438D01*
X144780952Y-78652438D02*
X144733333Y-78700057D01*
X144733333Y-78700057D02*
X144638095Y-78842914D01*
X144638095Y-78842914D02*
X144590476Y-79033390D01*
X144590476Y-79033390D02*
X144590476Y-79414342D01*
X144590476Y-79414342D02*
X144638095Y-79509580D01*
X144638095Y-79509580D02*
X144685714Y-79557200D01*
X144685714Y-79557200D02*
X144780952Y-79604819D01*
X144780952Y-79604819D02*
X144971428Y-79604819D01*
X144971428Y-79604819D02*
X145066666Y-79557200D01*
X145066666Y-79557200D02*
X145114285Y-79509580D01*
X145114285Y-79509580D02*
X145161904Y-79414342D01*
X145161904Y-79414342D02*
X145161904Y-79176247D01*
X145161904Y-79176247D02*
X145114285Y-79081009D01*
X145114285Y-79081009D02*
X145066666Y-79033390D01*
X145066666Y-79033390D02*
X144971428Y-78985771D01*
X144971428Y-78985771D02*
X144780952Y-78985771D01*
X144780952Y-78985771D02*
X144685714Y-79033390D01*
X144685714Y-79033390D02*
X144638095Y-79081009D01*
X144638095Y-79081009D02*
X144590476Y-79176247D01*
D11*
X113452381Y-141609800D02*
X113595238Y-141657419D01*
X113595238Y-141657419D02*
X113833333Y-141657419D01*
X113833333Y-141657419D02*
X113928571Y-141609800D01*
X113928571Y-141609800D02*
X113976190Y-141562180D01*
X113976190Y-141562180D02*
X114023809Y-141466942D01*
X114023809Y-141466942D02*
X114023809Y-141371704D01*
X114023809Y-141371704D02*
X113976190Y-141276466D01*
X113976190Y-141276466D02*
X113928571Y-141228847D01*
X113928571Y-141228847D02*
X113833333Y-141181228D01*
X113833333Y-141181228D02*
X113642857Y-141133609D01*
X113642857Y-141133609D02*
X113547619Y-141085990D01*
X113547619Y-141085990D02*
X113500000Y-141038371D01*
X113500000Y-141038371D02*
X113452381Y-140943133D01*
X113452381Y-140943133D02*
X113452381Y-140847895D01*
X113452381Y-140847895D02*
X113500000Y-140752657D01*
X113500000Y-140752657D02*
X113547619Y-140705038D01*
X113547619Y-140705038D02*
X113642857Y-140657419D01*
X113642857Y-140657419D02*
X113880952Y-140657419D01*
X113880952Y-140657419D02*
X114023809Y-140705038D01*
X114309524Y-140657419D02*
X114880952Y-140657419D01*
X114595238Y-141657419D02*
X114595238Y-140657419D01*
X115214286Y-141657419D02*
X115214286Y-140657419D01*
X115214286Y-140657419D02*
X115595238Y-140657419D01*
X115595238Y-140657419D02*
X115690476Y-140705038D01*
X115690476Y-140705038D02*
X115738095Y-140752657D01*
X115738095Y-140752657D02*
X115785714Y-140847895D01*
X115785714Y-140847895D02*
X115785714Y-140990752D01*
X115785714Y-140990752D02*
X115738095Y-141085990D01*
X115738095Y-141085990D02*
X115690476Y-141133609D01*
X115690476Y-141133609D02*
X115595238Y-141181228D01*
X115595238Y-141181228D02*
X115214286Y-141181228D01*
X115976191Y-141752657D02*
X116738095Y-141752657D01*
X116976191Y-140657419D02*
X116976191Y-141466942D01*
X116976191Y-141466942D02*
X117023810Y-141562180D01*
X117023810Y-141562180D02*
X117071429Y-141609800D01*
X117071429Y-141609800D02*
X117166667Y-141657419D01*
X117166667Y-141657419D02*
X117357143Y-141657419D01*
X117357143Y-141657419D02*
X117452381Y-141609800D01*
X117452381Y-141609800D02*
X117500000Y-141562180D01*
X117500000Y-141562180D02*
X117547619Y-141466942D01*
X117547619Y-141466942D02*
X117547619Y-140657419D01*
X118023810Y-141657419D02*
X118023810Y-140657419D01*
X118023810Y-140657419D02*
X118404762Y-140657419D01*
X118404762Y-140657419D02*
X118500000Y-140705038D01*
X118500000Y-140705038D02*
X118547619Y-140752657D01*
X118547619Y-140752657D02*
X118595238Y-140847895D01*
X118595238Y-140847895D02*
X118595238Y-140990752D01*
X118595238Y-140990752D02*
X118547619Y-141085990D01*
X118547619Y-141085990D02*
X118500000Y-141133609D01*
X118500000Y-141133609D02*
X118404762Y-141181228D01*
X118404762Y-141181228D02*
X118023810Y-141181228D01*
X118976191Y-140752657D02*
X119023810Y-140705038D01*
X119023810Y-140705038D02*
X119119048Y-140657419D01*
X119119048Y-140657419D02*
X119357143Y-140657419D01*
X119357143Y-140657419D02*
X119452381Y-140705038D01*
X119452381Y-140705038D02*
X119500000Y-140752657D01*
X119500000Y-140752657D02*
X119547619Y-140847895D01*
X119547619Y-140847895D02*
X119547619Y-140943133D01*
X119547619Y-140943133D02*
X119500000Y-141085990D01*
X119500000Y-141085990D02*
X118928572Y-141657419D01*
X118928572Y-141657419D02*
X119547619Y-141657419D01*
D10*
X116934580Y-66204166D02*
X116982200Y-66251785D01*
X116982200Y-66251785D02*
X117029819Y-66394642D01*
X117029819Y-66394642D02*
X117029819Y-66489880D01*
X117029819Y-66489880D02*
X116982200Y-66632737D01*
X116982200Y-66632737D02*
X116886961Y-66727975D01*
X116886961Y-66727975D02*
X116791723Y-66775594D01*
X116791723Y-66775594D02*
X116601247Y-66823213D01*
X116601247Y-66823213D02*
X116458390Y-66823213D01*
X116458390Y-66823213D02*
X116267914Y-66775594D01*
X116267914Y-66775594D02*
X116172676Y-66727975D01*
X116172676Y-66727975D02*
X116077438Y-66632737D01*
X116077438Y-66632737D02*
X116029819Y-66489880D01*
X116029819Y-66489880D02*
X116029819Y-66394642D01*
X116029819Y-66394642D02*
X116077438Y-66251785D01*
X116077438Y-66251785D02*
X116125057Y-66204166D01*
X116029819Y-65870832D02*
X116029819Y-65251785D01*
X116029819Y-65251785D02*
X116410771Y-65585118D01*
X116410771Y-65585118D02*
X116410771Y-65442261D01*
X116410771Y-65442261D02*
X116458390Y-65347023D01*
X116458390Y-65347023D02*
X116506009Y-65299404D01*
X116506009Y-65299404D02*
X116601247Y-65251785D01*
X116601247Y-65251785D02*
X116839342Y-65251785D01*
X116839342Y-65251785D02*
X116934580Y-65299404D01*
X116934580Y-65299404D02*
X116982200Y-65347023D01*
X116982200Y-65347023D02*
X117029819Y-65442261D01*
X117029819Y-65442261D02*
X117029819Y-65727975D01*
X117029819Y-65727975D02*
X116982200Y-65823213D01*
X116982200Y-65823213D02*
X116934580Y-65870832D01*
D12*
X190529318Y-67773332D02*
X191436461Y-67773332D01*
X191436461Y-67773332D02*
X191617889Y-67833809D01*
X191617889Y-67833809D02*
X191738842Y-67954761D01*
X191738842Y-67954761D02*
X191799318Y-68136190D01*
X191799318Y-68136190D02*
X191799318Y-68257142D01*
X190650270Y-67229047D02*
X190589794Y-67168571D01*
X190589794Y-67168571D02*
X190529318Y-67047618D01*
X190529318Y-67047618D02*
X190529318Y-66745237D01*
X190529318Y-66745237D02*
X190589794Y-66624285D01*
X190589794Y-66624285D02*
X190650270Y-66563809D01*
X190650270Y-66563809D02*
X190771222Y-66503332D01*
X190771222Y-66503332D02*
X190892175Y-66503332D01*
X190892175Y-66503332D02*
X191073603Y-66563809D01*
X191073603Y-66563809D02*
X191799318Y-67289523D01*
X191799318Y-67289523D02*
X191799318Y-66503332D01*
D10*
X110454819Y-69642857D02*
X109978628Y-69976190D01*
X110454819Y-70214285D02*
X109454819Y-70214285D01*
X109454819Y-70214285D02*
X109454819Y-69833333D01*
X109454819Y-69833333D02*
X109502438Y-69738095D01*
X109502438Y-69738095D02*
X109550057Y-69690476D01*
X109550057Y-69690476D02*
X109645295Y-69642857D01*
X109645295Y-69642857D02*
X109788152Y-69642857D01*
X109788152Y-69642857D02*
X109883390Y-69690476D01*
X109883390Y-69690476D02*
X109931009Y-69738095D01*
X109931009Y-69738095D02*
X109978628Y-69833333D01*
X109978628Y-69833333D02*
X109978628Y-70214285D01*
X109550057Y-69261904D02*
X109502438Y-69214285D01*
X109502438Y-69214285D02*
X109454819Y-69119047D01*
X109454819Y-69119047D02*
X109454819Y-68880952D01*
X109454819Y-68880952D02*
X109502438Y-68785714D01*
X109502438Y-68785714D02*
X109550057Y-68738095D01*
X109550057Y-68738095D02*
X109645295Y-68690476D01*
X109645295Y-68690476D02*
X109740533Y-68690476D01*
X109740533Y-68690476D02*
X109883390Y-68738095D01*
X109883390Y-68738095D02*
X110454819Y-69309523D01*
X110454819Y-69309523D02*
X110454819Y-68690476D01*
X109454819Y-68071428D02*
X109454819Y-67976190D01*
X109454819Y-67976190D02*
X109502438Y-67880952D01*
X109502438Y-67880952D02*
X109550057Y-67833333D01*
X109550057Y-67833333D02*
X109645295Y-67785714D01*
X109645295Y-67785714D02*
X109835771Y-67738095D01*
X109835771Y-67738095D02*
X110073866Y-67738095D01*
X110073866Y-67738095D02*
X110264342Y-67785714D01*
X110264342Y-67785714D02*
X110359580Y-67833333D01*
X110359580Y-67833333D02*
X110407200Y-67880952D01*
X110407200Y-67880952D02*
X110454819Y-67976190D01*
X110454819Y-67976190D02*
X110454819Y-68071428D01*
X110454819Y-68071428D02*
X110407200Y-68166666D01*
X110407200Y-68166666D02*
X110359580Y-68214285D01*
X110359580Y-68214285D02*
X110264342Y-68261904D01*
X110264342Y-68261904D02*
X110073866Y-68309523D01*
X110073866Y-68309523D02*
X109835771Y-68309523D01*
X109835771Y-68309523D02*
X109645295Y-68261904D01*
X109645295Y-68261904D02*
X109550057Y-68214285D01*
X109550057Y-68214285D02*
X109502438Y-68166666D01*
X109502438Y-68166666D02*
X109454819Y-68071428D01*
X105254819Y-84738094D02*
X104254819Y-84738094D01*
X104254819Y-84738094D02*
X104254819Y-84499999D01*
X104254819Y-84499999D02*
X104302438Y-84357142D01*
X104302438Y-84357142D02*
X104397676Y-84261904D01*
X104397676Y-84261904D02*
X104492914Y-84214285D01*
X104492914Y-84214285D02*
X104683390Y-84166666D01*
X104683390Y-84166666D02*
X104826247Y-84166666D01*
X104826247Y-84166666D02*
X105016723Y-84214285D01*
X105016723Y-84214285D02*
X105111961Y-84261904D01*
X105111961Y-84261904D02*
X105207200Y-84357142D01*
X105207200Y-84357142D02*
X105254819Y-84499999D01*
X105254819Y-84499999D02*
X105254819Y-84738094D01*
X104588152Y-83309523D02*
X105254819Y-83309523D01*
X104207200Y-83547618D02*
X104921485Y-83785713D01*
X104921485Y-83785713D02*
X104921485Y-83166666D01*
X127157142Y-97479580D02*
X127109523Y-97527200D01*
X127109523Y-97527200D02*
X126966666Y-97574819D01*
X126966666Y-97574819D02*
X126871428Y-97574819D01*
X126871428Y-97574819D02*
X126728571Y-97527200D01*
X126728571Y-97527200D02*
X126633333Y-97431961D01*
X126633333Y-97431961D02*
X126585714Y-97336723D01*
X126585714Y-97336723D02*
X126538095Y-97146247D01*
X126538095Y-97146247D02*
X126538095Y-97003390D01*
X126538095Y-97003390D02*
X126585714Y-96812914D01*
X126585714Y-96812914D02*
X126633333Y-96717676D01*
X126633333Y-96717676D02*
X126728571Y-96622438D01*
X126728571Y-96622438D02*
X126871428Y-96574819D01*
X126871428Y-96574819D02*
X126966666Y-96574819D01*
X126966666Y-96574819D02*
X127109523Y-96622438D01*
X127109523Y-96622438D02*
X127157142Y-96670057D01*
X127490476Y-96574819D02*
X128109523Y-96574819D01*
X128109523Y-96574819D02*
X127776190Y-96955771D01*
X127776190Y-96955771D02*
X127919047Y-96955771D01*
X127919047Y-96955771D02*
X128014285Y-97003390D01*
X128014285Y-97003390D02*
X128061904Y-97051009D01*
X128061904Y-97051009D02*
X128109523Y-97146247D01*
X128109523Y-97146247D02*
X128109523Y-97384342D01*
X128109523Y-97384342D02*
X128061904Y-97479580D01*
X128061904Y-97479580D02*
X128014285Y-97527200D01*
X128014285Y-97527200D02*
X127919047Y-97574819D01*
X127919047Y-97574819D02*
X127633333Y-97574819D01*
X127633333Y-97574819D02*
X127538095Y-97527200D01*
X127538095Y-97527200D02*
X127490476Y-97479580D01*
X129014285Y-96574819D02*
X128538095Y-96574819D01*
X128538095Y-96574819D02*
X128490476Y-97051009D01*
X128490476Y-97051009D02*
X128538095Y-97003390D01*
X128538095Y-97003390D02*
X128633333Y-96955771D01*
X128633333Y-96955771D02*
X128871428Y-96955771D01*
X128871428Y-96955771D02*
X128966666Y-97003390D01*
X128966666Y-97003390D02*
X129014285Y-97051009D01*
X129014285Y-97051009D02*
X129061904Y-97146247D01*
X129061904Y-97146247D02*
X129061904Y-97384342D01*
X129061904Y-97384342D02*
X129014285Y-97479580D01*
X129014285Y-97479580D02*
X128966666Y-97527200D01*
X128966666Y-97527200D02*
X128871428Y-97574819D01*
X128871428Y-97574819D02*
X128633333Y-97574819D01*
X128633333Y-97574819D02*
X128538095Y-97527200D01*
X128538095Y-97527200D02*
X128490476Y-97479580D01*
X194259580Y-87642857D02*
X194307200Y-87690476D01*
X194307200Y-87690476D02*
X194354819Y-87833333D01*
X194354819Y-87833333D02*
X194354819Y-87928571D01*
X194354819Y-87928571D02*
X194307200Y-88071428D01*
X194307200Y-88071428D02*
X194211961Y-88166666D01*
X194211961Y-88166666D02*
X194116723Y-88214285D01*
X194116723Y-88214285D02*
X193926247Y-88261904D01*
X193926247Y-88261904D02*
X193783390Y-88261904D01*
X193783390Y-88261904D02*
X193592914Y-88214285D01*
X193592914Y-88214285D02*
X193497676Y-88166666D01*
X193497676Y-88166666D02*
X193402438Y-88071428D01*
X193402438Y-88071428D02*
X193354819Y-87928571D01*
X193354819Y-87928571D02*
X193354819Y-87833333D01*
X193354819Y-87833333D02*
X193402438Y-87690476D01*
X193402438Y-87690476D02*
X193450057Y-87642857D01*
X194354819Y-86690476D02*
X194354819Y-87261904D01*
X194354819Y-86976190D02*
X193354819Y-86976190D01*
X193354819Y-86976190D02*
X193497676Y-87071428D01*
X193497676Y-87071428D02*
X193592914Y-87166666D01*
X193592914Y-87166666D02*
X193640533Y-87261904D01*
X193354819Y-85785714D02*
X193354819Y-86261904D01*
X193354819Y-86261904D02*
X193831009Y-86309523D01*
X193831009Y-86309523D02*
X193783390Y-86261904D01*
X193783390Y-86261904D02*
X193735771Y-86166666D01*
X193735771Y-86166666D02*
X193735771Y-85928571D01*
X193735771Y-85928571D02*
X193783390Y-85833333D01*
X193783390Y-85833333D02*
X193831009Y-85785714D01*
X193831009Y-85785714D02*
X193926247Y-85738095D01*
X193926247Y-85738095D02*
X194164342Y-85738095D01*
X194164342Y-85738095D02*
X194259580Y-85785714D01*
X194259580Y-85785714D02*
X194307200Y-85833333D01*
X194307200Y-85833333D02*
X194354819Y-85928571D01*
X194354819Y-85928571D02*
X194354819Y-86166666D01*
X194354819Y-86166666D02*
X194307200Y-86261904D01*
X194307200Y-86261904D02*
X194259580Y-86309523D01*
X190739580Y-87617857D02*
X190787200Y-87665476D01*
X190787200Y-87665476D02*
X190834819Y-87808333D01*
X190834819Y-87808333D02*
X190834819Y-87903571D01*
X190834819Y-87903571D02*
X190787200Y-88046428D01*
X190787200Y-88046428D02*
X190691961Y-88141666D01*
X190691961Y-88141666D02*
X190596723Y-88189285D01*
X190596723Y-88189285D02*
X190406247Y-88236904D01*
X190406247Y-88236904D02*
X190263390Y-88236904D01*
X190263390Y-88236904D02*
X190072914Y-88189285D01*
X190072914Y-88189285D02*
X189977676Y-88141666D01*
X189977676Y-88141666D02*
X189882438Y-88046428D01*
X189882438Y-88046428D02*
X189834819Y-87903571D01*
X189834819Y-87903571D02*
X189834819Y-87808333D01*
X189834819Y-87808333D02*
X189882438Y-87665476D01*
X189882438Y-87665476D02*
X189930057Y-87617857D01*
X190834819Y-86665476D02*
X190834819Y-87236904D01*
X190834819Y-86951190D02*
X189834819Y-86951190D01*
X189834819Y-86951190D02*
X189977676Y-87046428D01*
X189977676Y-87046428D02*
X190072914Y-87141666D01*
X190072914Y-87141666D02*
X190120533Y-87236904D01*
X189834819Y-85808333D02*
X189834819Y-85998809D01*
X189834819Y-85998809D02*
X189882438Y-86094047D01*
X189882438Y-86094047D02*
X189930057Y-86141666D01*
X189930057Y-86141666D02*
X190072914Y-86236904D01*
X190072914Y-86236904D02*
X190263390Y-86284523D01*
X190263390Y-86284523D02*
X190644342Y-86284523D01*
X190644342Y-86284523D02*
X190739580Y-86236904D01*
X190739580Y-86236904D02*
X190787200Y-86189285D01*
X190787200Y-86189285D02*
X190834819Y-86094047D01*
X190834819Y-86094047D02*
X190834819Y-85903571D01*
X190834819Y-85903571D02*
X190787200Y-85808333D01*
X190787200Y-85808333D02*
X190739580Y-85760714D01*
X190739580Y-85760714D02*
X190644342Y-85713095D01*
X190644342Y-85713095D02*
X190406247Y-85713095D01*
X190406247Y-85713095D02*
X190311009Y-85760714D01*
X190311009Y-85760714D02*
X190263390Y-85808333D01*
X190263390Y-85808333D02*
X190215771Y-85903571D01*
X190215771Y-85903571D02*
X190215771Y-86094047D01*
X190215771Y-86094047D02*
X190263390Y-86189285D01*
X190263390Y-86189285D02*
X190311009Y-86236904D01*
X190311009Y-86236904D02*
X190406247Y-86284523D01*
X143954819Y-75161904D02*
X144764342Y-75161904D01*
X144764342Y-75161904D02*
X144859580Y-75114285D01*
X144859580Y-75114285D02*
X144907200Y-75066666D01*
X144907200Y-75066666D02*
X144954819Y-74971428D01*
X144954819Y-74971428D02*
X144954819Y-74780952D01*
X144954819Y-74780952D02*
X144907200Y-74685714D01*
X144907200Y-74685714D02*
X144859580Y-74638095D01*
X144859580Y-74638095D02*
X144764342Y-74590476D01*
X144764342Y-74590476D02*
X143954819Y-74590476D01*
X144954819Y-73590476D02*
X144954819Y-74161904D01*
X144954819Y-73876190D02*
X143954819Y-73876190D01*
X143954819Y-73876190D02*
X144097676Y-73971428D01*
X144097676Y-73971428D02*
X144192914Y-74066666D01*
X144192914Y-74066666D02*
X144240533Y-74161904D01*
X120159580Y-52942857D02*
X120207200Y-52990476D01*
X120207200Y-52990476D02*
X120254819Y-53133333D01*
X120254819Y-53133333D02*
X120254819Y-53228571D01*
X120254819Y-53228571D02*
X120207200Y-53371428D01*
X120207200Y-53371428D02*
X120111961Y-53466666D01*
X120111961Y-53466666D02*
X120016723Y-53514285D01*
X120016723Y-53514285D02*
X119826247Y-53561904D01*
X119826247Y-53561904D02*
X119683390Y-53561904D01*
X119683390Y-53561904D02*
X119492914Y-53514285D01*
X119492914Y-53514285D02*
X119397676Y-53466666D01*
X119397676Y-53466666D02*
X119302438Y-53371428D01*
X119302438Y-53371428D02*
X119254819Y-53228571D01*
X119254819Y-53228571D02*
X119254819Y-53133333D01*
X119254819Y-53133333D02*
X119302438Y-52990476D01*
X119302438Y-52990476D02*
X119350057Y-52942857D01*
X120254819Y-51990476D02*
X120254819Y-52561904D01*
X120254819Y-52276190D02*
X119254819Y-52276190D01*
X119254819Y-52276190D02*
X119397676Y-52371428D01*
X119397676Y-52371428D02*
X119492914Y-52466666D01*
X119492914Y-52466666D02*
X119540533Y-52561904D01*
X119683390Y-51419047D02*
X119635771Y-51514285D01*
X119635771Y-51514285D02*
X119588152Y-51561904D01*
X119588152Y-51561904D02*
X119492914Y-51609523D01*
X119492914Y-51609523D02*
X119445295Y-51609523D01*
X119445295Y-51609523D02*
X119350057Y-51561904D01*
X119350057Y-51561904D02*
X119302438Y-51514285D01*
X119302438Y-51514285D02*
X119254819Y-51419047D01*
X119254819Y-51419047D02*
X119254819Y-51228571D01*
X119254819Y-51228571D02*
X119302438Y-51133333D01*
X119302438Y-51133333D02*
X119350057Y-51085714D01*
X119350057Y-51085714D02*
X119445295Y-51038095D01*
X119445295Y-51038095D02*
X119492914Y-51038095D01*
X119492914Y-51038095D02*
X119588152Y-51085714D01*
X119588152Y-51085714D02*
X119635771Y-51133333D01*
X119635771Y-51133333D02*
X119683390Y-51228571D01*
X119683390Y-51228571D02*
X119683390Y-51419047D01*
X119683390Y-51419047D02*
X119731009Y-51514285D01*
X119731009Y-51514285D02*
X119778628Y-51561904D01*
X119778628Y-51561904D02*
X119873866Y-51609523D01*
X119873866Y-51609523D02*
X120064342Y-51609523D01*
X120064342Y-51609523D02*
X120159580Y-51561904D01*
X120159580Y-51561904D02*
X120207200Y-51514285D01*
X120207200Y-51514285D02*
X120254819Y-51419047D01*
X120254819Y-51419047D02*
X120254819Y-51228571D01*
X120254819Y-51228571D02*
X120207200Y-51133333D01*
X120207200Y-51133333D02*
X120159580Y-51085714D01*
X120159580Y-51085714D02*
X120064342Y-51038095D01*
X120064342Y-51038095D02*
X119873866Y-51038095D01*
X119873866Y-51038095D02*
X119778628Y-51085714D01*
X119778628Y-51085714D02*
X119731009Y-51133333D01*
X119731009Y-51133333D02*
X119683390Y-51228571D01*
X141154819Y-133083333D02*
X141869104Y-133083333D01*
X141869104Y-133083333D02*
X142011961Y-133130952D01*
X142011961Y-133130952D02*
X142107200Y-133226190D01*
X142107200Y-133226190D02*
X142154819Y-133369047D01*
X142154819Y-133369047D02*
X142154819Y-133464285D01*
X141488152Y-132178571D02*
X142154819Y-132178571D01*
X141107200Y-132416666D02*
X141821485Y-132654761D01*
X141821485Y-132654761D02*
X141821485Y-132035714D01*
D11*
X140947619Y-112933609D02*
X141090476Y-112981228D01*
X141090476Y-112981228D02*
X141138095Y-113028847D01*
X141138095Y-113028847D02*
X141185714Y-113124085D01*
X141185714Y-113124085D02*
X141185714Y-113266942D01*
X141185714Y-113266942D02*
X141138095Y-113362180D01*
X141138095Y-113362180D02*
X141090476Y-113409800D01*
X141090476Y-113409800D02*
X140995238Y-113457419D01*
X140995238Y-113457419D02*
X140614286Y-113457419D01*
X140614286Y-113457419D02*
X140614286Y-112457419D01*
X140614286Y-112457419D02*
X140947619Y-112457419D01*
X140947619Y-112457419D02*
X141042857Y-112505038D01*
X141042857Y-112505038D02*
X141090476Y-112552657D01*
X141090476Y-112552657D02*
X141138095Y-112647895D01*
X141138095Y-112647895D02*
X141138095Y-112743133D01*
X141138095Y-112743133D02*
X141090476Y-112838371D01*
X141090476Y-112838371D02*
X141042857Y-112885990D01*
X141042857Y-112885990D02*
X140947619Y-112933609D01*
X140947619Y-112933609D02*
X140614286Y-112933609D01*
X141614286Y-113457419D02*
X141614286Y-112457419D01*
X141614286Y-112457419D02*
X141947619Y-113171704D01*
X141947619Y-113171704D02*
X142280952Y-112457419D01*
X142280952Y-112457419D02*
X142280952Y-113457419D01*
X142709524Y-113409800D02*
X142852381Y-113457419D01*
X142852381Y-113457419D02*
X143090476Y-113457419D01*
X143090476Y-113457419D02*
X143185714Y-113409800D01*
X143185714Y-113409800D02*
X143233333Y-113362180D01*
X143233333Y-113362180D02*
X143280952Y-113266942D01*
X143280952Y-113266942D02*
X143280952Y-113171704D01*
X143280952Y-113171704D02*
X143233333Y-113076466D01*
X143233333Y-113076466D02*
X143185714Y-113028847D01*
X143185714Y-113028847D02*
X143090476Y-112981228D01*
X143090476Y-112981228D02*
X142900000Y-112933609D01*
X142900000Y-112933609D02*
X142804762Y-112885990D01*
X142804762Y-112885990D02*
X142757143Y-112838371D01*
X142757143Y-112838371D02*
X142709524Y-112743133D01*
X142709524Y-112743133D02*
X142709524Y-112647895D01*
X142709524Y-112647895D02*
X142757143Y-112552657D01*
X142757143Y-112552657D02*
X142804762Y-112505038D01*
X142804762Y-112505038D02*
X142900000Y-112457419D01*
X142900000Y-112457419D02*
X143138095Y-112457419D01*
X143138095Y-112457419D02*
X143280952Y-112505038D01*
X144233333Y-113457419D02*
X143661905Y-113457419D01*
X143947619Y-113457419D02*
X143947619Y-112457419D01*
X143947619Y-112457419D02*
X143852381Y-112600276D01*
X143852381Y-112600276D02*
X143757143Y-112695514D01*
X143757143Y-112695514D02*
X143661905Y-112743133D01*
D10*
X158069819Y-92761904D02*
X158879342Y-92761904D01*
X158879342Y-92761904D02*
X158974580Y-92714285D01*
X158974580Y-92714285D02*
X159022200Y-92666666D01*
X159022200Y-92666666D02*
X159069819Y-92571428D01*
X159069819Y-92571428D02*
X159069819Y-92380952D01*
X159069819Y-92380952D02*
X159022200Y-92285714D01*
X159022200Y-92285714D02*
X158974580Y-92238095D01*
X158974580Y-92238095D02*
X158879342Y-92190476D01*
X158879342Y-92190476D02*
X158069819Y-92190476D01*
X159069819Y-91666666D02*
X159069819Y-91476190D01*
X159069819Y-91476190D02*
X159022200Y-91380952D01*
X159022200Y-91380952D02*
X158974580Y-91333333D01*
X158974580Y-91333333D02*
X158831723Y-91238095D01*
X158831723Y-91238095D02*
X158641247Y-91190476D01*
X158641247Y-91190476D02*
X158260295Y-91190476D01*
X158260295Y-91190476D02*
X158165057Y-91238095D01*
X158165057Y-91238095D02*
X158117438Y-91285714D01*
X158117438Y-91285714D02*
X158069819Y-91380952D01*
X158069819Y-91380952D02*
X158069819Y-91571428D01*
X158069819Y-91571428D02*
X158117438Y-91666666D01*
X158117438Y-91666666D02*
X158165057Y-91714285D01*
X158165057Y-91714285D02*
X158260295Y-91761904D01*
X158260295Y-91761904D02*
X158498390Y-91761904D01*
X158498390Y-91761904D02*
X158593628Y-91714285D01*
X158593628Y-91714285D02*
X158641247Y-91666666D01*
X158641247Y-91666666D02*
X158688866Y-91571428D01*
X158688866Y-91571428D02*
X158688866Y-91380952D01*
X158688866Y-91380952D02*
X158641247Y-91285714D01*
X158641247Y-91285714D02*
X158593628Y-91238095D01*
X158593628Y-91238095D02*
X158498390Y-91190476D01*
X114359580Y-69642857D02*
X114407200Y-69690476D01*
X114407200Y-69690476D02*
X114454819Y-69833333D01*
X114454819Y-69833333D02*
X114454819Y-69928571D01*
X114454819Y-69928571D02*
X114407200Y-70071428D01*
X114407200Y-70071428D02*
X114311961Y-70166666D01*
X114311961Y-70166666D02*
X114216723Y-70214285D01*
X114216723Y-70214285D02*
X114026247Y-70261904D01*
X114026247Y-70261904D02*
X113883390Y-70261904D01*
X113883390Y-70261904D02*
X113692914Y-70214285D01*
X113692914Y-70214285D02*
X113597676Y-70166666D01*
X113597676Y-70166666D02*
X113502438Y-70071428D01*
X113502438Y-70071428D02*
X113454819Y-69928571D01*
X113454819Y-69928571D02*
X113454819Y-69833333D01*
X113454819Y-69833333D02*
X113502438Y-69690476D01*
X113502438Y-69690476D02*
X113550057Y-69642857D01*
X113550057Y-69261904D02*
X113502438Y-69214285D01*
X113502438Y-69214285D02*
X113454819Y-69119047D01*
X113454819Y-69119047D02*
X113454819Y-68880952D01*
X113454819Y-68880952D02*
X113502438Y-68785714D01*
X113502438Y-68785714D02*
X113550057Y-68738095D01*
X113550057Y-68738095D02*
X113645295Y-68690476D01*
X113645295Y-68690476D02*
X113740533Y-68690476D01*
X113740533Y-68690476D02*
X113883390Y-68738095D01*
X113883390Y-68738095D02*
X114454819Y-69309523D01*
X114454819Y-69309523D02*
X114454819Y-68690476D01*
X113550057Y-68309523D02*
X113502438Y-68261904D01*
X113502438Y-68261904D02*
X113454819Y-68166666D01*
X113454819Y-68166666D02*
X113454819Y-67928571D01*
X113454819Y-67928571D02*
X113502438Y-67833333D01*
X113502438Y-67833333D02*
X113550057Y-67785714D01*
X113550057Y-67785714D02*
X113645295Y-67738095D01*
X113645295Y-67738095D02*
X113740533Y-67738095D01*
X113740533Y-67738095D02*
X113883390Y-67785714D01*
X113883390Y-67785714D02*
X114454819Y-68357142D01*
X114454819Y-68357142D02*
X114454819Y-67738095D01*
X112454819Y-75561904D02*
X113264342Y-75561904D01*
X113264342Y-75561904D02*
X113359580Y-75514285D01*
X113359580Y-75514285D02*
X113407200Y-75466666D01*
X113407200Y-75466666D02*
X113454819Y-75371428D01*
X113454819Y-75371428D02*
X113454819Y-75180952D01*
X113454819Y-75180952D02*
X113407200Y-75085714D01*
X113407200Y-75085714D02*
X113359580Y-75038095D01*
X113359580Y-75038095D02*
X113264342Y-74990476D01*
X113264342Y-74990476D02*
X112454819Y-74990476D01*
X112454819Y-74038095D02*
X112454819Y-74514285D01*
X112454819Y-74514285D02*
X112931009Y-74561904D01*
X112931009Y-74561904D02*
X112883390Y-74514285D01*
X112883390Y-74514285D02*
X112835771Y-74419047D01*
X112835771Y-74419047D02*
X112835771Y-74180952D01*
X112835771Y-74180952D02*
X112883390Y-74085714D01*
X112883390Y-74085714D02*
X112931009Y-74038095D01*
X112931009Y-74038095D02*
X113026247Y-73990476D01*
X113026247Y-73990476D02*
X113264342Y-73990476D01*
X113264342Y-73990476D02*
X113359580Y-74038095D01*
X113359580Y-74038095D02*
X113407200Y-74085714D01*
X113407200Y-74085714D02*
X113454819Y-74180952D01*
X113454819Y-74180952D02*
X113454819Y-74419047D01*
X113454819Y-74419047D02*
X113407200Y-74514285D01*
X113407200Y-74514285D02*
X113359580Y-74561904D01*
X167604819Y-85042857D02*
X167128628Y-85376190D01*
X167604819Y-85614285D02*
X166604819Y-85614285D01*
X166604819Y-85614285D02*
X166604819Y-85233333D01*
X166604819Y-85233333D02*
X166652438Y-85138095D01*
X166652438Y-85138095D02*
X166700057Y-85090476D01*
X166700057Y-85090476D02*
X166795295Y-85042857D01*
X166795295Y-85042857D02*
X166938152Y-85042857D01*
X166938152Y-85042857D02*
X167033390Y-85090476D01*
X167033390Y-85090476D02*
X167081009Y-85138095D01*
X167081009Y-85138095D02*
X167128628Y-85233333D01*
X167128628Y-85233333D02*
X167128628Y-85614285D01*
X166700057Y-84661904D02*
X166652438Y-84614285D01*
X166652438Y-84614285D02*
X166604819Y-84519047D01*
X166604819Y-84519047D02*
X166604819Y-84280952D01*
X166604819Y-84280952D02*
X166652438Y-84185714D01*
X166652438Y-84185714D02*
X166700057Y-84138095D01*
X166700057Y-84138095D02*
X166795295Y-84090476D01*
X166795295Y-84090476D02*
X166890533Y-84090476D01*
X166890533Y-84090476D02*
X167033390Y-84138095D01*
X167033390Y-84138095D02*
X167604819Y-84709523D01*
X167604819Y-84709523D02*
X167604819Y-84090476D01*
X167033390Y-83519047D02*
X166985771Y-83614285D01*
X166985771Y-83614285D02*
X166938152Y-83661904D01*
X166938152Y-83661904D02*
X166842914Y-83709523D01*
X166842914Y-83709523D02*
X166795295Y-83709523D01*
X166795295Y-83709523D02*
X166700057Y-83661904D01*
X166700057Y-83661904D02*
X166652438Y-83614285D01*
X166652438Y-83614285D02*
X166604819Y-83519047D01*
X166604819Y-83519047D02*
X166604819Y-83328571D01*
X166604819Y-83328571D02*
X166652438Y-83233333D01*
X166652438Y-83233333D02*
X166700057Y-83185714D01*
X166700057Y-83185714D02*
X166795295Y-83138095D01*
X166795295Y-83138095D02*
X166842914Y-83138095D01*
X166842914Y-83138095D02*
X166938152Y-83185714D01*
X166938152Y-83185714D02*
X166985771Y-83233333D01*
X166985771Y-83233333D02*
X167033390Y-83328571D01*
X167033390Y-83328571D02*
X167033390Y-83519047D01*
X167033390Y-83519047D02*
X167081009Y-83614285D01*
X167081009Y-83614285D02*
X167128628Y-83661904D01*
X167128628Y-83661904D02*
X167223866Y-83709523D01*
X167223866Y-83709523D02*
X167414342Y-83709523D01*
X167414342Y-83709523D02*
X167509580Y-83661904D01*
X167509580Y-83661904D02*
X167557200Y-83614285D01*
X167557200Y-83614285D02*
X167604819Y-83519047D01*
X167604819Y-83519047D02*
X167604819Y-83328571D01*
X167604819Y-83328571D02*
X167557200Y-83233333D01*
X167557200Y-83233333D02*
X167509580Y-83185714D01*
X167509580Y-83185714D02*
X167414342Y-83138095D01*
X167414342Y-83138095D02*
X167223866Y-83138095D01*
X167223866Y-83138095D02*
X167128628Y-83185714D01*
X167128628Y-83185714D02*
X167081009Y-83233333D01*
X167081009Y-83233333D02*
X167033390Y-83328571D01*
X131207142Y-83854819D02*
X130873809Y-83378628D01*
X130635714Y-83854819D02*
X130635714Y-82854819D01*
X130635714Y-82854819D02*
X131016666Y-82854819D01*
X131016666Y-82854819D02*
X131111904Y-82902438D01*
X131111904Y-82902438D02*
X131159523Y-82950057D01*
X131159523Y-82950057D02*
X131207142Y-83045295D01*
X131207142Y-83045295D02*
X131207142Y-83188152D01*
X131207142Y-83188152D02*
X131159523Y-83283390D01*
X131159523Y-83283390D02*
X131111904Y-83331009D01*
X131111904Y-83331009D02*
X131016666Y-83378628D01*
X131016666Y-83378628D02*
X130635714Y-83378628D01*
X132159523Y-83854819D02*
X131588095Y-83854819D01*
X131873809Y-83854819D02*
X131873809Y-82854819D01*
X131873809Y-82854819D02*
X131778571Y-82997676D01*
X131778571Y-82997676D02*
X131683333Y-83092914D01*
X131683333Y-83092914D02*
X131588095Y-83140533D01*
X133016666Y-83188152D02*
X133016666Y-83854819D01*
X132778571Y-82807200D02*
X132540476Y-83521485D01*
X132540476Y-83521485D02*
X133159523Y-83521485D01*
X176336666Y-55544819D02*
X176336666Y-56259104D01*
X176336666Y-56259104D02*
X176289047Y-56401961D01*
X176289047Y-56401961D02*
X176193809Y-56497200D01*
X176193809Y-56497200D02*
X176050952Y-56544819D01*
X176050952Y-56544819D02*
X175955714Y-56544819D01*
X176860476Y-56544819D02*
X177050952Y-56544819D01*
X177050952Y-56544819D02*
X177146190Y-56497200D01*
X177146190Y-56497200D02*
X177193809Y-56449580D01*
X177193809Y-56449580D02*
X177289047Y-56306723D01*
X177289047Y-56306723D02*
X177336666Y-56116247D01*
X177336666Y-56116247D02*
X177336666Y-55735295D01*
X177336666Y-55735295D02*
X177289047Y-55640057D01*
X177289047Y-55640057D02*
X177241428Y-55592438D01*
X177241428Y-55592438D02*
X177146190Y-55544819D01*
X177146190Y-55544819D02*
X176955714Y-55544819D01*
X176955714Y-55544819D02*
X176860476Y-55592438D01*
X176860476Y-55592438D02*
X176812857Y-55640057D01*
X176812857Y-55640057D02*
X176765238Y-55735295D01*
X176765238Y-55735295D02*
X176765238Y-55973390D01*
X176765238Y-55973390D02*
X176812857Y-56068628D01*
X176812857Y-56068628D02*
X176860476Y-56116247D01*
X176860476Y-56116247D02*
X176955714Y-56163866D01*
X176955714Y-56163866D02*
X177146190Y-56163866D01*
X177146190Y-56163866D02*
X177241428Y-56116247D01*
X177241428Y-56116247D02*
X177289047Y-56068628D01*
X177289047Y-56068628D02*
X177336666Y-55973390D01*
X135663095Y-143839819D02*
X135663095Y-144649342D01*
X135663095Y-144649342D02*
X135710714Y-144744580D01*
X135710714Y-144744580D02*
X135758333Y-144792200D01*
X135758333Y-144792200D02*
X135853571Y-144839819D01*
X135853571Y-144839819D02*
X136044047Y-144839819D01*
X136044047Y-144839819D02*
X136139285Y-144792200D01*
X136139285Y-144792200D02*
X136186904Y-144744580D01*
X136186904Y-144744580D02*
X136234523Y-144649342D01*
X136234523Y-144649342D02*
X136234523Y-143839819D01*
X136663095Y-143935057D02*
X136710714Y-143887438D01*
X136710714Y-143887438D02*
X136805952Y-143839819D01*
X136805952Y-143839819D02*
X137044047Y-143839819D01*
X137044047Y-143839819D02*
X137139285Y-143887438D01*
X137139285Y-143887438D02*
X137186904Y-143935057D01*
X137186904Y-143935057D02*
X137234523Y-144030295D01*
X137234523Y-144030295D02*
X137234523Y-144125533D01*
X137234523Y-144125533D02*
X137186904Y-144268390D01*
X137186904Y-144268390D02*
X136615476Y-144839819D01*
X136615476Y-144839819D02*
X137234523Y-144839819D01*
X114857142Y-54254819D02*
X114523809Y-53778628D01*
X114285714Y-54254819D02*
X114285714Y-53254819D01*
X114285714Y-53254819D02*
X114666666Y-53254819D01*
X114666666Y-53254819D02*
X114761904Y-53302438D01*
X114761904Y-53302438D02*
X114809523Y-53350057D01*
X114809523Y-53350057D02*
X114857142Y-53445295D01*
X114857142Y-53445295D02*
X114857142Y-53588152D01*
X114857142Y-53588152D02*
X114809523Y-53683390D01*
X114809523Y-53683390D02*
X114761904Y-53731009D01*
X114761904Y-53731009D02*
X114666666Y-53778628D01*
X114666666Y-53778628D02*
X114285714Y-53778628D01*
X115238095Y-53350057D02*
X115285714Y-53302438D01*
X115285714Y-53302438D02*
X115380952Y-53254819D01*
X115380952Y-53254819D02*
X115619047Y-53254819D01*
X115619047Y-53254819D02*
X115714285Y-53302438D01*
X115714285Y-53302438D02*
X115761904Y-53350057D01*
X115761904Y-53350057D02*
X115809523Y-53445295D01*
X115809523Y-53445295D02*
X115809523Y-53540533D01*
X115809523Y-53540533D02*
X115761904Y-53683390D01*
X115761904Y-53683390D02*
X115190476Y-54254819D01*
X115190476Y-54254819D02*
X115809523Y-54254819D01*
X116666666Y-53588152D02*
X116666666Y-54254819D01*
X116428571Y-53207200D02*
X116190476Y-53921485D01*
X116190476Y-53921485D02*
X116809523Y-53921485D01*
X132836666Y-55584819D02*
X132836666Y-56299104D01*
X132836666Y-56299104D02*
X132789047Y-56441961D01*
X132789047Y-56441961D02*
X132693809Y-56537200D01*
X132693809Y-56537200D02*
X132550952Y-56584819D01*
X132550952Y-56584819D02*
X132455714Y-56584819D01*
X133217619Y-55584819D02*
X133884285Y-55584819D01*
X133884285Y-55584819D02*
X133455714Y-56584819D01*
X123754819Y-93038094D02*
X124564342Y-93038094D01*
X124564342Y-93038094D02*
X124659580Y-92990475D01*
X124659580Y-92990475D02*
X124707200Y-92942856D01*
X124707200Y-92942856D02*
X124754819Y-92847618D01*
X124754819Y-92847618D02*
X124754819Y-92657142D01*
X124754819Y-92657142D02*
X124707200Y-92561904D01*
X124707200Y-92561904D02*
X124659580Y-92514285D01*
X124659580Y-92514285D02*
X124564342Y-92466666D01*
X124564342Y-92466666D02*
X123754819Y-92466666D01*
X124754819Y-91466666D02*
X124754819Y-92038094D01*
X124754819Y-91752380D02*
X123754819Y-91752380D01*
X123754819Y-91752380D02*
X123897676Y-91847618D01*
X123897676Y-91847618D02*
X123992914Y-91942856D01*
X123992914Y-91942856D02*
X124040533Y-92038094D01*
X123754819Y-91133332D02*
X123754819Y-90514285D01*
X123754819Y-90514285D02*
X124135771Y-90847618D01*
X124135771Y-90847618D02*
X124135771Y-90704761D01*
X124135771Y-90704761D02*
X124183390Y-90609523D01*
X124183390Y-90609523D02*
X124231009Y-90561904D01*
X124231009Y-90561904D02*
X124326247Y-90514285D01*
X124326247Y-90514285D02*
X124564342Y-90514285D01*
X124564342Y-90514285D02*
X124659580Y-90561904D01*
X124659580Y-90561904D02*
X124707200Y-90609523D01*
X124707200Y-90609523D02*
X124754819Y-90704761D01*
X124754819Y-90704761D02*
X124754819Y-90990475D01*
X124754819Y-90990475D02*
X124707200Y-91085713D01*
X124707200Y-91085713D02*
X124659580Y-91133332D01*
X106857142Y-127859580D02*
X106809523Y-127907200D01*
X106809523Y-127907200D02*
X106666666Y-127954819D01*
X106666666Y-127954819D02*
X106571428Y-127954819D01*
X106571428Y-127954819D02*
X106428571Y-127907200D01*
X106428571Y-127907200D02*
X106333333Y-127811961D01*
X106333333Y-127811961D02*
X106285714Y-127716723D01*
X106285714Y-127716723D02*
X106238095Y-127526247D01*
X106238095Y-127526247D02*
X106238095Y-127383390D01*
X106238095Y-127383390D02*
X106285714Y-127192914D01*
X106285714Y-127192914D02*
X106333333Y-127097676D01*
X106333333Y-127097676D02*
X106428571Y-127002438D01*
X106428571Y-127002438D02*
X106571428Y-126954819D01*
X106571428Y-126954819D02*
X106666666Y-126954819D01*
X106666666Y-126954819D02*
X106809523Y-127002438D01*
X106809523Y-127002438D02*
X106857142Y-127050057D01*
X107238095Y-127050057D02*
X107285714Y-127002438D01*
X107285714Y-127002438D02*
X107380952Y-126954819D01*
X107380952Y-126954819D02*
X107619047Y-126954819D01*
X107619047Y-126954819D02*
X107714285Y-127002438D01*
X107714285Y-127002438D02*
X107761904Y-127050057D01*
X107761904Y-127050057D02*
X107809523Y-127145295D01*
X107809523Y-127145295D02*
X107809523Y-127240533D01*
X107809523Y-127240533D02*
X107761904Y-127383390D01*
X107761904Y-127383390D02*
X107190476Y-127954819D01*
X107190476Y-127954819D02*
X107809523Y-127954819D01*
X108142857Y-126954819D02*
X108809523Y-126954819D01*
X108809523Y-126954819D02*
X108380952Y-127954819D01*
X127083333Y-80354819D02*
X126750000Y-79878628D01*
X126511905Y-80354819D02*
X126511905Y-79354819D01*
X126511905Y-79354819D02*
X126892857Y-79354819D01*
X126892857Y-79354819D02*
X126988095Y-79402438D01*
X126988095Y-79402438D02*
X127035714Y-79450057D01*
X127035714Y-79450057D02*
X127083333Y-79545295D01*
X127083333Y-79545295D02*
X127083333Y-79688152D01*
X127083333Y-79688152D02*
X127035714Y-79783390D01*
X127035714Y-79783390D02*
X126988095Y-79831009D01*
X126988095Y-79831009D02*
X126892857Y-79878628D01*
X126892857Y-79878628D02*
X126511905Y-79878628D01*
X127416667Y-79354819D02*
X128083333Y-79354819D01*
X128083333Y-79354819D02*
X127654762Y-80354819D01*
X180304819Y-82442857D02*
X179828628Y-82776190D01*
X180304819Y-83014285D02*
X179304819Y-83014285D01*
X179304819Y-83014285D02*
X179304819Y-82633333D01*
X179304819Y-82633333D02*
X179352438Y-82538095D01*
X179352438Y-82538095D02*
X179400057Y-82490476D01*
X179400057Y-82490476D02*
X179495295Y-82442857D01*
X179495295Y-82442857D02*
X179638152Y-82442857D01*
X179638152Y-82442857D02*
X179733390Y-82490476D01*
X179733390Y-82490476D02*
X179781009Y-82538095D01*
X179781009Y-82538095D02*
X179828628Y-82633333D01*
X179828628Y-82633333D02*
X179828628Y-83014285D01*
X179304819Y-82109523D02*
X179304819Y-81490476D01*
X179304819Y-81490476D02*
X179685771Y-81823809D01*
X179685771Y-81823809D02*
X179685771Y-81680952D01*
X179685771Y-81680952D02*
X179733390Y-81585714D01*
X179733390Y-81585714D02*
X179781009Y-81538095D01*
X179781009Y-81538095D02*
X179876247Y-81490476D01*
X179876247Y-81490476D02*
X180114342Y-81490476D01*
X180114342Y-81490476D02*
X180209580Y-81538095D01*
X180209580Y-81538095D02*
X180257200Y-81585714D01*
X180257200Y-81585714D02*
X180304819Y-81680952D01*
X180304819Y-81680952D02*
X180304819Y-81966666D01*
X180304819Y-81966666D02*
X180257200Y-82061904D01*
X180257200Y-82061904D02*
X180209580Y-82109523D01*
X179304819Y-80871428D02*
X179304819Y-80776190D01*
X179304819Y-80776190D02*
X179352438Y-80680952D01*
X179352438Y-80680952D02*
X179400057Y-80633333D01*
X179400057Y-80633333D02*
X179495295Y-80585714D01*
X179495295Y-80585714D02*
X179685771Y-80538095D01*
X179685771Y-80538095D02*
X179923866Y-80538095D01*
X179923866Y-80538095D02*
X180114342Y-80585714D01*
X180114342Y-80585714D02*
X180209580Y-80633333D01*
X180209580Y-80633333D02*
X180257200Y-80680952D01*
X180257200Y-80680952D02*
X180304819Y-80776190D01*
X180304819Y-80776190D02*
X180304819Y-80871428D01*
X180304819Y-80871428D02*
X180257200Y-80966666D01*
X180257200Y-80966666D02*
X180209580Y-81014285D01*
X180209580Y-81014285D02*
X180114342Y-81061904D01*
X180114342Y-81061904D02*
X179923866Y-81109523D01*
X179923866Y-81109523D02*
X179685771Y-81109523D01*
X179685771Y-81109523D02*
X179495295Y-81061904D01*
X179495295Y-81061904D02*
X179400057Y-81014285D01*
X179400057Y-81014285D02*
X179352438Y-80966666D01*
X179352438Y-80966666D02*
X179304819Y-80871428D01*
X131957142Y-97559580D02*
X131909523Y-97607200D01*
X131909523Y-97607200D02*
X131766666Y-97654819D01*
X131766666Y-97654819D02*
X131671428Y-97654819D01*
X131671428Y-97654819D02*
X131528571Y-97607200D01*
X131528571Y-97607200D02*
X131433333Y-97511961D01*
X131433333Y-97511961D02*
X131385714Y-97416723D01*
X131385714Y-97416723D02*
X131338095Y-97226247D01*
X131338095Y-97226247D02*
X131338095Y-97083390D01*
X131338095Y-97083390D02*
X131385714Y-96892914D01*
X131385714Y-96892914D02*
X131433333Y-96797676D01*
X131433333Y-96797676D02*
X131528571Y-96702438D01*
X131528571Y-96702438D02*
X131671428Y-96654819D01*
X131671428Y-96654819D02*
X131766666Y-96654819D01*
X131766666Y-96654819D02*
X131909523Y-96702438D01*
X131909523Y-96702438D02*
X131957142Y-96750057D01*
X132290476Y-96654819D02*
X132909523Y-96654819D01*
X132909523Y-96654819D02*
X132576190Y-97035771D01*
X132576190Y-97035771D02*
X132719047Y-97035771D01*
X132719047Y-97035771D02*
X132814285Y-97083390D01*
X132814285Y-97083390D02*
X132861904Y-97131009D01*
X132861904Y-97131009D02*
X132909523Y-97226247D01*
X132909523Y-97226247D02*
X132909523Y-97464342D01*
X132909523Y-97464342D02*
X132861904Y-97559580D01*
X132861904Y-97559580D02*
X132814285Y-97607200D01*
X132814285Y-97607200D02*
X132719047Y-97654819D01*
X132719047Y-97654819D02*
X132433333Y-97654819D01*
X132433333Y-97654819D02*
X132338095Y-97607200D01*
X132338095Y-97607200D02*
X132290476Y-97559580D01*
X133766666Y-96988152D02*
X133766666Y-97654819D01*
X133528571Y-96607200D02*
X133290476Y-97321485D01*
X133290476Y-97321485D02*
X133909523Y-97321485D01*
X186657142Y-58339580D02*
X186609523Y-58387200D01*
X186609523Y-58387200D02*
X186466666Y-58434819D01*
X186466666Y-58434819D02*
X186371428Y-58434819D01*
X186371428Y-58434819D02*
X186228571Y-58387200D01*
X186228571Y-58387200D02*
X186133333Y-58291961D01*
X186133333Y-58291961D02*
X186085714Y-58196723D01*
X186085714Y-58196723D02*
X186038095Y-58006247D01*
X186038095Y-58006247D02*
X186038095Y-57863390D01*
X186038095Y-57863390D02*
X186085714Y-57672914D01*
X186085714Y-57672914D02*
X186133333Y-57577676D01*
X186133333Y-57577676D02*
X186228571Y-57482438D01*
X186228571Y-57482438D02*
X186371428Y-57434819D01*
X186371428Y-57434819D02*
X186466666Y-57434819D01*
X186466666Y-57434819D02*
X186609523Y-57482438D01*
X186609523Y-57482438D02*
X186657142Y-57530057D01*
X187609523Y-58434819D02*
X187038095Y-58434819D01*
X187323809Y-58434819D02*
X187323809Y-57434819D01*
X187323809Y-57434819D02*
X187228571Y-57577676D01*
X187228571Y-57577676D02*
X187133333Y-57672914D01*
X187133333Y-57672914D02*
X187038095Y-57720533D01*
X187942857Y-57434819D02*
X188561904Y-57434819D01*
X188561904Y-57434819D02*
X188228571Y-57815771D01*
X188228571Y-57815771D02*
X188371428Y-57815771D01*
X188371428Y-57815771D02*
X188466666Y-57863390D01*
X188466666Y-57863390D02*
X188514285Y-57911009D01*
X188514285Y-57911009D02*
X188561904Y-58006247D01*
X188561904Y-58006247D02*
X188561904Y-58244342D01*
X188561904Y-58244342D02*
X188514285Y-58339580D01*
X188514285Y-58339580D02*
X188466666Y-58387200D01*
X188466666Y-58387200D02*
X188371428Y-58434819D01*
X188371428Y-58434819D02*
X188085714Y-58434819D01*
X188085714Y-58434819D02*
X187990476Y-58387200D01*
X187990476Y-58387200D02*
X187942857Y-58339580D01*
X122842142Y-63259580D02*
X122794523Y-63307200D01*
X122794523Y-63307200D02*
X122651666Y-63354819D01*
X122651666Y-63354819D02*
X122556428Y-63354819D01*
X122556428Y-63354819D02*
X122413571Y-63307200D01*
X122413571Y-63307200D02*
X122318333Y-63211961D01*
X122318333Y-63211961D02*
X122270714Y-63116723D01*
X122270714Y-63116723D02*
X122223095Y-62926247D01*
X122223095Y-62926247D02*
X122223095Y-62783390D01*
X122223095Y-62783390D02*
X122270714Y-62592914D01*
X122270714Y-62592914D02*
X122318333Y-62497676D01*
X122318333Y-62497676D02*
X122413571Y-62402438D01*
X122413571Y-62402438D02*
X122556428Y-62354819D01*
X122556428Y-62354819D02*
X122651666Y-62354819D01*
X122651666Y-62354819D02*
X122794523Y-62402438D01*
X122794523Y-62402438D02*
X122842142Y-62450057D01*
X123794523Y-63354819D02*
X123223095Y-63354819D01*
X123508809Y-63354819D02*
X123508809Y-62354819D01*
X123508809Y-62354819D02*
X123413571Y-62497676D01*
X123413571Y-62497676D02*
X123318333Y-62592914D01*
X123318333Y-62592914D02*
X123223095Y-62640533D01*
X124175476Y-62450057D02*
X124223095Y-62402438D01*
X124223095Y-62402438D02*
X124318333Y-62354819D01*
X124318333Y-62354819D02*
X124556428Y-62354819D01*
X124556428Y-62354819D02*
X124651666Y-62402438D01*
X124651666Y-62402438D02*
X124699285Y-62450057D01*
X124699285Y-62450057D02*
X124746904Y-62545295D01*
X124746904Y-62545295D02*
X124746904Y-62640533D01*
X124746904Y-62640533D02*
X124699285Y-62783390D01*
X124699285Y-62783390D02*
X124127857Y-63354819D01*
X124127857Y-63354819D02*
X124746904Y-63354819D01*
X119954819Y-66680357D02*
X119478628Y-67013690D01*
X119954819Y-67251785D02*
X118954819Y-67251785D01*
X118954819Y-67251785D02*
X118954819Y-66870833D01*
X118954819Y-66870833D02*
X119002438Y-66775595D01*
X119002438Y-66775595D02*
X119050057Y-66727976D01*
X119050057Y-66727976D02*
X119145295Y-66680357D01*
X119145295Y-66680357D02*
X119288152Y-66680357D01*
X119288152Y-66680357D02*
X119383390Y-66727976D01*
X119383390Y-66727976D02*
X119431009Y-66775595D01*
X119431009Y-66775595D02*
X119478628Y-66870833D01*
X119478628Y-66870833D02*
X119478628Y-67251785D01*
X119954819Y-65727976D02*
X119954819Y-66299404D01*
X119954819Y-66013690D02*
X118954819Y-66013690D01*
X118954819Y-66013690D02*
X119097676Y-66108928D01*
X119097676Y-66108928D02*
X119192914Y-66204166D01*
X119192914Y-66204166D02*
X119240533Y-66299404D01*
X118954819Y-64870833D02*
X118954819Y-65061309D01*
X118954819Y-65061309D02*
X119002438Y-65156547D01*
X119002438Y-65156547D02*
X119050057Y-65204166D01*
X119050057Y-65204166D02*
X119192914Y-65299404D01*
X119192914Y-65299404D02*
X119383390Y-65347023D01*
X119383390Y-65347023D02*
X119764342Y-65347023D01*
X119764342Y-65347023D02*
X119859580Y-65299404D01*
X119859580Y-65299404D02*
X119907200Y-65251785D01*
X119907200Y-65251785D02*
X119954819Y-65156547D01*
X119954819Y-65156547D02*
X119954819Y-64966071D01*
X119954819Y-64966071D02*
X119907200Y-64870833D01*
X119907200Y-64870833D02*
X119859580Y-64823214D01*
X119859580Y-64823214D02*
X119764342Y-64775595D01*
X119764342Y-64775595D02*
X119526247Y-64775595D01*
X119526247Y-64775595D02*
X119431009Y-64823214D01*
X119431009Y-64823214D02*
X119383390Y-64870833D01*
X119383390Y-64870833D02*
X119335771Y-64966071D01*
X119335771Y-64966071D02*
X119335771Y-65156547D01*
X119335771Y-65156547D02*
X119383390Y-65251785D01*
X119383390Y-65251785D02*
X119431009Y-65299404D01*
X119431009Y-65299404D02*
X119526247Y-65347023D01*
D11*
X178238095Y-113957419D02*
X178238095Y-112957419D01*
X178238095Y-112957419D02*
X178571428Y-113671704D01*
X178571428Y-113671704D02*
X178904761Y-112957419D01*
X178904761Y-112957419D02*
X178904761Y-113957419D01*
X179380952Y-113957419D02*
X179380952Y-112957419D01*
X179380952Y-112957419D02*
X179761904Y-112957419D01*
X179761904Y-112957419D02*
X179857142Y-113005038D01*
X179857142Y-113005038D02*
X179904761Y-113052657D01*
X179904761Y-113052657D02*
X179952380Y-113147895D01*
X179952380Y-113147895D02*
X179952380Y-113290752D01*
X179952380Y-113290752D02*
X179904761Y-113385990D01*
X179904761Y-113385990D02*
X179857142Y-113433609D01*
X179857142Y-113433609D02*
X179761904Y-113481228D01*
X179761904Y-113481228D02*
X179380952Y-113481228D01*
X180380952Y-112957419D02*
X180380952Y-113766942D01*
X180380952Y-113766942D02*
X180428571Y-113862180D01*
X180428571Y-113862180D02*
X180476190Y-113909800D01*
X180476190Y-113909800D02*
X180571428Y-113957419D01*
X180571428Y-113957419D02*
X180761904Y-113957419D01*
X180761904Y-113957419D02*
X180857142Y-113909800D01*
X180857142Y-113909800D02*
X180904761Y-113862180D01*
X180904761Y-113862180D02*
X180952380Y-113766942D01*
X180952380Y-113766942D02*
X180952380Y-112957419D01*
X181857142Y-112957419D02*
X181666666Y-112957419D01*
X181666666Y-112957419D02*
X181571428Y-113005038D01*
X181571428Y-113005038D02*
X181523809Y-113052657D01*
X181523809Y-113052657D02*
X181428571Y-113195514D01*
X181428571Y-113195514D02*
X181380952Y-113385990D01*
X181380952Y-113385990D02*
X181380952Y-113766942D01*
X181380952Y-113766942D02*
X181428571Y-113862180D01*
X181428571Y-113862180D02*
X181476190Y-113909800D01*
X181476190Y-113909800D02*
X181571428Y-113957419D01*
X181571428Y-113957419D02*
X181761904Y-113957419D01*
X181761904Y-113957419D02*
X181857142Y-113909800D01*
X181857142Y-113909800D02*
X181904761Y-113862180D01*
X181904761Y-113862180D02*
X181952380Y-113766942D01*
X181952380Y-113766942D02*
X181952380Y-113528847D01*
X181952380Y-113528847D02*
X181904761Y-113433609D01*
X181904761Y-113433609D02*
X181857142Y-113385990D01*
X181857142Y-113385990D02*
X181761904Y-113338371D01*
X181761904Y-113338371D02*
X181571428Y-113338371D01*
X181571428Y-113338371D02*
X181476190Y-113385990D01*
X181476190Y-113385990D02*
X181428571Y-113433609D01*
X181428571Y-113433609D02*
X181380952Y-113528847D01*
X182571428Y-112957419D02*
X182666666Y-112957419D01*
X182666666Y-112957419D02*
X182761904Y-113005038D01*
X182761904Y-113005038D02*
X182809523Y-113052657D01*
X182809523Y-113052657D02*
X182857142Y-113147895D01*
X182857142Y-113147895D02*
X182904761Y-113338371D01*
X182904761Y-113338371D02*
X182904761Y-113576466D01*
X182904761Y-113576466D02*
X182857142Y-113766942D01*
X182857142Y-113766942D02*
X182809523Y-113862180D01*
X182809523Y-113862180D02*
X182761904Y-113909800D01*
X182761904Y-113909800D02*
X182666666Y-113957419D01*
X182666666Y-113957419D02*
X182571428Y-113957419D01*
X182571428Y-113957419D02*
X182476190Y-113909800D01*
X182476190Y-113909800D02*
X182428571Y-113862180D01*
X182428571Y-113862180D02*
X182380952Y-113766942D01*
X182380952Y-113766942D02*
X182333333Y-113576466D01*
X182333333Y-113576466D02*
X182333333Y-113338371D01*
X182333333Y-113338371D02*
X182380952Y-113147895D01*
X182380952Y-113147895D02*
X182428571Y-113052657D01*
X182428571Y-113052657D02*
X182476190Y-113005038D01*
X182476190Y-113005038D02*
X182571428Y-112957419D01*
X183809523Y-112957419D02*
X183333333Y-112957419D01*
X183333333Y-112957419D02*
X183285714Y-113433609D01*
X183285714Y-113433609D02*
X183333333Y-113385990D01*
X183333333Y-113385990D02*
X183428571Y-113338371D01*
X183428571Y-113338371D02*
X183666666Y-113338371D01*
X183666666Y-113338371D02*
X183761904Y-113385990D01*
X183761904Y-113385990D02*
X183809523Y-113433609D01*
X183809523Y-113433609D02*
X183857142Y-113528847D01*
X183857142Y-113528847D02*
X183857142Y-113766942D01*
X183857142Y-113766942D02*
X183809523Y-113862180D01*
X183809523Y-113862180D02*
X183761904Y-113909800D01*
X183761904Y-113909800D02*
X183666666Y-113957419D01*
X183666666Y-113957419D02*
X183428571Y-113957419D01*
X183428571Y-113957419D02*
X183333333Y-113909800D01*
X183333333Y-113909800D02*
X183285714Y-113862180D01*
X184476190Y-112957419D02*
X184571428Y-112957419D01*
X184571428Y-112957419D02*
X184666666Y-113005038D01*
X184666666Y-113005038D02*
X184714285Y-113052657D01*
X184714285Y-113052657D02*
X184761904Y-113147895D01*
X184761904Y-113147895D02*
X184809523Y-113338371D01*
X184809523Y-113338371D02*
X184809523Y-113576466D01*
X184809523Y-113576466D02*
X184761904Y-113766942D01*
X184761904Y-113766942D02*
X184714285Y-113862180D01*
X184714285Y-113862180D02*
X184666666Y-113909800D01*
X184666666Y-113909800D02*
X184571428Y-113957419D01*
X184571428Y-113957419D02*
X184476190Y-113957419D01*
X184476190Y-113957419D02*
X184380952Y-113909800D01*
X184380952Y-113909800D02*
X184333333Y-113862180D01*
X184333333Y-113862180D02*
X184285714Y-113766942D01*
X184285714Y-113766942D02*
X184238095Y-113576466D01*
X184238095Y-113576466D02*
X184238095Y-113338371D01*
X184238095Y-113338371D02*
X184285714Y-113147895D01*
X184285714Y-113147895D02*
X184333333Y-113052657D01*
X184333333Y-113052657D02*
X184380952Y-113005038D01*
X184380952Y-113005038D02*
X184476190Y-112957419D01*
D10*
X110072080Y-80767857D02*
X110119700Y-80815476D01*
X110119700Y-80815476D02*
X110167319Y-80958333D01*
X110167319Y-80958333D02*
X110167319Y-81053571D01*
X110167319Y-81053571D02*
X110119700Y-81196428D01*
X110119700Y-81196428D02*
X110024461Y-81291666D01*
X110024461Y-81291666D02*
X109929223Y-81339285D01*
X109929223Y-81339285D02*
X109738747Y-81386904D01*
X109738747Y-81386904D02*
X109595890Y-81386904D01*
X109595890Y-81386904D02*
X109405414Y-81339285D01*
X109405414Y-81339285D02*
X109310176Y-81291666D01*
X109310176Y-81291666D02*
X109214938Y-81196428D01*
X109214938Y-81196428D02*
X109167319Y-81053571D01*
X109167319Y-81053571D02*
X109167319Y-80958333D01*
X109167319Y-80958333D02*
X109214938Y-80815476D01*
X109214938Y-80815476D02*
X109262557Y-80767857D01*
X110167319Y-79815476D02*
X110167319Y-80386904D01*
X110167319Y-80101190D02*
X109167319Y-80101190D01*
X109167319Y-80101190D02*
X109310176Y-80196428D01*
X109310176Y-80196428D02*
X109405414Y-80291666D01*
X109405414Y-80291666D02*
X109453033Y-80386904D01*
X110167319Y-79339285D02*
X110167319Y-79148809D01*
X110167319Y-79148809D02*
X110119700Y-79053571D01*
X110119700Y-79053571D02*
X110072080Y-79005952D01*
X110072080Y-79005952D02*
X109929223Y-78910714D01*
X109929223Y-78910714D02*
X109738747Y-78863095D01*
X109738747Y-78863095D02*
X109357795Y-78863095D01*
X109357795Y-78863095D02*
X109262557Y-78910714D01*
X109262557Y-78910714D02*
X109214938Y-78958333D01*
X109214938Y-78958333D02*
X109167319Y-79053571D01*
X109167319Y-79053571D02*
X109167319Y-79244047D01*
X109167319Y-79244047D02*
X109214938Y-79339285D01*
X109214938Y-79339285D02*
X109262557Y-79386904D01*
X109262557Y-79386904D02*
X109357795Y-79434523D01*
X109357795Y-79434523D02*
X109595890Y-79434523D01*
X109595890Y-79434523D02*
X109691128Y-79386904D01*
X109691128Y-79386904D02*
X109738747Y-79339285D01*
X109738747Y-79339285D02*
X109786366Y-79244047D01*
X109786366Y-79244047D02*
X109786366Y-79053571D01*
X109786366Y-79053571D02*
X109738747Y-78958333D01*
X109738747Y-78958333D02*
X109691128Y-78910714D01*
X109691128Y-78910714D02*
X109595890Y-78863095D01*
X192533333Y-51104819D02*
X192200000Y-50628628D01*
X191961905Y-51104819D02*
X191961905Y-50104819D01*
X191961905Y-50104819D02*
X192342857Y-50104819D01*
X192342857Y-50104819D02*
X192438095Y-50152438D01*
X192438095Y-50152438D02*
X192485714Y-50200057D01*
X192485714Y-50200057D02*
X192533333Y-50295295D01*
X192533333Y-50295295D02*
X192533333Y-50438152D01*
X192533333Y-50438152D02*
X192485714Y-50533390D01*
X192485714Y-50533390D02*
X192438095Y-50581009D01*
X192438095Y-50581009D02*
X192342857Y-50628628D01*
X192342857Y-50628628D02*
X191961905Y-50628628D01*
X193390476Y-50438152D02*
X193390476Y-51104819D01*
X193152381Y-50057200D02*
X192914286Y-50771485D01*
X192914286Y-50771485D02*
X193533333Y-50771485D01*
X141154819Y-146083333D02*
X141869104Y-146083333D01*
X141869104Y-146083333D02*
X142011961Y-146130952D01*
X142011961Y-146130952D02*
X142107200Y-146226190D01*
X142107200Y-146226190D02*
X142154819Y-146369047D01*
X142154819Y-146369047D02*
X142154819Y-146464285D01*
X141154819Y-145702380D02*
X141154819Y-145083333D01*
X141154819Y-145083333D02*
X141535771Y-145416666D01*
X141535771Y-145416666D02*
X141535771Y-145273809D01*
X141535771Y-145273809D02*
X141583390Y-145178571D01*
X141583390Y-145178571D02*
X141631009Y-145130952D01*
X141631009Y-145130952D02*
X141726247Y-145083333D01*
X141726247Y-145083333D02*
X141964342Y-145083333D01*
X141964342Y-145083333D02*
X142059580Y-145130952D01*
X142059580Y-145130952D02*
X142107200Y-145178571D01*
X142107200Y-145178571D02*
X142154819Y-145273809D01*
X142154819Y-145273809D02*
X142154819Y-145559523D01*
X142154819Y-145559523D02*
X142107200Y-145654761D01*
X142107200Y-145654761D02*
X142059580Y-145702380D01*
X101954819Y-53957333D02*
X102669104Y-53957333D01*
X102669104Y-53957333D02*
X102811961Y-54004952D01*
X102811961Y-54004952D02*
X102907200Y-54100190D01*
X102907200Y-54100190D02*
X102954819Y-54243047D01*
X102954819Y-54243047D02*
X102954819Y-54338285D01*
X102954819Y-52957333D02*
X102954819Y-53528761D01*
X102954819Y-53243047D02*
X101954819Y-53243047D01*
X101954819Y-53243047D02*
X102097676Y-53338285D01*
X102097676Y-53338285D02*
X102192914Y-53433523D01*
X102192914Y-53433523D02*
X102240533Y-53528761D01*
X115544642Y-82404819D02*
X115211309Y-81928628D01*
X114973214Y-82404819D02*
X114973214Y-81404819D01*
X114973214Y-81404819D02*
X115354166Y-81404819D01*
X115354166Y-81404819D02*
X115449404Y-81452438D01*
X115449404Y-81452438D02*
X115497023Y-81500057D01*
X115497023Y-81500057D02*
X115544642Y-81595295D01*
X115544642Y-81595295D02*
X115544642Y-81738152D01*
X115544642Y-81738152D02*
X115497023Y-81833390D01*
X115497023Y-81833390D02*
X115449404Y-81881009D01*
X115449404Y-81881009D02*
X115354166Y-81928628D01*
X115354166Y-81928628D02*
X114973214Y-81928628D01*
X115925595Y-81500057D02*
X115973214Y-81452438D01*
X115973214Y-81452438D02*
X116068452Y-81404819D01*
X116068452Y-81404819D02*
X116306547Y-81404819D01*
X116306547Y-81404819D02*
X116401785Y-81452438D01*
X116401785Y-81452438D02*
X116449404Y-81500057D01*
X116449404Y-81500057D02*
X116497023Y-81595295D01*
X116497023Y-81595295D02*
X116497023Y-81690533D01*
X116497023Y-81690533D02*
X116449404Y-81833390D01*
X116449404Y-81833390D02*
X115877976Y-82404819D01*
X115877976Y-82404819D02*
X116497023Y-82404819D01*
X117449404Y-82404819D02*
X116877976Y-82404819D01*
X117163690Y-82404819D02*
X117163690Y-81404819D01*
X117163690Y-81404819D02*
X117068452Y-81547676D01*
X117068452Y-81547676D02*
X116973214Y-81642914D01*
X116973214Y-81642914D02*
X116877976Y-81690533D01*
X151557142Y-98009580D02*
X151509523Y-98057200D01*
X151509523Y-98057200D02*
X151366666Y-98104819D01*
X151366666Y-98104819D02*
X151271428Y-98104819D01*
X151271428Y-98104819D02*
X151128571Y-98057200D01*
X151128571Y-98057200D02*
X151033333Y-97961961D01*
X151033333Y-97961961D02*
X150985714Y-97866723D01*
X150985714Y-97866723D02*
X150938095Y-97676247D01*
X150938095Y-97676247D02*
X150938095Y-97533390D01*
X150938095Y-97533390D02*
X150985714Y-97342914D01*
X150985714Y-97342914D02*
X151033333Y-97247676D01*
X151033333Y-97247676D02*
X151128571Y-97152438D01*
X151128571Y-97152438D02*
X151271428Y-97104819D01*
X151271428Y-97104819D02*
X151366666Y-97104819D01*
X151366666Y-97104819D02*
X151509523Y-97152438D01*
X151509523Y-97152438D02*
X151557142Y-97200057D01*
X151890476Y-97104819D02*
X152509523Y-97104819D01*
X152509523Y-97104819D02*
X152176190Y-97485771D01*
X152176190Y-97485771D02*
X152319047Y-97485771D01*
X152319047Y-97485771D02*
X152414285Y-97533390D01*
X152414285Y-97533390D02*
X152461904Y-97581009D01*
X152461904Y-97581009D02*
X152509523Y-97676247D01*
X152509523Y-97676247D02*
X152509523Y-97914342D01*
X152509523Y-97914342D02*
X152461904Y-98009580D01*
X152461904Y-98009580D02*
X152414285Y-98057200D01*
X152414285Y-98057200D02*
X152319047Y-98104819D01*
X152319047Y-98104819D02*
X152033333Y-98104819D01*
X152033333Y-98104819D02*
X151938095Y-98057200D01*
X151938095Y-98057200D02*
X151890476Y-98009580D01*
X153461904Y-98104819D02*
X152890476Y-98104819D01*
X153176190Y-98104819D02*
X153176190Y-97104819D01*
X153176190Y-97104819D02*
X153080952Y-97247676D01*
X153080952Y-97247676D02*
X152985714Y-97342914D01*
X152985714Y-97342914D02*
X152890476Y-97390533D01*
X131207142Y-80354819D02*
X130873809Y-79878628D01*
X130635714Y-80354819D02*
X130635714Y-79354819D01*
X130635714Y-79354819D02*
X131016666Y-79354819D01*
X131016666Y-79354819D02*
X131111904Y-79402438D01*
X131111904Y-79402438D02*
X131159523Y-79450057D01*
X131159523Y-79450057D02*
X131207142Y-79545295D01*
X131207142Y-79545295D02*
X131207142Y-79688152D01*
X131207142Y-79688152D02*
X131159523Y-79783390D01*
X131159523Y-79783390D02*
X131111904Y-79831009D01*
X131111904Y-79831009D02*
X131016666Y-79878628D01*
X131016666Y-79878628D02*
X130635714Y-79878628D01*
X132159523Y-80354819D02*
X131588095Y-80354819D01*
X131873809Y-80354819D02*
X131873809Y-79354819D01*
X131873809Y-79354819D02*
X131778571Y-79497676D01*
X131778571Y-79497676D02*
X131683333Y-79592914D01*
X131683333Y-79592914D02*
X131588095Y-79640533D01*
X133111904Y-80354819D02*
X132540476Y-80354819D01*
X132826190Y-80354819D02*
X132826190Y-79354819D01*
X132826190Y-79354819D02*
X132730952Y-79497676D01*
X132730952Y-79497676D02*
X132635714Y-79592914D01*
X132635714Y-79592914D02*
X132540476Y-79640533D01*
X197604819Y-82442857D02*
X197128628Y-82776190D01*
X197604819Y-83014285D02*
X196604819Y-83014285D01*
X196604819Y-83014285D02*
X196604819Y-82633333D01*
X196604819Y-82633333D02*
X196652438Y-82538095D01*
X196652438Y-82538095D02*
X196700057Y-82490476D01*
X196700057Y-82490476D02*
X196795295Y-82442857D01*
X196795295Y-82442857D02*
X196938152Y-82442857D01*
X196938152Y-82442857D02*
X197033390Y-82490476D01*
X197033390Y-82490476D02*
X197081009Y-82538095D01*
X197081009Y-82538095D02*
X197128628Y-82633333D01*
X197128628Y-82633333D02*
X197128628Y-83014285D01*
X196604819Y-82109523D02*
X196604819Y-81490476D01*
X196604819Y-81490476D02*
X196985771Y-81823809D01*
X196985771Y-81823809D02*
X196985771Y-81680952D01*
X196985771Y-81680952D02*
X197033390Y-81585714D01*
X197033390Y-81585714D02*
X197081009Y-81538095D01*
X197081009Y-81538095D02*
X197176247Y-81490476D01*
X197176247Y-81490476D02*
X197414342Y-81490476D01*
X197414342Y-81490476D02*
X197509580Y-81538095D01*
X197509580Y-81538095D02*
X197557200Y-81585714D01*
X197557200Y-81585714D02*
X197604819Y-81680952D01*
X197604819Y-81680952D02*
X197604819Y-81966666D01*
X197604819Y-81966666D02*
X197557200Y-82061904D01*
X197557200Y-82061904D02*
X197509580Y-82109523D01*
X197604819Y-81014285D02*
X197604819Y-80823809D01*
X197604819Y-80823809D02*
X197557200Y-80728571D01*
X197557200Y-80728571D02*
X197509580Y-80680952D01*
X197509580Y-80680952D02*
X197366723Y-80585714D01*
X197366723Y-80585714D02*
X197176247Y-80538095D01*
X197176247Y-80538095D02*
X196795295Y-80538095D01*
X196795295Y-80538095D02*
X196700057Y-80585714D01*
X196700057Y-80585714D02*
X196652438Y-80633333D01*
X196652438Y-80633333D02*
X196604819Y-80728571D01*
X196604819Y-80728571D02*
X196604819Y-80919047D01*
X196604819Y-80919047D02*
X196652438Y-81014285D01*
X196652438Y-81014285D02*
X196700057Y-81061904D01*
X196700057Y-81061904D02*
X196795295Y-81109523D01*
X196795295Y-81109523D02*
X197033390Y-81109523D01*
X197033390Y-81109523D02*
X197128628Y-81061904D01*
X197128628Y-81061904D02*
X197176247Y-81014285D01*
X197176247Y-81014285D02*
X197223866Y-80919047D01*
X197223866Y-80919047D02*
X197223866Y-80728571D01*
X197223866Y-80728571D02*
X197176247Y-80633333D01*
X197176247Y-80633333D02*
X197128628Y-80585714D01*
X197128628Y-80585714D02*
X197033390Y-80538095D01*
X137333333Y-134359580D02*
X137285714Y-134407200D01*
X137285714Y-134407200D02*
X137142857Y-134454819D01*
X137142857Y-134454819D02*
X137047619Y-134454819D01*
X137047619Y-134454819D02*
X136904762Y-134407200D01*
X136904762Y-134407200D02*
X136809524Y-134311961D01*
X136809524Y-134311961D02*
X136761905Y-134216723D01*
X136761905Y-134216723D02*
X136714286Y-134026247D01*
X136714286Y-134026247D02*
X136714286Y-133883390D01*
X136714286Y-133883390D02*
X136761905Y-133692914D01*
X136761905Y-133692914D02*
X136809524Y-133597676D01*
X136809524Y-133597676D02*
X136904762Y-133502438D01*
X136904762Y-133502438D02*
X137047619Y-133454819D01*
X137047619Y-133454819D02*
X137142857Y-133454819D01*
X137142857Y-133454819D02*
X137285714Y-133502438D01*
X137285714Y-133502438D02*
X137333333Y-133550057D01*
X137714286Y-133550057D02*
X137761905Y-133502438D01*
X137761905Y-133502438D02*
X137857143Y-133454819D01*
X137857143Y-133454819D02*
X138095238Y-133454819D01*
X138095238Y-133454819D02*
X138190476Y-133502438D01*
X138190476Y-133502438D02*
X138238095Y-133550057D01*
X138238095Y-133550057D02*
X138285714Y-133645295D01*
X138285714Y-133645295D02*
X138285714Y-133740533D01*
X138285714Y-133740533D02*
X138238095Y-133883390D01*
X138238095Y-133883390D02*
X137666667Y-134454819D01*
X137666667Y-134454819D02*
X138285714Y-134454819D01*
X145804819Y-83979523D02*
X146519104Y-83979523D01*
X146519104Y-83979523D02*
X146661961Y-84027142D01*
X146661961Y-84027142D02*
X146757200Y-84122380D01*
X146757200Y-84122380D02*
X146804819Y-84265237D01*
X146804819Y-84265237D02*
X146804819Y-84360475D01*
X146804819Y-82979523D02*
X146804819Y-83550951D01*
X146804819Y-83265237D02*
X145804819Y-83265237D01*
X145804819Y-83265237D02*
X145947676Y-83360475D01*
X145947676Y-83360475D02*
X146042914Y-83455713D01*
X146042914Y-83455713D02*
X146090533Y-83550951D01*
X146804819Y-82027142D02*
X146804819Y-82598570D01*
X146804819Y-82312856D02*
X145804819Y-82312856D01*
X145804819Y-82312856D02*
X145947676Y-82408094D01*
X145947676Y-82408094D02*
X146042914Y-82503332D01*
X146042914Y-82503332D02*
X146090533Y-82598570D01*
X160142142Y-139209580D02*
X160094523Y-139257200D01*
X160094523Y-139257200D02*
X159951666Y-139304819D01*
X159951666Y-139304819D02*
X159856428Y-139304819D01*
X159856428Y-139304819D02*
X159713571Y-139257200D01*
X159713571Y-139257200D02*
X159618333Y-139161961D01*
X159618333Y-139161961D02*
X159570714Y-139066723D01*
X159570714Y-139066723D02*
X159523095Y-138876247D01*
X159523095Y-138876247D02*
X159523095Y-138733390D01*
X159523095Y-138733390D02*
X159570714Y-138542914D01*
X159570714Y-138542914D02*
X159618333Y-138447676D01*
X159618333Y-138447676D02*
X159713571Y-138352438D01*
X159713571Y-138352438D02*
X159856428Y-138304819D01*
X159856428Y-138304819D02*
X159951666Y-138304819D01*
X159951666Y-138304819D02*
X160094523Y-138352438D01*
X160094523Y-138352438D02*
X160142142Y-138400057D01*
X160523095Y-138400057D02*
X160570714Y-138352438D01*
X160570714Y-138352438D02*
X160665952Y-138304819D01*
X160665952Y-138304819D02*
X160904047Y-138304819D01*
X160904047Y-138304819D02*
X160999285Y-138352438D01*
X160999285Y-138352438D02*
X161046904Y-138400057D01*
X161046904Y-138400057D02*
X161094523Y-138495295D01*
X161094523Y-138495295D02*
X161094523Y-138590533D01*
X161094523Y-138590533D02*
X161046904Y-138733390D01*
X161046904Y-138733390D02*
X160475476Y-139304819D01*
X160475476Y-139304819D02*
X161094523Y-139304819D01*
X161427857Y-138304819D02*
X162046904Y-138304819D01*
X162046904Y-138304819D02*
X161713571Y-138685771D01*
X161713571Y-138685771D02*
X161856428Y-138685771D01*
X161856428Y-138685771D02*
X161951666Y-138733390D01*
X161951666Y-138733390D02*
X161999285Y-138781009D01*
X161999285Y-138781009D02*
X162046904Y-138876247D01*
X162046904Y-138876247D02*
X162046904Y-139114342D01*
X162046904Y-139114342D02*
X161999285Y-139209580D01*
X161999285Y-139209580D02*
X161951666Y-139257200D01*
X161951666Y-139257200D02*
X161856428Y-139304819D01*
X161856428Y-139304819D02*
X161570714Y-139304819D01*
X161570714Y-139304819D02*
X161475476Y-139257200D01*
X161475476Y-139257200D02*
X161427857Y-139209580D01*
X131207142Y-76854819D02*
X130873809Y-76378628D01*
X130635714Y-76854819D02*
X130635714Y-75854819D01*
X130635714Y-75854819D02*
X131016666Y-75854819D01*
X131016666Y-75854819D02*
X131111904Y-75902438D01*
X131111904Y-75902438D02*
X131159523Y-75950057D01*
X131159523Y-75950057D02*
X131207142Y-76045295D01*
X131207142Y-76045295D02*
X131207142Y-76188152D01*
X131207142Y-76188152D02*
X131159523Y-76283390D01*
X131159523Y-76283390D02*
X131111904Y-76331009D01*
X131111904Y-76331009D02*
X131016666Y-76378628D01*
X131016666Y-76378628D02*
X130635714Y-76378628D01*
X132159523Y-76854819D02*
X131588095Y-76854819D01*
X131873809Y-76854819D02*
X131873809Y-75854819D01*
X131873809Y-75854819D02*
X131778571Y-75997676D01*
X131778571Y-75997676D02*
X131683333Y-76092914D01*
X131683333Y-76092914D02*
X131588095Y-76140533D01*
X133064285Y-75854819D02*
X132588095Y-75854819D01*
X132588095Y-75854819D02*
X132540476Y-76331009D01*
X132540476Y-76331009D02*
X132588095Y-76283390D01*
X132588095Y-76283390D02*
X132683333Y-76235771D01*
X132683333Y-76235771D02*
X132921428Y-76235771D01*
X132921428Y-76235771D02*
X133016666Y-76283390D01*
X133016666Y-76283390D02*
X133064285Y-76331009D01*
X133064285Y-76331009D02*
X133111904Y-76426247D01*
X133111904Y-76426247D02*
X133111904Y-76664342D01*
X133111904Y-76664342D02*
X133064285Y-76759580D01*
X133064285Y-76759580D02*
X133016666Y-76807200D01*
X133016666Y-76807200D02*
X132921428Y-76854819D01*
X132921428Y-76854819D02*
X132683333Y-76854819D01*
X132683333Y-76854819D02*
X132588095Y-76807200D01*
X132588095Y-76807200D02*
X132540476Y-76759580D01*
X114857142Y-51854819D02*
X114523809Y-51378628D01*
X114285714Y-51854819D02*
X114285714Y-50854819D01*
X114285714Y-50854819D02*
X114666666Y-50854819D01*
X114666666Y-50854819D02*
X114761904Y-50902438D01*
X114761904Y-50902438D02*
X114809523Y-50950057D01*
X114809523Y-50950057D02*
X114857142Y-51045295D01*
X114857142Y-51045295D02*
X114857142Y-51188152D01*
X114857142Y-51188152D02*
X114809523Y-51283390D01*
X114809523Y-51283390D02*
X114761904Y-51331009D01*
X114761904Y-51331009D02*
X114666666Y-51378628D01*
X114666666Y-51378628D02*
X114285714Y-51378628D01*
X115809523Y-51854819D02*
X115238095Y-51854819D01*
X115523809Y-51854819D02*
X115523809Y-50854819D01*
X115523809Y-50854819D02*
X115428571Y-50997676D01*
X115428571Y-50997676D02*
X115333333Y-51092914D01*
X115333333Y-51092914D02*
X115238095Y-51140533D01*
X116190476Y-50950057D02*
X116238095Y-50902438D01*
X116238095Y-50902438D02*
X116333333Y-50854819D01*
X116333333Y-50854819D02*
X116571428Y-50854819D01*
X116571428Y-50854819D02*
X116666666Y-50902438D01*
X116666666Y-50902438D02*
X116714285Y-50950057D01*
X116714285Y-50950057D02*
X116761904Y-51045295D01*
X116761904Y-51045295D02*
X116761904Y-51140533D01*
X116761904Y-51140533D02*
X116714285Y-51283390D01*
X116714285Y-51283390D02*
X116142857Y-51854819D01*
X116142857Y-51854819D02*
X116761904Y-51854819D01*
X194304819Y-82442857D02*
X193828628Y-82776190D01*
X194304819Y-83014285D02*
X193304819Y-83014285D01*
X193304819Y-83014285D02*
X193304819Y-82633333D01*
X193304819Y-82633333D02*
X193352438Y-82538095D01*
X193352438Y-82538095D02*
X193400057Y-82490476D01*
X193400057Y-82490476D02*
X193495295Y-82442857D01*
X193495295Y-82442857D02*
X193638152Y-82442857D01*
X193638152Y-82442857D02*
X193733390Y-82490476D01*
X193733390Y-82490476D02*
X193781009Y-82538095D01*
X193781009Y-82538095D02*
X193828628Y-82633333D01*
X193828628Y-82633333D02*
X193828628Y-83014285D01*
X193304819Y-82109523D02*
X193304819Y-81490476D01*
X193304819Y-81490476D02*
X193685771Y-81823809D01*
X193685771Y-81823809D02*
X193685771Y-81680952D01*
X193685771Y-81680952D02*
X193733390Y-81585714D01*
X193733390Y-81585714D02*
X193781009Y-81538095D01*
X193781009Y-81538095D02*
X193876247Y-81490476D01*
X193876247Y-81490476D02*
X194114342Y-81490476D01*
X194114342Y-81490476D02*
X194209580Y-81538095D01*
X194209580Y-81538095D02*
X194257200Y-81585714D01*
X194257200Y-81585714D02*
X194304819Y-81680952D01*
X194304819Y-81680952D02*
X194304819Y-81966666D01*
X194304819Y-81966666D02*
X194257200Y-82061904D01*
X194257200Y-82061904D02*
X194209580Y-82109523D01*
X193638152Y-80633333D02*
X194304819Y-80633333D01*
X193257200Y-80871428D02*
X193971485Y-81109523D01*
X193971485Y-81109523D02*
X193971485Y-80490476D01*
X157554819Y-130583333D02*
X158269104Y-130583333D01*
X158269104Y-130583333D02*
X158411961Y-130630952D01*
X158411961Y-130630952D02*
X158507200Y-130726190D01*
X158507200Y-130726190D02*
X158554819Y-130869047D01*
X158554819Y-130869047D02*
X158554819Y-130964285D01*
X157983390Y-129964285D02*
X157935771Y-130059523D01*
X157935771Y-130059523D02*
X157888152Y-130107142D01*
X157888152Y-130107142D02*
X157792914Y-130154761D01*
X157792914Y-130154761D02*
X157745295Y-130154761D01*
X157745295Y-130154761D02*
X157650057Y-130107142D01*
X157650057Y-130107142D02*
X157602438Y-130059523D01*
X157602438Y-130059523D02*
X157554819Y-129964285D01*
X157554819Y-129964285D02*
X157554819Y-129773809D01*
X157554819Y-129773809D02*
X157602438Y-129678571D01*
X157602438Y-129678571D02*
X157650057Y-129630952D01*
X157650057Y-129630952D02*
X157745295Y-129583333D01*
X157745295Y-129583333D02*
X157792914Y-129583333D01*
X157792914Y-129583333D02*
X157888152Y-129630952D01*
X157888152Y-129630952D02*
X157935771Y-129678571D01*
X157935771Y-129678571D02*
X157983390Y-129773809D01*
X157983390Y-129773809D02*
X157983390Y-129964285D01*
X157983390Y-129964285D02*
X158031009Y-130059523D01*
X158031009Y-130059523D02*
X158078628Y-130107142D01*
X158078628Y-130107142D02*
X158173866Y-130154761D01*
X158173866Y-130154761D02*
X158364342Y-130154761D01*
X158364342Y-130154761D02*
X158459580Y-130107142D01*
X158459580Y-130107142D02*
X158507200Y-130059523D01*
X158507200Y-130059523D02*
X158554819Y-129964285D01*
X158554819Y-129964285D02*
X158554819Y-129773809D01*
X158554819Y-129773809D02*
X158507200Y-129678571D01*
X158507200Y-129678571D02*
X158459580Y-129630952D01*
X158459580Y-129630952D02*
X158364342Y-129583333D01*
X158364342Y-129583333D02*
X158173866Y-129583333D01*
X158173866Y-129583333D02*
X158078628Y-129630952D01*
X158078628Y-129630952D02*
X158031009Y-129678571D01*
X158031009Y-129678571D02*
X157983390Y-129773809D01*
X166879580Y-125680357D02*
X166927200Y-125727976D01*
X166927200Y-125727976D02*
X166974819Y-125870833D01*
X166974819Y-125870833D02*
X166974819Y-125966071D01*
X166974819Y-125966071D02*
X166927200Y-126108928D01*
X166927200Y-126108928D02*
X166831961Y-126204166D01*
X166831961Y-126204166D02*
X166736723Y-126251785D01*
X166736723Y-126251785D02*
X166546247Y-126299404D01*
X166546247Y-126299404D02*
X166403390Y-126299404D01*
X166403390Y-126299404D02*
X166212914Y-126251785D01*
X166212914Y-126251785D02*
X166117676Y-126204166D01*
X166117676Y-126204166D02*
X166022438Y-126108928D01*
X166022438Y-126108928D02*
X165974819Y-125966071D01*
X165974819Y-125966071D02*
X165974819Y-125870833D01*
X165974819Y-125870833D02*
X166022438Y-125727976D01*
X166022438Y-125727976D02*
X166070057Y-125680357D01*
X166974819Y-124727976D02*
X166974819Y-125299404D01*
X166974819Y-125013690D02*
X165974819Y-125013690D01*
X165974819Y-125013690D02*
X166117676Y-125108928D01*
X166117676Y-125108928D02*
X166212914Y-125204166D01*
X166212914Y-125204166D02*
X166260533Y-125299404D01*
X165974819Y-124394642D02*
X165974819Y-123727976D01*
X165974819Y-123727976D02*
X166974819Y-124156547D01*
X121557142Y-72854819D02*
X121223809Y-72378628D01*
X120985714Y-72854819D02*
X120985714Y-71854819D01*
X120985714Y-71854819D02*
X121366666Y-71854819D01*
X121366666Y-71854819D02*
X121461904Y-71902438D01*
X121461904Y-71902438D02*
X121509523Y-71950057D01*
X121509523Y-71950057D02*
X121557142Y-72045295D01*
X121557142Y-72045295D02*
X121557142Y-72188152D01*
X121557142Y-72188152D02*
X121509523Y-72283390D01*
X121509523Y-72283390D02*
X121461904Y-72331009D01*
X121461904Y-72331009D02*
X121366666Y-72378628D01*
X121366666Y-72378628D02*
X120985714Y-72378628D01*
X121938095Y-71950057D02*
X121985714Y-71902438D01*
X121985714Y-71902438D02*
X122080952Y-71854819D01*
X122080952Y-71854819D02*
X122319047Y-71854819D01*
X122319047Y-71854819D02*
X122414285Y-71902438D01*
X122414285Y-71902438D02*
X122461904Y-71950057D01*
X122461904Y-71950057D02*
X122509523Y-72045295D01*
X122509523Y-72045295D02*
X122509523Y-72140533D01*
X122509523Y-72140533D02*
X122461904Y-72283390D01*
X122461904Y-72283390D02*
X121890476Y-72854819D01*
X121890476Y-72854819D02*
X122509523Y-72854819D01*
X122985714Y-72854819D02*
X123176190Y-72854819D01*
X123176190Y-72854819D02*
X123271428Y-72807200D01*
X123271428Y-72807200D02*
X123319047Y-72759580D01*
X123319047Y-72759580D02*
X123414285Y-72616723D01*
X123414285Y-72616723D02*
X123461904Y-72426247D01*
X123461904Y-72426247D02*
X123461904Y-72045295D01*
X123461904Y-72045295D02*
X123414285Y-71950057D01*
X123414285Y-71950057D02*
X123366666Y-71902438D01*
X123366666Y-71902438D02*
X123271428Y-71854819D01*
X123271428Y-71854819D02*
X123080952Y-71854819D01*
X123080952Y-71854819D02*
X122985714Y-71902438D01*
X122985714Y-71902438D02*
X122938095Y-71950057D01*
X122938095Y-71950057D02*
X122890476Y-72045295D01*
X122890476Y-72045295D02*
X122890476Y-72283390D01*
X122890476Y-72283390D02*
X122938095Y-72378628D01*
X122938095Y-72378628D02*
X122985714Y-72426247D01*
X122985714Y-72426247D02*
X123080952Y-72473866D01*
X123080952Y-72473866D02*
X123271428Y-72473866D01*
X123271428Y-72473866D02*
X123366666Y-72426247D01*
X123366666Y-72426247D02*
X123414285Y-72378628D01*
X123414285Y-72378628D02*
X123461904Y-72283390D01*
X183804819Y-82442857D02*
X183328628Y-82776190D01*
X183804819Y-83014285D02*
X182804819Y-83014285D01*
X182804819Y-83014285D02*
X182804819Y-82633333D01*
X182804819Y-82633333D02*
X182852438Y-82538095D01*
X182852438Y-82538095D02*
X182900057Y-82490476D01*
X182900057Y-82490476D02*
X182995295Y-82442857D01*
X182995295Y-82442857D02*
X183138152Y-82442857D01*
X183138152Y-82442857D02*
X183233390Y-82490476D01*
X183233390Y-82490476D02*
X183281009Y-82538095D01*
X183281009Y-82538095D02*
X183328628Y-82633333D01*
X183328628Y-82633333D02*
X183328628Y-83014285D01*
X182804819Y-82109523D02*
X182804819Y-81490476D01*
X182804819Y-81490476D02*
X183185771Y-81823809D01*
X183185771Y-81823809D02*
X183185771Y-81680952D01*
X183185771Y-81680952D02*
X183233390Y-81585714D01*
X183233390Y-81585714D02*
X183281009Y-81538095D01*
X183281009Y-81538095D02*
X183376247Y-81490476D01*
X183376247Y-81490476D02*
X183614342Y-81490476D01*
X183614342Y-81490476D02*
X183709580Y-81538095D01*
X183709580Y-81538095D02*
X183757200Y-81585714D01*
X183757200Y-81585714D02*
X183804819Y-81680952D01*
X183804819Y-81680952D02*
X183804819Y-81966666D01*
X183804819Y-81966666D02*
X183757200Y-82061904D01*
X183757200Y-82061904D02*
X183709580Y-82109523D01*
X182804819Y-81157142D02*
X182804819Y-80490476D01*
X182804819Y-80490476D02*
X183804819Y-80919047D01*
X103867261Y-72150057D02*
X103772023Y-72102438D01*
X103772023Y-72102438D02*
X103676785Y-72007200D01*
X103676785Y-72007200D02*
X103533928Y-71864342D01*
X103533928Y-71864342D02*
X103438690Y-71816723D01*
X103438690Y-71816723D02*
X103343452Y-71816723D01*
X103391071Y-72054819D02*
X103295833Y-72007200D01*
X103295833Y-72007200D02*
X103200595Y-71911961D01*
X103200595Y-71911961D02*
X103152976Y-71721485D01*
X103152976Y-71721485D02*
X103152976Y-71388152D01*
X103152976Y-71388152D02*
X103200595Y-71197676D01*
X103200595Y-71197676D02*
X103295833Y-71102438D01*
X103295833Y-71102438D02*
X103391071Y-71054819D01*
X103391071Y-71054819D02*
X103581547Y-71054819D01*
X103581547Y-71054819D02*
X103676785Y-71102438D01*
X103676785Y-71102438D02*
X103772023Y-71197676D01*
X103772023Y-71197676D02*
X103819642Y-71388152D01*
X103819642Y-71388152D02*
X103819642Y-71721485D01*
X103819642Y-71721485D02*
X103772023Y-71911961D01*
X103772023Y-71911961D02*
X103676785Y-72007200D01*
X103676785Y-72007200D02*
X103581547Y-72054819D01*
X103581547Y-72054819D02*
X103391071Y-72054819D01*
X104724404Y-71054819D02*
X104248214Y-71054819D01*
X104248214Y-71054819D02*
X104200595Y-71531009D01*
X104200595Y-71531009D02*
X104248214Y-71483390D01*
X104248214Y-71483390D02*
X104343452Y-71435771D01*
X104343452Y-71435771D02*
X104581547Y-71435771D01*
X104581547Y-71435771D02*
X104676785Y-71483390D01*
X104676785Y-71483390D02*
X104724404Y-71531009D01*
X104724404Y-71531009D02*
X104772023Y-71626247D01*
X104772023Y-71626247D02*
X104772023Y-71864342D01*
X104772023Y-71864342D02*
X104724404Y-71959580D01*
X104724404Y-71959580D02*
X104676785Y-72007200D01*
X104676785Y-72007200D02*
X104581547Y-72054819D01*
X104581547Y-72054819D02*
X104343452Y-72054819D01*
X104343452Y-72054819D02*
X104248214Y-72007200D01*
X104248214Y-72007200D02*
X104200595Y-71959580D01*
X173304819Y-81966666D02*
X172828628Y-82299999D01*
X173304819Y-82538094D02*
X172304819Y-82538094D01*
X172304819Y-82538094D02*
X172304819Y-82157142D01*
X172304819Y-82157142D02*
X172352438Y-82061904D01*
X172352438Y-82061904D02*
X172400057Y-82014285D01*
X172400057Y-82014285D02*
X172495295Y-81966666D01*
X172495295Y-81966666D02*
X172638152Y-81966666D01*
X172638152Y-81966666D02*
X172733390Y-82014285D01*
X172733390Y-82014285D02*
X172781009Y-82061904D01*
X172781009Y-82061904D02*
X172828628Y-82157142D01*
X172828628Y-82157142D02*
X172828628Y-82538094D01*
X172733390Y-81395237D02*
X172685771Y-81490475D01*
X172685771Y-81490475D02*
X172638152Y-81538094D01*
X172638152Y-81538094D02*
X172542914Y-81585713D01*
X172542914Y-81585713D02*
X172495295Y-81585713D01*
X172495295Y-81585713D02*
X172400057Y-81538094D01*
X172400057Y-81538094D02*
X172352438Y-81490475D01*
X172352438Y-81490475D02*
X172304819Y-81395237D01*
X172304819Y-81395237D02*
X172304819Y-81204761D01*
X172304819Y-81204761D02*
X172352438Y-81109523D01*
X172352438Y-81109523D02*
X172400057Y-81061904D01*
X172400057Y-81061904D02*
X172495295Y-81014285D01*
X172495295Y-81014285D02*
X172542914Y-81014285D01*
X172542914Y-81014285D02*
X172638152Y-81061904D01*
X172638152Y-81061904D02*
X172685771Y-81109523D01*
X172685771Y-81109523D02*
X172733390Y-81204761D01*
X172733390Y-81204761D02*
X172733390Y-81395237D01*
X172733390Y-81395237D02*
X172781009Y-81490475D01*
X172781009Y-81490475D02*
X172828628Y-81538094D01*
X172828628Y-81538094D02*
X172923866Y-81585713D01*
X172923866Y-81585713D02*
X173114342Y-81585713D01*
X173114342Y-81585713D02*
X173209580Y-81538094D01*
X173209580Y-81538094D02*
X173257200Y-81490475D01*
X173257200Y-81490475D02*
X173304819Y-81395237D01*
X173304819Y-81395237D02*
X173304819Y-81204761D01*
X173304819Y-81204761D02*
X173257200Y-81109523D01*
X173257200Y-81109523D02*
X173209580Y-81061904D01*
X173209580Y-81061904D02*
X173114342Y-81014285D01*
X173114342Y-81014285D02*
X172923866Y-81014285D01*
X172923866Y-81014285D02*
X172828628Y-81061904D01*
X172828628Y-81061904D02*
X172781009Y-81109523D01*
X172781009Y-81109523D02*
X172733390Y-81204761D01*
X115107142Y-64204819D02*
X114773809Y-63728628D01*
X114535714Y-64204819D02*
X114535714Y-63204819D01*
X114535714Y-63204819D02*
X114916666Y-63204819D01*
X114916666Y-63204819D02*
X115011904Y-63252438D01*
X115011904Y-63252438D02*
X115059523Y-63300057D01*
X115059523Y-63300057D02*
X115107142Y-63395295D01*
X115107142Y-63395295D02*
X115107142Y-63538152D01*
X115107142Y-63538152D02*
X115059523Y-63633390D01*
X115059523Y-63633390D02*
X115011904Y-63681009D01*
X115011904Y-63681009D02*
X114916666Y-63728628D01*
X114916666Y-63728628D02*
X114535714Y-63728628D01*
X115440476Y-63204819D02*
X116059523Y-63204819D01*
X116059523Y-63204819D02*
X115726190Y-63585771D01*
X115726190Y-63585771D02*
X115869047Y-63585771D01*
X115869047Y-63585771D02*
X115964285Y-63633390D01*
X115964285Y-63633390D02*
X116011904Y-63681009D01*
X116011904Y-63681009D02*
X116059523Y-63776247D01*
X116059523Y-63776247D02*
X116059523Y-64014342D01*
X116059523Y-64014342D02*
X116011904Y-64109580D01*
X116011904Y-64109580D02*
X115964285Y-64157200D01*
X115964285Y-64157200D02*
X115869047Y-64204819D01*
X115869047Y-64204819D02*
X115583333Y-64204819D01*
X115583333Y-64204819D02*
X115488095Y-64157200D01*
X115488095Y-64157200D02*
X115440476Y-64109580D01*
X117011904Y-64204819D02*
X116440476Y-64204819D01*
X116726190Y-64204819D02*
X116726190Y-63204819D01*
X116726190Y-63204819D02*
X116630952Y-63347676D01*
X116630952Y-63347676D02*
X116535714Y-63442914D01*
X116535714Y-63442914D02*
X116440476Y-63490533D01*
D13*
%TO.C,U3*%
X160685000Y-132025000D02*
X164585000Y-132025000D01*
X160685000Y-137075000D02*
X164585000Y-137075000D01*
D14*
X158665000Y-132645000D02*
G75*
G02*
X158465000Y-132645000I-100000J0D01*
G01*
X158465000Y-132645000D02*
G75*
G02*
X158665000Y-132645000I100000J0D01*
G01*
D15*
%TO.C,C9*%
X140865000Y-58623752D02*
X140865000Y-58101248D01*
X142335000Y-58623752D02*
X142335000Y-58101248D01*
%TO.C,R18*%
X110465000Y-77327064D02*
X110465000Y-76872936D01*
X111935000Y-77327064D02*
X111935000Y-76872936D01*
%TO.C,C25*%
X170900000Y-125311252D02*
X170900000Y-124788748D01*
X172370000Y-125311252D02*
X172370000Y-124788748D01*
%TO.C,C24*%
X134438748Y-135865000D02*
X134961252Y-135865000D01*
X134438748Y-137335000D02*
X134961252Y-137335000D01*
%TO.C,R27*%
X137927064Y-76765000D02*
X137472936Y-76765000D01*
X137927064Y-78235000D02*
X137472936Y-78235000D01*
%TO.C,C14*%
X177265000Y-82061252D02*
X177265000Y-81538748D01*
X178735000Y-82061252D02*
X178735000Y-81538748D01*
%TO.C,R25*%
X112227064Y-55665000D02*
X111772936Y-55665000D01*
X112227064Y-57135000D02*
X111772936Y-57135000D01*
%TO.C,R6*%
X126772936Y-56265000D02*
X127227064Y-56265000D01*
X126772936Y-57735000D02*
X127227064Y-57735000D01*
%TO.C,R35*%
X191265000Y-82027064D02*
X191265000Y-81572936D01*
X192735000Y-82027064D02*
X192735000Y-81572936D01*
%TO.C,STP_UP1*%
D11*
X195250000Y-149950000D02*
X171750000Y-149950000D01*
X171750000Y-133450000D01*
X195250000Y-133450000D01*
X195250000Y-149950000D01*
D15*
%TO.C,R13*%
X111772936Y-58065000D02*
X112227064Y-58065000D01*
X111772936Y-59535000D02*
X112227064Y-59535000D01*
%TO.C,R17*%
X102265000Y-78772936D02*
X102265000Y-79227064D01*
X103735000Y-78772936D02*
X103735000Y-79227064D01*
%TO.C,C33*%
X147638748Y-98515000D02*
X148161252Y-98515000D01*
X147638748Y-99985000D02*
X148161252Y-99985000D01*
%TO.C,Q2*%
X110900000Y-128740000D02*
X110250000Y-128740000D01*
X110900000Y-128740000D02*
X111550000Y-128740000D01*
X110900000Y-131860000D02*
X110250000Y-131860000D01*
X110900000Y-131860000D02*
X111550000Y-131860000D01*
X112302500Y-132140000D02*
X111822500Y-132140000D01*
X112062500Y-131810000D01*
X112302500Y-132140000D01*
G36*
X112302500Y-132140000D02*
G01*
X111822500Y-132140000D01*
X112062500Y-131810000D01*
X112302500Y-132140000D01*
G37*
%TO.C,R5*%
X192472936Y-54965000D02*
X192927064Y-54965000D01*
X192472936Y-56435000D02*
X192927064Y-56435000D01*
%TO.C,C20*%
X107265000Y-64261252D02*
X107265000Y-63738748D01*
X108735000Y-64261252D02*
X108735000Y-63738748D01*
%TO.C,C21*%
X121988748Y-70090000D02*
X122511252Y-70090000D01*
X121988748Y-71560000D02*
X122511252Y-71560000D01*
%TO.C,R38*%
X155665000Y-89272936D02*
X155665000Y-89727064D01*
X157135000Y-89272936D02*
X157135000Y-89727064D01*
%TO.C,C1*%
X164546252Y-140615000D02*
X164023748Y-140615000D01*
X164546252Y-142085000D02*
X164023748Y-142085000D01*
%TO.C,Q1*%
X188937500Y-125390000D02*
X188287500Y-125390000D01*
X188937500Y-125390000D02*
X189587500Y-125390000D01*
X188937500Y-128510000D02*
X188287500Y-128510000D01*
X188937500Y-128510000D02*
X189587500Y-128510000D01*
X187775000Y-125440000D02*
X187535000Y-125110000D01*
X188015000Y-125110000D01*
X187775000Y-125440000D01*
G36*
X187775000Y-125440000D02*
G01*
X187535000Y-125110000D01*
X188015000Y-125110000D01*
X187775000Y-125440000D01*
G37*
%TO.C,C28*%
X117265000Y-57661252D02*
X117265000Y-57138748D01*
X118735000Y-57661252D02*
X118735000Y-57138748D01*
D13*
%TO.C,SW1*%
X123050000Y-50350000D02*
X127550000Y-50350000D01*
X123050000Y-54850000D02*
X123050000Y-50350000D01*
X127550000Y-50350000D02*
X127550000Y-54850000D01*
X127550000Y-54850000D02*
X123050000Y-54850000D01*
D14*
X120400000Y-54100000D02*
G75*
G02*
X120200000Y-54100000I-100000J0D01*
G01*
X120200000Y-54100000D02*
G75*
G02*
X120400000Y-54100000I100000J0D01*
G01*
D15*
%TO.C,R9*%
X127477064Y-84265000D02*
X127022936Y-84265000D01*
X127477064Y-85735000D02*
X127022936Y-85735000D01*
%TO.C,BMI160*%
D11*
X190160000Y-89880000D02*
X169840000Y-89880000D01*
X169840000Y-105120000D01*
X190160000Y-105120000D01*
X190160000Y-89880000D01*
D15*
%TO.C,R19*%
X107265000Y-74227064D02*
X107265000Y-73772936D01*
X108735000Y-74227064D02*
X108735000Y-73772936D01*
%TO.C,R1*%
X156372936Y-93915000D02*
X156827064Y-93915000D01*
X156372936Y-95385000D02*
X156827064Y-95385000D01*
%TO.C,C26*%
X110601248Y-123465000D02*
X111123752Y-123465000D01*
X110601248Y-124935000D02*
X111123752Y-124935000D01*
D13*
%TO.C,SW2*%
X182450000Y-50350000D02*
X186950000Y-50350000D01*
X182450000Y-54850000D02*
X182450000Y-50350000D01*
X186950000Y-50350000D02*
X186950000Y-54850000D01*
X186950000Y-54850000D02*
X182450000Y-54850000D01*
D14*
X189800000Y-51100000D02*
G75*
G02*
X189600000Y-51100000I-100000J0D01*
G01*
X189600000Y-51100000D02*
G75*
G02*
X189800000Y-51100000I100000J0D01*
G01*
D15*
%TO.C,R10*%
X127477064Y-77265000D02*
X127022936Y-77265000D01*
X127477064Y-78735000D02*
X127022936Y-78735000D01*
%TO.C,Q6*%
X102340000Y-69000000D02*
X102340000Y-68350000D01*
X102340000Y-69000000D02*
X102340000Y-69650000D01*
X105460000Y-69000000D02*
X105460000Y-68350000D01*
X105460000Y-69000000D02*
X105460000Y-69650000D01*
X102390000Y-70162500D02*
X102060000Y-70402500D01*
X102060000Y-69922500D01*
X102390000Y-70162500D01*
G36*
X102390000Y-70162500D02*
G01*
X102060000Y-70402500D01*
X102060000Y-69922500D01*
X102390000Y-70162500D01*
G37*
%TO.C,U14*%
X145490000Y-90290000D02*
X146750000Y-90290000D01*
X145490000Y-94050000D02*
X145490000Y-90290000D01*
X152310000Y-90290000D02*
X151050000Y-90290000D01*
X152310000Y-94050000D02*
X152310000Y-90290000D01*
X145590000Y-95330000D02*
X145260000Y-95570000D01*
X145260000Y-95090000D01*
X145590000Y-95330000D01*
G36*
X145590000Y-95330000D02*
G01*
X145260000Y-95570000D01*
X145260000Y-95090000D01*
X145590000Y-95330000D01*
G37*
%TO.C,R36*%
X187765000Y-82027064D02*
X187765000Y-81572936D01*
X189235000Y-82027064D02*
X189235000Y-81572936D01*
%TO.C,J10*%
X152890000Y-136590000D02*
X152890000Y-139090000D01*
X153190000Y-136890000D02*
X153190000Y-149610000D01*
X153190000Y-149610000D02*
X157210000Y-149610000D01*
X154690000Y-136890000D02*
X154690000Y-137890000D01*
X154690000Y-137890000D02*
X153190000Y-137890000D01*
X154690000Y-148610000D02*
X153190000Y-148610000D01*
X154690000Y-149610000D02*
X154690000Y-148610000D01*
X155390000Y-136590000D02*
X152890000Y-136590000D01*
X155500000Y-136890000D02*
X155500000Y-137390000D01*
X155500000Y-137390000D02*
X156710000Y-137390000D01*
X155500000Y-149110000D02*
X155500000Y-149610000D01*
X156710000Y-137390000D02*
X156710000Y-149110000D01*
X156710000Y-149110000D02*
X155500000Y-149110000D01*
X157210000Y-136890000D02*
X153190000Y-136890000D01*
X157210000Y-149610000D02*
X157210000Y-136890000D01*
%TO.C,C8*%
X138865000Y-58623752D02*
X138865000Y-58101248D01*
X140335000Y-58623752D02*
X140335000Y-58101248D01*
%TO.C,D5*%
X117225000Y-81210000D02*
X120085000Y-81210000D01*
X120085000Y-79290000D02*
X117225000Y-79290000D01*
X120085000Y-81210000D02*
X120085000Y-79290000D01*
%TO.C,C10*%
X126738748Y-59265000D02*
X127261252Y-59265000D01*
X126738748Y-60735000D02*
X127261252Y-60735000D01*
%TO.C,R26*%
X144127064Y-76765000D02*
X143672936Y-76765000D01*
X144127064Y-78235000D02*
X143672936Y-78235000D01*
%TO.C,STP_UP2*%
D11*
X104750000Y-133450000D02*
X128250000Y-133450000D01*
X128250000Y-149950000D01*
X104750000Y-149950000D01*
X104750000Y-133450000D01*
D15*
%TO.C,C3*%
X117340000Y-66298752D02*
X117340000Y-65776248D01*
X118810000Y-66298752D02*
X118810000Y-65776248D01*
D14*
%TO.C,J2*%
X183050000Y-65100000D02*
X183050000Y-65100000D01*
X183050000Y-65100000D02*
X183050000Y-65100000D01*
X183150000Y-65100000D02*
X183150000Y-65100000D01*
D11*
X184900000Y-61850000D02*
X184900000Y-61850000D01*
X184900000Y-61850000D02*
X184900000Y-64100000D01*
X184900000Y-64100000D02*
X184900000Y-61850000D01*
X184900000Y-64100000D02*
X184900000Y-64100000D01*
X186650000Y-60000000D02*
X186650000Y-60000000D01*
X186650000Y-60000000D02*
X193400000Y-60000000D01*
X186650000Y-74700000D02*
X186650000Y-74700000D01*
X186650000Y-74700000D02*
X193400000Y-74700000D01*
X193400000Y-60000000D02*
X186650000Y-60000000D01*
X193400000Y-60000000D02*
X193400000Y-60000000D01*
X193400000Y-74700000D02*
X186650000Y-74700000D01*
X193400000Y-74700000D02*
X193400000Y-74700000D01*
X196650000Y-60000000D02*
X196650000Y-60000000D01*
X196650000Y-60000000D02*
X199400000Y-60000000D01*
X196650000Y-74700000D02*
X196650000Y-74700000D01*
X196650000Y-74700000D02*
X199400000Y-74700000D01*
X199400000Y-60000000D02*
X196650000Y-60000000D01*
X199400000Y-60000000D02*
X199400000Y-60000000D01*
X199400000Y-60000000D02*
X199400000Y-60000000D01*
X199400000Y-60000000D02*
X199400000Y-74700000D01*
X199400000Y-74700000D02*
X196650000Y-74700000D01*
X199400000Y-74700000D02*
X199400000Y-60000000D01*
X199400000Y-74700000D02*
X199400000Y-74700000D01*
X199400000Y-74700000D02*
X199400000Y-74700000D01*
D14*
X183050000Y-65100000D02*
G75*
G02*
X183150000Y-65100000I50000J0D01*
G01*
X183150000Y-65100000D02*
G75*
G02*
X183050000Y-65100000I-50000J0D01*
G01*
X183150000Y-65100000D02*
G75*
G02*
X183050000Y-65100000I-50000J0D01*
G01*
D15*
%TO.C,R20*%
X107265000Y-68772936D02*
X107265000Y-69227064D01*
X108735000Y-68772936D02*
X108735000Y-69227064D01*
%TO.C,D4*%
X102040000Y-83000000D02*
X102040000Y-85860000D01*
X102040000Y-85860000D02*
X103960000Y-85860000D01*
X103960000Y-85860000D02*
X103960000Y-83000000D01*
%TO.C,C35*%
X127538748Y-98065000D02*
X128061252Y-98065000D01*
X127538748Y-99535000D02*
X128061252Y-99535000D01*
%TO.C,C15*%
X194765000Y-86738748D02*
X194765000Y-87261252D01*
X196235000Y-86738748D02*
X196235000Y-87261252D01*
%TO.C,C16*%
X191265000Y-86701248D02*
X191265000Y-87223752D01*
X192735000Y-86701248D02*
X192735000Y-87223752D01*
%TO.C,U1*%
X145800000Y-50100000D02*
X145800000Y-56300000D01*
X145800000Y-50100000D02*
X164200000Y-50100000D01*
X145800000Y-74950000D02*
X145800000Y-75950000D01*
X145800000Y-75950000D02*
X147300000Y-75950000D01*
X164200000Y-50100000D02*
X164200000Y-56300000D01*
X164200000Y-75950000D02*
X162700000Y-75950000D01*
X164200000Y-75950000D02*
X164200000Y-74950000D01*
X145800000Y-56975000D02*
X145300000Y-56975000D01*
X145800000Y-56475000D01*
X145800000Y-56975000D01*
G36*
X145800000Y-56975000D02*
G01*
X145300000Y-56975000D01*
X145800000Y-56475000D01*
X145800000Y-56975000D01*
G37*
%TO.C,C18*%
X117265000Y-52502248D02*
X117265000Y-53024752D01*
X118735000Y-52502248D02*
X118735000Y-53024752D01*
%TO.C,J4*%
X142790000Y-126390000D02*
X142790000Y-139110000D01*
X142790000Y-139110000D02*
X146810000Y-139110000D01*
X143290000Y-126890000D02*
X144500000Y-126890000D01*
X143290000Y-138610000D02*
X143290000Y-126890000D01*
X144500000Y-126890000D02*
X144500000Y-126390000D01*
X144500000Y-138610000D02*
X143290000Y-138610000D01*
X144500000Y-139110000D02*
X144500000Y-138610000D01*
X144610000Y-139410000D02*
X147110000Y-139410000D01*
X145310000Y-126390000D02*
X145310000Y-127390000D01*
X145310000Y-127390000D02*
X146810000Y-127390000D01*
X145310000Y-138110000D02*
X146810000Y-138110000D01*
X145310000Y-139110000D02*
X145310000Y-138110000D01*
X146810000Y-126390000D02*
X142790000Y-126390000D01*
X146810000Y-139110000D02*
X146810000Y-126390000D01*
X147110000Y-139410000D02*
X147110000Y-136910000D01*
%TO.C,BMS1*%
D11*
X116100000Y-103000000D02*
X164500000Y-103000000D01*
X164500000Y-123000000D01*
X116100000Y-123000000D01*
X116100000Y-103000000D01*
D15*
%TO.C,U9*%
X159455000Y-89190000D02*
X159670000Y-89190000D01*
X159455000Y-91500000D02*
X159455000Y-89190000D01*
X159455000Y-91500000D02*
X159455000Y-93810000D01*
X159455000Y-93810000D02*
X159670000Y-93810000D01*
X162275000Y-89190000D02*
X162060000Y-89190000D01*
X162275000Y-91500000D02*
X162275000Y-89190000D01*
X162275000Y-91500000D02*
X162275000Y-93810000D01*
X162275000Y-93810000D02*
X162060000Y-93810000D01*
X159670000Y-94575000D02*
X159340000Y-94815000D01*
X159340000Y-94335000D01*
X159670000Y-94575000D01*
G36*
X159670000Y-94575000D02*
G01*
X159340000Y-94815000D01*
X159340000Y-94335000D01*
X159670000Y-94575000D01*
G37*
%TO.C,C22*%
X111265000Y-69261252D02*
X111265000Y-68738748D01*
X112735000Y-69261252D02*
X112735000Y-68738748D01*
D13*
%TO.C,U5*%
X114250000Y-73075000D02*
X114250000Y-73355000D01*
X114250000Y-76795000D02*
X114250000Y-77075000D01*
X114250000Y-77075000D02*
X114530000Y-77075000D01*
X114530000Y-73075000D02*
X114250000Y-73075000D01*
X118250000Y-73075000D02*
X117970000Y-73075000D01*
X118250000Y-73355000D02*
X118250000Y-73075000D01*
X118250000Y-77075000D02*
X117970000Y-77075000D01*
X118250000Y-77075000D02*
X118250000Y-76795000D01*
D14*
X115100000Y-78375000D02*
G75*
G02*
X114900000Y-78375000I-100000J0D01*
G01*
X114900000Y-78375000D02*
G75*
G02*
X115100000Y-78375000I100000J0D01*
G01*
D15*
%TO.C,R28*%
X164765000Y-84172936D02*
X164765000Y-84627064D01*
X166235000Y-84172936D02*
X166235000Y-84627064D01*
%TO.C,R14*%
X132077064Y-84265000D02*
X131622936Y-84265000D01*
X132077064Y-85735000D02*
X131622936Y-85735000D01*
%TO.C,J9*%
X174070000Y-57090000D02*
X175400000Y-57090000D01*
X174070000Y-58420000D02*
X174070000Y-57090000D01*
X174070000Y-59690000D02*
X174070000Y-74990000D01*
X174070000Y-59690000D02*
X176670000Y-59690000D01*
X174070000Y-74990000D02*
X179270000Y-74990000D01*
X176670000Y-57090000D02*
X179270000Y-57090000D01*
X176670000Y-59690000D02*
X176670000Y-57090000D01*
X179270000Y-57090000D02*
X179270000Y-74990000D01*
D13*
%TO.C,U2*%
X138300000Y-138225000D02*
X134400000Y-138225000D01*
X138300000Y-143275000D02*
X134400000Y-143275000D01*
D14*
X140520000Y-142655000D02*
G75*
G02*
X140320000Y-142655000I-100000J0D01*
G01*
X140320000Y-142655000D02*
G75*
G02*
X140520000Y-142655000I100000J0D01*
G01*
D15*
%TO.C,R24*%
X112227064Y-53065000D02*
X111772936Y-53065000D01*
X112227064Y-54535000D02*
X111772936Y-54535000D01*
%TO.C,J7*%
X130570000Y-57130000D02*
X131900000Y-57130000D01*
X130570000Y-58460000D02*
X130570000Y-57130000D01*
X130570000Y-59730000D02*
X130570000Y-75030000D01*
X130570000Y-59730000D02*
X133170000Y-59730000D01*
X130570000Y-75030000D02*
X135770000Y-75030000D01*
X133170000Y-57130000D02*
X135770000Y-57130000D01*
X133170000Y-59730000D02*
X133170000Y-57130000D01*
X135770000Y-57130000D02*
X135770000Y-75030000D01*
%TO.C,U13*%
X125390000Y-89890000D02*
X126650000Y-89890000D01*
X125390000Y-93650000D02*
X125390000Y-89890000D01*
X132210000Y-89890000D02*
X130950000Y-89890000D01*
X132210000Y-93650000D02*
X132210000Y-89890000D01*
X125490000Y-94930000D02*
X125160000Y-95170000D01*
X125160000Y-94690000D01*
X125490000Y-94930000D01*
G36*
X125490000Y-94930000D02*
G01*
X125160000Y-95170000D01*
X125160000Y-94690000D01*
X125490000Y-94930000D01*
G37*
%TO.C,C27*%
X110601248Y-126765000D02*
X111123752Y-126765000D01*
X110601248Y-128235000D02*
X111123752Y-128235000D01*
%TO.C,R7*%
X127477064Y-80765000D02*
X127022936Y-80765000D01*
X127477064Y-82235000D02*
X127022936Y-82235000D01*
%TO.C,R30*%
X180765000Y-82027064D02*
X180765000Y-81572936D01*
X182235000Y-82027064D02*
X182235000Y-81572936D01*
%TO.C,C34*%
X132861252Y-98065000D02*
X132338748Y-98065000D01*
X132861252Y-99535000D02*
X132338748Y-99535000D01*
%TO.C,C13*%
X187561252Y-55565000D02*
X187038748Y-55565000D01*
X187561252Y-57035000D02*
X187038748Y-57035000D01*
%TO.C,C12*%
X127261252Y-62265000D02*
X126738748Y-62265000D01*
X127261252Y-63735000D02*
X126738748Y-63735000D01*
%TO.C,R16*%
X120265000Y-66264564D02*
X120265000Y-65810436D01*
X121735000Y-66264564D02*
X121735000Y-65810436D01*
%TO.C,MPU6050*%
D11*
X168800000Y-105880000D02*
X191660000Y-105880000D01*
X191660000Y-121120000D01*
X168800000Y-121120000D01*
X168800000Y-105880000D01*
D15*
%TO.C,C19*%
X107265000Y-78738748D02*
X107265000Y-79261252D01*
X108735000Y-78738748D02*
X108735000Y-79261252D01*
%TO.C,R4*%
X192472936Y-51565000D02*
X192927064Y-51565000D01*
X192472936Y-53035000D02*
X192927064Y-53035000D01*
%TO.C,J3*%
X142790000Y-141890000D02*
X142790000Y-149610000D01*
X142790000Y-149610000D02*
X146810000Y-149610000D01*
X143290000Y-142390000D02*
X144500000Y-142390000D01*
X143290000Y-149110000D02*
X143290000Y-142390000D01*
X144500000Y-142390000D02*
X144500000Y-141890000D01*
X144500000Y-149110000D02*
X143290000Y-149110000D01*
X144500000Y-149610000D02*
X144500000Y-149110000D01*
X144610000Y-149910000D02*
X147110000Y-149910000D01*
X145310000Y-141890000D02*
X145310000Y-142890000D01*
X145310000Y-142890000D02*
X146810000Y-142890000D01*
X145310000Y-148610000D02*
X146810000Y-148610000D01*
X145310000Y-149610000D02*
X145310000Y-148610000D01*
X146810000Y-141890000D02*
X142790000Y-141890000D01*
X146810000Y-149610000D02*
X146810000Y-141890000D01*
X147110000Y-149910000D02*
X147110000Y-147410000D01*
D14*
%TO.C,J1*%
X100400000Y-50880000D02*
X100400000Y-59820000D01*
X100400000Y-59820000D02*
X100800000Y-59820000D01*
X100800000Y-50880000D02*
X100400000Y-50880000D01*
X105100000Y-50880000D02*
X104200000Y-50880000D01*
X105100000Y-59820000D02*
X104200000Y-59820000D01*
X108300000Y-52050000D02*
G75*
G02*
X108100000Y-52050000I-100000J0D01*
G01*
X108100000Y-52050000D02*
G75*
G02*
X108300000Y-52050000I100000J0D01*
G01*
D15*
%TO.C,R21*%
X115960436Y-82765000D02*
X116414564Y-82765000D01*
X115960436Y-84235000D02*
X116414564Y-84235000D01*
%TO.C,C31*%
X152461252Y-98515000D02*
X151938748Y-98515000D01*
X152461252Y-99985000D02*
X151938748Y-99985000D01*
%TO.C,R11*%
X132077064Y-80765000D02*
X131622936Y-80765000D01*
X132077064Y-82235000D02*
X131622936Y-82235000D01*
%TO.C,R39*%
X198065000Y-82027064D02*
X198065000Y-81572936D01*
X199535000Y-82027064D02*
X199535000Y-81572936D01*
%TO.C,C2*%
X134438748Y-133265000D02*
X134961252Y-133265000D01*
X134438748Y-134735000D02*
X134961252Y-134735000D01*
%TO.C,J11*%
X147350000Y-80570000D02*
X162710000Y-80570000D01*
X147350000Y-83170000D02*
X147350000Y-80570000D01*
X147350000Y-85770000D02*
X147350000Y-84440000D01*
X148680000Y-85770000D02*
X147350000Y-85770000D01*
X149950000Y-83170000D02*
X147350000Y-83170000D01*
X149950000Y-85770000D02*
X149950000Y-83170000D01*
X149950000Y-85770000D02*
X162710000Y-85770000D01*
X162710000Y-85770000D02*
X162710000Y-80570000D01*
%TO.C,C23*%
X164546252Y-138015000D02*
X164023748Y-138015000D01*
X164546252Y-139485000D02*
X164023748Y-139485000D01*
%TO.C,R15*%
X132077064Y-77265000D02*
X131622936Y-77265000D01*
X132077064Y-78735000D02*
X131622936Y-78735000D01*
%TO.C,R12*%
X111772936Y-50665000D02*
X112227064Y-50665000D01*
X111772936Y-52135000D02*
X112227064Y-52135000D01*
%TO.C,R34*%
X194765000Y-82027064D02*
X194765000Y-81572936D01*
X196235000Y-82027064D02*
X196235000Y-81572936D01*
%TO.C,J8*%
X152690000Y-126090000D02*
X152690000Y-128590000D01*
X152990000Y-126390000D02*
X152990000Y-134110000D01*
X152990000Y-134110000D02*
X157010000Y-134110000D01*
X154490000Y-126390000D02*
X154490000Y-127390000D01*
X154490000Y-127390000D02*
X152990000Y-127390000D01*
X154490000Y-133110000D02*
X152990000Y-133110000D01*
X154490000Y-134110000D02*
X154490000Y-133110000D01*
X155190000Y-126090000D02*
X152690000Y-126090000D01*
X155300000Y-126390000D02*
X155300000Y-126890000D01*
X155300000Y-126890000D02*
X156510000Y-126890000D01*
X155300000Y-133610000D02*
X155300000Y-134110000D01*
X156510000Y-126890000D02*
X156510000Y-133610000D01*
X156510000Y-133610000D02*
X155300000Y-133610000D01*
X157010000Y-126390000D02*
X152990000Y-126390000D01*
X157010000Y-134110000D02*
X157010000Y-126390000D01*
%TO.C,C17*%
X167465000Y-125298752D02*
X167465000Y-124776248D01*
X168935000Y-125298752D02*
X168935000Y-124776248D01*
%TO.C,R29*%
X122022936Y-73090000D02*
X122477064Y-73090000D01*
X122022936Y-74560000D02*
X122477064Y-74560000D01*
%TO.C,R37*%
X184265000Y-82027064D02*
X184265000Y-81572936D01*
X185735000Y-82027064D02*
X185735000Y-81572936D01*
%TO.C,Q5*%
X103962500Y-72440000D02*
X103312500Y-72440000D01*
X103962500Y-72440000D02*
X104612500Y-72440000D01*
X103962500Y-75560000D02*
X103312500Y-75560000D01*
X103962500Y-75560000D02*
X104612500Y-75560000D01*
X102800000Y-72490000D02*
X102560000Y-72160000D01*
X103040000Y-72160000D01*
X102800000Y-72490000D01*
G36*
X102800000Y-72490000D02*
G01*
X102560000Y-72160000D01*
X103040000Y-72160000D01*
X102800000Y-72490000D01*
G37*
%TO.C,R8*%
X173765000Y-82027064D02*
X173765000Y-81572936D01*
X175235000Y-82027064D02*
X175235000Y-81572936D01*
%TO.C,R31*%
X115977064Y-61365000D02*
X115522936Y-61365000D01*
X115977064Y-62835000D02*
X115522936Y-62835000D01*
%TD*%
M02*
