%TF.GenerationSoftware,KiCad,Pcbnew,9.0.0-9.0.0-2~ubuntu24.04.1*%
%TF.CreationDate,2025-04-02T08:01:24+02:00*%
%TF.ProjectId,1_robot,315f726f-626f-4742-9e6b-696361645f70,rev?*%
%TF.SameCoordinates,Original*%
%TF.FileFunction,Soldermask,Bot*%
%TF.FilePolarity,Negative*%
%FSLAX46Y46*%
G04 Gerber Fmt 4.6, Leading zero omitted, Abs format (unit mm)*
G04 Created by KiCad (PCBNEW 9.0.0-9.0.0-2~ubuntu24.04.1) date 2025-04-02 08:01:24*
%MOMM*%
%LPD*%
G01*
G04 APERTURE LIST*
G04 Aperture macros list*
%AMRoundRect*
0 Rectangle with rounded corners*
0 $1 Rounding radius*
0 $2 $3 $4 $5 $6 $7 $8 $9 X,Y pos of 4 corners*
0 Add a 4 corners polygon primitive as box body*
4,1,4,$2,$3,$4,$5,$6,$7,$8,$9,$2,$3,0*
0 Add four circle primitives for the rounded corners*
1,1,$1+$1,$2,$3*
1,1,$1+$1,$4,$5*
1,1,$1+$1,$6,$7*
1,1,$1+$1,$8,$9*
0 Add four rect primitives between the rounded corners*
20,1,$1+$1,$2,$3,$4,$5,0*
20,1,$1+$1,$4,$5,$6,$7,0*
20,1,$1+$1,$6,$7,$8,$9,0*
20,1,$1+$1,$8,$9,$2,$3,0*%
G04 Aperture macros list end*
%ADD10C,0.300000*%
%ADD11RoundRect,0.250000X-0.725000X0.600000X-0.725000X-0.600000X0.725000X-0.600000X0.725000X0.600000X0*%
%ADD12O,1.950000X1.700000*%
%ADD13C,1.000000*%
%ADD14RoundRect,0.250000X0.725000X-0.600000X0.725000X0.600000X-0.725000X0.600000X-0.725000X-0.600000X0*%
%ADD15R,1.700000X1.700000*%
%ADD16O,1.700000X1.700000*%
%ADD17RoundRect,0.250000X0.750000X-0.600000X0.750000X0.600000X-0.750000X0.600000X-0.750000X-0.600000X0*%
%ADD18O,2.000000X1.700000*%
%ADD19O,1.800000X1.000000*%
%ADD20RoundRect,0.250000X-0.750000X0.600000X-0.750000X-0.600000X0.750000X-0.600000X0.750000X0.600000X0*%
%ADD21C,3.450000*%
%ADD22C,3.170000*%
%ADD23C,2.390000*%
%ADD24R,7.340000X6.350000*%
G04 APERTURE END LIST*
D10*
%TO.C,U3*%
X161985000Y-132600000D03*
X163285000Y-132600000D03*
X161985000Y-133900000D03*
X163285000Y-133900000D03*
X161985000Y-135200000D03*
X163285000Y-135200000D03*
X161985000Y-136500000D03*
X163285000Y-136500000D03*
%TD*%
D11*
%TO.C,J10*%
X155500000Y-139500000D03*
D12*
X155500000Y-142000000D03*
X155500000Y-144500000D03*
X155500000Y-147000000D03*
%TD*%
D13*
%TO.C,J2*%
X195400000Y-72300000D03*
X195400000Y-64300000D03*
%TD*%
D14*
%TO.C,J4*%
X144500000Y-136500000D03*
D12*
X144500000Y-134000000D03*
X144500000Y-131500000D03*
X144500000Y-129000000D03*
%TD*%
D15*
%TO.C,J9*%
X175400000Y-58420000D03*
D16*
X177940000Y-58420000D03*
X175400000Y-60960000D03*
X177940000Y-60960000D03*
X175400000Y-63500000D03*
X177940000Y-63500000D03*
X175400000Y-66040000D03*
X177940000Y-66040000D03*
X175400000Y-68580000D03*
X177940000Y-68580000D03*
X175400000Y-71120000D03*
X177940000Y-71120000D03*
X175400000Y-73660000D03*
X177940000Y-73660000D03*
%TD*%
D10*
%TO.C,U2*%
X137000000Y-142700000D03*
X135700000Y-142700000D03*
X137000000Y-141400000D03*
X135700000Y-141400000D03*
X137000000Y-140100000D03*
X135700000Y-140100000D03*
X137000000Y-138800000D03*
X135700000Y-138800000D03*
%TD*%
D15*
%TO.C,J7*%
X131900000Y-58460000D03*
D16*
X134440000Y-58460000D03*
X131900000Y-61000000D03*
X134440000Y-61000000D03*
X131900000Y-63540000D03*
X134440000Y-63540000D03*
X131900000Y-66080000D03*
X134440000Y-66080000D03*
X131900000Y-68620000D03*
X134440000Y-68620000D03*
X131900000Y-71160000D03*
X134440000Y-71160000D03*
X131900000Y-73700000D03*
X134440000Y-73700000D03*
%TD*%
D17*
%TO.C,J3*%
X144500000Y-147000000D03*
D18*
X144500000Y-144500000D03*
%TD*%
D19*
%TO.C,J1*%
X106500000Y-51030000D03*
X106500000Y-59670000D03*
%TD*%
D15*
%TO.C,J11*%
X148680000Y-84440000D03*
D16*
X148680000Y-81900000D03*
X151220000Y-84440000D03*
X151220000Y-81900000D03*
X153760000Y-84440000D03*
X153760000Y-81900000D03*
X156300000Y-84440000D03*
X156300000Y-81900000D03*
X158840000Y-84440000D03*
X158840000Y-81900000D03*
X161380000Y-84440000D03*
X161380000Y-81900000D03*
%TD*%
D20*
%TO.C,J8*%
X155300000Y-129000000D03*
D18*
X155300000Y-131500000D03*
%TD*%
D21*
%TO.C,BT1*%
X122300000Y-88095000D03*
D22*
X122300000Y-105600000D03*
X177500000Y-105600000D03*
D21*
X177500000Y-123105000D03*
D23*
X185720000Y-88095000D03*
D24*
X189230000Y-115155000D03*
X110570000Y-96045000D03*
X110570000Y-115155000D03*
X189230000Y-96045000D03*
%TD*%
M02*
